<svg width="19" height="21" viewBox="0 0 19 21" fill="none" xmlns="http://www.w3.org/2000/svg">
<path d="M17.5949 16.1249L4.03857 1.50719C3.28862 0.698523 2.08056 0.690062 1.34029 1.48829C0.600016 2.28652 0.607863 3.58917 1.35781 4.39783L14.9141 19.0156C15.6641 19.8242 16.8722 19.8327 17.6124 19.0345C18.3527 18.2362 18.3448 16.9336 17.5949 16.1249Z" fill="#A13F22"/>
<path d="M14.9142 1.50692L1.3579 16.1246C0.607954 16.9333 0.600108 18.236 1.34038 19.0342C2.08065 19.8324 3.28871 19.824 4.03866 19.0153L17.595 4.39757C18.3449 3.5889 18.3528 2.28625 17.6125 1.48802C16.8722 0.689795 15.6642 0.698258 14.9142 1.50692Z" fill="#A13F22"/>
</svg>
