<svg width="22" height="22" viewBox="0 0 22 22" fill="none" xmlns="http://www.w3.org/2000/svg">
<path d="M19.8787 16.8504L4.5625 1.53418C3.7152 0.686877 2.35031 0.678012 1.51394 1.51438C0.677568 2.35075 0.686433 3.71564 1.53374 4.56295L16.8499 19.8791C17.6972 20.7264 19.0621 20.7353 19.8985 19.8989C20.7349 19.0626 20.726 17.6977 19.8787 16.8504Z" fill="#FEF4EB"/>
<path d="M16.8504 1.5344L1.53418 16.8506C0.686877 17.6979 0.678012 19.0628 1.51438 19.8991C2.35075 20.7355 3.71564 20.7267 4.56295 19.8793L19.8791 4.56317C20.7264 3.71586 20.7353 2.35097 19.8989 1.5146C19.0626 0.678232 17.6977 0.687098 16.8504 1.5344Z" fill="#FEF4EB"/>
</svg>
