<svg width="12" height="7" viewBox="0 0 12 7" fill="none" xmlns="http://www.w3.org/2000/svg">
<path d="M1.02963e-08 6.13657C7.66803e-09 6.35697 0.0934629 6.57738 0.280391 6.73978C0.634567 7.04603 1.18551 7.02515 1.51017 6.69338L5.97674 2.03238L10.4925 6.73514C10.8172 7.06923 11.3681 7.09011 11.7198 6.78154C12.074 6.47298 12.0937 5.9556 11.7715 5.62151L6.61623 0.264487C6.45144 0.0974426 6.22024 -6.8923e-08 5.97674 -7.18266e-08C5.73325 -7.47303e-08 5.50205 0.0974425 5.33726 0.264487L0.2312 5.57975C0.0787068 5.73752 1.26757e-08 5.93704 1.02963e-08 6.13657Z" fill="#A13F22"/>
</svg>
