<svg width="79" height="79" viewBox="0 0 79 79" fill="none" xmlns="http://www.w3.org/2000/svg">
<path d="M39.5 76C59.6584 76 76 59.6584 76 39.5C76 19.3416 59.6584 3 39.5 3C19.3416 3 3 19.3416 3 39.5C3 59.6584 19.3416 76 39.5 76Z" stroke="#A13F22" stroke-width="6" stroke-miterlimit="10"/>
<path d="M28.6848 34.0926C31.6712 34.0926 34.0922 31.6717 34.0922 28.6852C34.0922 25.6988 31.6712 23.2778 28.6848 23.2778C25.6983 23.2778 23.2773 25.6988 23.2773 28.6852C23.2773 31.6717 25.6983 34.0926 28.6848 34.0926Z" fill="#A13F22"/>
<path d="M50.3156 34.0926C53.302 34.0926 55.723 31.6717 55.723 28.6852C55.723 25.6988 53.302 23.2778 50.3156 23.2778C47.3292 23.2778 44.9082 25.6988 44.9082 28.6852C44.9082 31.6717 47.3292 34.0926 50.3156 34.0926Z" fill="#A13F22"/>
<path d="M25.9824 46.2593C28.4428 51.0719 33.4446 54.3704 39.2171 54.3704C44.9895 54.3704 49.9913 51.0719 52.4517 46.2593" stroke="#A13F22" stroke-width="6" stroke-linecap="round" stroke-linejoin="round"/>
</svg>
