<svg width="26" height="26" viewBox="0 0 26 26" fill="none" xmlns="http://www.w3.org/2000/svg">
<path d="M23.83 0H2.16966C0.971391 0 0 0.958854 0 2.14166C0 3.32447 0.971391 4.28332 2.16966 4.28332H23.83C25.0283 4.28332 25.9997 3.32447 25.9997 2.14166C25.9997 0.958854 25.0283 0 23.83 0Z" fill="#FEF4EB"/>
<path d="M23.83 10.7119H2.16966C0.971391 10.7119 0 11.6708 0 12.8536C0 14.0364 0.971391 14.9952 2.16966 14.9952H23.83C25.0283 14.9952 25.9997 14.0364 25.9997 12.8536C25.9997 11.6708 25.0283 10.7119 23.83 10.7119Z" fill="#FEF4EB"/>
<path d="M23.83 21.4238H2.16966C0.971391 21.4238 0 22.3827 0 23.5655C0 24.7483 0.971391 25.7071 2.16966 25.7071H23.83C25.0283 25.7071 25.9997 24.7483 25.9997 23.5655C25.9997 22.3827 25.0283 21.4238 23.83 21.4238Z" fill="#FEF4EB"/>
</svg>
