<svg xmlns="http://www.w3.org/2000/svg" width="277.193" height="196.642" viewBox="0 0 277.193 196.642"><defs><style>.a{fill:#fff;}</style></defs><g transform="translate(20776.99 8648.04)"><path class="a" d="M10.319-24.151V-6.392h4.64a8.21,8.21,0,0,0,3.44-.6,4.675,4.675,0,0,0,2-1.72,7.819,7.819,0,0,0,.88-2.76,26.536,26.536,0,0,0,.24-3.8,26.536,26.536,0,0,0-.24-3.8,7.6,7.6,0,0,0-.96-2.84q-1.52-2.24-5.759-2.24ZM2.16,25.125V-31.83H15.279q14.4,0,14.4,16.719a21.069,21.069,0,0,1-1.56,8.559,12.1,12.1,0,0,1-5.48,5.679l8.8,26H22.8L15.2.807h-4.88V25.125Zm34.077,0V-31.83H73v7.679H44.4V-7.432H70.918V.247H44.4V16.966H73v8.159Zm41.721,0V-31.83H85.8L98.116,2.487h.16V-31.83h8.159V25.125H98.756L86.277-9.112h-.16V25.125Zm35.837,0V-31.83h24.318v7.679H121.954V-7.432h14.079V.247H121.954V16.966h16.159v8.159Zm29.117-43.516a14.552,14.552,0,0,1,1.2-6.079,12.847,12.847,0,0,1,3.2-4.4,13.527,13.527,0,0,1,4.36-2.56,14.408,14.408,0,0,1,4.92-.88,14.408,14.408,0,0,1,4.92.88,14.5,14.5,0,0,1,4.44,2.56,13.394,13.394,0,0,1,3.12,4.4,14.552,14.552,0,0,1,1.2,6.079v2.88H162.11v-2.88a5.423,5.423,0,0,0-1.64-4.36,5.784,5.784,0,0,0-3.88-1.4,5.784,5.784,0,0,0-3.88,1.4,5.423,5.423,0,0,0-1.64,4.36V11.686a5.423,5.423,0,0,0,1.64,4.36,6.076,6.076,0,0,0,7.759,0,5.423,5.423,0,0,0,1.64-4.36V.967h-6.479v-7.2h14.639V11.686a14.42,14.42,0,0,1-1.2,6.159,12.707,12.707,0,0,1-3.12,4.24,13.717,13.717,0,0,1-4.44,2.64,14.192,14.192,0,0,1-9.839,0,12.835,12.835,0,0,1-4.36-2.64,12.212,12.212,0,0,1-3.2-4.24,14.419,14.419,0,0,1-1.2-6.159Zm51.035,23.6-4-20.638h-.16l-4,20.638ZM173.789,25.125,186.508-31.83h6.8l12.719,56.955h-8.159l-2.4-12.239H184.348l-2.4,12.239Zm36.237,0V-31.83h19.189q7.039,0,10.679,3.84t3.64,10.879V9.526q0,8-3.88,11.8t-11.159,3.8Zm8.159-49.276v41.6h10.87q3.44,0,4.88-1.72t1.44-5.4V-17.111a8.618,8.618,0,0,0-1.36-5.2q-1.36-1.84-4.96-1.84Zm33.028,49.276V-31.83h24.318v7.679H259.373V-7.432h14.079V.247H259.373V16.966h16.159v8.159Z" transform="translate(-20775.328 -8546.883)"/><path class="a" d="M23.568-32.04V11.476a13.708,13.708,0,0,1-3.68,9.759,13.644,13.644,0,0,1-4.36,3.04,14.366,14.366,0,0,1-5.879,1.12,11.575,11.575,0,0,1-6.519-1.72,21.671,21.671,0,0,1-4.12-3.4l6.4-5.12a8.168,8.168,0,0,0,2.04,1.48,5.24,5.24,0,0,0,2.44.6,6.114,6.114,0,0,0,1.68-.28,4.706,4.706,0,0,0,1.84-1.08,5.189,5.189,0,0,0,1.44-2.04,9.038,9.038,0,0,0,.56-3.48v-42.4Zm7.679,56.955V-32.04H87.562v7.679H39.406V-7.642H85.482V.037H39.406V16.756H87.562v8.159Zm61.595,0V-32.04h24.318v7.679H101V-7.642H115.08V.037H101V16.756h16.159v8.159Zm29.6,0V-32.04h12.239a18.194,18.194,0,0,1,5.919.88,11.357,11.357,0,0,1,4.64,3.12,12.2,12.2,0,0,1,2.88,5.24,32.768,32.768,0,0,1,.8,8.119,40.275,40.275,0,0,1-.44,6.479,13.547,13.547,0,0,1-1.88,4.96,11.91,11.91,0,0,1-4.48,4.36,15.076,15.076,0,0,1-7.359,1.56H130.6V24.915ZM130.6-24.361V-5h3.92a8.338,8.338,0,0,0,3.84-.72,4.53,4.53,0,0,0,2-2,7.31,7.31,0,0,0,.76-2.96q.12-1.76.12-3.92,0-2-.08-3.8a8.221,8.221,0,0,0-.72-3.16,4.543,4.543,0,0,0-1.92-2.08,7.621,7.621,0,0,0-3.68-.72Z" transform="translate(-20776 -8616)"/><g transform="translate(-20772.564 -8509.313)"><path class="a" d="M62.1,5l-4-20.638h-.16L53.939,5ZM41.94,24.915,54.659-32.04h6.8L74.177,24.915H66.018l-2.4-12.239H52.5L50.1,24.915Zm35.917,0V-32.04H85.7L98.015,2.277h.16V-32.04h8.159V24.915H98.655L86.176-9.322h-.16V24.915Z" transform="translate(65.499 32.041)"/><path class="a" d="M82.035-18.391a14.552,14.552,0,0,1,1.2-6.079,12.847,12.847,0,0,1,3.2-4.4,13.528,13.528,0,0,1,4.36-2.56,14.409,14.409,0,0,1,4.92-.88,14.409,14.409,0,0,1,4.92.88,14.5,14.5,0,0,1,4.44,2.56,13.4,13.4,0,0,1,3.12,4.4,14.552,14.552,0,0,1,1.2,6.079V11.686a14.42,14.42,0,0,1-1.2,6.159,12.707,12.707,0,0,1-3.12,4.24,13.717,13.717,0,0,1-4.44,2.64,14.192,14.192,0,0,1-9.839,0,12.835,12.835,0,0,1-4.36-2.64,12.212,12.212,0,0,1-3.2-4.24,14.419,14.419,0,0,1-1.2-6.159Zm8.159,30.077a5.423,5.423,0,0,0,1.64,4.36,6.076,6.076,0,0,0,7.759,0,5.423,5.423,0,0,0,1.64-4.36V-18.391a5.423,5.423,0,0,0-1.64-4.36,5.784,5.784,0,0,0-3.88-1.4,5.784,5.784,0,0,0-3.88,1.4,5.423,5.423,0,0,0-1.64,4.36Z" transform="translate(96.678 32.31)"/><path class="a" d="M24.886,57.912v0H11.929v0h0a11.587,11.587,0,0,1-5.847-1.478,11.633,11.633,0,0,1-3.84-3.56,16.915,16.915,0,0,1-1.08-1.84,8.276,8.276,0,0,1-.68-2.16,26.282,26.282,0,0,1-.36-3C.04,44.732,0,43.265,0,41.515c0-2.109.026-3.926.08-5.4A17.258,17.258,0,0,1,.56,32.4a7.555,7.555,0,0,1,1.24-2.64,12.145,12.145,0,0,1,2.28-2.24,15.339,15.339,0,0,1-2.28-2.28A7.3,7.3,0,0,1,.56,22.8a13.2,13.2,0,0,1-.48-3.12C.026,18.5,0,17.042,0,15.357c0-1.541.04-2.872.12-3.96a11.694,11.694,0,0,1,.52-2.84A11.55,11.55,0,0,1,1.6,6.4a18.674,18.674,0,0,1,1.36-2,11.061,11.061,0,0,1,4-3.24A11.776,11.776,0,0,1,11.929,0H24.886a11.776,11.776,0,0,1,4.969,1.158,11.045,11.045,0,0,1,4,3.24,18.674,18.674,0,0,1,1.36,2,11.55,11.55,0,0,1,.96,2.16,11.756,11.756,0,0,1,.52,2.84c.08,1.088.12,2.419.12,3.96,0,1.685-.027,3.139-.08,4.32a13.282,13.282,0,0,1-.48,3.12,7.328,7.328,0,0,1-1.24,2.44,15.339,15.339,0,0,1-2.28,2.28,12.1,12.1,0,0,1,2.28,2.24,7.555,7.555,0,0,1,1.24,2.64,17.36,17.36,0,0,1,.48,3.72c.053,1.473.08,3.289.08,5.4,0,1.75-.04,3.217-.12,4.36a26.649,26.649,0,0,1-.36,3,8.3,8.3,0,0,1-.68,2.16,16.916,16.916,0,0,1-1.08,1.84,11.388,11.388,0,0,1-9.687,5.038Zm0-8.164a3.929,3.929,0,0,0,2.569-1.153,3.816,3.816,0,0,0,1.2-2.84v-11.2a3.808,3.808,0,0,0-1.2-2.84,3.915,3.915,0,0,0-2.569-1.153H11.929a3.915,3.915,0,0,0-2.569,1.153,3.811,3.811,0,0,0-1.2,2.84v11.2a3.816,3.816,0,0,0,1.2,2.84,3.922,3.922,0,0,0,2.569,1.153Zm0-25.278a3.929,3.929,0,0,0,2.569-1.153,3.816,3.816,0,0,0,1.2-2.84V12.157a3.808,3.808,0,0,0-1.2-2.84,3.915,3.915,0,0,0-2.569-1.153H11.929A3.915,3.915,0,0,0,9.359,9.318a3.808,3.808,0,0,0-1.2,2.84v8.319a3.816,3.816,0,0,0,1.2,2.84,3.929,3.929,0,0,0,2.569,1.153Z" transform="translate(0 0.001)"/><path class="a" d="M33.188,57.912v0H12.283v0h0a13.467,13.467,0,0,1-4.519-.838,11.838,11.838,0,0,1-6.735-6.279A12.2,12.2,0,0,1,0,45.674V12.237a12.21,12.21,0,0,1,1.027-5.12A11.838,11.838,0,0,1,7.763.838,13.476,13.476,0,0,1,12.283,0H33.188a13.476,13.476,0,0,1,4.521.838,11.834,11.834,0,0,1,6.737,6.279,12.21,12.21,0,0,1,1.027,5.12V45.674a12.2,12.2,0,0,1-1.027,5.12,11.834,11.834,0,0,1-6.737,6.279,13.467,13.467,0,0,1-4.519.838Zm0-8.161a3.943,3.943,0,0,0,2.755-1.157,3.992,3.992,0,0,0,1.15-2.92V12.237a4,4,0,0,0-1.15-2.92,3.941,3.941,0,0,0-2.755-1.155H12.283A3.941,3.941,0,0,0,9.528,9.318a4,4,0,0,0-1.15,2.92V45.674a3.992,3.992,0,0,0,1.15,2.92,3.943,3.943,0,0,0,2.755,1.157Z" transform="translate(43.552 0.001)"/><path class="a" d="M14.087,57.915h-.168a14.612,14.612,0,0,1-5.52-1.04A13.209,13.209,0,0,1,4,54a14.12,14.12,0,0,1-2.92-4.28A13.06,13.06,0,0,1,0,44.4v-3.04H8.159v2.56a6.693,6.693,0,0,0,1.32,4.04c.875,1.193,2.369,1.8,4.44,1.8l30.389,0a7.008,7.008,0,0,0,3.07-.6,4.32,4.32,0,0,0,1.8-1.72,6.364,6.364,0,0,0,.76-2.68c.078-1.035.12-2.206.12-3.48a34.666,34.666,0,0,0-.16-3.68,6.374,6.374,0,0,0-.64-2.32,4.5,4.5,0,0,0-1.48-1.44,19.107,19.107,0,0,0-2.44-1.2l-1.03-.424-29.028,0c-.251.007-.548.009-.882,0h-.309v0l0,0-.035-.014a16.959,16.959,0,0,1-4.875-.939c-3.67-1.31-6.007-5.224-6.007-5.224l.013,0a8.861,8.861,0,0,1-.981-1.52A19.757,19.757,0,0,1,.4,15.6a20.759,20.759,0,0,1,.88-6.079A13.9,13.9,0,0,1,3.92,4.56,12.158,12.158,0,0,1,8.2,1.24,14.105,14.105,0,0,1,14.088,0h30.22l.038,0h.272a13.584,13.584,0,0,1,5.559,1.12,14.355,14.355,0,0,1,4.36,2.96,12.407,12.407,0,0,1,3.68,8.8v4H50.058v-1.84a8.754,8.754,0,0,0-1.32-4.84,4.9,4.9,0,0,0-4.43-2.04H14.088l-.016,0a5.133,5.133,0,0,0-2.713.638,5.4,5.4,0,0,0-1.68,1.6,6.791,6.791,0,0,0-.88,2.36,15.394,15.394,0,0,0-.24,2.76,27.1,27.1,0,0,0,.12,2.8,5.362,5.362,0,0,0,.6,2,4.5,4.5,0,0,0,1.4,1.52,12.956,12.956,0,0,0,2.52,1.28l.89.354,30.22,0,.028.011a15.512,15.512,0,0,1,6.3,1.563,13.651,13.651,0,0,1,5.4,5.094L56,30.128a10.166,10.166,0,0,1,.7,1.15,15.222,15.222,0,0,1,1.2,4.36,43.373,43.373,0,0,1,.32,5.56,29.5,29.5,0,0,1-.72,6.679,14.143,14.143,0,0,1-2.32,5.24,11.579,11.579,0,0,1-4.4,3.52,15.45,15.45,0,0,1-6.468,1.278h0v0l-30.22,0v0Z" transform="translate(209.893 0.001)"/></g></g></svg>
