<svg xmlns="http://www.w3.org/2000/svg" width="75.767" height="30.314" viewBox="0 0 75.767 30.314"><path d="M13.035-36h6.154v16.186c0,2.784-1.191,8.621-9.727,8.621S0-16.632,0-19.683v-2.985H5.955v2.918A3.3,3.3,0,0,0,9.4-16.3c2.25,0,3.64-1.261,3.64-3.383Zm15.682,6.766c4.831,0,9.066,1.856,9.066,10.413H26.335c0,2.72,1.126,3.847,3.11,3.847a2.843,2.843,0,0,0,2.647-1.591h5.624c0,2.453-3.374,5.77-8.47,5.7-5.823,0-8.669-4.31-8.669-8.756S23.093-29.234,28.717-29.234Zm3.441,6.964a2.966,2.966,0,0,0-3.044-3.25c-2.051,0-2.779,1.459-2.779,3.25Zm14.955-6.964c4.83,0,9.063,1.856,9.063,10.413H44.73c0,2.72,1.125,3.847,3.11,3.847a2.839,2.839,0,0,0,2.646-1.591h5.625c0,2.453-3.375,5.77-8.47,5.7-5.823,0-8.669-4.31-8.669-8.756S41.488-29.234,47.113-29.234Zm3.44,6.964a2.966,2.966,0,0,0-3.043-3.25c-2.052,0-2.78,1.459-2.78,3.25ZM57.625-5.688V-28.571h5.691v2.608a4.976,4.976,0,0,1,.794-1.282,4.991,4.991,0,0,1,4.3-1.791c2.844,0,7.278,1.991,7.278,9.021,0,5.438-2.648,9.42-7.212,9.42a6.2,6.2,0,0,1-4.3-1.392,3.541,3.541,0,0,1-.794-.8v7.1Zm5.624-14.128c-.066,3.383.663,5.174,3.441,5.174s3.176-3.051,3.176-5.372-.529-4.577-3.441-4.577C64.639-24.592,63.316-23.2,63.249-19.816ZM73.03-8.437A1.422,1.422,0,0,0,72.6-7.4a1.444,1.444,0,0,0,.421,1.045,1.4,1.4,0,0,0,1.038.433A1.4,1.4,0,0,0,75.1-6.353,1.431,1.431,0,0,0,75.527-7.4,1.42,1.42,0,0,0,75.1-8.437a1.406,1.406,0,0,0-1.036-.432A1.4,1.4,0,0,0,73.03-8.437Zm2.239,2.249a1.634,1.634,0,0,1-1.205.5,1.619,1.619,0,0,1-1.2-.5,1.653,1.653,0,0,1-.5-1.21,1.642,1.642,0,0,1,.5-1.2,1.639,1.639,0,0,1,1.2-.5,1.646,1.646,0,0,1,1.205.5,1.641,1.641,0,0,1,.5,1.2A1.653,1.653,0,0,1,75.269-6.188Zm-.885-1.856a.852.852,0,0,0-.4-.069h-.28v.678H74a.9.9,0,0,0,.313-.042.29.29,0,0,0,.193-.293A.288.288,0,0,0,74.384-8.044Zm-.353-.3a1.429,1.429,0,0,1,.51.068.467.467,0,0,1,.29.475.409.409,0,0,1-.183.369.734.734,0,0,1-.272.091.455.455,0,0,1,.321.183.511.511,0,0,1,.1.29v.138c0,.043,0,.09.005.14a.283.283,0,0,0,.017.1l.011.023h-.309a.15.15,0,0,1,0-.019.119.119,0,0,1,0-.021l-.006-.059v-.15a.464.464,0,0,0-.176-.43.807.807,0,0,0-.367-.059h-.26v.738h-.33V-8.34Z" transform="translate(0 36)" fill-rule="evenodd"/></svg>
