<svg xmlns="http://www.w3.org/2000/svg" xmlns:xlink="http://www.w3.org/1999/xlink" width="71.545" height="71.786" viewBox="0 0 71.545 71.786">
  <defs>
    <filter id="Caminho_5" x="0" y="0" width="71.545" height="71.786" filterUnits="userSpaceOnUse">
      <feOffset dy="3" input="SourceAlpha"/>
      <feGaussianBlur stdDeviation="3" result="blur"/>
      <feFlood flood-opacity="0.239"/>
      <feComposite operator="in" in2="blur"/>
      <feComposite in="SourceGraphic"/>
    </filter>
    <clipPath id="clip-path">
      <rect id="Ret창ngulo_4" data-name="Ret창ngulo 4" width="54.167" height="54.41" fill="none"/>
    </clipPath>
    <clipPath id="clip-path-2">
      <path id="Caminho_2" data-name="Caminho 2" d="M82.841,94.5h0m0,0h0M57.1,68.752a25.68,25.68,0,0,0,3.436,12.863L56.887,94.948,70.531,91.37A25.73,25.73,0,0,0,82.83,94.5h.011A25.739,25.739,0,1,0,57.1,68.752" transform="translate(-56.887 -43.024)" fill="none"/>
    </clipPath>
  </defs>
  <g id="Grupo_10" data-name="Grupo 10" transform="translate(-594 467)">
    <g transform="matrix(1, 0, 0, 1, 594, -467)" filter="url(#Caminho_5)">
      <path id="Caminho_5-2" data-name="Caminho 5" d="M60.029,8.049A26.663,26.663,0,0,0,18.067,40.208L14.285,54.019l14.133-3.706a26.643,26.643,0,0,0,12.74,3.244h.011A26.662,26.662,0,0,0,60.029,8.049" transform="translate(-5.29 5.77)" fill="#fff"/>
    </g>
    <g id="Grupo_9" data-name="Grupo 9" transform="translate(603 -461.312)">
      <g id="Grupo_8" data-name="Grupo 8" clip-path="url(#clip-path)">
        <g id="Grupo_4" data-name="Grupo 4" transform="translate(1.238 0.936)">
          <g id="Grupo_3" data-name="Grupo 3" clip-path="url(#clip-path-2)">
            <rect id="Ret창ngulo_2" data-name="Ret창ngulo 2" width="51.693" height="51.924" transform="translate(0 0)" fill="#34d26b"/>
          </g>
        </g>
        <g id="Grupo_7" data-name="Grupo 7">
          <g id="Grupo_6" data-name="Grupo 6" clip-path="url(#clip-path)">
            <path id="Caminho_3" data-name="Caminho 3" d="M634,660.4c-.5-1.109-1.024-1.132-1.5-1.151-.388-.017-.833-.016-1.277-.016a2.448,2.448,0,0,0-1.776.833,7.468,7.468,0,0,0-2.332,5.555c0,3.278,2.387,6.445,2.72,6.89s4.609,7.385,11.38,10.055c5.627,2.219,6.772,1.778,7.994,1.667s3.941-1.611,4.5-3.167a5.566,5.566,0,0,0,.389-3.167c-.167-.278-.611-.444-1.277-.777s-3.941-1.945-4.552-2.167-1.055-.333-1.5.334-1.72,2.166-2.109,2.61-.777.5-1.443.168a18.218,18.218,0,0,1-5.357-3.306,20.069,20.069,0,0,1-3.706-4.613c-.389-.666-.042-1.027.293-1.359.3-.3.666-.778,1-1.167a4.571,4.571,0,0,0,.666-1.111,1.227,1.227,0,0,0-.055-1.167C635.883,665.011,634.588,661.716,634,660.4Z" transform="translate(-613.464 -644.885)" fill="#fff" fill-rule="evenodd"/>
            <path id="Caminho_4" data-name="Caminho 4" d="M60.029,8.049A26.663,26.663,0,0,0,18.067,40.208L14.285,54.019l14.133-3.706a26.643,26.643,0,0,0,12.74,3.244h.011A26.662,26.662,0,0,0,60.029,8.049M41.17,49.056h-.009a22.132,22.132,0,0,1-11.279-3.088l-.81-.48-8.387,2.2,2.239-8.174-.527-.838A22.16,22.16,0,1,1,41.17,49.056" transform="translate(-13.974 -0.228)" fill="#fff"/>
          </g>
        </g>
      </g>
    </g>
  </g>
</svg>
