<svg xmlns="http://www.w3.org/2000/svg" width="129.852" height="34.39" viewBox="0 0 129.852 34.39">
  <g id="Grupo_3879" data-name="Grupo 3879" transform="translate(0 0)">
    <path id="Caminho_2229" data-name="Caminho 2229" d="M-.049-9.076,6.51-14.445a.472.472,0,0,1,.649.052,4.1,4.1,0,0,0,3.278,1.639c2.334,0,3.479-1.393,3.479-3.976V-37.4a.469.469,0,0,1,.5-.5h9.443a.469.469,0,0,1,.5.5v19.53c0,9.693-4.719,14.363-13.617,14.363C6.063-3.511,1.79-5.447-.1-8.381a.531.531,0,0,1,.051-.7" transform="translate(0.204 37.901)" fill="#d26d1c"/>
    <g id="Grupo_3876" data-name="Grupo 3876" transform="translate(28.895 0.002)">
      <path id="Caminho_636" data-name="Caminho 636" d="M0-.156a.468.468,0,0,1,.5-.5h41.14a.469.469,0,0,1,.5.5V7.5a.469.469,0,0,1-.5.5h-31a.264.264,0,0,0-.3.3v3.281a.264.264,0,0,0,.3.3H39.152a.47.47,0,0,1,.5.5v7.454a.469.469,0,0,1-.5.5H10.634a.264.264,0,0,0-.3.3V24.2a.264.264,0,0,0,.3.3h31a.47.47,0,0,1,.5.5v7.651a.47.47,0,0,1-.5.5H.5a.468.468,0,0,1-.5-.5Z" transform="translate(0 0.651)" fill="#d26d1c"/>
    </g>
    <g id="Grupo_3877" data-name="Grupo 3877" transform="translate(74.722 0.002)">
      <path id="Caminho_637" data-name="Caminho 637" d="M0-.156a.467.467,0,0,1,.5-.5H23.108a.468.468,0,0,1,.5.5V7.5a.468.468,0,0,1-.5.5H10.634a.264.264,0,0,0-.3.3v3.281a.264.264,0,0,0,.3.3h9.99a.471.471,0,0,1,.5.5v7.454a.47.47,0,0,1-.5.5h-9.99a.264.264,0,0,0-.3.3V24.2a.264.264,0,0,0,.3.3H23.108a.469.469,0,0,1,.5.5v7.651a.468.468,0,0,1-.5.5H.5a.468.468,0,0,1-.5-.5Z" transform="translate(0 0.651)" fill="#d26d1c"/>
    </g>
    <g id="Grupo_3878" data-name="Grupo 3878" transform="translate(102.02 0.002)">
      <path id="Caminho_638" data-name="Caminho 638" d="M-.157-10.641a.469.469,0,0,1-.5-.5v-32.8a.468.468,0,0,1,.5-.5H13.807c9.294,0,13.37,4.918,13.37,11.679,0,6.559-4.226,11.678-13.37,11.678H10.031a.264.264,0,0,0-.3.3v9.642a.468.468,0,0,1-.5.5Zm16.9-22.115c0-1.891-1.195-3.035-3.48-3.035H10.031a.265.265,0,0,0-.3.3v5.466a.263.263,0,0,0,.3.3h3.229c2.285,0,3.48-1.142,3.48-3.029" transform="translate(0.654 44.434)" fill="#d26d1c"/>
    </g>
  </g>
</svg>
