<svg xmlns="http://www.w3.org/2000/svg" xmlns:xlink="http://www.w3.org/1999/xlink" width="79.981" height="32" viewBox="0 0 79.981 32">
  <defs>
    <linearGradient id="linear-gradient" x1="0.5" x2="0.5" y2="1" gradientUnits="objectBoundingBox">
      <stop offset="0" stop-color="#3fb06f"/>
      <stop offset="1" stop-color="#aac156"/>
    </linearGradient>
  </defs>
  <g id="logo" transform="translate(-3 -18.076)">
    <path id="Caminho_420" data-name="Caminho 420" d="M13.76-36h6.5v17.086c0,2.939-1.258,9.1-10.268,9.1S0-15.555,0-18.776v-3.151H6.286v3.081A3.484,3.484,0,0,0,9.918-15.2c2.375,0,3.842-1.331,3.842-3.571Zm16.554,7.142c5.1,0,9.57,1.959,9.57,10.993H27.8c0,2.871,1.188,4.061,3.283,4.061a3,3,0,0,0,2.794-1.679h5.937c0,2.59-3.562,6.091-8.941,6.02-6.147,0-9.151-4.55-9.151-9.243S24.377-28.858,30.314-28.858Zm3.632,7.351a3.131,3.131,0,0,0-3.214-3.431c-2.165,0-2.933,1.54-2.933,3.431Zm15.787-7.351c5.1,0,9.568,1.959,9.568,10.993H47.218c0,2.871,1.187,4.061,3.283,4.061a3,3,0,0,0,2.793-1.679h5.938c0,2.59-3.563,6.091-8.941,6.02-6.147,0-9.152-4.55-9.152-9.243S43.8-28.858,49.734-28.858Zm3.631,7.351a3.131,3.131,0,0,0-3.213-3.431c-2.167,0-2.934,1.54-2.934,3.431ZM60.83-4V-28.158h6.008V-25.4a5.253,5.253,0,0,1,.838-1.354c.407-.489,1.537-1.891,4.541-1.891s7.683,2.1,7.683,9.523c0,5.741-2.795,9.944-7.614,9.944a6.546,6.546,0,0,1-4.541-1.469,3.738,3.738,0,0,1-.838-.843V-4Zm5.937-14.914c-.07,3.572.7,5.461,3.632,5.461s3.353-3.221,3.353-5.671-.558-4.831-3.632-4.831C68.234-23.957,66.838-22.487,66.767-18.916ZM77.092-6.9a1.5,1.5,0,0,0-.449,1.1,1.524,1.524,0,0,0,.445,1.1,1.482,1.482,0,0,0,1.1.458A1.478,1.478,0,0,0,79.277-4.7a1.511,1.511,0,0,0,.45-1.1,1.5,1.5,0,0,0-.45-1.1,1.484,1.484,0,0,0-1.094-.456A1.478,1.478,0,0,0,77.092-6.9ZM79.455-4.53A1.725,1.725,0,0,1,78.183-4a1.71,1.71,0,0,1-1.269-.53,1.745,1.745,0,0,1-.523-1.278,1.734,1.734,0,0,1,.526-1.27A1.73,1.73,0,0,1,78.183-7.6a1.738,1.738,0,0,1,1.272.525,1.732,1.732,0,0,1,.525,1.27A1.744,1.744,0,0,1,79.455-4.53Zm-.934-1.959a.9.9,0,0,0-.42-.073h-.3v.716h.314a.95.95,0,0,0,.33-.044.306.306,0,0,0,.2-.309A.3.3,0,0,0,78.521-6.489ZM78.149-6.8a1.509,1.509,0,0,1,.538.071.493.493,0,0,1,.307.5.432.432,0,0,1-.193.39.775.775,0,0,1-.287.1.48.48,0,0,1,.339.194.539.539,0,0,1,.108.306V-5.1c0,.045,0,.095.005.147a.3.3,0,0,0,.018.1L79-4.824h-.326a.158.158,0,0,1,0-.02.125.125,0,0,1,0-.023l-.006-.062v-.158a.49.49,0,0,0-.186-.454A.852.852,0,0,0,78.08-5.6h-.274v.779h-.348V-6.8Z" transform="translate(3 54.076)" fill-rule="evenodd" fill="url(#linear-gradient)"/>
  </g>
</svg>
