<svg xmlns="http://www.w3.org/2000/svg" xmlns:xlink="http://www.w3.org/1999/xlink" width="55.977" height="22.396" viewBox="0 0 55.977 22.396">
  <defs>
    <linearGradient id="linear-gradient" x1="-0.025" y1="0.5" x2="0.969" y2="0.5" gradientUnits="objectBoundingBox">
      <stop offset="0" stop-color="#dc651e"/>
      <stop offset="1" stop-color="#c87301"/>
    </linearGradient>
  </defs>
  <g id="logo" transform="translate(-3 -18.076)">
    <path id="Caminho_420" data-name="Caminho 420" d="M9.631-36h4.546v11.958c0,2.057-.88,6.369-7.187,6.369S0-21.691,0-23.945V-26.15H4.4v2.156a2.438,2.438,0,0,0,2.542,2.548,2.4,2.4,0,0,0,2.689-2.5Zm11.586,5c3.569,0,6.7,1.371,6.7,7.693H19.456c0,2.009.832,2.842,2.3,2.842a2.1,2.1,0,0,0,1.955-1.175h4.155c0,1.812-2.493,4.263-6.258,4.213A6.141,6.141,0,0,1,15.2-23.9C15.2-27.18,17.061-31,21.216-31Zm2.542,5.145a2.191,2.191,0,0,0-2.249-2.4c-1.515,0-2.053,1.078-2.053,2.4ZM34.808-31c3.569,0,6.7,1.371,6.7,7.693H33.047c0,2.009.831,2.842,2.3,2.842A2.1,2.1,0,0,0,37.3-21.641h4.156c0,1.812-2.493,4.263-6.258,4.213a6.141,6.141,0,0,1-6.4-6.469C28.793-27.18,30.652-31,34.808-31Zm2.541,5.145a2.191,2.191,0,0,0-2.248-2.4c-1.516,0-2.054,1.078-2.054,2.4Zm5.224,12.251V-30.512h4.2v1.927a3.676,3.676,0,0,1,.587-.947,3.688,3.688,0,0,1,3.178-1.323c2.1,0,5.377,1.471,5.377,6.665,0,4.018-1.956,6.959-5.329,6.959a4.581,4.581,0,0,1-3.178-1.028,2.616,2.616,0,0,1-.587-.59v5.244Zm4.155-10.438c-.049,2.5.49,3.822,2.542,3.822s2.347-2.254,2.347-3.969-.39-3.381-2.542-3.381C47.755-27.571,46.778-26.542,46.729-24.043Zm7.226,8.407a1.051,1.051,0,0,0-.315.767,1.067,1.067,0,0,0,.311.772,1.037,1.037,0,0,0,.767.32,1.035,1.035,0,0,0,.766-.32,1.057,1.057,0,0,0,.315-.772,1.049,1.049,0,0,0-.315-.767,1.038,1.038,0,0,0-.766-.319A1.034,1.034,0,0,0,53.955-15.636Zm1.654,1.661a1.207,1.207,0,0,1-.89.371,1.2,1.2,0,0,1-.888-.371,1.221,1.221,0,0,1-.366-.894,1.213,1.213,0,0,1,.368-.889,1.211,1.211,0,0,1,.885-.368,1.216,1.216,0,0,1,.89.368,1.212,1.212,0,0,1,.368.889A1.221,1.221,0,0,1,55.609-13.975Zm-.654-1.371a.629.629,0,0,0-.294-.051h-.207v.5h.22a.665.665,0,0,0,.231-.031.214.214,0,0,0,.142-.216A.212.212,0,0,0,54.955-15.346Zm-.261-.218a1.056,1.056,0,0,1,.377.05.345.345,0,0,1,.215.351.3.3,0,0,1-.135.273.542.542,0,0,1-.2.067.336.336,0,0,1,.237.135.377.377,0,0,1,.075.214v.1c0,.032,0,.066,0,.1a.209.209,0,0,0,.013.072l.008.017h-.228a.11.11,0,0,1,0-.014.087.087,0,0,1,0-.016l0-.044v-.111a.343.343,0,0,0-.13-.318.6.6,0,0,0-.271-.044h-.192v.546h-.244v-1.384Z" transform="translate(3 54.076)" fill-rule="evenodd" fill="url(#linear-gradient)"/>
  </g>
</svg>
