<svg xmlns="http://www.w3.org/2000/svg" width="654.763" height="260.536" viewBox="0 0 654.763 260.536"><g transform="translate(-489.215 -677.478)"><g transform="translate(489.715 677.987)"><path d="M53.346-24.28H39.713l-18.9-51.863V-24.28H6.172v-92.776H20.064L38.708-65.119v-51.937H53.346ZM40.813-25.852H51.774v-89.632H40.28v54.953H38.685L18.958-115.484H7.744v89.632H19.238V-80.677H20.83Z" transform="translate(-2.243 121.771)" fill="#af9a65"/><path d="M28.536-118.034a23.963,23.963,0,0,1,8.144,1.456,24.111,24.111,0,0,1,7.348,4.237l.026.022a22.328,22.328,0,0,1,5.18,7.3,24.186,24.186,0,0,1,1.992,10.06V-46.8a23.968,23.968,0,0,1-2,10.2,21.222,21.222,0,0,1-5.19,7.047,22.847,22.847,0,0,1-7.36,4.375,23.963,23.963,0,0,1-8.144,1.456,23.963,23.963,0,0,1-8.144-1.456,21.431,21.431,0,0,1-7.233-4.376A20.43,20.43,0,0,1,7.842-36.6a23.968,23.968,0,0,1-2-10.2V-94.96a24.186,24.186,0,0,1,1.992-10.06,21.446,21.446,0,0,1,5.32-7.31,22.547,22.547,0,0,1,7.234-4.248A23.963,23.963,0,0,1,28.536-118.034ZM43-111.149a22.542,22.542,0,0,0-6.857-3.951,22.4,22.4,0,0,0-7.611-1.362,22.4,22.4,0,0,0-7.611,1.362,20.979,20.979,0,0,0-6.73,3.951,19.885,19.885,0,0,0-4.926,6.779,22.634,22.634,0,0,0-1.851,9.41V-46.8a22.427,22.427,0,0,0,1.847,9.53,18.866,18.866,0,0,0,4.918,6.521l.026.022a19.867,19.867,0,0,0,6.717,4.067,22.4,22.4,0,0,0,7.611,1.362,22.4,22.4,0,0,0,7.611-1.362A21.285,21.285,0,0,0,43-30.733a19.665,19.665,0,0,0,4.8-6.533,22.427,22.427,0,0,0,1.847-9.53V-94.96a22.634,22.634,0,0,0-1.851-9.41A20.775,20.775,0,0,0,43-111.149Zm-14.469,6.181a10.068,10.068,0,0,1,6.723,2.43c1.925,1.644,2.9,4.194,2.9,7.579V-46.8c0,3.385-.976,5.935-2.9,7.579a10.068,10.068,0,0,1-6.723,2.43,10.068,10.068,0,0,1-6.723-2.43c-1.925-1.644-2.9-4.193-2.9-7.579V-94.96c0-3.385.976-5.935,2.9-7.579A10.068,10.068,0,0,1,28.536-104.968Zm0,66.61a8.426,8.426,0,0,0,5.7-2.054,6.122,6.122,0,0,0,1.744-2.545,10.959,10.959,0,0,0,.606-3.838V-94.96a10.959,10.959,0,0,0-.606-3.838,6.122,6.122,0,0,0-1.744-2.545,8.426,8.426,0,0,0-5.7-2.054,8.426,8.426,0,0,0-5.7,2.054A6.122,6.122,0,0,0,21.09-98.8a10.959,10.959,0,0,0-.606,3.838V-46.8a10.959,10.959,0,0,0,.606,3.838,6.122,6.122,0,0,0,1.744,2.545A8.426,8.426,0,0,0,28.536-38.359Z" transform="translate(81.914 121.963)" fill="#af9a65"/><path d="M28.536-118.034a23.963,23.963,0,0,1,8.144,1.456,24.111,24.111,0,0,1,7.348,4.237l.026.022a22.328,22.328,0,0,1,5.18,7.3,24.186,24.186,0,0,1,1.992,10.06V-46.8a23.968,23.968,0,0,1-2,10.2,21.222,21.222,0,0,1-5.19,7.047,22.847,22.847,0,0,1-7.36,4.375,23.963,23.963,0,0,1-8.144,1.456,23.963,23.963,0,0,1-8.144-1.456,21.431,21.431,0,0,1-7.233-4.376A20.43,20.43,0,0,1,7.842-36.6a23.968,23.968,0,0,1-2-10.2V-94.96a24.186,24.186,0,0,1,1.992-10.06,21.446,21.446,0,0,1,5.32-7.31,22.547,22.547,0,0,1,7.234-4.248A23.963,23.963,0,0,1,28.536-118.034ZM43-111.149a22.542,22.542,0,0,0-6.857-3.951,22.4,22.4,0,0,0-7.611-1.362,22.4,22.4,0,0,0-7.611,1.362,20.979,20.979,0,0,0-6.73,3.951,19.885,19.885,0,0,0-4.926,6.779,22.634,22.634,0,0,0-1.851,9.41V-46.8a22.427,22.427,0,0,0,1.847,9.53,18.866,18.866,0,0,0,4.918,6.521l.026.022a19.867,19.867,0,0,0,6.717,4.067,22.4,22.4,0,0,0,7.611,1.362,22.4,22.4,0,0,0,7.611-1.362A21.285,21.285,0,0,0,43-30.733a19.665,19.665,0,0,0,4.8-6.533,22.427,22.427,0,0,0,1.847-9.53V-94.96a22.634,22.634,0,0,0-1.851-9.41A20.775,20.775,0,0,0,43-111.149Zm-14.469,6.181a10.068,10.068,0,0,1,6.723,2.43c1.925,1.644,2.9,4.194,2.9,7.579V-46.8c0,3.385-.976,5.935-2.9,7.579a10.068,10.068,0,0,1-6.723,2.43,10.068,10.068,0,0,1-6.723-2.43c-1.925-1.644-2.9-4.193-2.9-7.579V-94.96c0-3.385.976-5.935,2.9-7.579A10.068,10.068,0,0,1,28.536-104.968Zm0,66.61a8.426,8.426,0,0,0,5.7-2.054,6.122,6.122,0,0,0,1.744-2.545,10.959,10.959,0,0,0,.606-3.838V-94.96a10.959,10.959,0,0,0-.606-3.838,6.122,6.122,0,0,0-1.744-2.545,8.426,8.426,0,0,0-5.7-2.054,8.426,8.426,0,0,0-5.7,2.054A6.122,6.122,0,0,0,21.09-98.8a10.959,10.959,0,0,0-.606,3.838V-46.8a10.959,10.959,0,0,0,.606,3.838,6.122,6.122,0,0,0,1.744,2.545A8.426,8.426,0,0,0,28.536-38.359Z" transform="translate(239.086 121.963)" fill="#af9a65"/><path d="M.895-117.056H16.359L26.2-56.682l9.961-60.374H51.624L32.6-24.28H19.789Zm14.128,1.572H2.819L21.073-25.852H31.318L49.7-115.484h-12.2L26.99-51.821H25.4Z" transform="translate(161.56 121.771)" fill="#af9a65"/><path d="M7.172-24.852v-91.2H19.725L39.452-61.1h.256v-54.953H52.774v91.2h-12.3L20.494-79.677h-.256v54.825Z" transform="translate(-7.172 116.842)" fill="#fff"/><path d="M6.846-94.745a23.3,23.3,0,0,1,1.921-9.735,20.572,20.572,0,0,1,5.124-7.045,21.662,21.662,0,0,1,6.981-4.1,23.073,23.073,0,0,1,7.878-1.409,23.073,23.073,0,0,1,7.878,1.409,23.22,23.22,0,0,1,7.109,4.1,21.449,21.449,0,0,1,5,7.045,23.3,23.3,0,0,1,1.921,9.735v48.164a23.09,23.09,0,0,1-1.921,9.863,20.349,20.349,0,0,1-5,6.789A21.966,21.966,0,0,1,36.628-25.7a23.073,23.073,0,0,1-7.878,1.409A23.073,23.073,0,0,1,20.872-25.7a20.554,20.554,0,0,1-6.981-4.227,19.556,19.556,0,0,1-5.124-6.789,23.09,23.09,0,0,1-1.921-9.863ZM19.912-46.582q0,4.74,2.626,6.981a9.262,9.262,0,0,0,6.213,2.242A9.262,9.262,0,0,0,34.963-39.6q2.626-2.242,2.626-6.981V-94.745q0-4.74-2.626-6.981a9.262,9.262,0,0,0-6.213-2.242,9.262,9.262,0,0,0-6.213,2.242q-2.626,2.242-2.626,6.981Z" transform="translate(76.985 117.034)" fill="#fff"/><path d="M6.846-94.745a23.3,23.3,0,0,1,1.921-9.735,20.572,20.572,0,0,1,5.124-7.045,21.662,21.662,0,0,1,6.981-4.1,23.073,23.073,0,0,1,7.878-1.409,23.073,23.073,0,0,1,7.878,1.409,23.22,23.22,0,0,1,7.109,4.1,21.449,21.449,0,0,1,5,7.045,23.3,23.3,0,0,1,1.921,9.735v48.164a23.09,23.09,0,0,1-1.921,9.863,20.349,20.349,0,0,1-5,6.789A21.966,21.966,0,0,1,36.628-25.7a23.073,23.073,0,0,1-7.878,1.409A23.073,23.073,0,0,1,20.872-25.7a20.554,20.554,0,0,1-6.981-4.227,19.556,19.556,0,0,1-5.124-6.789,23.09,23.09,0,0,1-1.921-9.863ZM19.912-46.582q0,4.74,2.626,6.981a9.262,9.262,0,0,0,6.213,2.242A9.262,9.262,0,0,0,34.963-39.6q2.626-2.242,2.626-6.981V-94.745q0-4.74-2.626-6.981a9.262,9.262,0,0,0-6.213-2.242,9.262,9.262,0,0,0-6.213,2.242q-2.626,2.242-2.626,6.981Z" transform="translate(234.157 117.034)" fill="#fff"/><path d="M50.923-116.056l-18.7,91.2H20.693l-18.574-91.2H15.953L26.329-52.393h.256l10.5-63.663Z" transform="translate(156.583 116.842)" fill="#fff"/><path d="M43.882,91.2a83.321,83.321,0,0,0-6.911-6.109,83.662,83.662,0,0,1-6.849-6.043q-1.071-1.086-2.057-2.227L27.253,74.6a44.654,44.654,0,0,0,3.428,3.9,82.986,82.986,0,0,0,6.787,5.988A78.868,78.868,0,0,1,44.977,91.2Zm-5.269,0c-1.5-1.266-3.006-2.4-4.486-3.513-.962-.724-1.938-1.459-2.917-2.233l-.521-1.428C32,85.1,33.312,86.093,34.6,87.063c1.72,1.3,3.471,2.615,5.222,4.14Zm-5.308,0-.244-.669q.475.33.952.669Zm-20.6,0a34.362,34.362,0,0,1-4.069-5.1C4.326,79.614,3.446,74.161,2.514,68.387A65.421,65.421,0,0,0,0,57.247V54.956q.366.933.686,1.868a65.551,65.551,0,0,1,2.6,11.439c.917,5.687,1.784,11.06,6,17.412a33.95,33.95,0,0,0,3.776,4.774V91.2Zm-5.615,0q-.724-.937-1.428-1.98A35.84,35.84,0,0,1,0,74.965V70.43q.083.484.164.964c.966,5.689,1.879,11.064,6.148,17.39q.874,1.3,1.776,2.42Zm-5.151,0A34.821,34.821,0,0,1,0,87.747V85.841A33.491,33.491,0,0,0,2.873,91.2ZM39.8,82.465c-2.253-1.983-4.581-4.033-6.818-6.416a49.538,49.538,0,0,1-6.509-8.632C22.5,60.762,21.9,55.32,21.26,49.558a63.992,63.992,0,0,0-2-11.323A53.884,53.884,0,0,0,12.5,23.914a30.242,30.242,0,0,0-9.033-8.432Q1.841,14.423,0,13.4v-.9q2.075,1.137,3.889,2.32a31,31,0,0,1,9.268,8.667A54.65,54.65,0,0,1,20.02,38.016a64.78,64.78,0,0,1,2.021,11.456c.629,5.674,1.224,11.034,5.107,17.543a48.8,48.8,0,0,0,6.407,8.5c2.212,2.355,4.525,4.393,6.763,6.364,1.745,1.536,3.52,3.1,5.284,4.841v1.112C43.67,85.873,41.717,84.154,39.8,82.465Zm-28.193.529C7.355,76.474,6.52,71.022,5.638,65.251A64.716,64.716,0,0,0,3.162,53.939,47.773,47.773,0,0,0,0,46.624V44.989a49.539,49.539,0,0,1,3.908,8.7A65.317,65.317,0,0,1,6.414,65.131c.87,5.686,1.692,11.055,5.85,17.434q.4.608.8,1.185v1.341Q12.322,84.091,11.606,82.994ZM42.616,79.8c-2.244-2.113-4.564-4.3-6.779-6.769A53.344,53.344,0,0,1,29.446,64.3c-3.913-6.682-4.471-12.123-5.061-17.882a63.868,63.868,0,0,0-1.9-11.326,53.819,53.819,0,0,0-6.646-14.362,30.246,30.246,0,0,0-8.966-8.506A64.455,64.455,0,0,0,0,8.292V7.415a65.99,65.99,0,0,1,7.308,4.156,31.01,31.01,0,0,1,9.195,8.74,54.589,54.589,0,0,1,6.74,14.571A64.489,64.489,0,0,1,25.166,46.34c.582,5.672,1.132,11.03,4.957,17.565a52.6,52.6,0,0,0,6.3,8.6c2.192,2.446,4.5,4.619,6.731,6.721.811.764,1.629,1.533,2.448,2.323v1.094C44.6,81.673,43.6,80.733,42.616,79.8ZM8.763,62.111A64.6,64.6,0,0,0,6.384,50.8,52.75,52.75,0,0,0,0,37.927V36.521A54.576,54.576,0,0,1,7.131,50.555,65.335,65.335,0,0,1,9.541,62c.649,4.49,1.269,8.783,3.524,13.545V77.3C10.172,71.861,9.486,67.106,8.763,62.111ZM45.421,77.1c-2.234-2.236-4.544-4.547-6.732-7.1a57.243,57.243,0,0,1-6.271-8.817c-3.856-6.708-4.368-12.146-4.91-17.9-.069-.734-.139-1.474-.216-2.222l1.08,3.009c.511,5.356,1.147,10.5,4.726,16.726a56.512,56.512,0,0,0,6.187,8.7c2.048,2.388,4.211,4.573,6.316,6.682v1.111ZM41.538,66.958a61.237,61.237,0,0,1-6.146-8.887,34.174,34.174,0,0,1-2.857-6.5V48.535a32.7,32.7,0,0,0,3.541,9.149A67.389,67.389,0,0,0,45.6,70.421V71.58C44.229,70.1,42.859,68.563,41.538,66.958ZM11.887,58.973A64.412,64.412,0,0,0,9.6,47.657a54.067,54.067,0,0,0-7.133-14.2A21.452,21.452,0,0,0,0,30.492v-1.1a22.97,22.97,0,0,1,3.12,3.628,54.824,54.824,0,0,1,7.233,14.4,65.049,65.049,0,0,1,2.313,11.447c.129.948.257,1.888.4,2.825v4.3C12.523,63.64,12.209,61.333,11.887,58.973Zm26.479-4.019c-3.743-6.762-4.162-12.2-4.608-17.949a70.112,70.112,0,0,0-1.222-9.665V24.107q.2.687.372,1.372a64.179,64.179,0,0,1,1.635,11.466c.438,5.665.852,11.017,4.511,17.63a65.368,65.368,0,0,0,6.549,9.6v1.242A67.448,67.448,0,0,1,38.366,54.954Zm2.971-3.116c-3.685-6.788-4.058-12.221-4.454-17.972a63.328,63.328,0,0,0-1.516-11.335,47.6,47.6,0,0,0-2.831-8.142V12.529a49.6,49.6,0,0,1,3.594,9.816,64.059,64.059,0,0,1,1.538,11.468c.39,5.664.757,11.013,4.361,17.651a63.706,63.706,0,0,0,3.574,5.8v1.37A65.608,65.608,0,0,1,41.337,51.839ZM17.482,47.791a49.65,49.65,0,0,0-1.437-6.415A53.891,53.891,0,0,0,9.156,27.1a30.238,30.238,0,0,0-9.11-8.366L0,18.7v-.929q.237.148.469.3a31,31,0,0,1,9.343,8.595A54.69,54.69,0,0,1,16.8,41.151,59.427,59.427,0,0,1,18.759,51.3Zm26.829.933c-3.628-6.817-3.956-12.247-4.3-18a63.228,63.228,0,0,0-1.421-11.337,53.482,53.482,0,0,0-6.037-14.57L32.536,4.8V3.319q.372.552.693,1.106A54.277,54.277,0,0,1,39.352,19.21a63.887,63.887,0,0,1,1.44,11.471c.341,5.661.663,11.009,4.213,17.674q.295.554.6,1.1v1.581Q44.94,49.9,44.311,48.724ZM12.824,44.517A54,54,0,0,0,5.813,30.278,25.922,25.922,0,0,0,0,24.319v-.985a27.3,27.3,0,0,1,6.466,6.507,56.36,56.36,0,0,1,6.6,12.886v2.6Q12.95,44.926,12.824,44.517ZM43.132,27.59a63.068,63.068,0,0,0-1.325-11.34A53.427,53.427,0,0,0,35.892,1.639Q35.425.819,34.844,0H35.8q.42.624.776,1.25a54.212,54.212,0,0,1,6,14.826,63.7,63.7,0,0,1,1.344,11.473A47.094,47.094,0,0,0,45.6,39.486V41.9C43.606,36.72,43.375,32.26,43.132,27.59ZM10.292,8.977A70.923,70.923,0,0,0,0,3.324V2.46A72.359,72.359,0,0,1,10.727,8.322a36.589,36.589,0,0,1,6.937,5.915l.814,2.268A32.228,32.228,0,0,0,10.292,8.977Zm34.736,4.132A51.787,51.787,0,0,0,40.073,0h.887A52.984,52.984,0,0,1,45.6,12.1v4.166C45.453,15.243,45.266,14.195,45.028,13.109ZM13.707,5.724A71.059,71.059,0,0,0,3.5,0H5.322a69.066,69.066,0,0,1,8.826,5.073l.3.209.468,1.3Q14.329,6.152,13.707,5.724ZM44.937,0H45.6V1.54Q45.285.774,44.937,0Z" transform="translate(0 0.786)" fill="#898989" stroke="rgba(0,0,0,0)" stroke-width="1"/><path d="M19.9,89.983a27.958,27.958,0,0,0-9.684-5.459A33.609,33.609,0,0,1,3.273,81.2q-.72-.479-1.416-1.025-.341-.745-.619-1.544a22,22,0,0,0,2.471,1.915A32.465,32.465,0,0,0,10.5,83.791c4.131,1.585,8.353,3.2,13.032,8.889q-.488.036-.977.05A29.033,29.033,0,0,0,19.9,89.983ZM17.512,92.3q-.306-.278-.616-.539a24.47,24.47,0,0,0-9.555-4.752l-.625-.193q-.666-.587-1.274-1.237c.7.238,1.411.457,2.131.679,3.6,1.111,7.262,2.243,11.321,6.274Q18.2,92.441,17.512,92.3ZM22.9,88.192a32,32,0,0,0-9.819-6.177,39.107,39.107,0,0,1-6.962-3.795A28.854,28.854,0,0,1,.046,72.2Q.01,71.519,0,70.817a28.939,28.939,0,0,0,6.574,6.766A38.461,38.461,0,0,0,13.4,81.3a32.622,32.622,0,0,1,10.037,6.324,34.388,34.388,0,0,1,3.87,4.452q-.419.1-.838.19A33.285,33.285,0,0,0,22.9,88.192Zm2.992-1.8a36.622,36.622,0,0,0-9.961-6.9,45.556,45.556,0,0,1-6.976-4.251A33.075,33.075,0,0,1,1.8,67.426c-.679-1-1.275-1.981-1.8-2.94V62.779a34.788,34.788,0,0,0,2.451,4.206,32.327,32.327,0,0,0,6.983,7.627A44.962,44.962,0,0,0,16.3,78.79a37.245,37.245,0,0,1,10.155,7.048,37.859,37.859,0,0,1,4.208,5.154q-.373.153-.753.293A36.894,36.894,0,0,0,25.89,86.389Zm2.988-1.816a34.037,34.037,0,0,0-5.818-4.961,9.743,9.743,0,0,0,1.11-.184,34.356,34.356,0,0,1,5.283,4.608,40.852,40.852,0,0,1,4.232,5.428q-.337.2-.68.4A39.979,39.979,0,0,0,28.879,84.573Zm2.983-1.833a37.51,37.51,0,0,0-4.8-4.527q.341-.22.669-.473A38.157,38.157,0,0,1,32.45,82.22,43.6,43.6,0,0,1,36.43,87.5q-.3.254-.615.5A42.824,42.824,0,0,0,31.862,82.74Zm2.976-1.847a42.427,42.427,0,0,0-5.272-5.219,7.435,7.435,0,0,0,.362-.722,43.311,43.311,0,0,1,5.51,5.433,45.966,45.966,0,0,1,3.452,4.674q-.264.314-.539.614A45.4,45.4,0,0,0,34.838,80.894Zm2.974-1.862a50.417,50.417,0,0,0-7.135-7.145q.045-.472.059-.973a52.086,52.086,0,0,1,7.687,7.625c.9,1.112,1.748,2.274,2.568,3.5q-.218.381-.448.747C39.674,81.463,38.768,80.218,37.812,79.031Zm2.968-1.879a65.526,65.526,0,0,0-10.037-10.1V66.024A68.475,68.475,0,0,1,41.4,76.673q.644.835,1.256,1.7-.153.461-.327.9Q41.579,78.188,40.78,77.153ZM32.75,63.693q-1-.905-2.007-1.834V60.788c.849.791,1.7,1.562,2.535,2.324A82.2,82.2,0,0,1,43.63,73.806q-.062.561-.147,1.1A78.983,78.983,0,0,0,32.75,63.693ZM11.786,72.236A36,36,0,0,1,4.72,64.26,33.814,33.814,0,0,1,0,53.775V50.152A34.749,34.749,0,0,0,5.374,63.825a35.214,35.214,0,0,0,6.912,7.8q.448.37.9.715a11.089,11.089,0,0,0,.209,1.139C12.857,73.092,12.321,72.678,11.786,72.236Zm23.721-11.29c-1.572-1.52-3.182-3.076-4.764-4.723v-1.14c1.753,1.86,3.555,3.6,5.31,5.3,2.57,2.484,5.2,5.026,7.756,8V69.6A110.036,110.036,0,0,0,35.507,60.946Zm-27.87.147C3.385,54.591,2.548,49.158,1.662,43.4A77.609,77.609,0,0,0,0,34.852V32.1A65.786,65.786,0,0,1,2.439,43.285C3.311,48.951,4.136,54.3,8.3,60.663a39.8,39.8,0,0,0,4.771,6.011v1.115A40.156,40.156,0,0,1,7.637,61.093Zm30.618-2.93c-2.261-2.312-4.6-4.7-6.807-7.293q-.358-.42-.705-.84V48.793c2.557,3.179,5.269,5.952,8.074,8.82,1.661,1.7,3.335,3.41,4.991,5.23v1.174C41.963,61.955,40.094,60.044,38.255,58.163Zm-27.7-.237C6.358,51.4,5.568,45.965,4.731,40.213A64.352,64.352,0,0,0,2.347,28.934,46.5,46.5,0,0,0,0,23.128v-.842q0-.447.013-.886A48.292,48.292,0,0,1,3.094,28.69,64.937,64.937,0,0,1,5.509,40.1c.825,5.665,1.6,11.016,5.707,17.4q.895,1.391,1.85,2.668V61.46Q11.752,59.789,10.555,57.926ZM41,55.35a108.546,108.546,0,0,1-10.252-12.2v-1.4A101.888,101.888,0,0,0,41.571,54.816q1.117,1.2,2.238,2.42V58.4C42.871,57.37,41.931,56.358,41,55.35ZM7.8,37.02A64.147,64.147,0,0,0,5.512,25.738,49.924,49.924,0,0,0,.861,15.486Q1,14.97,1.17,14.47A51.3,51.3,0,0,1,6.261,25.5,64.833,64.833,0,0,1,8.579,36.913c.7,5.123,1.369,9.988,4.487,15.616V54.1C9.283,47.834,8.563,42.577,7.8,37.02ZM43.727,52.5c-4.656-5.259-9.054-10.226-12.743-16.746q-.123-.217-.24-.432v-1.7q.425.857.924,1.74c3.515,6.211,7.7,11.022,12.141,16.04V52.6ZM33.9,32.591a33.612,33.612,0,0,1-3.159-7.732V22.286a10.223,10.223,0,0,0-1.279-5.4c-.064-.735-.122-1.472-.18-2.215A63.221,63.221,0,0,0,27.667,3.362q-.358-1.4-.819-2.813.448.1.9.22.379,1.2.684,2.4a63.874,63.874,0,0,1,1.639,11.444c.441,5.654.856,11,4.521,17.6a85.124,85.124,0,0,0,9.219,13.05v1.23A88.809,88.809,0,0,1,33.9,32.591ZM10.869,33.827A64.117,64.117,0,0,0,8.677,22.541,51.649,51.649,0,0,0,3.016,10.434q.223-.381.458-.749A52.737,52.737,0,0,1,9.428,22.309a64.771,64.771,0,0,1,2.221,11.419,64.537,64.537,0,0,0,1.417,8.193v2.733A52.4,52.4,0,0,1,10.869,33.827Zm25.953-4.4c-3.692-6.78-4.068-12.2-4.467-17.943a70.482,70.482,0,0,0-1.114-9.493q.445.2.881.408a74.113,74.113,0,0,1,1.017,9.03c.393,5.653.764,10.993,4.373,17.622a78.622,78.622,0,0,0,6.3,9.631v1.3A81.9,81.9,0,0,1,36.822,29.424Zm2.918-3.167C36.1,19.449,35.774,14.028,35.424,8.288c-.082-1.351-.165-2.718-.293-4.128q.426.3.842.611c.1,1.179.167,2.33.236,3.469.344,5.651.67,10.99,4.225,17.646,1.039,1.947,2.172,3.818,3.375,5.649v1.416A75.111,75.111,0,0,1,39.74,26.257Zm2.917-3.166A36.029,36.029,0,0,1,38.616,7.3q.447.529.862,1.1a34.281,34.281,0,0,0,3.875,14.326q.224.428.455.853v1.615Q43.215,24.152,42.658,23.09ZM11.841,19.344A52.175,52.175,0,0,0,5.907,6.594q.28-.291.571-.568A53.108,53.108,0,0,1,12.594,19.12q.289.965.523,1.894-.051.612-.051,1.273v2.2A47.765,47.765,0,0,0,11.841,19.344ZM9.4,3.716q.328-.216.664-.42A52.991,52.991,0,0,1,15.6,15.385a6.519,6.519,0,0,0-.628.639A51.891,51.891,0,0,0,9.4,3.716ZM25.831,13.856a50.594,50.594,0,0,0-1.33-7.3A46.457,46.457,0,0,0,22.219,0q.434.006.868.029a47,47,0,0,1,2.175,6.33,52.421,52.421,0,0,1,1.407,7.921A8.966,8.966,0,0,0,25.831,13.856Zm-7.659-.9a50.543,50.543,0,0,0-4.819-11.29q.334-.132.674-.255l.071-.025a51.219,51.219,0,0,1,4.831,11.357q.1.354.192.7-.38.11-.747.251Q18.277,13.324,18.172,12.951Zm3.935.114c-.208-1.07-.459-2.17-.77-3.31A48.7,48.7,0,0,0,17.664.4q.4-.078.81-.14A49.32,49.32,0,0,1,22.1,9.548c.335,1.23.6,2.413.821,3.562Q22.518,13.072,22.107,13.065Z" transform="translate(83.831 0.003)" fill="#898989" stroke="rgba(0,0,0,0)" stroke-width="1"/><path d="M21.057,92.679c.267-1.717.518-3.584.719-5.535.272-2.637.425-5.15.458-7.52q.4-.012.786-.052c-.032,2.415-.186,4.976-.463,7.663-.2,1.921-.444,3.761-.707,5.459Q21.453,92.694,21.057,92.679Zm5.251-7.17c.235-2.488.365-4.865.391-7.114a9.319,9.319,0,0,0,.79-.513c-.01,2.425-.144,5-.4,7.7-.226,2.394-.529,4.663-.846,6.689q-.409.08-.818.145C25.756,90.339,26.073,87.992,26.308,85.509Zm-9.488,6.6c.154-1.069.3-2.18.425-3.32a80.1,80.1,0,0,0,.531-10.048q.387.183.79.328a81.7,81.7,0,0,1-.541,9.818c-.13,1.163-.277,2.3-.435,3.386Q17.2,92.2,16.819,92.111Zm14.019-8.249a73.188,73.188,0,0,0,.05-13.369q-.065-.655-.146-1.289V64.778a41.91,41.91,0,0,1,.928,5.637,74.065,74.065,0,0,1-.049,13.514c-.215,2.5-.514,4.869-.829,6.964q-.418.175-.845.333C30.285,89.038,30.61,86.528,30.839,83.862ZM12.675,90.746q.019-.153.037-.307a72.965,72.965,0,0,0,.5-13.38A30.232,30.232,0,0,0,10.255,65,54.4,54.4,0,0,0,.984,52q-.493-.5-.984-.967V49.961q.768.711,1.543,1.493a55.134,55.134,0,0,1,9.407,13.183A24.384,24.384,0,0,1,13.066,70.5a11.409,11.409,0,0,0,.717,4.184q.132,1.134.212,2.334a73.862,73.862,0,0,1-.5,13.531c-.021.173-.042.345-.064.517Q13.048,90.91,12.675,90.746Zm-4.088-2.4a66.878,66.878,0,0,0,.2-9.637A30.22,30.22,0,0,0,5.929,66.614,59.793,59.793,0,0,0,0,57.255V56A59.37,59.37,0,0,1,6.626,66.252,30.988,30.988,0,0,1,9.575,78.662a68.316,68.316,0,0,1-.247,10.216Q8.952,88.62,8.587,88.344ZM35.372,82.2a73.265,73.265,0,0,0-.064-13.36,30.217,30.217,0,0,0-3.43-11.884q-.562-.967-1.135-1.887V53.61q.922,1.42,1.814,2.955a30.973,30.973,0,0,1,3.533,12.2,74.078,74.078,0,0,1,.065,13.51c-.161,2.083-.381,4.073-.622,5.891q-.433.327-.878.63C34.933,86.8,35.19,84.561,35.372,82.2ZM4.424,84.354q.042-2.083-.053-4A30.221,30.221,0,0,0,1.6,68.223Q.819,66.68,0,65.246V63.689q1.188,1.983,2.305,4.177A31,31,0,0,1,5.156,80.312q.117,2.352.03,4.947Q4.793,84.821,4.424,84.354ZM39.9,80.568a73.346,73.346,0,0,0-.175-13.36A30.235,30.235,0,0,0,36.2,55.352a61.063,61.063,0,0,0-5.462-7.85V46.284a60.613,60.613,0,0,1,6.137,8.667,30.993,30.993,0,0,1,3.629,12.165,74.1,74.1,0,0,1,.179,13.505q-.076,1.1-.172,2.164-.438.7-.919,1.339C39.715,82.982,39.82,81.791,39.9,80.568Zm.625-26.824A54.028,54.028,0,0,0,30.743,41.49V40.434q.2.18.409.365A54.634,54.634,0,0,1,41.2,53.337a24.941,24.941,0,0,1,2.606,6.32v3.629A27.785,27.785,0,0,0,40.529,53.743ZM5.218,50.489A50.638,50.638,0,0,0,0,45.982V45a52.526,52.526,0,0,1,5.773,4.934,51.319,51.319,0,0,1,7.293,9.287v1.509A51.6,51.6,0,0,0,5.218,50.489Zm4.233-1.518A64.711,64.711,0,0,0,.369,41.787L0,41.531v-.956l.816.566A65.376,65.376,0,0,1,10,48.41q1.587,1.556,3.065,3.317v1.237A46.209,46.209,0,0,0,9.451,48.971Zm25.408-9.105A47.671,47.671,0,0,0,30.743,36.6V35.64a49.1,49.1,0,0,1,4.638,3.637,51.782,51.782,0,0,1,8.428,9.784v1.42A52.037,52.037,0,0,0,34.859,39.865Zm-30.3.489C3.01,39.3,1.487,38.263,0,37.122v-1c1.625,1.282,3.3,2.419,5,3.58A71.371,71.371,0,0,1,13.065,45.8v1.064A67.688,67.688,0,0,0,4.561,40.354Zm34.533-2.007a58.658,58.658,0,0,0-8.35-5.951v-.922a61.07,61.07,0,0,1,8.868,6.282,46.772,46.772,0,0,1,4.2,4.184v1.2A46.59,46.59,0,0,0,39.093,38.347Zm-30.342.576A52.732,52.732,0,0,1,0,32.116V30.979a49.383,49.383,0,0,0,9.187,7.29c1.274.852,2.567,1.716,3.878,2.661V41.9C11.606,40.831,10.167,39.869,8.751,38.923ZM12.94,37.49C8.334,34.466,3.971,31.6,0,25.724V24.287l.012.019c3.967,6.28,8.381,9.257,13.053,12.326v.94Zm30.387-.661a63.619,63.619,0,0,0-9.435-6.5c-1.062-.636-2.112-1.264-3.149-1.922v-.934c1.168.753,2.352,1.462,3.553,2.181a64.3,64.3,0,0,1,9.512,6.554v1.043Q43.569,37.037,43.328,36.829ZM3.452,23.418a46.828,46.828,0,0,1-3.1-5.628q.112-.681.261-1.339a45.667,45.667,0,0,0,3.505,6.542,33.5,33.5,0,0,0,8.952,9.388v.968A34.482,34.482,0,0,1,3.452,23.418Zm34.631,5.476a62.452,62.452,0,0,1-7.34-4.792V23.091a58.062,58.062,0,0,0,7.738,5.127c1.739,1.021,3.512,2.062,5.327,3.284v.951C41.857,31.11,39.951,29.991,38.083,28.895ZM7.555,22.111a49.526,49.526,0,0,1-4.9-9.634q-.16-.421-.312-.84.242-.479.5-.939.261.748.546,1.5a48.732,48.732,0,0,0,4.829,9.484,33.217,33.217,0,0,0,4.852,5.887v1.08A33.819,33.819,0,0,1,7.555,22.111Zm34.718,5.351c-4.247-2.446-8.293-4.776-12.168-9.284a6.883,6.883,0,0,0-1.988-2.916q-.293-.251-.6-.473A86.53,86.53,0,0,1,19.642.069q.414-.042.829-.069a82.618,82.618,0,0,0,8.242,15.123c4.387,6.15,9.034,8.825,13.953,11.659q.569.328,1.143.66v.909C43.294,28.05,42.782,27.755,42.273,27.462Zm-10.1-13.189A86.6,86.6,0,0,1,24.068.059q.461.045.922.109a84.4,84.4,0,0,0,7.823,13.643,34.3,34.3,0,0,0,11,9.784v.914A35.354,35.354,0,0,1,32.177,14.273ZM11.659,20.8a53.332,53.332,0,0,1-5.046-9.572c-.528-1.3-1-2.591-1.442-3.873q.294-.342.6-.669c.476,1.406.989,2.823,1.568,4.245a52.563,52.563,0,0,0,4.971,9.434q.383.576.771,1.114-.018.371-.018.76v.536Q12.356,21.85,11.659,20.8Zm24.622-7.839A84.932,84.932,0,0,1,29.131,1.139q.326.108.651.225.218.078.433.161a81.94,81.94,0,0,0,6.7,10.974,32.533,32.533,0,0,0,6.754,6.857q.052.514.085,1.042A33.237,33.237,0,0,1,36.281,12.966ZM10.587,10C9.773,8.117,9.06,6.234,8.393,4.374q.328-.244.665-.475c.684,1.916,1.415,3.854,2.251,5.787a58.153,58.153,0,0,0,3.377,6.652,6.867,6.867,0,0,0-.476.735A58.811,58.811,0,0,1,10.587,10Zm29.8,1.661a76.689,76.689,0,0,1-4.739-7.175q.636.466,1.247.979.322.3.632.606c1.09,1.75,2.243,3.457,3.49,5.118q.324.432.65.841.114.237.224.479a19.517,19.517,0,0,1,.728,1.849C41.867,13.539,41.124,12.644,40.384,11.659ZM14.573,8.772C13.581,6.6,12.706,4.419,11.88,2.265q.354-.171.715-.33a81.68,81.68,0,0,0,5.426,11.859q-.359.156-.7.344C16.348,12.447,15.439,10.668,14.573,8.772ZM21.9,13.02q-.214,0-.425.008A91.406,91.406,0,0,1,15.618.849q.383-.11.765-.206A88.672,88.672,0,0,0,22.4,13.031Q22.153,13.02,21.9,13.02Z" transform="translate(241.003 0.046)" fill="#898989" stroke="rgba(0,0,0,0)" stroke-width="1"/><path d="M28.917,91.2A143.368,143.368,0,0,1,20.924,73.38c-2.859-7.266-5.56-14.129-9.956-20.789q-.468-.708-.939-1.358L9.623,49.24c.668.836,1.33,1.745,1.989,2.743,4.446,6.735,7.163,13.64,10.04,20.949a140.452,140.452,0,0,0,8.1,18L29.7,91.2Zm-4.489,0c-2.868-5.331-5.11-10.693-7.293-15.912-1.371-3.279-2.708-6.476-4.16-9.593l-.69-3.389c2.025,4.037,3.769,8.207,5.57,12.516A171.063,171.063,0,0,0,25.4,91.2Zm-4.519,0c-1.045-1.983-2.02-3.971-2.952-5.953L16.214,81.6c1.441,3.189,2.961,6.4,4.667,9.6Zm4.781-19.751C22.036,64.234,19.53,57.417,15.11,50.6a31.738,31.738,0,0,0-6.764-7.626l-.283-1.392A32.215,32.215,0,0,1,15.758,50c4.472,6.9,7,13.762,9.666,21.029,1.67,4.542,3.361,9.143,5.583,13.794L30.724,86.2A150.153,150.153,0,0,1,24.689,71.452ZM28.427,69.5c-1.168-3.435-2.305-6.778-3.663-10.1l.258-1.564q.154.361.306.727C26.782,62.07,28,65.641,29.17,69.094c1,2.951,2.025,5.952,3.218,8.99l-.308,1.5C30.7,76.183,29.558,72.825,28.427,69.5Zm3.712-1.977c-1.058-3.4-2.152-6.921-3.513-10.393-.791-2.019-1.634-3.919-2.542-5.729l.234-1.421a68.086,68.086,0,0,1,3.037,6.7c1.373,3.5,2.472,7.038,3.535,10.456.346,1.111.694,2.23,1.053,3.356L33.6,72.151C33.1,70.595,32.616,69.052,32.14,67.523Zm.5-12.3a58.966,58.966,0,0,0-5.1-10.608q-.132-.216-.265-.426l.211-1.281q.358.543.713,1.121A59.807,59.807,0,0,1,33.371,54.8c.889,2.413,1.63,4.826,2.316,7.2l-.36,1.754C34.534,60.947,33.688,58.081,32.636,55.225Zm4-1.92a55.1,55.1,0,0,0-4.953-10.683,35.056,35.056,0,0,0-3.37-4.714l.189-1.147a35.461,35.461,0,0,1,3.844,5.281A56.026,56.026,0,0,1,37.376,52.9l.11.324-.338,1.647Q36.9,54.087,36.634,53.306ZM19.253,48.6A33.366,33.366,0,0,0,7.168,37.187l-.251-1.234c4.56,2.717,8.888,5.613,12.988,12.054q.964,1.515,1.857,3.122l.427,2.621C21.318,52.042,20.351,50.33,19.253,48.6Zm16.57-7.977A32.567,32.567,0,0,0,29.2,32.514l.175-1.059a33.186,33.186,0,0,1,7.115,8.6,52.2,52.2,0,0,1,2.651,5.1l-.294,1.436A51.2,51.2,0,0,0,35.823,40.628ZM9.445,33.876C8.334,33.208,7.21,32.531,6.07,31.8l-.26-1.274c1.368.906,2.716,1.717,4.043,2.517,3.548,2.137,6.956,4.19,10.217,7.717l.27,1.655C16.888,38.36,13.248,36.167,9.445,33.876Zm30.523,4.757a33,33,0,0,0-9.978-10.9l.167-1.013A33.794,33.794,0,0,1,40.605,38.01l-.263,1.281Q40.158,38.962,39.968,38.633Zm-26.3-6.907a60.079,60.079,0,0,1-8.9-6.306l-.307-1.505.113.1a56.936,56.936,0,0,0,9.509,6.873c1.663,1.024,3.295,2.029,4.894,3.177l.212,1.3C17.4,34.019,15.554,32.885,13.672,31.726Zm17.061-8.5.165-1,.123.082c3.818,2.558,7.472,5.006,10.875,9.409l-.236,1.153C38.259,28.3,34.582,25.806,30.733,23.227ZM17.9,29.577a57.7,57.7,0,0,1-9.574-7.062,46.776,46.776,0,0,1-5.387-6.1l-.427-2.1a47.522,47.522,0,0,0,6.344,7.447A56.139,56.139,0,0,0,18.09,28.6l.2,1.22Zm16.912-8.6c-1.094-.748-2.2-1.506-3.324-2.323l.168-1.017c1.215.895,2.415,1.716,3.6,2.526a53.487,53.487,0,0,1,7.768,6.061L42.8,27.285A50.981,50.981,0,0,0,34.811,20.976ZM12.6,20.259A55.625,55.625,0,0,1,2.431,6.413,28.462,28.462,0,0,1,0,0H.853A27.171,27.171,0,0,0,3.112,5.867a54.847,54.847,0,0,0,10.022,13.65,43.712,43.712,0,0,0,4.033,3.421l.212,1.3A45.207,45.207,0,0,1,12.6,20.259Zm26.441-1.433A73.849,73.849,0,0,1,32.3,13.714l.175-1.061a70.727,70.727,0,0,0,7.012,5.361c1.542,1.076,3.057,2.134,4.537,3.312l-.207,1.01C42.264,21.076,40.668,19.962,39.041,18.826Zm4.226-2.15a59.706,59.706,0,0,1-9.3-7.7q-.376-.395-.746-.8L33.4,7.039q.551.625,1.117,1.219a59.2,59.2,0,0,0,9.2,7.61q.624.444,1.243.888l-.2.989C44.266,17.387,43.768,17.033,43.267,16.676ZM6.8,4.038A25.556,25.556,0,0,1,5.1,0h.879a24.171,24.171,0,0,0,1.5,3.5,57.71,57.71,0,0,0,8.527,12.33l.256,1.569A56.985,56.985,0,0,1,6.8,4.038ZM38.236,6.72a47.111,47.111,0,0,1-3.974-4.879L34.466.6a46.884,46.884,0,0,0,4.333,5.4,51.368,51.368,0,0,0,7.1,6.208l-.2.994A52.772,52.772,0,0,1,38.236,6.72Zm4.273-2.257A47,47,0,0,1,38.893,0h1.089a45.641,45.641,0,0,0,3.094,3.755,45.424,45.424,0,0,0,3.8,3.67l-.209,1.022A46.532,46.532,0,0,1,42.509,4.463Zm-31.347-2.8Q10.75.873,10.381,0H11.3q.262.585.546,1.127,1.213,2.323,2.479,4.39l.357,2.192Q12.865,4.926,11.161,1.661Zm35.621.545Q45.826,1.149,44.914,0h1.142q.638.774,1.3,1.5.3.334.6.654l-.22,1.073Q47.261,2.734,46.783,2.206Z" transform="translate(159.107 0.786)" fill="#898989" stroke="rgba(0,0,0,0)" stroke-width="1"/></g><g transform="translate(871 677.987)"><path d="M21.576-117.056H36.214v70.47a25.038,25.038,0,0,1-1.524,8.86,21.964,21.964,0,0,1-4.582,7.306l-.006.006a22.731,22.731,0,0,1-7.229,5.042,23.887,23.887,0,0,1-9.734,1.861A19.385,19.385,0,0,1,2.266-26.4,35.637,35.637,0,0,1-4.48-31.969l-.56-.619L6.408-41.747l.5.5a12.357,12.357,0,0,0,3.072,2.227,7.651,7.651,0,0,0,3.546.873,9.07,9.07,0,0,0,2.47-.417,6.8,6.8,0,0,0,2.638-1.556l.031-.027a7.579,7.579,0,0,0,2.08-2.965,13.789,13.789,0,0,0,.834-5.265Zm13.066,1.572H23.148v67.1a15.3,15.3,0,0,1-.959,5.879,9.132,9.132,0,0,1-2.516,3.555,8.336,8.336,0,0,1-3.24,1.889,10.606,10.606,0,0,1-2.91.48,9.207,9.207,0,0,1-4.268-1.049,14.086,14.086,0,0,1-2.949-2.027l-9.048,7.239a36.142,36.142,0,0,0,5.874,4.707,17.856,17.856,0,0,0,10.006,2.624,22.337,22.337,0,0,0,9.1-1.726,21.166,21.166,0,0,0,6.73-4.69,20.4,20.4,0,0,0,4.254-6.782,23.475,23.475,0,0,0,1.423-8.305Z" transform="translate(8.613 120.985)" fill="#af9a65"/><path d="M47.337-24.28H6.824v-92.776H47.337v13.869H21.461v25.2H44.006v13.869H21.461v25.2H47.337ZM8.4-25.852H45.765V-37.346H19.89V-65.69H42.434V-76.415H19.89v-28.344H45.765v-10.725H8.4Z" transform="translate(74.442 121.771)" fill="#af9a65"/><path d="M47.337-24.28H6.824v-92.776H47.337v13.869H21.461v25.2H44.006v13.869H21.461v25.2H47.337ZM8.4-25.852H45.765V-37.346H19.89V-65.69H42.434V-76.415H19.89v-28.344H45.765v-10.725H8.4Z" transform="translate(147.527 121.771)" fill="#af9a65"/><path d="M21.461-24.28H6.824v-92.776H27.208a30.048,30.048,0,0,1,9.735,1.452,19.044,19.044,0,0,1,7.75,5.2,20.4,20.4,0,0,1,4.795,8.723,53.467,53.467,0,0,1,1.307,13.2,65.568,65.568,0,0,1-.715,10.5,22.575,22.575,0,0,1-3.115,8.223A19.934,19.934,0,0,1,39.5-62.488,19.343,19.343,0,0,1,34.1-60.533a32.849,32.849,0,0,1-6.76.642H21.461ZM8.4-25.852H19.89v-35.61h7.447c4.709,0,8.546-.807,11.4-2.4a18.382,18.382,0,0,0,6.882-6.7l.006-.01a21.01,21.01,0,0,0,2.9-7.657,64.032,64.032,0,0,0,.694-10.247,51.981,51.981,0,0,0-1.254-12.8,18.847,18.847,0,0,0-4.428-8.058,17.493,17.493,0,0,0-7.109-4.787,28.493,28.493,0,0,0-9.224-1.366H8.4ZM26.952-72.188H19.89v-32.571h7.575a12.818,12.818,0,0,1,6.278,1.254,8.078,8.078,0,0,1,3.4,3.681,14,14,0,0,1,1.227,5.359c.086,1.924.129,3.983.129,6.119,0,2.313-.065,4.443-.194,6.33A12.542,12.542,0,0,1,37-76.969a8.059,8.059,0,0,1-3.533,3.536A14.156,14.156,0,0,1,26.952-72.188ZM21.461-73.76h5.491a12.68,12.68,0,0,0,5.781-1.062A6.431,6.431,0,0,0,35.6-77.681l.009-.018a10.992,10.992,0,0,0,1.126-4.423c.126-1.852.19-3.946.19-6.223,0-2.113-.043-4.149-.127-6.05a12.449,12.449,0,0,0-1.079-4.76,6.449,6.449,0,0,0-2.749-2.98,11.531,11.531,0,0,0-5.507-1.052h-6Z" transform="translate(222.184 121.771)" fill="#af9a65"/><path d="M35.739-116.056v69.684a21.952,21.952,0,0,1-5.892,15.628,21.848,21.848,0,0,1-6.981,4.868,23.005,23.005,0,0,1-9.415,1.793,18.536,18.536,0,0,1-10.44-2.754,34.7,34.7,0,0,1-6.6-5.444l10.248-8.2a13.08,13.08,0,0,0,3.266,2.37,8.391,8.391,0,0,0,3.907.961,9.79,9.79,0,0,0,2.69-.448,7.536,7.536,0,0,0,2.946-1.729,8.31,8.31,0,0,0,2.306-3.266,14.473,14.473,0,0,0,.9-5.572v-67.89Z" transform="translate(3.586 116.056)" fill="#fff"/><path d="M7.824-24.852v-91.2H46.765v12.3H20.89v26.772H43.434v12.3H20.89v26.772H46.765v13.066Z" transform="translate(69.513 116.842)" fill="#fff"/><path d="M7.824-24.852v-91.2H46.765v12.3H20.89v26.772H43.434v12.3H20.89v26.772H46.765v13.066Z" transform="translate(142.598 116.842)" fill="#fff"/><path d="M7.824-24.852v-91.2h19.6a29.135,29.135,0,0,1,9.479,1.409,18.186,18.186,0,0,1,7.43,5,19.536,19.536,0,0,1,4.611,8.39,52.471,52.471,0,0,1,1.281,13,64.493,64.493,0,0,1-.7,10.376,21.693,21.693,0,0,1-3.01,7.942,19.071,19.071,0,0,1-7.173,6.981q-4.483,2.5-11.785,2.5H20.89v35.61ZM20.89-103.759v31h6.277a13.352,13.352,0,0,0,6.149-1.153,7.255,7.255,0,0,0,3.2-3.2,11.706,11.706,0,0,0,1.217-4.74q.192-2.818.192-6.277,0-3.2-.128-6.085a13.164,13.164,0,0,0-1.153-5.06,7.274,7.274,0,0,0-3.074-3.33,12.2,12.2,0,0,0-5.892-1.153Z" transform="translate(217.254 116.842)" fill="#fff"/><path d="M12.466,91.96q-.55-.3-1.115-.632A35.81,35.81,0,0,1,0,80.777l.635-.508A35.18,35.18,0,0,0,11.784,90.653c.849.5,1.657.933,2.428,1.306q-.456.013-.922.013Q12.873,91.973,12.466,91.96Zm.5-4.685A34.483,34.483,0,0,1,3,78.377l.635-.508A33.827,33.827,0,0,0,13.4,86.6a23.755,23.755,0,0,0,9.407,3.528l-.1.047q-.648.288-1.331.53A26.016,26.016,0,0,1,12.963,87.276Zm11.484-.185a26.574,26.574,0,0,1-9.869-3.869,33.979,33.979,0,0,1-8.531-7.283l.454-.363a12.6,12.6,0,0,0,1.344,1.167,33.4,33.4,0,0,0,7.177,5.811,25.758,25.758,0,0,0,9.566,3.759,21.966,21.966,0,0,0,3.82.226q-.462.409-.947.79A21.933,21.933,0,0,1,24.447,87.091ZM26.07,83.25a28.921,28.921,0,0,1-9.88-4.08q-.381-.237-.747-.476.442-.1.921-.236l.135-.041.142.088a28.125,28.125,0,0,0,9.6,3.971,27.749,27.749,0,0,0,5.4.443q-.28.4-.58.785A27.832,27.832,0,0,1,26.07,83.25ZM27.683,79.4a29.748,29.748,0,0,1-7.9-3.1,7.1,7.1,0,0,0,.545-.614,28.858,28.858,0,0,0,7.551,2.952,33.293,33.293,0,0,0,5.772.73q-.172.389-.361.77A33.308,33.308,0,0,1,27.683,79.4Zm1.6-3.855a32.244,32.244,0,0,1-7.349-2.978q.115-.382.208-.8a31.591,31.591,0,0,0,7.369,3.017,37.157,37.157,0,0,0,5.369.957q-.095.389-.2.772A37.7,37.7,0,0,1,29.286,75.547Zm1.594-3.864a36.081,36.081,0,0,1-8.368-3.739c0-.018,0-.036,0-.054v-.885a35.562,35.562,0,0,0,8.62,3.924,40.091,40.091,0,0,0,4.355,1.016q-.032.4-.076.79A41.051,41.051,0,0,1,30.88,71.683Zm1.583-3.873a40.184,40.184,0,0,1-9.82-4.851l-.131-.088V61.9q.3.206.6.41a39.428,39.428,0,0,0,9.625,4.756c.958.316,1.9.586,2.838.824v.818C34.556,68.45,33.518,68.158,32.463,67.81Zm1.571-3.883a43.557,43.557,0,0,1-9.778-5.02q-.919-.624-1.743-1.256V56.63c.689.548,1.427,1.092,2.22,1.63a42.748,42.748,0,0,0,9.6,4.928q.626.226,1.246.429v.836Q34.811,64.206,34.034,63.927ZM25.87,54.853a36.21,36.21,0,0,1-3.357-2.613V51.152a34.711,34.711,0,0,0,3.839,3.058,46.21,46.21,0,0,0,9.226,4.96v.857A47.038,47.038,0,0,1,25.87,54.853ZM27.484,50.8a34.62,34.62,0,0,1-4.971-4.209V45.41a33.358,33.358,0,0,0,5.459,4.751,49.627,49.627,0,0,0,7.607,4.4v.879A50.376,50.376,0,0,1,27.484,50.8ZM29.1,46.748a33.513,33.513,0,0,1-6.584-6.114V39.323a32.573,32.573,0,0,0,7.077,6.789,52.573,52.573,0,0,0,5.988,3.7v.9A53.349,53.349,0,0,1,29.1,46.748ZM30.709,42.7a33.222,33.222,0,0,1-8.2-8.42V32.8a32.814,32.814,0,0,0,8.695,9.266c1.4,1.019,2.852,1.972,4.371,2.869v.928A55.94,55.94,0,0,1,30.709,42.7Zm1.614-4.053a34.388,34.388,0,0,1-9.811-11.21V25.778A34.925,34.925,0,0,0,32.827,38.014q1.383,1.023,2.751,1.914v.952Q33.893,39.8,32.323,38.642Zm1.614-4.053c-6.183-4.652-8.756-9.41-11.425-14.441V18.409q.311.581.615,1.158c2.667,5.032,5.186,9.784,11.317,14.4q.567.426,1.133.832v.985Q34.759,35.206,33.937,34.589Zm1.612-4.053c-6.225-4.764-8.738-9.607-11.4-14.733-.53-1.021-1.066-2.053-1.638-3.1V11.036c.859,1.5,1.619,2.961,2.367,4.4,2.55,4.912,4.962,9.56,10.7,14.1v1.019ZM25.9,11.667c-1.027-2.022-2.077-4.089-3.386-6.221V3.924a75.942,75.942,0,0,1,4.119,7.386c2.252,4.434,4.395,8.652,8.946,12.79v1.08C30.534,20.793,28.276,16.348,25.9,11.667Zm1.75-4.134A73.77,73.77,0,0,0,23.516,0h.966a77.593,77.593,0,0,1,3.9,7.181c1.926,3.873,3.769,7.583,7.193,11.231V19.58C31.686,15.656,29.714,11.687,27.649,7.533ZM29.4,3.4C28.855,2.28,28.3,1.149,27.709,0h.917c.528,1.031,1.022,2.046,1.51,3.052a49.444,49.444,0,0,0,5.441,9.342v1.3A47.012,47.012,0,0,1,29.4,3.4ZM31.5,0h.9a55.706,55.706,0,0,0,3.176,5.917V7.4A52.659,52.659,0,0,1,31.5,0Zm3.78,0h.3V.55Q35.425.275,35.277,0Z" transform="translate(3.747 0)" fill="#898989" stroke="rgba(0,0,0,0)" stroke-width="1"/><path d="M38.17,91.2q-.342-.616-.691-1.21a45.237,45.237,0,0,0-5.163-7.226,37.6,37.6,0,0,0-4.925-4.631h1.252a37.919,37.919,0,0,1,4.261,4.11A46.049,46.049,0,0,1,38.158,89.6q.395.674.782,1.375V91.2Zm-3.871,0a41.657,41.657,0,0,0-4.966-6.6,37.042,37.042,0,0,0-8.148-6.463h1.481a36.164,36.164,0,0,1,7.242,5.926,43.009,43.009,0,0,1,5.278,7.082l.035.058Zm-4.015,0a36.75,36.75,0,0,0-3.939-4.787,36.622,36.622,0,0,0-9.961-6.9c-.843-.444-1.7-.893-2.556-1.375h1.637c.431.231.859.456,1.285.68a37.245,37.245,0,0,1,10.155,7.048A38.1,38.1,0,0,1,31.24,91.2Zm-4.206,0a31.874,31.874,0,0,0-2.726-2.984,32,32,0,0,0-9.819-6.177,39.107,39.107,0,0,1-6.962-3.795A29.488,29.488,0,0,1,0,71.553V70.2a29.59,29.59,0,0,0,7.03,7.415,38.461,38.461,0,0,0,6.829,3.718A32.622,32.622,0,0,1,23.9,87.653,33.2,33.2,0,0,1,27.082,91.2Zm-4.486,0q-.613-.628-1.239-1.192a27.958,27.958,0,0,0-9.684-5.459,33.609,33.609,0,0,1-6.943-3.328A23.675,23.675,0,0,1,0,78.13V77a23.42,23.42,0,0,0,4.163,3.575,32.465,32.465,0,0,0,6.789,3.248c3.741,1.435,7.558,2.9,11.72,7.385Zm-4.969,0A25.3,25.3,0,0,0,7.8,87.04,28.945,28.945,0,0,1,.878,84.193q-.443-.271-.878-.57V82.66q.635.464,1.288.862a27.948,27.948,0,0,0,6.74,2.767c3.154.975,6.363,1.966,9.843,4.915Zm-6.168,0a29.446,29.446,0,0,0-5.547-1.693A32.6,32.6,0,0,1,0,88.088V87.24a30.037,30.037,0,0,0,5.087,1.5A25.79,25.79,0,0,1,12.229,91.2ZM0,91.2v-.367c.708.134,1.417.243,2.132.353l.1.015ZM35.293,80.921c-.855-1.014-1.717-1.934-2.581-2.784h1.111c.692.707,1.383,1.462,2.071,2.277a45.436,45.436,0,0,1,3.047,4.059v1.44A45.608,45.608,0,0,0,35.293,80.921Zm2.974-1.862q-.38-.472-.763-.922h1.025q.175.212.35.429l.062.077v1.273Q38.608,79.482,38.267,79.059Zm-28.859-3.8a33.074,33.074,0,0,1-7.153-7.808A36.052,36.052,0,0,1,0,63.657V61.839a34.192,34.192,0,0,0,2.905,5.174A32.327,32.327,0,0,0,9.888,74.64a32.1,32.1,0,0,0,3.177,2.149V77.7A33.633,33.633,0,0,1,9.408,75.262Zm2.833-3a36,36,0,0,1-7.066-7.976A34.418,34.418,0,0,1,0,51.9V47.578c.869,5.275,1.883,10.346,5.829,16.275a35.214,35.214,0,0,0,6.912,7.8q.162.134.325.264v1Q12.653,72.6,12.241,72.264ZM8.092,61.121C3.84,54.619,3,49.185,2.117,43.432A68.913,68.913,0,0,0,0,33.294V30.819q.2.544.381,1.089a65.027,65.027,0,0,1,2.513,11.4c.873,5.666,1.7,11.019,5.857,17.378a40.234,40.234,0,0,0,4.315,5.533v1.136A40.534,40.534,0,0,1,8.092,61.121Zm2.918-3.166c-4.2-6.528-4.987-11.961-5.824-17.714A64.352,64.352,0,0,0,2.8,28.961,47.128,47.128,0,0,0,0,22.237V20.547a48.951,48.951,0,0,1,3.548,8.172,64.937,64.937,0,0,1,2.415,11.41c.825,5.665,1.6,11.016,5.707,17.4q.68,1.058,1.395,2.048V60.9Q12,59.492,11.01,57.954ZM8.255,37.048A64.147,64.147,0,0,0,5.967,25.765,52,52,0,0,0,0,13.375V11.938a53.871,53.871,0,0,1,6.716,13.59A64.833,64.833,0,0,1,9.034,36.941c.666,4.863,1.3,9.494,4.031,14.766v1.644C9.679,47.426,8.986,42.374,8.255,37.048Zm24.05,14.318q-.2-.233-.4-.468a61.218,61.218,0,0,1-6.3-8.778c-.614-1.045-1.145-2.06-1.607-3.05h.87c.414.864.883,1.747,1.415,2.653a61.388,61.388,0,0,0,7.064,9.644Zm-5.407,0a55.569,55.569,0,0,1-4.214-6.08,34.319,34.319,0,0,1-2.95-6.217h.837a33.613,33.613,0,0,0,2.786,5.814,54.979,54.979,0,0,0,4.548,6.483Zm-5.224,0q-1-1.422-1.908-2.913a33.5,33.5,0,0,1-3.98-9.384H16.6a32.8,32.8,0,0,0,3.837,8.976q1.041,1.708,2.2,3.321Zm-4.983,0c-3.945-6.47-4.636-11.836-5.367-17.511A64.117,64.117,0,0,0,9.132,22.568a53.88,53.88,0,0,0-7.017-14.2A20.953,20.953,0,0,0,0,5.735V4.606A22.5,22.5,0,0,1,2.767,7.929,54.637,54.637,0,0,1,9.883,22.336,64.771,64.771,0,0,1,12.1,33.755c.728,5.662,1.417,11.011,5.412,17.451l.1.159Zm11.9-12.3h.91a65.27,65.27,0,0,0,6.111,8.6v1.224A66.856,66.856,0,0,1,28.589,39.069Zm4.845,0h.94q.608.919,1.236,1.8v1.345C34.866,41.2,34.14,40.155,33.434,39.069ZM12.3,19.372A53.8,53.8,0,0,0,5.4,5.128,24.5,24.5,0,0,0,.7,0H1.9A24.394,24.394,0,0,1,6.056,4.7a54.562,54.562,0,0,1,6.993,14.452l.016.055V22.3C12.848,21.346,12.6,20.373,12.3,19.372ZM36.162,12.3c-.121-1.324-.2-2.644-.284-3.981A77.182,77.182,0,0,0,35.058,0h.8a78.867,78.867,0,0,1,.809,8.268c.082,1.353.164,2.689.288,4.029Zm-3.3,0q-.028-.393-.055-.788A63.024,63.024,0,0,0,31.287.194L31.239,0h.81V.006a63.71,63.71,0,0,1,1.543,11.448q.029.423.059.843Zm-3.321,0A54.316,54.316,0,0,0,28.122,3.39Q27.691,1.7,27.11,0h.83q.537,1.6.943,3.2a55.243,55.243,0,0,1,1.449,9.1Zm-3.458,0a48,48,0,0,0-1.13-5.71A46.475,46.475,0,0,0,22.662,0h.855a47.041,47.041,0,0,1,2.2,6.387,48.926,48.926,0,0,1,1.163,5.91Zm-3.686,0c-.174-.818-.374-1.655-.608-2.514A49.069,49.069,0,0,0,17.9,0h.884A49.556,49.556,0,0,1,22.55,9.576c.254.932.469,1.838.653,2.721Zm-3.971,0A52.848,52.848,0,0,0,12.815,0h.918a53.007,53.007,0,0,1,5.516,12.3Zm-4.291,0A58.127,58.127,0,0,0,8.686,1.888,19.994,19.994,0,0,0,7.291,0H8.3q.569.726,1.045,1.46A58.5,58.5,0,0,1,14.981,12.3ZM38.6,0h.34V4.976C38.855,3.357,38.767,1.713,38.6,0Z" transform="translate(77.337 0.786)" fill="#898989" stroke="rgba(0,0,0,0)" stroke-width="1"/><path d="M36.892,91.2c-.74-.267-1.487-.559-2.242-.883A39.143,39.143,0,0,1,25.5,84.741a33.819,33.819,0,0,1-6.325-6.6h.98A33.178,33.178,0,0,0,26,84.129,38.291,38.291,0,0,0,34.961,89.6c1.347.579,2.674,1.054,3.981,1.471V91.2Zm-9.6,0a41.02,41.02,0,0,1-3.585-2.548,34.611,34.611,0,0,1-8.942-10.517h.909a33.715,33.715,0,0,0,8.52,9.9A38.975,38.975,0,0,0,28.811,91.2Zm-7.04,0c-4.975-4.346-7.308-8.79-9.763-13.469a64.726,64.726,0,0,0-6.024-9.889A46.964,46.964,0,0,0,0,62.823V61.731a48.258,48.258,0,0,1,5.092,5.637,65.407,65.407,0,0,1,6.095,10c2.532,4.823,4.93,9.391,10.28,13.834Zm-5.691,0a52.757,52.757,0,0,1-6-9.486,64.922,64.922,0,0,0-6.113-9.855Q1.3,70.392,0,68.982v-1.15A46.7,46.7,0,0,1,3.065,71.38a65.607,65.607,0,0,1,6.186,9.968A49.885,49.885,0,0,0,15.6,91.2Zm-4.757,0c-1.159-1.8-2.159-3.632-3.179-5.5a65.161,65.161,0,0,0-6.2-9.823Q.214,75.616,0,75.353V74.127q.534.627,1.04,1.266a65.6,65.6,0,0,1,6.276,9.934c1.093,2,2.161,3.959,3.43,5.877Zm-4.264,0c-.283-.5-.565-1.008-.847-1.516A77.163,77.163,0,0,0,0,82.005v-1.33A72.071,72.071,0,0,1,5.381,89.3c.355.637.707,1.27,1.064,1.9Zm-4.2,0C.916,90.469.471,89.728,0,88.98V87.529C.82,88.773,1.556,90,2.256,91.2ZM36.4,86.572A42.421,42.421,0,0,1,27.3,80.829a36.23,36.23,0,0,1-2.953-2.69h1.115c.713.7,1.488,1.389,2.335,2.081a41.615,41.615,0,0,0,8.927,5.64c.743.344,1.481.66,2.215.954v.846C38.1,87.328,37.251,86.969,36.4,86.572Zm1.738-3.758a45.536,45.536,0,0,1-7.5-4.676h1.312a44.64,44.64,0,0,0,6.538,3.971q.229.114.458.224v.872Q38.538,83.014,38.133,82.814Zm.083-4.676h.724v.408Q38.576,78.345,38.217,78.138ZM12.424,73.75a64.639,64.639,0,0,0-5.933-9.922,48.845,48.845,0,0,0-6.491-7V55.775a50.13,50.13,0,0,1,7.119,7.579,64.749,64.749,0,0,1,5.947,9.926v1.714Q12.745,74.375,12.424,73.75ZM8.512,59.809A50.907,50.907,0,0,0,0,50.951V49.934a52.2,52.2,0,0,1,9.144,9.408,51.791,51.791,0,0,1,3.923,6.222v1.674A54.226,54.226,0,0,0,8.512,59.809Zm2.023-4.018A53.131,53.131,0,0,0,0,45.173V44.18A54.449,54.449,0,0,1,11.17,55.329c.694.953,1.321,1.891,1.9,2.814V59.66C12.322,58.4,11.493,57.107,10.535,55.791Zm2.023-4.018A53.912,53.912,0,0,0,1.395,40.515Q.737,40.008,0,39.536V38.61a20.613,20.613,0,0,1,1.875,1.283A54.691,54.691,0,0,1,13.2,51.316l.035.05h-.166V52.5Q12.818,52.137,12.558,51.773ZM32.8,51.366a53.088,53.088,0,0,1-4.912-9.492c-.4-.925-.8-1.859-1.233-2.8h.862c.376.839.736,1.669,1.092,2.492a50.455,50.455,0,0,0,5.154,9.8Zm-4.249,0c-.958-1.812-1.769-3.642-2.6-5.508-.974-2.2-1.971-4.449-3.261-6.789h.9c1.2,2.229,2.154,4.373,3.084,6.471.876,1.976,1.733,3.911,2.77,5.826Zm-3.836,0q-.348-.758-.693-1.523a63.774,63.774,0,0,0-5.393-10.124q-.222-.326-.45-.65h.958l.143.209a64.422,64.422,0,0,1,5.459,10.241c.281.62.56,1.235.843,1.847Zm-3.779,0a54.08,54.08,0,0,0-4.33-7.629A53.8,53.8,0,0,0,5.643,32.321,24.071,24.071,0,0,0,0,29.068v-.851a25.158,25.158,0,0,1,6.132,3.49,61.962,61.962,0,0,1,6.934,6.384v.978h.881a46.582,46.582,0,0,1,3.3,4.221A55.771,55.771,0,0,1,21.8,51.366Zm-4.056,0c-.679-1.181-1.433-2.383-2.3-3.611A53.873,53.873,0,0,0,3.518,36.418,21.706,21.706,0,0,0,0,34.2V33.32A22.856,22.856,0,0,1,4,35.8a54.656,54.656,0,0,1,11.22,11.5c.976,1.388,1.812,2.74,2.558,4.063Zm13.44-12.3h.855a44.459,44.459,0,0,0,4.439,8.357v1.339A43.772,43.772,0,0,1,30.317,39.069Zm3.689,0h.877q.348.7.728,1.4V42.06C35.017,41.065,34.491,40.069,34.006,39.069ZM7.765,28.224A26.428,26.428,0,0,0,0,24.08v-.834a27.521,27.521,0,0,1,8.26,4.367q2.615,2.119,4.806,4.279V33A64.187,64.187,0,0,0,7.765,28.224Zm2.125-4.1A28.862,28.862,0,0,0,0,19.193v-.822A29.9,29.9,0,0,1,10.391,23.52q1.4,1.154,2.676,2.317v1.069Q11.568,25.508,9.891,24.127Zm2.124-4.1A30.288,30.288,0,0,0,.91,14.638Q.461,14.51,0,14.386v-.813q.569.15,1.12.308a31.046,31.046,0,0,1,11.4,5.546q.276.231.547.463v1.037Q12.55,20.479,12.014,20.031ZM3.078,10.451Q1.6,10.014,0,9.636V8.829q1.717.4,3.3.867a34.126,34.126,0,0,1,9.77,4.425v.966A32.455,32.455,0,0,0,3.078,10.451ZM37.221,12.3A46.952,46.952,0,0,0,34.8,7.575,47.885,47.885,0,0,0,29.244,0H30.29a48.141,48.141,0,0,1,5.192,7.177,48.2,48.2,0,0,1,2.6,5.12Zm-4.026,0q-.2-.35-.413-.7A52.751,52.751,0,0,0,23.131,0h1.149a52.72,52.72,0,0,1,9.177,11.19q.334.558.642,1.108Zm-4.667,0a57.651,57.651,0,0,0-8.016-8.655A24.278,24.278,0,0,0,14.907,0h1.715a23.516,23.516,0,0,1,4.412,3.057A57.8,57.8,0,0,1,29.5,12.3Zm-5.437,0a64.809,64.809,0,0,0-4.7-4.558A30.347,30.347,0,0,0,7.412,2.076,64.46,64.46,0,0,0,0,.258V0H2.656Q5.3.591,7.648,1.326A31.111,31.111,0,0,1,18.905,7.149,64.458,64.458,0,0,1,24.156,12.3Zm-6.3,0q-.261-.231-.528-.461A30.3,30.3,0,0,0,5.248,6.264Q2.8,5.517,0,4.93v-.8q2.915.6,5.472,1.383a31.076,31.076,0,0,1,11.3,5.73q.61.528,1.194,1.056ZM36.827,3.556Q35.79,1.755,34.544,0H35.5q1.084,1.565,2,3.164c.527.915,1,1.812,1.432,2.692v1.85A46.2,46.2,0,0,0,36.827,3.556Z" transform="translate(150.421 0.786)" fill="#898989" stroke="rgba(0,0,0,0)" stroke-width="1"/><path d="M5.422,91.2A57.142,57.142,0,0,0,0,89.315v-.987A52.062,52.062,0,0,1,7.75,91.2Zm-4.034-5.52L0,85.275v-.986q.826.247,1.642.486A60.174,60.174,0,0,1,13.065,89.01v1.07A57.748,57.748,0,0,0,1.388,85.684Zm4.418-2.751C3.913,82.359,1.988,81.774,0,81.068v-1c2.08.75,4.091,1.36,6.068,1.96,2.363.718,4.678,1.421,7,2.328V85.37C10.66,84.407,8.259,83.678,5.806,82.934Zm4.42-2.751A82.314,82.314,0,0,1,0,76.451V75.412a79.5,79.5,0,0,0,10.5,3.865c.862.27,1.718.538,2.57.815v.993C12.125,80.778,11.179,80.481,10.226,80.183Zm-8.1-7.734Q1.057,71.88,0,71.25v-1.1q1.267.772,2.549,1.455a63.993,63.993,0,0,0,10.516,4.318v.993A65.738,65.738,0,0,1,2.127,72.449Zm4.451-2.864A53.95,53.95,0,0,1,0,65.349V64.174a53.488,53.488,0,0,0,7.006,4.573,54.364,54.364,0,0,0,6.06,2.81v1.014A55.6,55.6,0,0,1,6.578,69.585Zm4.449-2.863A58.312,58.312,0,0,1,0,58.682V57.412a58.092,58.092,0,0,0,11.462,8.476q.81.449,1.6.852v1.054Q12.06,67.293,11.027,66.722ZM.808,52.057Q.4,51.625,0,51.158V49.687q.712.915,1.461,1.7a65.781,65.781,0,0,0,11.6,9.9v1.119A65.987,65.987,0,0,1,.808,52.057Zm4.533-3A31.607,31.607,0,0,1,0,40.8V38.514A32.909,32.909,0,0,0,6,48.4a71.89,71.89,0,0,0,7.7,7.194h-.632v.693A72.958,72.958,0,0,1,5.341,49.059Zm4.533-2.995c-2.86-3.115-5.293-7.576-7.23-13.259A81.529,81.529,0,0,1,0,22.877V17.724A89.221,89.221,0,0,0,3.5,32.487c1.895,5.556,4.261,9.9,7.033,12.923A65.918,65.918,0,0,0,22.019,55.528q-.762.045-1.557.059A68.352,68.352,0,0,1,9.874,46.065ZM14.613,43.3h1.264A61.774,61.774,0,0,0,28.945,54.241q-.573.2-1.18.373A64.334,64.334,0,0,1,14.613,43.3Zm7.213-.132q.6-.069,1.14-.175a58.245,58.245,0,0,0,10.777,8.6l.042.026q-.405.307-.829.593A60.054,60.054,0,0,1,21.826,43.164ZM27.132,41a7.039,7.039,0,0,0,.648-.671,58.932,58.932,0,0,0,9.512,7.819q-.291.374-.6.73A59.924,59.924,0,0,1,27.132,41Zm2.557-5.02q.107-.576.171-1.2a64.62,64.62,0,0,0,10,9.183q-.2.427-.429.847A64.687,64.687,0,0,1,29.689,35.983ZM7.278,29.745A91.682,91.682,0,0,1,3.73,13.937C2.954,8.479,2.614,3.471,2.465,0H3.38c.148,3.444.487,8.4,1.256,13.807A90.62,90.62,0,0,0,8.144,29.44a41.932,41.932,0,0,0,4.922,10.413v1.589A40.764,40.764,0,0,1,7.278,29.745Zm25.259,1.341A26,26,0,0,1,30.1,27.653q0-.966-.015-1.9a26.7,26.7,0,0,0,3.138,4.71,71.01,71.01,0,0,0,8.339,8.429q-.1.517-.232,1.026A71.352,71.352,0,0,1,32.537,31.086Zm4.533-3c-2.724-3.271-4.951-7.864-6.617-13.653A87.212,87.212,0,0,1,27.831,1.022q.487.136.958.291A85.4,85.4,0,0,0,31.33,14.167c1.63,5.657,3.794,10.132,6.433,13.3q2.248,2.7,4.521,5-.034.634-.077,1.241Q39.614,31.145,37.07,28.089Zm-25.158-1.4A91.575,91.575,0,0,1,8.494,10.841c-.535-4-.839-7.754-1.01-10.841H8.4c.17,3.053.471,6.759,1,10.706a90.663,90.663,0,0,0,3.38,15.673q.142.438.287.866v2.68Q12.459,28.377,11.912,26.684Zm29.69-1.59c-2.7-3.3-4.894-7.913-6.515-13.72a77.262,77.262,0,0,1-1.708-7.738q.546.388,1.075.825c.431,2.365.936,4.587,1.513,6.652,1.585,5.675,3.715,10.172,6.333,13.366l.044.054q.026.735.04,1.5Q41.993,25.571,41.6,25.094ZM24.638,12.955a101.776,101.776,0,0,1-1.855-11.4Q22.7.831,22.635.121q.469.039.928.09.06.612.128,1.233a99.327,99.327,0,0,0,1.993,11.973A7,7,0,0,0,24.638,12.955ZM19.855,12.3h-.676Q18.492,8.675,18.02,4.65c-.187-1.6-.338-3.157-.46-4.65h.917c.119,1.455.267,2.974.449,4.53q.479,4.09,1.184,7.769Zm-5.937,0q-.367-2.209-.661-4.552C12.912,5,12.676,2.376,12.515,0h.916c.16,2.344.394,4.931.733,7.631q.3,2.4.681,4.666Z" transform="translate(225.078 0.786)" fill="#898989" stroke="rgba(0,0,0,0)" stroke-width="1"/></g><g transform="translate(489.715 839.773)"><path d="M47.337-24.28H6.824v-92.776H47.337v13.869H21.461v25.2H44.006v13.869H21.461v25.2H47.337ZM8.4-25.852H45.765V-37.346H19.89V-65.69H42.434V-76.415H19.89v-28.344H45.765v-10.725H8.4Z" transform="translate(78.049 121.771)" fill="#af9a65"/><path d="M47.337-24.28H6.824v-92.776H47.337v13.869H21.461v25.2H44.006v13.869H21.461v25.2H47.337ZM8.4-25.852H45.765V-37.346H19.89V-65.69H42.434V-76.415H19.89v-28.344H45.765v-10.725H8.4Z" transform="translate(235.221 121.771)" fill="#af9a65"/><path d="M47.337-24.28H6.824v-92.776H47.337v13.869H21.461v25.2H44.006v13.869H21.461v25.2H47.337ZM8.4-25.852H45.765V-37.346H19.89V-65.69H42.434V-76.415H19.89v-28.344H45.765v-10.725H8.4Z" transform="translate(550.351 121.771)" fill="#af9a65"/><path d="M28.536-118.034a23.963,23.963,0,0,1,8.144,1.456,24.111,24.111,0,0,1,7.348,4.237l.026.022a22.328,22.328,0,0,1,5.18,7.3,24.186,24.186,0,0,1,1.992,10.06v5.4H36.589v-5.4a10.959,10.959,0,0,0-.606-3.838,6.122,6.122,0,0,0-1.744-2.545,8.426,8.426,0,0,0-5.7-2.054,8.426,8.426,0,0,0-5.7,2.054A6.122,6.122,0,0,0,21.09-98.8a10.959,10.959,0,0,0-.606,3.838V-46.8a10.959,10.959,0,0,0,.606,3.838,6.122,6.122,0,0,0,1.744,2.545,8.426,8.426,0,0,0,5.7,2.054,8.426,8.426,0,0,0,5.7-2.054,6.122,6.122,0,0,0,1.744-2.545,10.959,10.959,0,0,0,.606-3.838V-63.175H26.213v-13.1H51.226V-46.8a23.968,23.968,0,0,1-2,10.2,21.222,21.222,0,0,1-5.19,7.047,22.847,22.847,0,0,1-7.36,4.375,23.963,23.963,0,0,1-8.144,1.456,23.963,23.963,0,0,1-8.144-1.456,21.431,21.431,0,0,1-7.233-4.376A20.43,20.43,0,0,1,7.842-36.6a23.968,23.968,0,0,1-2-10.2V-94.96a24.186,24.186,0,0,1,1.992-10.06,21.446,21.446,0,0,1,5.32-7.31,22.547,22.547,0,0,1,7.234-4.248A23.963,23.963,0,0,1,28.536-118.034ZM43-111.149a22.542,22.542,0,0,0-6.857-3.951,22.4,22.4,0,0,0-7.611-1.362,22.4,22.4,0,0,0-7.611,1.362,20.979,20.979,0,0,0-6.73,3.951,19.885,19.885,0,0,0-4.926,6.779,22.634,22.634,0,0,0-1.851,9.41V-46.8a22.427,22.427,0,0,0,1.847,9.53,18.866,18.866,0,0,0,4.918,6.521l.026.022a19.867,19.867,0,0,0,6.717,4.067,22.4,22.4,0,0,0,7.611,1.362,22.4,22.4,0,0,0,7.611-1.362A21.285,21.285,0,0,0,43-30.733a19.665,19.665,0,0,0,4.8-6.533,22.427,22.427,0,0,0,1.847-9.53V-74.7H27.785v9.957H38.161V-46.8c0,3.385-.976,5.935-2.9,7.579a10.068,10.068,0,0,1-6.723,2.43,10.068,10.068,0,0,1-6.723-2.43c-1.925-1.644-2.9-4.193-2.9-7.579V-94.96c0-3.385.976-5.935,2.9-7.579a10.068,10.068,0,0,1,6.723-2.43,10.068,10.068,0,0,1,6.723,2.43c1.925,1.644,2.9,4.194,2.9,7.579v3.826H49.655V-94.96a22.634,22.634,0,0,0-1.851-9.41A20.775,20.775,0,0,0,43-111.149Z" transform="translate(310.087 121.963)" fill="#af9a65"/><path d="M52.662-24.28H37.969l-3.843-19.6H17.614l-3.843,19.6H-.922L19.8-117.056H31.944Zm-13.4-1.572H50.7L30.684-115.484H21.056L1.039-25.852H12.478l3.843-19.6h19.1ZM33.292-56.176H18.32L25.03-90.8h1.553ZM20.226-57.748h11.16l-5.58-28.793Z" transform="translate(393.266 121.771)" fill="#af9a65"/><path d="M25.8-24.28H6.824v-92.776H26.952a30.157,30.157,0,0,1,10.177,1.583,19.089,19.089,0,0,1,7.494,4.81,20.6,20.6,0,0,1,4.546,7.721,32.381,32.381,0,0,1,1.5,10.241v42.656a36.668,36.668,0,0,1-1.592,11.374,19.781,19.781,0,0,1-4.856,8.082,20.605,20.605,0,0,1-7.87,4.746A32.835,32.835,0,0,1,25.8-24.28ZM8.4-25.852H25.8a31.281,31.281,0,0,0,10.042-1.479,19.048,19.048,0,0,0,7.277-4.381,18.23,18.23,0,0,0,4.463-7.45A35.118,35.118,0,0,0,49.1-50.045V-92.7a30.824,30.824,0,0,0-1.416-9.742,19.039,19.039,0,0,0-4.2-7.138,17.533,17.533,0,0,0-6.885-4.413,28.6,28.6,0,0,0-9.645-1.491H8.4ZM26.7-36.578H19.89v-68.181H26.7a14.908,14.908,0,0,1,5.141.786,7.321,7.321,0,0,1,3.433,2.479C36.817-99.4,37.6-96.442,37.6-92.7v43.937a20.848,20.848,0,0,1-.6,5.31,9.888,9.888,0,0,1-1.886,3.841,7.766,7.766,0,0,1-3.448,2.3A15.062,15.062,0,0,1,26.7-36.578Zm-5.235-1.572H26.7c3.411,0,5.838-.832,7.211-2.473,1.408-1.682,2.122-4.422,2.122-8.142V-92.7c0-3.4-.681-6.042-2.024-7.859a5.781,5.781,0,0,0-2.716-1.94,13.372,13.372,0,0,0-4.594-.687H21.461Z" transform="translate(470.193 121.771)" fill="#af9a65"/><path d="M53.346-24.28H39.713l-18.9-51.863V-24.28H6.172v-92.776H20.064L38.708-65.119v-51.937H53.346ZM40.813-25.852H51.774v-89.632H40.28v54.953H38.685L18.958-115.484H7.744v89.632H19.238V-80.677H20.83Z" transform="translate(152.059 121.771)" fill="#af9a65"/><path d="M6.824-117.056H28.617a28.767,28.767,0,0,1,10.371,1.726,18.683,18.683,0,0,1,7.517,5.24,22.739,22.739,0,0,1,4.483,8.662A43.612,43.612,0,0,1,52.46-89.5,34.666,34.666,0,0,1,49.9-75.474a18.368,18.368,0,0,1-3.6,5.319,22.78,22.78,0,0,1-4.945,3.821L55.588-24.28H40.081L27.912-63.221h-6.45V-24.28H6.824ZM53.4-25.852,39.447-67.068l.576-.317a21.594,21.594,0,0,0,5.146-3.86,16.8,16.8,0,0,0,3.29-4.865A33.127,33.127,0,0,0,50.889-89.5a42.06,42.06,0,0,0-1.411-11.5,21.187,21.187,0,0,0-4.163-8.07,17.128,17.128,0,0,0-6.894-4.8,27.216,27.216,0,0,0-9.8-1.62H8.4v89.632H19.89V-64.793h9.177L41.236-25.852ZM19.89-104.759h7.575a16.652,16.652,0,0,1,5.985.95,8.117,8.117,0,0,1,3.888,2.981l.024.037A13.01,13.01,0,0,1,39-95.953a43.471,43.471,0,0,1,.393,6.2,43.471,43.471,0,0,1-.393,6.2,13.352,13.352,0,0,1-1.5,4.7l-.021.035a8.294,8.294,0,0,1-3.53,3.041,13.96,13.96,0,0,1-5.842,1.035H19.89Zm16.135,4.8a6.586,6.586,0,0,0-3.145-2.381,15.119,15.119,0,0,0-5.415-.843h-6v26.865h6.644a12.461,12.461,0,0,0,5.175-.886,6.749,6.749,0,0,0,2.864-2.45,11.832,11.832,0,0,0,1.3-4.125,41.917,41.917,0,0,0,.376-5.971,41.917,41.917,0,0,0-.376-5.971A11.472,11.472,0,0,0,36.025-99.963Z" transform="translate(-2.895 121.771)" fill="#af9a65"/><path d="M7.824-24.852v-91.2H46.765v12.3H20.89v26.772H43.434v12.3H20.89v26.772H46.765v13.066Z" transform="translate(73.12 116.842)" fill="#fff"/><path d="M7.824-24.852v-91.2H46.765v12.3H20.89v26.772H43.434v12.3H20.89v26.772H46.765v13.066Z" transform="translate(230.292 116.842)" fill="#fff"/><path d="M7.824-24.852v-91.2H46.765v12.3H20.89v26.772H43.434v12.3H20.89v26.772H46.765v13.066Z" transform="translate(545.422 116.842)" fill="#fff"/><path d="M6.846-94.745a23.3,23.3,0,0,1,1.921-9.735,20.572,20.572,0,0,1,5.124-7.045,21.662,21.662,0,0,1,6.981-4.1,23.073,23.073,0,0,1,7.878-1.409,23.073,23.073,0,0,1,7.878,1.409,23.22,23.22,0,0,1,7.109,4.1,21.449,21.449,0,0,1,5,7.045,23.3,23.3,0,0,1,1.921,9.735v4.611H37.589v-4.611q0-4.74-2.626-6.981a9.262,9.262,0,0,0-6.213-2.242,9.262,9.262,0,0,0-6.213,2.242q-2.626,2.242-2.626,6.981v48.164q0,4.74,2.626,6.981a9.262,9.262,0,0,0,6.213,2.242A9.262,9.262,0,0,0,34.963-39.6q2.626-2.242,2.626-6.981V-63.746H27.213V-75.275H50.655v28.693a23.09,23.09,0,0,1-1.921,9.863,20.349,20.349,0,0,1-5,6.789A21.966,21.966,0,0,1,36.628-25.7a23.073,23.073,0,0,1-7.878,1.409A23.073,23.073,0,0,1,20.872-25.7a20.554,20.554,0,0,1-6.981-4.227,19.556,19.556,0,0,1-5.124-6.789,23.09,23.09,0,0,1-1.921-9.863Z" transform="translate(305.158 117.034)" fill="#fff"/><path d="M32.606-56.748,26.2-89.8h-.256l-6.4,33.049ZM.326-24.852l20.367-91.2H31.581l20.367,91.2H38.883l-3.843-19.6H17.235l-3.843,19.6Z" transform="translate(388.283 116.842)" fill="#fff"/><path d="M7.824-24.852v-91.2H27.166q11.272,0,17.1,6.149T50.1-92.486v42.656q0,12.81-6.213,18.894T26.014-24.852ZM20.89-103.759v66.61h6.02q5.508,0,7.814-2.754T37.03-48.55V-92.486q0-5.38-2.178-8.326t-7.942-2.946Z" transform="translate(465.264 116.842)" fill="#fff"/><path d="M7.172-24.852v-91.2H19.725L39.452-61.1h.256v-54.953H52.774v91.2h-12.3L20.494-79.677h-.256v54.825Z" transform="translate(147.13 116.842)" fill="#fff"/><path d="M20.89-103.759v28.437h7.43a13.146,13.146,0,0,0,5.508-.961,7.486,7.486,0,0,0,3.2-2.754,12.52,12.52,0,0,0,1.409-4.419,42.493,42.493,0,0,0,.384-6.085,42.493,42.493,0,0,0-.384-6.085,12.176,12.176,0,0,0-1.537-4.547q-2.434-3.587-9.223-3.587ZM7.824-24.852v-91.2H28.832q23.057,0,23.057,26.772a33.739,33.739,0,0,1-2.5,13.706,19.369,19.369,0,0,1-8.775,9.095l14.09,41.631H40.873L28.7-63.793H20.89v38.941Z" transform="translate(-7.824 116.842)" fill="#fff"/><path d="M35.993,91.2a67.173,67.173,0,0,1-4.849-6.634,56.733,56.733,0,0,1-3.554-6.431h.832a56.35,56.35,0,0,0,3.3,5.918A67.163,67.163,0,0,0,37.01,91.2Zm-4.119,0a60.6,60.6,0,0,1-7.965-13.065h.819a57.888,57.888,0,0,0,4.43,8c1.134,1.719,2.364,3.4,3.711,5.065Zm-4.1,0a61.768,61.768,0,0,1-7.555-13.065h.818A61.2,61.2,0,0,0,28.75,91.2Zm-4.074,0a65.174,65.174,0,0,1-7.191-13.065h.812A64.2,64.2,0,0,0,24.655,91.2Zm-4.038,0a66.3,66.3,0,0,1-4.31-7.378A125.465,125.465,0,0,1,8.41,65.831C6.278,59.3,4.266,53.123.927,47.172Q.469,46.356,0,45.62v-1.4c.519.758,1.029,1.578,1.531,2.471,3.374,6.013,5.4,12.22,7.542,18.792,1.228,3.766,2.47,7.574,3.993,11.4v1.254h.51A69.6,69.6,0,0,0,20.591,91.2Zm-4.012,0c-1.108-1.73-2.152-3.535-3.149-5.448a135.409,135.409,0,0,1-7.55-18.59C3.378,62.655,1.868,58.315,0,54.157V52.366A144.134,144.134,0,0,1,5.605,66.806,134.775,134.775,0,0,0,13.112,85.3c1.087,2.084,2.229,4.039,3.451,5.908Zm-3.988,0q-1.039-1.7-2.021-3.522A145.368,145.368,0,0,1,1.47,68.488C.978,67.153.491,65.833,0,64.529V62.444c.715,1.857,1.413,3.749,2.122,5.672a144.784,144.784,0,0,0,8.126,19.1C11,88.6,11.764,89.926,12.559,91.2Zm-3.974,0q-.461-.786-.914-1.6A125.593,125.593,0,0,1,0,74.963V72.945A132.873,132.873,0,0,0,7.376,89.129q.591,1.061,1.2,2.075Zm-3.973,0C2.364,88.832,1.14,86.428,0,84.013V82.234c1.361,2.963,2.836,5.914,4.5,8.812l.091.158ZM0,91.2V90.118q.3.545.6,1.086Zm33.7-8.726c-.889-1.443-1.693-2.882-2.422-4.339h.846c.659,1.286,1.378,2.559,2.165,3.836a66.569,66.569,0,0,0,4.65,6.579v1.242A68.139,68.139,0,0,1,33.7,82.477Zm2.553-2.1q-.669-1.125-1.267-2.243h.862q.478.873,1,1.749.974,1.639,2.091,3.274v1.354C37.967,83.133,37.075,81.76,36.255,80.382Zm2.548-2.1-.083-.145h.221v.384Zm-26.951-13.8C9.887,58,8.031,51.869,4.683,45.782A28.046,28.046,0,0,0,0,39.428V38.314a28.4,28.4,0,0,1,5.289,6.994c3.386,6.155,5.253,12.321,7.23,18.847q.272.9.547,1.8v2.492C12.651,67.122,12.25,65.8,11.852,64.484ZM8.438,44.391A28.108,28.108,0,0,0,0,34.686v-1A28.951,28.951,0,0,1,9.047,43.924a61.733,61.733,0,0,1,4.018,9.29v2.341A64.327,64.327,0,0,0,8.438,44.391Zm26.629,6.975c-.2-1.842-.446-3.726-.84-5.653a41.051,41.051,0,0,0-1.945-6.644h.794a41.869,41.869,0,0,1,1.836,6.388c.3,1.49.524,2.949.7,4.381v1.529Zm-3.633,0c-.221-1.411-.482-2.842-.816-4.29a44.642,44.642,0,0,0-2.644-8.007h.815A45.429,45.429,0,0,1,31.3,46.8c.356,1.546.63,3.068.861,4.565Zm-3.759,0c-.2-.975-.421-1.955-.672-2.941a47.847,47.847,0,0,0-3.422-9.357h.836a48.753,48.753,0,0,1,3.262,9.063c.277,1.086.517,2.165.733,3.234Zm-3.872,0q-.2-.8-.425-1.6a51.155,51.155,0,0,0-3.673-9.545q-.3-.594-.611-1.149h.865q.183.341.363.7a51.937,51.937,0,0,1,3.728,9.686q.267.96.5,1.915Zm-3.975,0-.083-.277a54.576,54.576,0,0,0-3.8-9.481c-.475-.917-.963-1.76-1.461-2.54h.9q.6.975,1.172,2.082a55.346,55.346,0,0,1,3.848,9.611q.091.3.179.6Zm-4.065,0A56.558,56.558,0,0,0,12.194,43C8.871,36.714,4.986,33.964.873,31.052L0,30.433v-.987c.431.309.86.613,1.286.914,4.176,2.956,8.122,5.749,11.52,12.177a58.038,58.038,0,0,1,3.732,8.829ZM4.714,29.534C3.171,28.419,1.6,27.282,0,25.925V24.871c1.737,1.521,3.454,2.76,5.132,3.973a39.2,39.2,0,0,1,7.933,6.946v1.252A36.821,36.821,0,0,0,4.714,29.534Zm3.841-1.519A50.756,50.756,0,0,1,.676,21.261Q.335,20.888,0,20.5V19.293q.584.7,1.188,1.362a50.242,50.242,0,0,0,7.789,6.673c1.394,1.028,2.761,2.036,4.088,3.17v1.058C11.609,30.266,10.1,29.152,8.555,28.014ZM12.4,26.5a50.978,50.978,0,0,1-7.832-6.842A41.454,41.454,0,0,1,0,13.472V11.978a41.711,41.711,0,0,0,5.081,7.074,50.457,50.457,0,0,0,7.743,6.762l.241.181v1ZM8.453,18.048A48.593,48.593,0,0,1,.595,5.312Q.275,4.59,0,3.794V1.16A21.579,21.579,0,0,0,1.229,4.9,47.886,47.886,0,0,0,8.973,17.451a39.612,39.612,0,0,0,4.092,3.984v1.043A40.946,40.946,0,0,1,8.453,18.048Zm3.889-1.608A48.809,48.809,0,0,1,4.573,3.609,22.1,22.1,0,0,1,3.392,0h.749A21,21,0,0,0,5.21,3.2a48.166,48.166,0,0,0,7.656,12.651l.2.228v1.172Q12.7,16.856,12.342,16.44ZM35.316,12.3a40.839,40.839,0,0,1-3.533-3.892A44.857,44.857,0,0,1,26.582,0h.839a43.748,43.748,0,0,0,4.9,7.836A41.35,41.35,0,0,0,36.464,12.3Zm-5.422,0c-.666-.7-1.334-1.461-2-2.285A46.38,46.38,0,0,1,21.843,0h.826a45.2,45.2,0,0,0,5.763,9.438c.852,1.053,1.706,1.994,2.559,2.86Zm-5.316,0q-.286-.331-.572-.678A47.9,47.9,0,0,1,17.133,0h.816a46.782,46.782,0,0,0,6.593,11.04q.541.657,1.083,1.258Zm-5.215,0A50.812,50.812,0,0,1,12.528.205C12.5.137,12.472.069,12.445,0h.806a48.98,48.98,0,0,0,7.112,12.3Zm-5.12,0A53.185,53.185,0,0,1,8.55,1.907,20.127,20.127,0,0,1,7.858,0H8.63q.257.787.56,1.5A51.522,51.522,0,0,0,15.2,12.3ZM35.671,6.8A43.479,43.479,0,0,1,31.356,0h.854a42.336,42.336,0,0,0,4.006,6.233,39.576,39.576,0,0,0,2.724,3.132v1.129A40.732,40.732,0,0,1,35.671,6.8Zm.5-6.8h.873q.909,1.59,1.9,3.023V4.362A43.039,43.039,0,0,1,36.173,0Z" transform="translate(80.944 0.786)" fill="#898989" stroke="rgba(0,0,0,0)" stroke-width="1"/><path d="M37.74,91.2A64.235,64.235,0,0,1,26.253,78.138h.936c1.035,1.508,2.142,3.01,3.35,4.5a61.135,61.135,0,0,0,7.138,7.427q.624.549,1.264,1.084V91.2Zm-5.237,0A73.575,73.575,0,0,1,21.908,78.138h.926A71.175,71.175,0,0,0,33.69,91.2Zm-5.01,0a91.517,91.517,0,0,1-10-13.065h.923A87.209,87.209,0,0,0,28.61,91.2Zm-4.844,0a142.3,142.3,0,0,1-11.392-15.68A122.23,122.23,0,0,0,0,60.186V59c4.519,4.874,8.066,10.267,11.8,15.951q.629.957,1.262,1.917v1.27h.843a115.878,115.878,0,0,0,9.8,13.065Zm-4.769,0c-3.555-4.32-6.629-8.8-9.625-13.172C5.52,74.044,2.884,70.2,0,66.623V65.371c3.1,3.772,5.891,7.843,8.793,12.075,3.134,4.57,6.354,9.267,10.116,13.759Zm-4.749,0c-2.808-3.529-5.379-7.136-7.9-10.671C3.472,78.064,1.752,75.649,0,73.328v-1.3c1.936,2.537,3.826,5.187,5.762,7.9,2.663,3.735,5.384,7.553,8.38,11.269Zm-4.778,0c-2.133-2.721-4.163-5.469-6.162-8.175Q1.087,81.535,0,80.071V78.762q1.348,1.8,2.712,3.656C4.86,85.328,7.045,88.286,9.354,91.2Zm-4.843,0Q1.725,88.929,0,86.659V85.367C1.478,87.3,2.974,89.257,4.51,91.2ZM32.221,80.327q-.855-1.092-1.637-2.189h.963q.572.781,1.181,1.56a58.643,58.643,0,0,0,6.213,6.773v1.112A59.486,59.486,0,0,1,32.221,80.327Zm2.751-2.189h1c.939,1.17,1.923,2.3,2.963,3.4V82.7A56.431,56.431,0,0,1,34.973,78.138ZM1.626,55.777Q.8,54.926,0,54.2V53.1c.684.6,1.377,1.258,2.08,1.986A88.676,88.676,0,0,1,13.066,69.713v1.438C9.62,65.693,6.209,60.524,1.626,55.777ZM4.9,53.116A30.147,30.147,0,0,0,0,48.9V47.883a30.578,30.578,0,0,1,5.358,4.548,69.012,69.012,0,0,1,7.708,9.9V63.75A70.132,70.132,0,0,0,4.9,53.116Zm3.274-2.661A28.419,28.419,0,0,0,0,44.225v-.964a28.968,28.968,0,0,1,8.637,6.512,59.141,59.141,0,0,1,4.429,5.36v1.322A58.864,58.864,0,0,0,8.174,50.454Zm24.765.912c-.69-1.71-1.441-3.44-2.322-5.169a44.932,44.932,0,0,0-4.5-7.127H27.1a45.85,45.85,0,0,1,4.114,6.639c.968,1.9,1.778,3.793,2.521,5.657Zm-4.144,0c-.414-.861-.85-1.724-1.314-2.584a48.337,48.337,0,0,0-6.211-8.977q-.332-.379-.661-.736h1.076l.066.075a49.205,49.205,0,0,1,6.317,9.13c.556,1.031,1.071,2.063,1.557,3.092Zm-4.457,0-.006-.01A51.74,51.74,0,0,0,18,42.468a32.378,32.378,0,0,0-3.486-3.4h1.257a34.411,34.411,0,0,1,2.7,2.731,52.607,52.607,0,0,1,6.437,9.03q.152.268.3.535Zm-4.777,0a53.325,53.325,0,0,0-4.838-6.236C9.652,39.519,5.031,37.795.138,35.969L0,35.918v-.932l.349.13c4.969,1.854,9.661,3.6,14.846,9.342a54.545,54.545,0,0,1,5.289,6.907Zm-5.1,0c-.969-1.256-1.968-2.443-3.008-3.575A28.976,28.976,0,0,0,0,39.981v-.936a29.666,29.666,0,0,1,11.915,8.069c1.226,1.335,2.4,2.745,3.526,4.251ZM33.743,43.6a41.339,41.339,0,0,0-2.523-4.534h.909a42.311,42.311,0,0,1,2.221,4.067c.46.964.875,1.923,1.26,2.875v2.041C35.062,46.581,34.456,45.1,33.743,43.6ZM3.458,33.146C2.323,32.71,1.174,32.268,0,31.771v-.943c1.249.535,2.47,1,3.674,1.468a40.52,40.52,0,0,1,9.392,4.615v1.033A38.987,38.987,0,0,0,3.458,33.146Zm3.32-2.823A64.049,64.049,0,0,1,0,27.317v-.972a61.742,61.742,0,0,0,7,3.131,58.529,58.529,0,0,1,6.066,2.675v.975A55.33,55.33,0,0,0,6.778,30.323ZM10.1,27.5A51.189,51.189,0,0,1,.41,22.659Q.2,22.523,0,22.383V21.361q.373.261.748.51a50.744,50.744,0,0,0,9.579,4.783c.921.376,1.833.747,2.74,1.142v.946C12.085,28.31,11.1,27.907,10.1,27.5ZM3.749,19.728A40.643,40.643,0,0,1,0,16.844v-1.09a40.362,40.362,0,0,0,4.092,3.19,48.689,48.689,0,0,0,8.975,4.645v.941A50.068,50.068,0,0,1,3.749,19.728Zm3.34-2.93A44.887,44.887,0,0,1,0,10.625V9.449a44.807,44.807,0,0,0,7.437,6.569,41.045,41.045,0,0,0,5.629,3.243v.956A41.96,41.96,0,0,1,7.089,16.8Zm3.34-2.931A50.482,50.482,0,0,1,0,3.664V2.385a50.681,50.681,0,0,0,10.782,10.7c.774.546,1.535,1.039,2.284,1.491v.991C12.2,15.062,11.327,14.5,10.429,13.867Zm23.1-1.57c-1.159-.61-2.327-1.169-3.511-1.735a53.323,53.323,0,0,1-9.57-5.485A44.469,44.469,0,0,1,14.782,0H15.9a42.914,42.914,0,0,0,4.913,4.311,52.857,52.857,0,0,0,9.463,5.42c1.7.813,3.37,1.611,5.027,2.566Zm-9.136,0a45.448,45.448,0,0,1-7.286-4.29A47.952,47.952,0,0,1,8.73,0H9.772a46.362,46.362,0,0,0,7.7,7.237,50.211,50.211,0,0,0,8.936,5.06Zm-8.6,0c-.663-.417-1.337-.868-2.021-1.359A51.72,51.72,0,0,1,2.92,0h.99A50.119,50.119,0,0,0,14.126,10.164,39.317,39.317,0,0,0,17.437,12.3ZM33.339,7.738a53.688,53.688,0,0,1-9.551-5.593q-1.314-1-2.594-2.145h1.248q.852.725,1.719,1.383A53.171,53.171,0,0,0,33.6,6.909c1.807.885,3.578,1.753,5.336,2.812v1C37.1,9.579,35.239,8.669,33.339,7.738Zm3.32-2.823A57.893,57.893,0,0,1,28.177,0h1.466A63.117,63.117,0,0,0,36.93,4.089c.675.339,1.345.675,2.011,1.019v.967C38.186,5.682,37.426,5.3,36.659,4.916Z" transform="translate(238.115 0.786)" fill="#898989" stroke="rgba(0,0,0,0)" stroke-width="1"/><path d="M29.235,91.2c-5.487-1.688-9.749-3.772-12.665-6.2A51.95,51.95,0,0,1,5.44,72.752,53.686,53.686,0,0,1,.621,62.362C.414,61.809.209,61.26,0,60.713V58.226c.54,1.284,1.022,2.575,1.511,3.884a53.2,53.2,0,0,0,4.76,10.269A51.21,51.21,0,0,0,17.245,84.456c2.829,2.351,6.988,4.38,12.362,6.031q1.207.371,2.495.716Zm-12.325,0a23.845,23.845,0,0,1-3.282-2.3,51.688,51.688,0,0,1-11-12.33A41.32,41.32,0,0,1,0,71.515V69.1a43.668,43.668,0,0,0,3.463,7.106,50.95,50.95,0,0,0,10.845,12.15A24.6,24.6,0,0,0,18.595,91.2Zm-8.02,0A49.279,49.279,0,0,1,0,80.7V78.9q.312.563.655,1.135A49,49,0,0,0,10.173,91.2Zm-6.738,0Q1,89.919,0,88.625V87.141A47.335,47.335,0,0,0,3.336,91.2Zm30.107-3.978c-5.512-1.65-9.8-3.707-12.746-6.112q-1.82-1.487-3.419-2.975H17.37q1.333,1.21,2.812,2.418c2.852,2.331,7.031,4.331,12.419,5.944,1.958.586,4.076,1.122,6.34,1.6v.8C36.55,88.4,34.318,87.842,32.258,87.225Zm3.007-3.984a40.467,40.467,0,0,1-11.571-5.1h1.525A41.906,41.906,0,0,0,35.6,82.515q1.6.466,3.34.887v.808Q37.023,83.753,35.265,83.241Zm3.005-3.983q-1.863-.528-3.541-1.12h2.547q.649.2,1.323.39l.342.1v.82Q38.6,79.352,38.271,79.258ZM8.252,68.93A54.022,54.022,0,0,1,3.323,58.569,53.508,53.508,0,0,0,0,51.112V49.356a47.06,47.06,0,0,1,4.212,8.954A53.409,53.409,0,0,0,9.08,68.55a42.339,42.339,0,0,0,3.985,5.25v1.31A43.908,43.908,0,0,1,8.252,68.93Zm2.812-3.824A54.254,54.254,0,0,1,6.023,54.776C4.508,50.956,3.055,47.292,0,43.542V42.173c3.661,4.146,5.249,8.15,6.91,12.336a53.68,53.68,0,0,0,4.979,10.212q.56.858,1.177,1.7v1.481Q11.986,66.521,11.064,65.107ZM8.725,50.983C6.788,46.241,4.95,41.738,0,37.033V35.855c5.6,5.049,7.552,9.82,9.609,14.856a65.856,65.856,0,0,0,3.456,7.509v1.8A59.014,59.014,0,0,1,8.725,50.983Zm20.979.383A44.765,44.765,0,0,1,25.125,46a46,46,0,0,1-4.076-6.926h1.019a44.83,44.83,0,0,0,3.863,6.515,44.661,44.661,0,0,0,5.007,5.782Zm-6.241,0q-.6-.769-1.149-1.549A55.36,55.36,0,0,1,16.83,39.6l-.237-.534h1l.109.245a54.893,54.893,0,0,0,5.417,10.1q.7.986,1.472,1.954Zm-5.428,0A64.531,64.531,0,0,1,14.128,43.4C11.9,38.226,9.789,33.342,3.58,28.225,2.435,27.281,1.245,26.377,0,25.5V24.482c1.49,1.017,2.9,2.076,4.252,3.189a31.813,31.813,0,0,1,8.813,11.143v.254h.124c.648,1.335,1.228,2.679,1.817,4.043a61.944,61.944,0,0,0,4.086,8.255Zm-4.785,0c-.667-1.421-1.25-2.809-1.825-4.177C9.25,42.008,7.194,37.114,1.042,31.957Q.521,31.521,0,31.1V30.02q.879.683,1.719,1.387c6.293,5.273,8.379,10.243,10.589,15.5.612,1.457,1.233,2.937,1.957,4.454Zm14.686-9.193c-.775-1.056-1.457-2.09-2.072-3.1h1.061c.546.881,1.144,1.776,1.813,2.687a47,47,0,0,0,6.872,7.413v1.139A48.626,48.626,0,0,1,27.937,42.173Zm3.362-3.1h1.134a45.07,45.07,0,0,0,3.178,3.538v1.22A46.268,46.268,0,0,1,31.3,39.069ZM6.115,24.493A56.087,56.087,0,0,0,0,20.184v-.97a57.283,57.283,0,0,1,6.782,4.72,32.68,32.68,0,0,1,6.283,6.621v1.621A31.365,31.365,0,0,0,6.115,24.493Zm2.537-3.732A54.067,54.067,0,0,0,0,15.135v-.924A55.135,55.135,0,0,1,9.313,20.2a35.881,35.881,0,0,1,3.752,3.429v1.307A33.991,33.991,0,0,0,8.652,20.761Zm2.536-3.731A50.882,50.882,0,0,0,1.31,10.96q-.655-.308-1.31-.6V9.481q.9.387,1.8.809a51.73,51.73,0,0,1,10.048,6.173q.636.5,1.221,1V18.6Q12.19,17.817,11.188,17.03ZM3.778,7.382C2.512,6.825,1.252,6.331,0,5.878v-.85c1.4.5,2.817,1.046,4.242,1.673a48.2,48.2,0,0,1,9.571,5.6h-.748v.5A47.32,47.32,0,0,0,3.778,7.382ZM35.343,12.3C33.1,8.066,30.82,4.022,25.98,0h1.325c4.628,4.031,6.838,8.07,9.069,12.3Zm-4.758,0A32.438,32.438,0,0,0,21.336,2.1Q19.771.953,18.2,0h1.57q1.1.712,2.2,1.517A33.214,33.214,0,0,1,31.636,12.3Zm-5.153,0A32.8,32.8,0,0,0,18.8,5.832,40.845,40.845,0,0,0,8.743.26Q8.39.126,8.038,0h2.237a42.107,42.107,0,0,1,9.163,5.253A33.308,33.308,0,0,1,26.55,12.3Zm-5.954,0a36.327,36.327,0,0,0-3.216-2.732A43.988,43.988,0,0,0,6.254,3.816,61.392,61.392,0,0,0,0,1.684V.86A64.06,64.06,0,0,1,6.7,3.125,44.914,44.914,0,0,1,16.907,8.99,36.59,36.59,0,0,1,20.721,12.3Zm18.964-3.04A46.812,46.812,0,0,0,32.43,0H33.6a46.366,46.366,0,0,1,5.343,8.266v1.917Q38.689,9.719,38.441,9.258ZM37.924,0h1.017V1.6C38.615,1.065,38.278.531,37.924,0Z" transform="translate(553.246 0.786)" fill="#898989" stroke="rgba(0,0,0,0)" stroke-width="1"/><path d="M19.824,92.576a50.7,50.7,0,0,1-9.182-12,55.433,55.433,0,0,1-4.1-10.637C5.144,65.34,3.817,60.963,0,56.228V54.9c4.474,5.18,5.9,9.88,7.4,14.831a54.874,54.874,0,0,0,4.053,10.513A50.838,50.838,0,0,0,21.1,92.659Q20.46,92.636,19.824,92.576Zm3.852-2.886A52.145,52.145,0,0,1,13.509,76.912,55.687,55.687,0,0,1,9.3,66.3C7.63,60.982,6.054,55.961.594,50.366q-.3-.3-.594-.6V48.593q.646.626,1.282,1.276C6.865,55.59,8.465,60.69,10.159,66.088a55.115,55.115,0,0,0,4.159,10.491A51.409,51.409,0,0,0,24.342,89.172a23.229,23.229,0,0,0,3.506,2.7q-.538.146-1.077.265A23.328,23.328,0,0,1,23.676,89.69Zm-12.143.487a43.353,43.353,0,0,1-3.756-5.941,55.231,55.231,0,0,1-4-10.658A44.574,44.574,0,0,0,0,63.723V62.031A41.309,41.309,0,0,1,4.644,73.38,54.634,54.634,0,0,0,8.591,83.915,43.831,43.831,0,0,0,13.2,90.948Q12.346,90.6,11.533,90.178ZM26.67,85.961a62.667,62.667,0,0,1-6.028-6.427,10.683,10.683,0,0,0,1.155.072,62.981,62.981,0,0,0,5.533,5.832,26.876,26.876,0,0,0,6.081,4.124q-.413.243-.836.466A27.22,27.22,0,0,1,26.67,85.961Zm2.993-3.729q-1.926-1.772-3.582-3.533.391-.188.766-.414,1.609,1.706,3.472,3.419a28.578,28.578,0,0,0,7.305,4.656q-.307.3-.627.584A29.2,29.2,0,0,1,29.663,82.233ZM1.922,80.248l-.066-.142c-.3-.977-.567-1.938-.835-2.889-.234-.829-.466-1.65-.71-2.468a28.443,28.443,0,0,1-.3-3.7c.754,1.985,1.311,3.96,1.88,5.976.623,2.208,1.261,4.466,2.187,6.851A21.035,21.035,0,0,1,1.922,80.248ZM32.657,78.5q-1.628-1.473-3.065-2.939a7.528,7.528,0,0,0,.39-.8q1.549,1.6,3.325,3.208a28.651,28.651,0,0,0,7.332,4.6q-.212.344-.433.675A29.5,29.5,0,0,1,32.657,78.5Zm2.995-3.729a66.665,66.665,0,0,1-4.908-4.818V68.692A64.216,64.216,0,0,0,36.3,74.239a27.378,27.378,0,0,0,6.36,4.072q-.127.383-.269.754A28.454,28.454,0,0,1,35.652,74.775Zm2.993-3.729a59.943,59.943,0,0,1-7.9-8.239V61.392A57.432,57.432,0,0,0,39.286,70.5a24.7,24.7,0,0,0,4.37,3q-.044.434-.1.857A26.071,26.071,0,0,1,38.645,71.046Zm2.995-3.729a53.72,53.72,0,0,1-10.9-12.324V53.3q.358.631.753,1.273a52.9,52.9,0,0,0,10.779,12.2q.711.612,1.533,1.2v.989A22.424,22.424,0,0,1,41.639,67.318ZM12.057,62.659c-1.722-5.308-3.348-10.321-8.864-15.88-1.046-1.055-2.111-2.05-3.193-3v-1.1C1.316,43.81,2.609,45,3.876,46.276c5.64,5.684,7.291,10.776,9.04,16.165l.149.46v2.792C12.709,64.667,12.381,63.658,12.057,62.659ZM33.573,51.275a53.972,53.972,0,0,1-4.621-9.583H29.9a52.464,52.464,0,0,0,4.462,9.21,51.159,51.159,0,0,0,9.45,10.872v1.107A52.779,52.779,0,0,1,33.573,51.275Zm2.867-3.664a45.549,45.549,0,0,1-3.185-5.919h.962a44.488,44.488,0,0,0,3,5.541,47.536,47.536,0,0,0,6.587,8.042v1.17A49.138,49.138,0,0,1,36.44,47.611ZM5.792,43.193A63.468,63.468,0,0,0,0,38.126V37.09a64.985,64.985,0,0,1,6.469,5.6,31.432,31.432,0,0,1,6.6,9.243v2.2A30.971,30.971,0,0,0,5.792,43.193ZM29.705,53.22a63.787,63.787,0,0,1-3.851-8.758c-.352-.931-.7-1.853-1.068-2.77h.947c.331.835.649,1.675.969,2.522a61.691,61.691,0,0,0,4,9.006Zm-4.617,0c-.758-1.755-1.381-3.451-1.994-5.119a65.735,65.735,0,0,0-2.615-6.409h.974c.976,2.042,1.726,4.082,2.491,6.168.641,1.745,1.293,3.522,2.1,5.36Zm-4.223,0q-.253-.7-.5-1.389v-2.6c.279.752.548,1.508.82,2.269.2.568.406,1.139.616,1.715Zm18.441-9.272c-.5-.765-.956-1.517-1.377-2.257h1c.359.617.742,1.241,1.156,1.874a44.3,44.3,0,0,0,3.722,4.892v1.27A45.854,45.854,0,0,1,39.307,43.949ZM8.39,39.6A63.128,63.128,0,0,0,0,32.768v-.982l.212.144a64.841,64.841,0,0,1,8.852,7.163,33.953,33.953,0,0,1,4,4.631v1.538A32.22,32.22,0,0,0,8.39,39.6Zm34.761,2.088h.657v.881Q43.472,42.134,43.151,41.692Zm-32.16-5.674a60.149,60.149,0,0,0-8.852-6.972Q1.076,28.351,0,27.7v-.945q1.348.813,2.685,1.682A60.96,60.96,0,0,1,11.659,35.5q.746.716,1.407,1.42v1.253C12.437,37.462,11.749,36.744,10.991,36.017ZM4.632,25.569C3.1,24.612,1.546,23.73,0,22.892v-.671q0-.12,0-.239c1.719.923,3.449,1.9,5.161,2.965a57.8,57.8,0,0,1,7.9,5.875v1.121A56.621,56.621,0,0,0,4.632,25.569ZM39.9,26.833l-.247-.57C37.391,21.035,35.257,16.1,29.185,10.9a36.149,36.149,0,0,0-9.373-5.929A54.155,54.155,0,0,0,11.58,2.39q.547-.274,1.112-.519a50.7,50.7,0,0,1,7.527,2.418,36.981,36.981,0,0,1,9.6,6.068c6.208,5.31,8.375,10.321,10.67,15.629l.367.847Zm-4.33,0a34.271,34.271,0,0,0-5.574-8.962,6.8,6.8,0,0,0-1.877-2.631,9.274,9.274,0,0,0-2.438-1.514,38.48,38.48,0,0,0-8.425-5.346A64.405,64.405,0,0,0,8.616,5.3L7.582,4.986q.37-.3.751-.588l.591.179A65.113,65.113,0,0,1,17.685,7.7a39.92,39.92,0,0,1,9.538,6.246,33.936,33.936,0,0,1,9.305,12.884Zm-4.5,0q-.158-.287-.324-.575V24.586c.48.749.914,1.5,1.316,2.246ZM7.135,22.107C4.841,20.745,2.522,19.575.242,18.471q.056-.416.125-.824c2.4,1.158,4.849,2.385,7.281,3.827a55.153,55.153,0,0,1,5.416,3.653v1.042A53.946,53.946,0,0,0,7.135,22.107Zm35.276.518c-2.314-5.219-4.5-10.149-10.628-15.305a33.319,33.319,0,0,0-9.4-5.735A34.751,34.751,0,0,0,18.127.253Q19.143.08,20.164,0c.854.253,1.718.543,2.6.885a34.213,34.213,0,0,1,9.652,5.882c6.264,5.271,8.484,10.277,10.833,15.575q.28.631.564,1.269v2.1C43.318,24.67,42.862,23.642,42.411,22.624ZM9.648,18.656a94.076,94.076,0,0,0-8.527-4.1q.123-.38.26-.752a96.387,96.387,0,0,1,8.764,4.211q1.6.9,3.1,1.888-.074.435-.117.9Q11.45,19.668,9.648,18.656Zm2.525-3.438a85.456,85.456,0,0,0-8.829-3.886l-.712-.281q.19-.353.39-.694l.7.278a86.252,86.252,0,0,1,8.923,3.93q1.21.641,2.366,1.342a6.622,6.622,0,0,0-.5.643Q13.371,15.853,12.173,15.218Zm2.533-3.425A74.115,74.115,0,0,0,5.967,8.3L4.729,7.869q.263-.328.538-.643l1.046.366a75.037,75.037,0,0,1,8.849,3.535,41.9,41.9,0,0,1,3.969,2.246,8.978,8.978,0,0,0-.976.342Q16.477,12.671,14.706,11.793ZM34.382,3.731q-.336-.278-.671-.544a23.537,23.537,0,0,1,3.18,2.254,21.316,21.316,0,0,1,4.867,6.767A32.526,32.526,0,0,0,34.382,3.731Z" transform="translate(312.004 0.068)" fill="#898989" stroke="rgba(0,0,0,0)" stroke-width="1"/><path d="M50.1,91.2l-.037-.045c-4.678-5.632-9.105-10.961-15.1-15.7l-.251-1.282c6.4,4.921,11,10.465,15.88,16.336l.506.61.018.082Zm-5.478,0a118.228,118.228,0,0,0-8.268-8.653l-.273-1.394A118.673,118.673,0,0,1,45.717,91.2Zm-5.8,0q-.484-.507-.971-1.008l-.292-1.489q1.217,1.229,2.41,2.5Zm-29.226,0A35.86,35.86,0,0,0,0,88.921l.2-.907A33.767,33.767,0,0,1,11.758,91.2ZM1.479,85.287.83,85.2l.2-.907.5.064a40.209,40.209,0,0,1,11.818,2.812l-.177.9A39.544,39.544,0,0,0,1.479,85.287Zm35.951-13.6c-6.324-4.945-11.538-5.938-17.059-6.989A54.858,54.858,0,0,1,9.228,61.692Q7.8,61.11,6.37,60.4l.2-.893q1.439.722,2.876,1.307a54.268,54.268,0,0,0,11.014,2.973c5.606,1.067,10.9,2.075,17.368,7.134a66.913,66.913,0,0,1,8.5,8.013c.945,1.049,1.863,2.118,2.759,3.194l.394,1.765A74.874,74.874,0,0,0,37.43,71.692ZM4.627,81.857c-.972-.135-1.953-.271-2.953-.43l.2-.9c.95.149,1.883.279,2.808.407a47.171,47.171,0,0,1,9.493,2.008l-.176.9A46.51,46.51,0,0,0,4.627,81.857Zm3.149-3.431c-1.7-.253-3.428-.511-5.234-.886l.2-.9c1.756.36,3.44.612,5.1.859a60.3,60.3,0,0,1,7.137,1.363l-.177.9A59.664,59.664,0,0,0,7.776,78.426Zm3.149-3.432a69.8,69.8,0,0,1-7.483-1.486l.2-.892a69.758,69.758,0,0,0,7.353,1.455c1.6.255,3.171.506,4.755.847l-.177.9C14.025,75.489,12.487,75.244,10.925,74.994Zm29.627-6.56c-6.3-5.009-11.511-6.056-17.032-7.163a55.114,55.114,0,0,1-11.137-3.125,43.13,43.13,0,0,1-4.958-2.471l.2-.9a42.428,42.428,0,0,0,4.98,2.491A42.786,42.786,0,0,0,18.71,59.28l-.006.029h.12c1.644.412,3.229.73,4.79,1.043,5.606,1.126,10.9,2.188,17.34,7.31a60.386,60.386,0,0,1,6.166,5.664l.357,1.6A60.435,60.435,0,0,0,40.552,68.434Zm-26.478,3.13a58.8,58.8,0,0,1-9.7-2.251l.2-.889a58.36,58.36,0,0,0,9.572,2.218c1.7.288,3.367.572,5.05.964H16.4l-.069.351C15.581,71.82,14.831,71.693,14.074,71.564Zm14.972.042c-4.132-2.087-7.9-2.766-11.824-3.473a54.5,54.5,0,0,1-11.148-2.9q-.36-.143-.72-.294l.2-.889q.366.154.732.3A53.959,53.959,0,0,0,17.3,67.212c4.474.806,8.749,1.576,13.6,4.394Zm14.629-6.427a31.236,31.236,0,0,0-11.963-6.166l-.194-1a31.958,31.958,0,0,1,12.564,6.4q.651.526,1.285,1.072l.312,1.4Q44.7,66,43.676,65.179ZM30.866,54.642l-.19-.982c4.325.963,8.5,2,13.176,5.027l.274,1.226C39.405,56.7,35.2,55.614,30.866,54.642ZM15.536,54.6a45.276,45.276,0,0,1-7.02-3.815l.2-.908a44.7,44.7,0,0,0,7.046,3.846c1.3.556,2.542,1.01,3.751,1.4l-.174.9C18.117,55.627,16.853,55.165,15.536,54.6Zm17.43-3.622c-.97-.224-1.95-.451-2.946-.7l-.192-.993c1.1.282,2.183.532,3.253.779a49.274,49.274,0,0,1,9.493,2.9l.245,1.1A46.787,46.787,0,0,0,32.966,50.978Zm-14.276.077a47.708,47.708,0,0,1-9.046-5.322l.205-.919a47.177,47.177,0,0,0,9.076,5.366q.726.319,1.432.6l-.174.9Q19.448,51.388,18.69,51.055Zm17.424-3.508c-2.25-.544-4.55-1.1-7-1.938l-.2-1.028a73.131,73.131,0,0,0,7.319,2.052c1.761.426,3.492.845,5.233,1.385l.229,1.027C39.839,48.447,37.995,48,36.115,47.547ZM10.808,40.524l.208-.931a50.962,50.962,0,0,0,10.221,6.651l-.175.9A51.352,51.352,0,0,1,10.808,40.524Zm28.455,3.592a56.713,56.713,0,0,1-11.11-3.7l-.049-.023-.211-1.089q.256.125.512.247A56.161,56.161,0,0,0,39.39,43.2l1.064.269.224,1Q39.972,44.293,39.263,44.116ZM12.006,35.16l.211-.944a57.473,57.473,0,0,0,9.938,7.29l-.177.911A57.689,57.689,0,0,1,12.006,35.16Zm19.3,1.714a44.237,44.237,0,0,1-4.355-2.428l-.229-1.183a43.994,43.994,0,0,0,4.844,2.747,47.2,47.2,0,0,0,7.874,2.927l.226,1.011A48.634,48.634,0,0,1,31.307,36.874ZM14.3,30.656q-.53-.493-1.053-1.05l.22-.984q.637.7,1.284,1.3a62.929,62.929,0,0,0,8.361,6.645l-.179.922A63.42,63.42,0,0,1,14.3,30.656Zm20.163,2.671a49.113,49.113,0,0,1-8.834-5.708l-.252-1.3a49.12,49.12,0,0,0,9.35,6.15c1.247.617,2.451,1.136,3.623,1.586l.235,1.053A43.487,43.487,0,0,1,34.462,33.327ZM17.5,26.969a25.671,25.671,0,0,1-2.921-3.327l.235-1.052a25.461,25.461,0,0,0,3.142,3.654,67.714,67.714,0,0,0,6.15,5.2l-.181.936A68.168,68.168,0,0,1,17.5,26.969Zm6.4-7.377a34.531,34.531,0,0,1-6.36-9.2l.273-1.224a34.7,34.7,0,0,0,6.552,9.708,56.455,56.455,0,0,0,12.753,9.648l.252,1.131A56.421,56.421,0,0,1,23.9,19.592Zm-3.2,3.687a29.82,29.82,0,0,1-4.69-6.041l.253-1.132a29.8,29.8,0,0,0,4.9,6.452q2.1,2.012,4.148,3.7h-.2l-.157.811Q22.842,25.339,20.7,23.279Zm6.4-7.374c-2.784-2.759-5.37-6.883-7.686-12.258q-.121-.28-.24-.564l.3-1.327q.308.762.623,1.493c2.264,5.252,4.779,9.272,7.477,11.944A64.662,64.662,0,0,0,35.68,22.1l.279,1.248A64.285,64.285,0,0,1,27.095,15.905Zm3.2-3.688C27.545,9.45,25,5.34,22.733,0h.851A37.435,37.435,0,0,0,30.77,11.51Q32.4,13.148,34,14.584l.314,1.4Q32.318,14.254,30.295,12.217ZM27.72,0H28.6a37.753,37.753,0,0,0,3.363,5.474L32.375,7.3A36.717,36.717,0,0,1,27.72,0Z" transform="translate(389.12 0.785)" fill="#898989" stroke="rgba(0,0,0,0)" stroke-width="1"/><path d="M11.451,91.2l-.473-.218A30.466,30.466,0,0,1,.793,83.873q-.4-.463-.793-.925V81.743q.663.809,1.372,1.622A29.689,29.689,0,0,0,11.3,90.283q1.009.471,2.09.921Zm-9.244,0A26.117,26.117,0,0,1,0,89.413V88.356A25.654,25.654,0,0,0,3.548,91.2Zm11.382-4.038A30.434,30.434,0,0,1,3.348,80.137Q1.529,78.084,0,76.054v-1.3q1.757,2.423,3.923,4.866a29.706,29.706,0,0,0,9.984,6.839A71.115,71.115,0,0,0,25.6,90.477q-.866.186-1.775.325A69.292,69.292,0,0,1,13.589,87.166Zm15.176.313A72.967,72.967,0,0,1,16.2,83.346,30.421,30.421,0,0,1,5.9,76.4,60.105,60.105,0,0,1,0,68.769V67.32a57.8,57.8,0,0,0,6.474,8.563,29.662,29.662,0,0,0,10.033,6.754,72.238,72.238,0,0,0,12.427,4.088c1.367.329,2.7.62,3.973.874q-.487.305-1,.584C30.891,87.972,29.838,87.738,28.765,87.479Zm2.642-3.928a72.89,72.89,0,0,1-12.6-4.027q-.7-.3-1.36-.619H19.32A72.669,72.669,0,0,0,31.569,82.8c1.958.454,3.848.829,5.588,1.135q-.292.347-.6.676C34.938,84.317,33.2,83.968,31.407,83.552Zm2.641-3.927A82.3,82.3,0,0,1,25.629,77.3a6.46,6.46,0,0,0,.721-.573c2.413.8,5.039,1.511,7.855,2.139,1.921.429,3.776.781,5.489,1.069q-.173.367-.358.722C37.678,80.377,35.893,80.035,34.048,79.624ZM36.691,75.7a82.6,82.6,0,0,1-8.327-2.214q.124-.356.23-.736a81.642,81.642,0,0,0,8.246,2.193c1.5.321,2.96.6,4.343.832-.066.253-.134.5-.206.748C39.61,76.286,38.17,76.014,36.691,75.7ZM8.458,72.665A54.56,54.56,0,0,1,0,60.819V59.077q.084.179.171.36A52.639,52.639,0,0,0,9.024,72.143a22.5,22.5,0,0,0,4.042,3.413v.924A23.777,23.777,0,0,1,8.458,72.665Zm30.875-.9a78.337,78.337,0,0,1-10.168-2.752q.022-.4.032-.807a77.042,77.042,0,0,0,10.278,2.8c.849.174,1.685.334,2.5.48q-.046.387-.1.767C41.047,72.109,40.2,71.947,39.333,71.77ZM11.012,68.93A53.467,53.467,0,0,1,1.923,56.1,47.146,47.146,0,0,1,0,51.6V49.252a49.462,49.462,0,0,0,2.613,6.509A52.728,52.728,0,0,0,11.574,68.4a19.389,19.389,0,0,0,1.492,1.436v1.007A20.739,20.739,0,0,1,11.012,68.93Zm30.963-1.088a72.565,72.565,0,0,1-12.719-3.6l-.05-.02v-.831l.332.134a71.713,71.713,0,0,0,12.584,3.557l.142.028q-.007.395-.02.783ZM4.369,52.432A63.257,63.257,0,0,1,.378,41.768Q.189,41.144,0,40.526V37.983c.392,1.178.75,2.362,1.113,3.561A62.72,62.72,0,0,0,5.055,52.085a51.314,51.314,0,0,0,8.011,11.433v1.141A52.824,52.824,0,0,1,4.369,52.432Zm27.5,7.991q-1.393-.54-2.661-1.128v-.852q1.386.657,2.932,1.257a67.6,67.6,0,0,0,10.133,2.953v.79A68.571,68.571,0,0,1,31.867,60.424Zm2.611-3.82A40.7,40.7,0,0,1,29.206,54.2v-.884a39.182,39.182,0,0,0,5.543,2.568,62.938,62.938,0,0,0,7.523,2.279v.794A63.987,63.987,0,0,1,34.478,56.6ZM6.815,48.762A63.416,63.416,0,0,1,2.731,38.12,63.8,63.8,0,0,0,0,30.517V28.741a55.611,55.611,0,0,1,3.465,9.148A62.8,62.8,0,0,0,7.5,48.409a48.183,48.183,0,0,0,5.568,8.442v1.21A49.685,49.685,0,0,1,6.815,48.762Zm30.275,4.022a35.9,35.9,0,0,1-7.883-3.941V47.9a34.26,34.26,0,0,0,8.143,4.156q2.3.847,4.923,1.56v.8Q39.506,53.674,37.089,52.783ZM9.26,45.092A63.553,63.553,0,0,1,5.085,34.473C3.812,30.51,2.592,26.71,0,22.761V21.393C3.095,25.759,4.425,29.9,5.817,34.236a62.835,62.835,0,0,0,4.125,10.5,45.467,45.467,0,0,0,3.125,5.112v1.32A46.879,46.879,0,0,1,9.26,45.092ZM39.7,48.962a30.9,30.9,0,0,1-10.495-5.894V42.006l.221.214A29.553,29.553,0,0,0,39.96,48.236q1.117.4,2.312.77v.807Q40.94,49.408,39.7,48.962Zm-8.25-9.921q-1.172-1.108-2.245-2.217V35.71q1.308,1.387,2.772,2.77a29.234,29.234,0,0,0,10.294,5.83v.818A30.247,30.247,0,0,1,31.451,39.042Zm-19.746,2.38a63.675,63.675,0,0,1-4.268-10.6C5.8,25.877,4.255,21.185,0,16.162V14.988c4.8,5.39,6.436,10.351,8.167,15.595a63.119,63.119,0,0,0,4.216,10.475q.33.62.683,1.234V43.8Q12.342,42.618,11.705,41.422Zm22.3-6.117a64.454,64.454,0,0,1-4.8-4.942V29.177a62.462,62.462,0,0,0,5.324,5.562,26.294,26.294,0,0,0,7.742,4.753v.836A27.384,27.384,0,0,1,34.007,35.305ZM9.79,27.177c-1.8-5.317-3.509-10.34-8.6-15.767Q.6,10.781,0,10.182V9.106q.891.857,1.753,1.776c5.2,5.548,6.933,10.647,8.765,16.047.75,2.21,1.517,4.471,2.548,6.84v1.855A74.025,74.025,0,0,1,9.79,27.177ZM36.561,31.57a59.434,59.434,0,0,1-7.355-7.976v-.025q0-.679-.035-1.319A57.335,57.335,0,0,0,37.08,31a23.43,23.43,0,0,0,5.192,3.5v.862A24.581,24.581,0,0,1,36.561,31.57Zm2.555-3.736a54.165,54.165,0,0,1-10.293-12.1A64.718,64.718,0,0,1,23.91,5.291c-.7-1.766-1.383-3.5-2.187-5.219q.444.028.879.066c.733,1.606,1.372,3.223,2.022,4.868a64.093,64.093,0,0,0,4.855,10.323,53.405,53.405,0,0,0,10.15,11.93,20.589,20.589,0,0,0,2.642,2v.911A21.791,21.791,0,0,1,39.116,27.834ZM12.144,23.529c-1.852-5.31-3.6-10.325-8.735-15.715A43.479,43.479,0,0,0,0,4.592v-1A43.8,43.8,0,0,1,3.965,7.28c5.251,5.511,7.025,10.6,8.9,15.994l.2.565v2.3C12.746,25.257,12.444,24.389,12.144,23.529Zm29.527.569a54.286,54.286,0,0,1-10.4-12.037,64.84,64.84,0,0,1-5-10.417Q26.051,1.118,25.839.6q.462.092.911.2l.225.557a64.224,64.224,0,0,0,4.946,10.3A53.505,53.505,0,0,0,42.18,23.519l.092.081v1.008Q41.963,24.356,41.671,24.1ZM33.714,8.39A51.725,51.725,0,0,1,30.3,1.945q.547.23,1.069.488a49.429,49.429,0,0,0,2.995,5.545,50.059,50.059,0,0,0,7.327,8.987q.12.63.215,1.282A51.649,51.649,0,0,1,33.714,8.39ZM5.624,4.217A39.846,39.846,0,0,0,.867,0H2.13A41.443,41.443,0,0,1,6.175,3.679a33.5,33.5,0,0,1,6.891,10.33v2.009A33.775,33.775,0,0,0,5.624,4.217Zm17.447,8.537c-.542-1.295-1.031-2.564-1.515-3.816A55.534,55.534,0,0,0,17.476,0h.9a58.41,58.41,0,0,1,3.9,8.661c.557,1.442,1.121,2.906,1.765,4.405A9.708,9.708,0,0,0,23.071,12.754ZM19.1,12.3c-1.574-4.18-3.12-8.183-6.381-12.3h.977c3.148,4.122,4.655,8.126,6.231,12.313h0Q19.519,12.3,19.1,12.3Zm-3.742,0A33.782,33.782,0,0,0,7.839.62Q7.528.3,7.216,0H8.309l.077.078a34.669,34.669,0,0,1,7.8,12.22Z" transform="translate(473.088 0.786)" fill="#898989" stroke="rgba(0,0,0,0)" stroke-width="1"/><path d="M12.439,91.2A50.238,50.238,0,0,1,3.518,79.1,50.216,50.216,0,0,1,0,69.731V66.493c.167.576.33,1.154.494,1.736A54.476,54.476,0,0,0,4.336,78.787a49.388,49.388,0,0,0,8.73,11.857v.56Zm-6.273,0A45.475,45.475,0,0,1,.651,82.766Q.305,82.07,0,81.392V79.119c.421,1.083.9,2.192,1.471,3.336A45.214,45.214,0,0,0,7.266,91.2Zm-5.649,0Q.253,90.8,0,90.4V88.734q.72,1.238,1.552,2.47Zm33.64-3.509q-1.3-.488-2.5-1l-.376-1.032q1.528.69,3.237,1.332A86.069,86.069,0,0,0,45.6,90.236v.8A87.515,87.515,0,0,1,34.158,87.695Zm3.06-3.814a45.211,45.211,0,0,1-7.942-3.73L28.82,78.9a41.945,41.945,0,0,0,8.753,4.274A79.7,79.7,0,0,0,45.6,85.614v.8A81.186,81.186,0,0,1,37.218,83.881ZM6.385,75.441a55.231,55.231,0,0,1-4-10.658A59.249,59.249,0,0,0,0,57.745V55.679a49.456,49.456,0,0,1,3.252,8.906A54.634,54.634,0,0,0,7.2,75.12a45.492,45.492,0,0,0,5.867,8.554v1.287A47.155,47.155,0,0,1,6.385,75.441Zm33.893,4.627c-5.22-1.874-9.259-4.1-12.006-6.631q-1.158-1.065-2.216-2.125l-.705-1.935Q27,71.14,28.927,72.909c2.661,2.448,6.6,4.618,11.7,6.449q2.329.837,4.976,1.578v.809Q42.767,80.962,40.277,80.068ZM9.25,71.779a55.433,55.433,0,0,1-4.1-10.637C3.937,57.154,2.778,53.332,0,49.3V47.83c3.4,4.513,4.675,8.712,6.009,13.109a54.874,54.874,0,0,0,4.053,10.513,41.958,41.958,0,0,0,3,4.806V77.7A43.584,43.584,0,0,1,9.25,71.779Zm34.087,4.477c-5.239-1.835-9.3-4.039-12.072-6.547A53.851,53.851,0,0,1,21.154,57.868L14.827,40.51c.859,1.936,1.527,3.871,2.21,5.846a55.916,55.916,0,0,0,4.477,10.423,52.1,52.1,0,0,0,10.4,12.4c2.686,2.43,6.643,4.572,11.763,6.367q.936.328,1.923.64V77Q44.435,76.641,43.337,76.256ZM34.26,65.98A53.107,53.107,0,0,1,23.583,53.466a56.681,56.681,0,0,1-4.64-10.521C17.06,37.662,15.281,32.67,9.6,27.222A60.149,60.149,0,0,0,.747,20.251Q.374,20.007,0,19.769v-.958q.648.406,1.293.827a60.96,60.96,0,0,1,8.974,7.069c5.81,5.571,7.617,10.639,9.528,16a56.2,56.2,0,0,0,4.583,10.4A52.4,52.4,0,0,0,34.905,65.444a33.279,33.279,0,0,0,10.7,5.885v.835A34.589,34.589,0,0,1,34.26,65.98ZM12.117,68.117A55.687,55.687,0,0,1,7.906,57.5C6.322,52.455,4.822,47.674,0,42.415V41.187C5.494,46.863,7.084,51.93,8.767,57.293a55.115,55.115,0,0,0,4.159,10.491l.139.254v1.729Q12.567,68.945,12.117,68.117Zm25.136-5.865A53.368,53.368,0,0,1,26.449,49.8a56.914,56.914,0,0,1-4.747-10.5C19.765,34.03,17.935,29.048,12.2,23.635A56.311,56.311,0,0,0,3.24,16.774c-1.074-.67-2.157-1.3-3.24-1.91v-.919c1.259.7,2.519,1.427,3.77,2.207a57.057,57.057,0,0,1,9.089,6.962c5.868,5.534,7.726,10.595,9.693,15.951a56.386,56.386,0,0,0,4.689,10.379A52.64,52.64,0,0,0,37.894,61.71,29.236,29.236,0,0,0,45.6,66.328v.86A30.654,30.654,0,0,1,37.253,62.251Zm2.995-3.729a60.86,60.86,0,0,1-7.711-7.845V49.3a58.382,58.382,0,0,0,8.347,8.678A25.2,25.2,0,0,0,45.6,61.114v.9A26.7,26.7,0,0,1,40.247,58.523ZM10.665,53.864C8.943,48.556,7.317,43.543,1.8,37.984q-.892-.9-1.8-1.743V35.112q1.257,1.136,2.484,2.369c5.64,5.684,7.291,10.776,9.04,16.165.478,1.475.964,2.972,1.541,4.512V60.53C12.077,58.214,11.363,56.015,10.665,53.864Zm32.576.93a54.666,54.666,0,0,1-10.7-11.76V41.406q.21.349.431.7a53.142,53.142,0,0,0,10.9,12.137,21.176,21.176,0,0,0,1.73,1.314v.976A22.753,22.753,0,0,1,43.241,54.794ZM35.048,38.816a43.891,43.891,0,0,1-2.512-4.486V32.255a45.428,45.428,0,0,0,3.294,6.184,51.683,51.683,0,0,0,9.772,11v1.093A53.292,53.292,0,0,1,35.048,38.816ZM4.4,34.4C2.957,32.967,1.49,31.66,0,30.441V29.38A63.435,63.435,0,0,1,5.077,33.89a32.192,32.192,0,0,1,7.989,12.6v2.663C11.4,44.249,9.6,39.548,4.4,34.4Zm20.062,1.27C22.471,30.4,20.59,25.423,14.8,20.048a52.649,52.649,0,0,0-9.053-6.736C3.834,12.179,1.907,11.178,0,10.237V9.349c2.07,1.013,4.17,2.092,6.257,3.33a53.43,53.43,0,0,1,9.2,6.844A34.061,34.061,0,0,1,24.6,33.546L28.822,45.32A59.966,59.966,0,0,1,24.462,35.667Zm13.453-.513A58.093,58.093,0,0,1,32.74,24.748l-.2-.5V21.975c.356.83.7,1.665,1.045,2.507a57.456,57.456,0,0,0,5.114,10.289A48.089,48.089,0,0,0,45.6,43.006V44.16A49.671,49.671,0,0,1,37.915,35.154ZM7,30.809a61.543,61.543,0,0,0-7-5.854v-1A63.376,63.376,0,0,1,7.672,30.3a32.371,32.371,0,0,1,5.394,6.772v1.8A31.079,31.079,0,0,0,7,30.809Zm33.783.683A58.346,58.346,0,0,1,35.5,21.108a66.944,66.944,0,0,0-2.963-6.391V12.983a56.91,56.91,0,0,1,3.8,7.854A57.791,57.791,0,0,0,41.557,31.1,44.854,44.854,0,0,0,45.6,36.278v1.244A46.4,46.4,0,0,1,40.781,31.491Zm2.867-3.663a58.668,58.668,0,0,1-5.389-10.361A44.4,44.4,0,0,0,32.536,7.022V5.671c3.238,3.838,4.864,7.6,6.56,11.52A58.06,58.06,0,0,0,44.42,27.434q.565.832,1.181,1.652V30.48Q44.558,29.168,43.649,27.828Zm-2.63-14C39,9.271,37.075,4.932,32.536.471V0h.715c4.608,4.54,6.556,8.932,8.6,13.547A71.032,71.032,0,0,0,45.6,21.136v1.656A64.339,64.339,0,0,1,41.019,13.829ZM17.395,16.46a48.947,48.947,0,0,0-9.139-6.6A91.58,91.58,0,0,0,0,5.878V5.012A96.285,96.285,0,0,1,8.753,9.219a49.788,49.788,0,0,1,9.3,6.712q.169.154.334.308l.649,1.809Q18.268,17.259,17.395,16.46Zm26.384-6.27A45.558,45.558,0,0,0,38,0h1.085a47.587,47.587,0,0,1,5.521,9.9c.325.715.652,1.435.992,2.163v2.018C44.947,12.761,44.359,11.467,43.779,10.19Zm-33-3.767A85.456,85.456,0,0,0,1.952,2.538C1.3,2.282.654,2.026,0,1.763V.912c.783.317,1.561.624,2.335.929a86.252,86.252,0,0,1,8.923,3.93A46.226,46.226,0,0,1,15.55,8.347l.476,1.326A45.188,45.188,0,0,0,10.781,6.423ZM43.186,0H44.2c.5.855.966,1.714,1.4,2.576v1.98C44.868,3.021,44.1,1.506,43.186,0ZM13.314,3A64.725,64.725,0,0,0,5.977,0H8.288c1.651.614,3.327,1.292,5.022,2.108L13.7,3.191Z" transform="translate(154.302 0.786)" fill="#898989" stroke="rgba(0,0,0,0)" stroke-width="1"/><path d="M46.817,91.2a67.195,67.195,0,0,1-5.376-6.309,51.561,51.561,0,0,1-4.847-7.806,72.647,72.647,0,0,1-5.02-14.24C30.8,60,30,57.044,28.9,54.08a47.825,47.825,0,0,0-4.526-9.175,30.439,30.439,0,0,0-3.168-4.182q.511-.016.988-.054a31.855,31.855,0,0,1,2.75,3.727,48.582,48.582,0,0,1,4.6,9.321c1.109,3,1.917,5.967,2.7,8.838A72.019,72.019,0,0,0,37.2,76.646,50.792,50.792,0,0,0,41.98,84.34a64.842,64.842,0,0,0,4.34,5.2l.562,1.661Zm-4.375,0c-1.188-1.309-2.291-2.623-3.321-3.959a53.959,53.959,0,0,1-5.1-7.9,80.4,80.4,0,0,1-5.616-14.691c-.883-2.893-1.8-5.886-2.975-8.863a51.206,51.206,0,0,0-4.65-9.109,28.684,28.684,0,0,0-5.03-5.947h1.159a29.886,29.886,0,0,1,4.438,5.433,51.886,51.886,0,0,1,4.72,9.243c1.189,3.007,2.108,6.015,3,8.924a79.887,79.887,0,0,0,5.56,14.554,53.225,53.225,0,0,0,5.027,7.795c1.178,1.527,2.451,3.026,3.841,4.521Zm-4.32,0q-.681-.8-1.327-1.61a56.4,56.4,0,0,1-5.35-8,75.758,75.758,0,0,1-5.166-12.048l-4.4-14.077q.362.8.709,1.628c1.264,3.012,2.289,6.054,3.28,9a88.037,88.037,0,0,0,6.169,15.032,55.821,55.821,0,0,0,5.282,7.9q.878,1.1,1.821,2.181Zm-4.252,0q-.725-.91-1.389-1.814l-.734-2.35c.966,1.424,2,2.8,3.107,4.164Zm-24.639,0c-2.56-4.266-4.789-8.6-6.968-12.831C1.5,76.9.753,75.437,0,74V72.411c.957,1.8,1.9,3.64,2.867,5.511C5.124,82.307,7.435,86.8,10.109,91.2Zm-4.124,0C3.3,88.167,1.627,85.1,0,82.075V80.5C1.9,84.043,3.845,87.646,5.982,91.2Zm-4.168,0q-.474-.8-.939-1.594V88.115Q.89,89.66,1.813,91.2ZM5.6,76.7C3.753,72.95,1.964,69.321,0,65.881V64.387c2.208,3.757,4.173,7.742,6.212,11.877,2.122,4.3,4.3,8.711,6.853,13.052v1.466C10.239,86.1,7.89,81.343,5.6,76.7Zm3.321-1.679C6.154,69.136,3.529,63.553,0,58.412V57.086C3.847,62.5,6.614,68.378,9.54,74.6c1.137,2.416,2.29,4.867,3.526,7.323v1.637C11.592,80.7,10.247,77.836,8.924,75.023Zm34.831,7.518a49.11,49.11,0,0,1-4.6-7.718,65.325,65.325,0,0,1-4.435-13.8,89.308,89.308,0,0,0-2.362-8.657,44.558,44.558,0,0,0-4.39-9.232,31.724,31.724,0,0,0-2.284-3.214q.166-.068.323-.142.2-.094.392-.2a32.856,32.856,0,0,1,2.142,3.047A45.324,45.324,0,0,1,33,52.016a90.234,90.234,0,0,1,2.386,8.737,64.665,64.665,0,0,0,4.377,13.64,47.084,47.084,0,0,0,3.5,6.112l.858,2.535Q43.935,82.791,43.755,82.541ZM12.227,73.334c-2.8-6.276-5.451-12.205-9.393-17.775A30.124,30.124,0,0,0,0,52.1V50.99a30.341,30.341,0,0,1,3.385,4.032c3.983,5.627,6.646,11.589,9.464,17.9l.216.485v1.8Q12.643,74.268,12.227,73.334Zm-5.8-19.55A27.586,27.586,0,0,0,0,47.1v-.984A28.1,28.1,0,0,1,6.977,53.25a69.794,69.794,0,0,1,6.088,10.908v1.787A72.551,72.551,0,0,0,6.424,53.785Zm3.589-1.775A28.489,28.489,0,0,0,0,42.88v-.927A29.313,29.313,0,0,1,10.571,51.48c.911,1.334,1.736,2.668,2.495,4.005v1.543A56.576,56.576,0,0,0,10.014,52.009Zm9.456.253c-.714-1.321-1.47-2.585-2.275-3.806-3.921-5.95-8.058-8.323-12.437-10.835C3.2,36.731,1.622,35.823,0,34.734v-.965c1.74,1.2,3.438,2.169,5.1,3.123,4.447,2.552,8.646,4.962,12.657,11.045.911,1.382,1.759,2.817,2.557,4.326Zm-4.569,0q-.615-1.013-1.3-2.03C9.641,44.328,5.491,42,1.1,39.534Q.55,39.228,0,38.917v-.924c.481.274.959.542,1.434.809,4.462,2.5,8.678,4.868,12.73,10.906q.832,1.24,1.609,2.554Zm16.654-10.91a31.246,31.246,0,0,0-2.723-3.8q.2-.256.375-.531l.075-.134a31.96,31.96,0,0,1,2.85,3.967A42.423,42.423,0,0,1,35.576,47.8q-.3.222-.613.438A41.646,41.646,0,0,0,31.554,41.352Zm3.59-1.775a29.406,29.406,0,0,0-4.7-6.006q.093-.452.164-.931a29.9,29.9,0,0,1,5.114,6.443,40.353,40.353,0,0,1,2.944,5.9q-.268.3-.551.6A39.507,39.507,0,0,0,35.144,39.577Zm3.59-1.777a28.877,28.877,0,0,0-7.791-8.757q.022-.473.036-.966a29.576,29.576,0,0,1,8.338,9.234,39.826,39.826,0,0,1,1.97,3.767q-.206.422-.435.831A38.626,38.626,0,0,0,38.734,37.8ZM8.418,35.71A51.164,51.164,0,0,1,0,29.925V28.872q.161.146.323.289a50.251,50.251,0,0,0,8.444,5.822c1.459.856,2.892,1.7,4.3,2.658v.971C11.548,37.546,10,36.637,8.418,35.71Zm33.906.314c-3.469-5.975-7.3-8.693-11.356-11.4q-.017-.5-.044-.989c4.276,2.847,8.316,5.584,11.984,11.9q.1.165.189.329-.126.533-.269,1.05Q42.584,36.472,42.324,36.024ZM12.08,33.8a50.956,50.956,0,0,1-8.5-5.986A39.483,39.483,0,0,1,0,24.132v-1.2A39.384,39.384,0,0,0,4.026,27.16a50.466,50.466,0,0,0,8.408,5.915l.632.379v.937Q12.574,34.094,12.08,33.8ZM34.05,22.326c-1.16-.788-2.337-1.587-3.531-2.473q-.115-.622-.276-1.2c1.419,1.09,2.816,2.039,4.189,2.971,3.347,2.273,6.549,4.449,9.53,8.312q-.039.583-.092,1.151C40.822,26.926,37.514,24.679,34.05,22.326ZM7.274,25.808A44.967,44.967,0,0,1,0,17.031v-1.4A45.311,45.311,0,0,0,7.73,25.16a41.075,41.075,0,0,0,5.336,4.1v.954A42.351,42.351,0,0,1,7.274,25.808Zm3.7-2.005A48.807,48.807,0,0,1,1.907,11.854,23.424,23.424,0,0,1,0,7.321V4.57a25.772,25.772,0,0,0,2.5,6.808A48.161,48.161,0,0,0,11.433,23.16c.548.511,1.092.988,1.632,1.436v1.021C12.375,25.06,11.678,24.459,10.974,23.8Zm26.737-3.389a52.914,52.914,0,0,1-8.243-6.634A50.159,50.159,0,0,1,20.8,1.311Q20.475.685,20.185,0h.8q.2.444.413.861a49.448,49.448,0,0,0,8.548,12.3A52.45,52.45,0,0,0,38.1,19.713a54.388,54.388,0,0,1,5.911,4.513q.024.549.038,1.111A49.919,49.919,0,0,0,37.711,20.414ZM5.684,9.745A30.059,30.059,0,0,1,2.642,0h.716A29.015,29.015,0,0,0,6.278,9.274a52.2,52.2,0,0,0,6.788,9.755v1.148A51.9,51.9,0,0,1,5.684,9.745ZM41.373,18.5a53.282,53.282,0,0,1-8.2-6.728A49.208,49.208,0,0,1,25.1.232c.306.037.608.077.907.122a47.843,47.843,0,0,0,7.642,10.8A52.685,52.685,0,0,0,41.765,17.8c.582.411,1.16.82,1.733,1.235.058.362.112.73.161,1.1C42.906,19.586,42.143,19.047,41.373,18.5ZM36.867,9.77a45.662,45.662,0,0,1-6.112-8.225q.594.218,1.162.467a43.978,43.978,0,0,0,5.438,7.143A42.164,42.164,0,0,0,42.1,13.428q.231.65.435,1.334A44.553,44.553,0,0,1,36.867,9.77ZM9.463,7.638A27.482,27.482,0,0,1,6.867,0h.726a26.34,26.34,0,0,0,2.465,7.172q1.506,2.773,3.1,5.126h-.089v1.21A61.175,61.175,0,0,1,9.463,7.638ZM22.838,12.5a55.709,55.709,0,0,1-5.819-9.081A22.337,22.337,0,0,1,15.6,0h.763A21.144,21.144,0,0,0,17.62,2.965a53.522,53.522,0,0,0,6.4,9.758Q23.452,12.591,22.838,12.5Zm-5.431-.2a59.638,59.638,0,0,1-4.165-6.77A24.877,24.877,0,0,1,11.178,0h.74A23.721,23.721,0,0,0,13.84,5.068a57.911,57.911,0,0,0,4.509,7.23Z" transform="translate(0 0.786)" fill="#898989" stroke="rgba(0,0,0,0)" stroke-width="1"/></g></g></svg>