<?xml version="1.0" standalone="no"?>
<!DOCTYPE svg PUBLIC "-//W3C//DTD SVG 1.1//EN" "http://www.w3.org/Graphics/SVG/1.1/DTD/svg11.dtd" >
<svg xmlns="http://www.w3.org/2000/svg" xmlns:xlink="http://www.w3.org/1999/xlink" version="1.1">
<metadata>
Created by FontForge 20170731 at Sat Jun 25 22:40:16 2022
 By Aleksey,,,
2005 Albert-Jan Pool published by FSI Fonts und Software GmbH
</metadata>
<defs>
<font id="DINPro-Light" horiz-adv-x="1052" >
  <font-face 
    font-family="DINPro-Light"
    font-weight="300"
    font-stretch="normal"
    units-per-em="2048"
    panose-1="2 0 5 4 4 0 0 2 0 3"
    ascent="1565"
    descent="-483"
    x-height="987"
    cap-height="1458"
    bbox="-348 -483 2251 2009"
    underline-thickness="104"
    underline-position="-380"
    unicode-range="U+000D-FB02"
  />
<missing-glyph horiz-adv-x="1144" 
d="M199 0v1458h747v-1458h-747zM276 78h592v1302h-592v-1302z" />
    <glyph glyph-name="fi" unicode="fi" horiz-adv-x="1120" 
d="M334 909v-909h-105v909h-135v78h135v213q0 116 62 187t176 71h90v-92h-72q-151 0 -151 -164v-215h223v-78h-223zM817 0v987h105v-987h-105zM805 1329v129h129v-129h-129z" />
    <glyph glyph-name="fl" unicode="fl" horiz-adv-x="1200" 
d="M334 909v-909h-105v909h-135v78h135v213q0 116 62 187t176 71h90v-92h-72q-151 0 -151 -164v-215h223v-78h-223zM1044 0q-118 0 -177.5 67.5t-59.5 188.5v1202h104v-1200q0 -88 33.5 -127t118.5 -39h72v-92h-91z" />
    <glyph glyph-name=".notdef" horiz-adv-x="1144" 
d="M199 0v1458h747v-1458h-747zM276 78h592v1302h-592v-1302z" />
    <glyph glyph-name=".null" horiz-adv-x="0" 
 />
    <glyph glyph-name=".null" horiz-adv-x="0" 
 />
    <glyph glyph-name="nonmarkingreturn" horiz-adv-x="682" 
 />
    <glyph glyph-name="CR" unicode="&#xd;" horiz-adv-x="522" 
 />
    <glyph glyph-name="space" unicode=" " horiz-adv-x="522" 
 />
    <glyph glyph-name="exclam" unicode="!" horiz-adv-x="622" 
d="M391 393h-100l-6 1065h112zM272 0v137h138v-137h-138z" />
    <glyph glyph-name="quotedbl" unicode="&#x22;" horiz-adv-x="835" 
d="M195 1139v319h129v-319h-129zM512 1139v319h129v-319h-129z" />
    <glyph glyph-name="numbersign" unicode="#" horiz-adv-x="1308" 
d="M999 895l-51 -313h197v-90h-211l-78 -492h-104l79 492h-360l-76 -492h-104l78 492h-197v90h211l51 313h-203v92h215l74 471h107l-76 -471h358l74 471h102l-73 -471h192v-92h-205zM537 895l-52 -313h359l51 313h-358z" />
    <glyph glyph-name="dollar" unicode="$" horiz-adv-x="1202" 
d="M1081 391q0 -177 -118.5 -284t-327.5 -117v-223h-92v221q-140 6 -242 51.5t-197 140.5l78 78q88 -88 169 -125t192 -45v604l-33 4q-76 10 -146.5 40t-113.5 67q-115 100 -115 268q0 173 109 279t299 118v183h92v-183q114 -6 199 -42.5t174 -112.5l-72 -72
q-67 60 -135.5 93t-165.5 40v-594l59 -10q107 -20 162 -39.5t98 -56.5q127 -105 127 -283zM971 387q0 137 -80 205q-22 20 -45 33t-52.5 21.5t-46.5 12t-57.5 9.5t-54.5 8v-588q157 11 246.5 88.5t89.5 210.5zM543 1374q-141 -10 -220 -90t-79 -209q0 -127 75 -190
q86 -72 224 -90v579z" />
    <glyph glyph-name="percent" unicode="%" horiz-adv-x="1695" 
d="M1554 260q0 -123 -74.5 -198.5t-193.5 -75.5q-121 0 -195.5 75.5t-74.5 198.5v219q0 123 74.5 199t195.5 76q119 0 193.5 -76t74.5 -199v-219zM680 979q0 -121 -74.5 -196.5t-193.5 -75.5q-121 0 -196 75t-75 197v219q0 123 75 199t196 76q119 0 193.5 -76t74.5 -199
v-219zM1464 475q0 201 -178 201q-180 0 -180 -201v-211q0 -201 180 -201q178 0 178 201v211zM590 1194q0 201 -178 201q-181 0 -181 -201v-211q0 -199 181 -199q178 0 178 199v211zM555 0h-92l680 1458h92z" />
    <glyph glyph-name="ampersand" unicode="&#x26;" horiz-adv-x="1527" 
d="M1214 0l-141 172q-27 -27 -61.5 -53t-91 -58.5t-134 -52.5t-161.5 -20q-201 0 -327 114.5t-126 300.5q0 65 19 122.5t43.5 96t74.5 84.5t82.5 70t98.5 69q11 7 16 11q-38 46 -59 74t-49 72.5t-41 88.5t-13 89q0 122 86.5 206t210.5 84q123 0 210 -84.5t87 -207.5
q0 -84 -44.5 -146.5t-123.5 -116.5q-75 -53 -108 -73l417 -506q50 74 68 149.5t18 212.5h109q0 -285 -127 -444l209 -254h-142zM569 782q-8 -5 -24 -16q-121 -83 -169 -134q-93 -98 -93 -222q0 -143 94 -233.5t246 -90.5q98 0 192 35.5t197 126.5zM829 1178q0 84 -54 139
t-134 55t-133 -53.5t-53 -134.5q0 -57 29.5 -113.5t113.5 -155.5l33 23q38 22 51 35q70 47 108.5 93.5t38.5 111.5z" />
    <glyph glyph-name="quotesingle" unicode="'" horiz-adv-x="518" 
d="M195 1139v319h129v-319h-129z" />
    <glyph glyph-name="parenleft" unicode="(" horiz-adv-x="581" 
d="M373 -193q-41 41 -58 58.5t-39 46.5t-38 59q-39 74 -39 191v1134q0 117 39 191q16 30 38 59t39 46.5t58 58.5l71 -72l-16.5 -16.5l-17 -17l-15 -15t-15.5 -16.5t-12.5 -15.5t-13 -17.5t-10 -16.5t-10.5 -18.5q-31 -67 -31 -162v-1110q0 -95 31 -162q5 -9 10.5 -18.5
t10 -16.5t13 -17.5t12.5 -15.5t15.5 -16.5l15 -15l17 -17l16.5 -16.5z" />
    <glyph glyph-name="parenright" unicode=")" horiz-adv-x="581" 
d="M383 162q0 -121 -39 -191q-16 -30 -38 -59t-39 -46.5t-58 -58.5l-76 76l19 19l19.5 19.5t16.5 17t17 19t14 18t14 20t11 20.5q28 52 28 158v1110q0 106 -28 158q-6 12 -14.5 25t-14 21t-19.5 23t-18 19l-23 23l-22 22l76 76q41 -41 58 -58.5t39 -46.5t38 -59
q39 -70 39 -191v-1134z" />
    <glyph glyph-name="asterisk" unicode="*" horiz-adv-x="956" 
d="M764 897l-246 150l6 -289h-92l6 289l-245 -150l-46 78l252 139l-252 139l46 78l245 -149l-6 288h92l-6 -288l246 149l45 -78l-252 -139l252 -139z" />
    <glyph glyph-name="plus" unicode="+" 
d="M575 492v-371h-96v371h-370v96h370v368h96v-368h369v-96h-369z" />
    <glyph glyph-name="comma" unicode="," horiz-adv-x="528" 
d="M195 -279v418h139v-278z" />
    <glyph glyph-name="hyphen" unicode="-" horiz-adv-x="872" 
d="M168 492v96h537v-96h-537z" />
    <glyph glyph-name="period" unicode="." horiz-adv-x="540" 
d="M195 0v152h151v-152h-151z" />
    <glyph glyph-name="slash" unicode="/" horiz-adv-x="692" 
d="M109 -152h-109l584 1762h108z" />
    <glyph glyph-name="zero" unicode="0" 
d="M909 377q0 -171 -107.5 -280t-275.5 -109q-167 0 -275 109.5t-108 279.5v704q0 170 108 279.5t275 109.5q168 0 275.5 -109t107.5 -280v-704zM805 1071q0 134 -73.5 220.5t-205.5 86.5t-205 -86.5t-73 -220.5v-684q0 -134 73 -220.5t205 -86.5t205.5 86.5t73.5 220.5v684
z" />
    <glyph glyph-name="one" unicode="1" 
d="M537 0v1339l-265 -233v125l265 227h104v-1458h-104z" />
    <glyph glyph-name="two" unicode="2" 
d="M147 0v92l586 768q82 106 82 227q0 133 -74 212t-206 79q-123 0 -202 -72.5t-79 -218.5h-104q0 167 104.5 275t280.5 108q174 0 279.5 -105.5t105.5 -277.5q0 -82 -23 -145t-78 -135l-547 -715h648v-92h-773z" />
    <glyph glyph-name="three" unicode="3" 
d="M915 389q0 -190 -115 -296.5t-298 -106.5q-178 0 -291 93t-125 275h104q11 -140 98.5 -208t213.5 -68q134 0 221.5 84t87.5 227q0 311 -317 311h-25v93h25q288 0 288 292q0 138 -79.5 216.5t-202.5 78.5q-127 0 -202 -70.5t-89 -195.5h-105q17 169 125 264t271 95
q173 0 280 -106t107 -282q0 -242 -207 -331q235 -79 235 -365z" />
    <glyph glyph-name="four" unicode="4" 
d="M770 240v-240h-104v240h-578v92l537 1126h110l-536 -1126h467v463h104v-463h195v-92h-195z" />
    <glyph glyph-name="five" unicode="5" 
d="M924 477q0 -130 -21.5 -223.5t-91.5 -163.5q-104 -104 -281 -104q-186 0 -280 98q-86 86 -98 238h104q18 -121 83.5 -182.5t190.5 -61.5q127 0 201 74q31 31 50 69.5t26.5 86t9.5 81.5t2 88q0 62 -5 111.5t-22.5 103.5t-46 90.5t-79 60t-119.5 23.5q-101 0 -171 -40
t-93 -113h-93v745h701v-92h-608v-516q95 108 276 108q158 0 246 -88q71 -71 95 -169.5t24 -223.5z" />
    <glyph glyph-name="six" unicode="6" 
d="M918 412q0 -118 -44.5 -213t-133.5 -153t-208 -58q-181 0 -284 113t-103 296q0 134 82 305l375 756h105l-336 -674q75 35 170 35q174 0 275.5 -115.5t101.5 -291.5zM813 403q0 138 -74.5 231t-208.5 93q-129 0 -204.5 -88t-75.5 -236t75.5 -235.5t204.5 -87.5t206 87.5
t77 235.5z" />
    <glyph glyph-name="seven" unicode="7" 
d="M424 0h-107l517 1366h-553v-229h-105v321h764v-92z" />
    <glyph glyph-name="eight" unicode="8" 
d="M942 393q0 -174 -119 -289.5t-297 -115.5q-177 0 -296 115.5t-119 289.5q0 123 61 215t170 150q-201 110 -201 332q0 162 108.5 271t276.5 109t276.5 -109t108.5 -271q0 -225 -198 -332q229 -122 229 -365zM838 393q0 134 -90 225t-222 91t-221.5 -91t-89.5 -225
q0 -135 89.5 -224t221.5 -89q133 0 222.5 89.5t89.5 223.5zM807 1090q0 128 -78.5 208t-202.5 80t-202 -80t-78 -208t78 -208.5t202 -80.5t202.5 80.5t78.5 208.5z" />
    <glyph glyph-name="nine" unicode="9" 
d="M907 1061q0 -134 -82 -305l-374 -756h-105l336 674q-75 -35 -172 -35q-117 0 -203 55t-129 146.5t-43 206.5q0 118 44 213t133 152.5t208 57.5q181 0 284 -113t103 -296zM803 1055q0 148 -77 235.5t-206 87.5t-204.5 -87.5t-75.5 -235.5q0 -138 73.5 -231t206.5 -93
q129 0 206 88t77 236z" />
    <glyph glyph-name="colon" unicode=":" horiz-adv-x="598" 
d="M252 0v152h151v-152h-151zM252 639v152h151v-152h-151z" />
    <glyph glyph-name="semicolon" unicode=";" horiz-adv-x="598" 
d="M256 -279v418h139v-278zM252 639v152h151v-152h-151z" />
    <glyph glyph-name="less" unicode="&#x3c;" 
d="M838 160l-623 329v99l623 330v-113l-521 -266l521 -267v-112z" />
    <glyph glyph-name="equal" unicode="=" 
d="M109 334v96h835v-96h-835zM109 647v96h835v-96h-835z" />
    <glyph glyph-name="greater" unicode="&#x3e;" 
d="M838 489l-623 -329v112l520 267l-520 266v113l623 -330v-99z" />
    <glyph glyph-name="question" unicode="?" horiz-adv-x="999" 
d="M897 1110q0 -67 -22 -122t-68 -122l-174 -256q-37 -53 -37 -123v-96h-104v92q0 58 13.5 98.5t45.5 86.5l172 254q26 40 37.5 61t22 55t10.5 72q0 115 -75 191.5t-188 76.5q-117 0 -189.5 -78.5t-72.5 -189.5h-104q0 151 102.5 255.5t263.5 104.5q157 0 262 -103t105 -257
zM475 0v137h137v-137h-137z" />
    <glyph glyph-name="at" unicode="@" horiz-adv-x="1427" 
d="M1165 0v121q-52 -70 -119.5 -102.5t-164.5 -32.5q-182 0 -285 133q-47 65 -67.5 150.5t-20.5 224.5q0 135 18.5 222t61.5 148q44 65 121 101t170 36q182 0 286 -139v182q0 88 -18.5 142.5t-65.5 101.5q-86 86 -233 86h-270q-146 0 -232 -86q-47 -47 -65.5 -100
t-18.5 -144v-722q0 -104 25 -156t102 -109l-72 -71q-94 66 -126.5 134.5t-32.5 201.5v716q0 195 112 310q107 110 289 110h307q179 0 289 -110q115 -115 115 -310v-1038h-105zM1165 494q0 69 -5 121.5t-21.5 110.5t-45.5 95.5t-81 62.5t-123 25t-123 -25t-81 -62.5
t-46 -95.5t-22 -110.5t-5 -121.5t5 -121.5t22 -111t46 -96t81 -62.5t123 -25q60 0 106 16t75 47.5t49 68.5t29.5 87.5t13 95.5t3.5 101z" />
    <glyph glyph-name="A" unicode="A" horiz-adv-x="1232" 
d="M1083 0l-127 354h-680l-126 -354h-119l536 1458h99l536 -1458h-119zM616 1311l-305 -858h611z" />
    <glyph glyph-name="B" unicode="B" horiz-adv-x="1374" 
d="M1206 397q0 -191 -115.5 -294t-312.5 -103h-553v1458h537q186 0 304 -102.5t118 -278.5q0 -116 -61 -204t-167 -123q119 -41 184.5 -133.5t65.5 -219.5zM1096 397q0 140 -89.5 219.5t-240.5 79.5h-430v-598h430q151 0 240.5 79.5t89.5 219.5zM1073 1077q0 143 -90.5 213
t-232.5 70h-414v-565h414q92 0 162.5 27.5t115.5 92.5t45 162z" />
    <glyph glyph-name="C" unicode="C" horiz-adv-x="1318" 
d="M1163 414q-37 -197 -169.5 -311.5t-325.5 -114.5q-104 0 -198.5 38.5t-166.5 110.5q-40 40 -65.5 84t-39.5 84.5t-20.5 114.5t-8 131.5t-1.5 177.5q0 101 1 151t4.5 117.5t12 103t23.5 79.5t38 76t56 65q72 72 166.5 110.5t198.5 38.5q195 0 326.5 -114t168.5 -312h-112
q-32 153 -134 240.5t-249 87.5q-165 0 -277 -112q-74 -74 -93 -177t-19 -354t19 -353.5t93 -176.5q113 -113 277 -113q148 0 251.5 88t135.5 240h108z" />
    <glyph glyph-name="D" unicode="D" horiz-adv-x="1388" 
d="M1221 750v-90.5t-2.5 -90t-7 -101t-15 -90.5t-25 -95t-38.5 -78t-54 -72q-133 -133 -364 -133h-490v1458h490q231 0 364 -133q31 -31 54.5 -70t38 -71.5t25 -86.5t15 -82t7 -92.5t2.5 -84v-88.5zM1110 750v23q0 66 -0.5 102t-6 99t-16.5 104.5t-32.5 88.5t-53.5 80
q-108 113 -313 113h-352v-1262h352q205 0 313 113q26 28 46 65t31.5 85t18.5 87.5t9.5 99t3 90.5t0.5 89v23z" />
    <glyph glyph-name="E" unicode="E" horiz-adv-x="1224" 
d="M225 0v1458h885v-98h-774v-576h659v-98h-659v-588h774v-98h-885z" />
    <glyph glyph-name="F" unicode="F" horiz-adv-x="1179" 
d="M336 1360v-600h659v-98h-659v-662h-111v1458h885v-98h-774z" />
    <glyph glyph-name="G" unicode="G" horiz-adv-x="1333" 
d="M1169 508q0 -119 -27 -202t-91 -150q-72 -80 -172.5 -124t-210.5 -44q-104 0 -198.5 38.5t-166.5 110.5q-40 40 -65.5 84t-39.5 84.5t-20.5 114.5t-8 131.5t-1.5 177.5q0 101 1 151t4.5 117.5t12 103t23.5 79.5t38 76t56 65q72 72 166.5 110.5t198.5 38.5q191 0 328 -117
t169 -309h-110q-32 152 -135.5 240t-251.5 88q-165 0 -277 -112q-74 -74 -93 -177t-19 -354t19 -353.5t93 -176.5q113 -113 277 -113q87 0 167 36.5t136 104.5q47 60 67.5 127.5t20.5 161.5v131h-391v98h501v-237z" />
    <glyph glyph-name="H" unicode="H" horiz-adv-x="1431" 
d="M1096 0v686h-760v-686h-111v1458h111v-674h760v674h110v-1458h-110z" />
    <glyph glyph-name="I" unicode="I" horiz-adv-x="561" 
d="M225 0v1458h111v-1458h-111z" />
    <glyph glyph-name="J" unicode="J" horiz-adv-x="1019" 
d="M815 430q0 -200 -118.5 -321t-315.5 -121q-195 0 -320 125l76 75q50 -50 103 -76t141 -26q158 0 241 94.5t83 272.5v1005h110v-1028z" />
    <glyph glyph-name="K" unicode="K" horiz-adv-x="1320" 
d="M1153 0l-469 817l-348 -422v-395h-111v1458h111v-911l739 911h133l-450 -557l526 -901h-131z" />
    <glyph glyph-name="L" unicode="L" horiz-adv-x="1171" 
d="M225 0v1458h111v-1360h774v-98h-885z" />
    <glyph glyph-name="M" unicode="M" horiz-adv-x="1675" 
d="M1339 0v1202l-442 -997h-111l-450 997v-1202h-111v1458h111l508 -1124l495 1124h111v-1458h-111z" />
    <glyph glyph-name="N" unicode="N" horiz-adv-x="1513" 
d="M1178 0l-842 1268v-1268h-111v1458h111l842 -1263v1263h110v-1458h-110z" />
    <glyph glyph-name="O" unicode="O" horiz-adv-x="1335" 
d="M1167 729q0 -120 -1.5 -177.5t-8 -131.5t-20.5 -114.5t-39.5 -84.5t-65.5 -84q-149 -149 -364 -149q-104 0 -198.5 38.5t-166.5 110.5q-40 40 -65.5 84t-39.5 84.5t-20.5 114.5t-8 131.5t-1.5 177.5q0 101 1 151t4.5 117.5t12 103t23.5 79.5t38 76t56 65
q72 72 166.5 110.5t198.5 38.5q215 0 364 -149q33 -33 56 -65t38 -76t23.5 -79.5t12 -103t4.5 -117.5t1 -151zM1057 729q0 250 -19.5 353.5t-93.5 177.5q-112 112 -276 112q-165 0 -277 -112q-74 -74 -93 -177t-19 -354t19 -353.5t93 -176.5q113 -113 277 -113
q163 0 276 113q74 74 93.5 177t19.5 353z" />
    <glyph glyph-name="P" unicode="P" horiz-adv-x="1292" 
d="M1200 1038q0 -195 -123 -307.5t-317 -112.5h-424v-618h-111v1458h535q194 0 317 -112t123 -308zM1090 1038q0 159 -92 240.5t-250 81.5h-412v-643h412q158 0 250 81t92 240z" />
    <glyph glyph-name="Q" unicode="Q" horiz-adv-x="1333" 
d="M1161 -74l-172 172q-137 -110 -321 -110q-104 0 -198.5 38.5t-166.5 110.5q-40 40 -65.5 84t-39.5 84.5t-20.5 114.5t-8 131.5t-1.5 177.5q0 101 1 151t4.5 117.5t12 103t23.5 79.5t38 76t56 65q72 72 166.5 110.5t198.5 38.5q215 0 364 -149q33 -33 56 -65t38 -76
t23.5 -79.5t12 -103t4.5 -117.5t1 -151q0 -256 -16.5 -365.5t-87.5 -191.5l172 -172zM1057 729q0 250 -19.5 353.5t-93.5 177.5q-112 112 -276 112q-165 0 -277 -112q-74 -74 -93 -177t-19 -354t19 -353.5t93 -176.5q113 -113 277 -113q138 0 247 86l-204 205l73 74
l203 -203q46 64 58 162.5t12 318.5z" />
    <glyph glyph-name="R" unicode="R" horiz-adv-x="1345" 
d="M1085 0l-348 672h-401v-672h-111v1458h555q185 0 301.5 -103t116.5 -288q0 -162 -90 -264t-246 -129l352 -674h-129zM1087 1065q0 147 -87 221t-234 74h-430v-590h430q147 0 234 74t87 221z" />
    <glyph glyph-name="S" unicode="S" horiz-adv-x="1202" 
d="M1081 391q0 -186 -131.5 -294.5t-359.5 -108.5q-159 0 -272 45.5t-214 146.5l78 78q97 -97 189 -134.5t225 -37.5q174 0 274.5 79.5t100.5 221.5q0 137 -80 205q-45 35 -85 51t-126 27l-170 26q-165 24 -260 107q-115 95 -115 268q0 185 121.5 292t331.5 107
q132 0 228 -36.5t192 -120.5l-72 -72q-71 67 -152 101t-202 34q-159 0 -248.5 -80.5t-89.5 -220.5q0 -127 75 -190q78 -66 218 -90l157 -25q100 -13 157 -35t103 -61q127 -105 127 -283z" />
    <glyph glyph-name="T" unicode="T" horiz-adv-x="1103" 
d="M606 1360v-1360h-110v1360h-435v98h981v-98h-436z" />
    <glyph glyph-name="U" unicode="U" horiz-adv-x="1409" 
d="M1204 473q0 -214 -139.5 -349.5t-359.5 -135.5t-360 135.5t-140 349.5v985h110v-971q0 -182 106.5 -291.5t283.5 -109.5t283 109.5t106 291.5v971h110v-985z" />
    <glyph glyph-name="V" unicode="V" horiz-adv-x="1093" 
d="M594 0h-94l-480 1458h117l410 -1263l409 1263h117z" />
    <glyph glyph-name="W" unicode="W" horiz-adv-x="1724" 
d="M1319 0h-113l-344 1270l-344 -1270h-112l-365 1458h117l307 -1268l340 1268h115l340 -1268l307 1268h116z" />
    <glyph glyph-name="X" unicode="X" horiz-adv-x="1089" 
d="M924 0l-381 649l-381 -649h-125l446 748l-417 710h129l348 -612l350 612h127l-418 -710l451 -748h-129z" />
    <glyph glyph-name="Y" unicode="Y" horiz-adv-x="1011" 
d="M561 604v-604h-110v604l-431 854h119l371 -737l362 737h119z" />
    <glyph glyph-name="Z" unicode="Z" horiz-adv-x="1144" 
d="M129 0v117l768 1243h-737v98h856v-98l-774 -1262h774v-98h-887z" />
    <glyph glyph-name="bracketleft" unicode="[" horiz-adv-x="593" 
d="M199 -152v1762h303v-92h-199v-1577h199v-93h-303z" />
    <glyph glyph-name="backslash" unicode="\" horiz-adv-x="692" 
d="M584 -152l-584 1762h109l583 -1762h-108z" />
    <glyph glyph-name="bracketright" unicode="]" horiz-adv-x="593" 
d="M92 -152v86h205v1590h-205v86h303v-1762h-303z" />
    <glyph glyph-name="asciicircum" unicode="^" 
d="M793 864l-267 496l-266 -496h-104l323 606h94l324 -606h-104z" />
    <glyph glyph-name="underscore" unicode="_" 
d="M0 -328v78h1053v-78h-1053z" />
    <glyph glyph-name="grave" unicode="`" horiz-adv-x="1024" 
d="M489 1208l-217 301h138l198 -301h-119z" />
    <glyph glyph-name="a" unicode="a" horiz-adv-x="1073" 
d="M778 0v98q-62 -62 -128.5 -86t-172.5 -24q-111 0 -177.5 20.5t-113.5 69.5q-71 71 -71 192q0 135 91 210t253 75h319v111q0 122 -65 181.5t-213 59.5q-103 0 -164 -28.5t-109 -96.5l-75 66q61 85 141.5 118t206.5 33q383 0 383 -323v-676h-105zM778 471h-307
q-252 0 -252 -199q0 -99 62 -145.5t196 -46.5q81 0 139 15t107 61q55 52 55 188v127z" />
    <glyph glyph-name="b" unicode="b" horiz-adv-x="1105" 
d="M965 494q0 -293 -127 -420q-39 -39 -102.5 -62.5t-139.5 -23.5q-94 0 -162.5 29t-130.5 110v-127h-104v1458h104v-598q62 81 130.5 110t162.5 29q76 0 139.5 -23.5t102.5 -62.5q127 -127 127 -419zM860 494q0 69 -5.5 122.5t-23 110.5t-47 94.5t-81 61.5t-121.5 24
t-121.5 -24t-81.5 -61.5t-47.5 -94.5t-23 -110.5t-5.5 -122.5t5.5 -123t23 -110.5t47.5 -94.5t81.5 -62t121.5 -24t121.5 24t81 61.5t47 95t23 111t5.5 122.5z" />
    <glyph glyph-name="c" unicode="c" horiz-adv-x="1009" 
d="M901 139q-76 -86 -149 -118.5t-177 -32.5q-202 0 -318 135.5t-116 370.5t116 370t318 135q104 0 177 -32.5t149 -118.5l-72 -66q-63 70 -119 97.5t-135 27.5q-174 0 -262 -131q-37 -54 -52 -118t-15 -164t15 -164.5t52 -118.5q88 -131 262 -131q78 0 134.5 28t119.5 97z
" />
    <glyph glyph-name="d" unicode="d" horiz-adv-x="1105" 
d="M803 0v127q-62 -81 -130.5 -110t-162.5 -29q-76 0 -139.5 23.5t-102.5 62.5q-127 127 -127 420q0 292 127 419q39 39 102.5 62.5t139.5 23.5q94 0 162.5 -29t130.5 -110v598h104v-1458h-104zM803 494q0 69 -5.5 122.5t-23 110.5t-47.5 94.5t-81.5 61.5t-121.5 24
t-121.5 -24t-81 -61.5t-47 -94.5t-23 -110.5t-5.5 -122.5t5.5 -122.5t23 -111t47 -95t81 -61.5t121.5 -24t121.5 24t81.5 62t47.5 94.5t23 110.5t5.5 123z" />
    <glyph glyph-name="e" unicode="e" horiz-adv-x="1071" 
d="M246 471q0 -190 81.5 -289.5t239.5 -99.5q86 0 147.5 27.5t125.5 91.5l78 -62q-79 -79 -159 -115t-198 -36q-204 0 -312 129.5t-108 376.5q0 239 105 372t291 133t290.5 -127t104.5 -354v-47h-686zM827 555q-4 60 -6 80.5t-8.5 48.5t-19.5 57q-32 78 -100.5 122
t-155.5 44t-155.5 -44t-100.5 -122q-18 -48 -24.5 -82t-10.5 -104h581z" />
    <glyph glyph-name="f" unicode="f" horiz-adv-x="622" 
d="M334 909v-909h-105v909h-135v78h135v213q0 116 62 187t176 71h90v-92h-72q-151 0 -151 -164v-215h223v-78h-223z" />
    <glyph glyph-name="g" unicode="g" horiz-adv-x="1105" 
d="M907 -55q0 -190 -107.5 -309t-295.5 -119q-106 0 -176 29.5t-150 101.5l70 69q65 -60 116.5 -84t139.5 -24q149 0 224 93.5t75 248.5v176q-62 -81 -130.5 -110t-162.5 -29q-76 0 -139.5 23.5t-102.5 62.5q-127 127 -127 420q0 292 127 419q39 39 102.5 62.5t139.5 23.5
q94 0 162.5 -29t130.5 -110v127h104v-1042zM803 494q0 69 -5.5 122.5t-23 110.5t-47.5 94.5t-81.5 61.5t-121.5 24t-121.5 -24t-81 -61.5t-47 -94.5t-23 -110.5t-5.5 -122.5t5.5 -122.5t23 -111t47 -95t81 -61.5t121.5 -24t121.5 24t81.5 62t47.5 94.5t23 110.5t5.5 123z
" />
    <glyph glyph-name="h" unicode="h" horiz-adv-x="1144" 
d="M854 0v612q0 143 -69.5 219t-202.5 76t-206 -77t-73 -218v-612h-104v1458h104v-588q111 129 291 129q170 0 267 -98t97 -270v-631h-104z" />
    <glyph glyph-name="i" unicode="i" horiz-adv-x="501" 
d="M199 0v987h104v-987h-104zM186 1329v129h129v-129h-129z" />
    <glyph glyph-name="j" unicode="j" horiz-adv-x="501" 
d="M303 -215q0 -121 -59.5 -188.5t-177.5 -67.5h-91v92h72q85 0 118.5 39t33.5 127v1200h104v-1202zM186 1329v129h129v-129h-129z" />
    <glyph glyph-name="k" unicode="k" horiz-adv-x="1079" 
d="M868 0l-340 543l-225 -260v-283h-104v1458h104v-1028l490 557h133l-326 -369l397 -618h-129z" />
    <glyph glyph-name="l" unicode="l" horiz-adv-x="587" 
d="M432 0q-118 0 -177.5 67.5t-59.5 188.5v1202h104v-1200q0 -88 33.5 -127t118.5 -39h71v-92h-90z" />
    <glyph glyph-name="m" unicode="m" horiz-adv-x="1798" 
d="M1509 0v612q0 143 -69.5 219t-202.5 76q-129 0 -204 -74t-75 -202v-631h-104v612q0 143 -69.5 219t-202.5 76t-206 -77t-73 -218v-612h-104v987h104v-117q111 129 293 129q110 0 191.5 -46t125.5 -134q114 180 336 180q160 0 260 -94q103 -100 103 -274v-631h-103z" />
    <glyph glyph-name="n" unicode="n" horiz-adv-x="1144" 
d="M854 0v612q0 143 -69.5 219t-202.5 76t-206 -77t-73 -218v-612h-104v987h104v-117q111 129 291 129q164 0 262 -94q102 -99 102 -274v-631h-104z" />
    <glyph glyph-name="o" unicode="o" horiz-adv-x="1077" 
d="M936 494q0 -275 -123 -398q-108 -108 -274 -108q-167 0 -275 108q-123 123 -123 398q0 274 123 397q108 108 275 108q166 0 274 -108q123 -123 123 -397zM831 494q0 112 -16.5 193t-71.5 136q-84 84 -204 84q-121 0 -205 -84q-55 -55 -71.5 -136t-16.5 -193t16.5 -193.5
t71.5 -136.5q84 -84 205 -84q120 0 204 84q55 55 71.5 136.5t16.5 193.5z" />
    <glyph glyph-name="p" unicode="p" horiz-adv-x="1105" 
d="M965 494q0 -293 -127 -420q-39 -39 -102.5 -62.5t-139.5 -23.5q-94 0 -162.5 29t-130.5 110v-598h-104v1458h104v-127q62 81 130.5 110t162.5 29q76 0 139.5 -23.5t102.5 -62.5q127 -127 127 -419zM860 494q0 69 -5.5 122.5t-23 110.5t-47 94.5t-81 61.5t-121.5 24
t-121.5 -24t-81.5 -61.5t-47.5 -94.5t-23 -110.5t-5.5 -122.5t5.5 -123t23 -110.5t47.5 -94.5t81.5 -62t121.5 -24t121.5 24t81 61.5t47 95t23 111t5.5 122.5z" />
    <glyph glyph-name="q" unicode="q" horiz-adv-x="1105" 
d="M803 -471v598q-62 -81 -130.5 -110t-162.5 -29q-76 0 -139.5 23.5t-102.5 62.5q-127 127 -127 420q0 292 127 419q39 39 102.5 62.5t139.5 23.5q94 0 162.5 -29t130.5 -110v127h104v-1458h-104zM803 494q0 69 -5.5 122.5t-23 110.5t-47.5 94.5t-81.5 61.5t-121.5 24
t-121.5 -24t-81 -61.5t-47 -94.5t-23 -110.5t-5.5 -122.5t5.5 -122.5t23 -111t47 -95t81 -61.5t121.5 -24t121.5 24t81.5 62t47.5 94.5t23 110.5t5.5 123z" />
    <glyph glyph-name="r" unicode="r" horiz-adv-x="837" 
d="M754 829q-44 44 -84.5 61t-102.5 17q-122 0 -193 -87t-71 -212v-608h-104v987h104v-131q42 67 120.5 105t168.5 38q75 0 130 -21t107 -73z" />
    <glyph glyph-name="s" unicode="s" horiz-adv-x="1011" 
d="M897 281q0 -135 -106 -214t-289 -79q-253 0 -400 141l72 72q115 -121 324 -121q297 0 297 201q0 77 -45 115.5t-144 49.5l-164 15q-297 24 -297 258q0 129 96.5 204.5t258.5 75.5q207 0 346 -104l-70 -70q-116 84 -276 84q-123 0 -187.5 -49t-64.5 -141q0 -77 48 -116
t153 -50l159 -14q67 -7 115 -20.5t90 -41.5t63 -77t21 -119z" />
    <glyph glyph-name="t" unicode="t" horiz-adv-x="665" 
d="M461 0q-114 0 -176 71t-62 187v651h-135v78h135v316h105v-316h223v-78h-223v-653q0 -164 151 -164h72v-92h-90z" />
    <glyph glyph-name="u" unicode="u" horiz-adv-x="1144" 
d="M842 0v117q-111 -129 -291 -129q-164 0 -262 94q-103 100 -103 274v631h105v-612q0 -143 69.5 -219t202.5 -76t206 77t73 218v612h104v-987h-104z" />
    <glyph glyph-name="v" unicode="v" horiz-adv-x="880" 
d="M492 0h-103l-360 987h114l297 -864l297 864h115z" />
    <glyph glyph-name="w" unicode="w" horiz-adv-x="1458" 
d="M1114 0h-106l-279 823l-278 -823h-107l-315 987h114l252 -864l283 864h102l283 -864l252 864h115z" />
    <glyph glyph-name="x" unicode="x" horiz-adv-x="942" 
d="M733 0l-260 416l-264 -416h-127l334 504l-320 483h127l250 -397l246 397h127l-320 -483l334 -504h-127z" />
    <glyph glyph-name="y" unicode="y" horiz-adv-x="880" 
d="M393 -268q-28 -82 -67 -115q-66 -63 -187 -63h-49v92h39q56 0 89.5 14t52.5 41t38 80l80 219l-360 987h114l297 -864l297 864h115z" />
    <glyph glyph-name="z" unicode="z" horiz-adv-x="925" 
d="M111 0v98l594 797h-562v92h672v-98l-596 -797h596v-92h-704z" />
    <glyph glyph-name="braceleft" unicode="{" horiz-adv-x="647" 
d="M516 -152q-76 0 -122.5 13t-76.5 43t-41.5 70.5t-11.5 123.5v424q0 86 -37 123q-39 39 -88 39h-37v90h37q49 0 88 39q37 37 37 123v424q0 83 11.5 123.5t41.5 70.5t76.5 43t122.5 13h29v-92h-27q-57 0 -80.5 -5t-40.5 -22t-22.5 -45.5t-5.5 -87.5v-424q0 -79 -29 -125.5
t-96 -79.5q67 -33 96 -79.5t29 -125.5v-424q0 -59 5.5 -87.5t22.5 -45.5t40 -21.5t81 -4.5h27v-93h-29z" />
    <glyph glyph-name="bar" unicode="|" horiz-adv-x="649" 
d="M272 -152v1762h105v-1762h-105z" />
    <glyph glyph-name="braceright" unicode="}" horiz-adv-x="647" 
d="M508 684q-49 0 -88 -39q-37 -37 -37 -123v-424q0 -83 -11.5 -123.5t-41.5 -70.5t-76.5 -43t-122.5 -13h-29v93h27q58 0 81 4.5t40 21.5t23 46t6 87v424q0 79 28.5 125.5t95.5 79.5q-67 33 -95.5 79.5t-28.5 125.5v424q0 58 -6 87t-23 46t-40.5 22t-80.5 5h-27v92h29
q76 0 122.5 -13t76.5 -43t41.5 -70.5t11.5 -123.5v-424q0 -86 37 -123q39 -39 88 -39h37v-90h-37z" />
    <glyph glyph-name="asciitilde" unicode="~" 
d="M944 567q-80 -80 -126.5 -103.5t-110.5 -23.5q-16 0 -35 3t-32 6t-36 11.5t-33 12.5t-38 16l-35 15q-3 1 -20 8.5t-21 9.5t-18.5 7.5t-20 7.5t-17.5 5.5t-20 5t-18.5 2.5t-20.5 1q-46 0 -78.5 -16.5t-91.5 -75.5l-63 63q80 80 126.5 103.5t110.5 23.5q14 0 28 -1.5t31 -6
t27.5 -7.5t31.5 -11t28.5 -11t32 -13.5t30.5 -12.5q3 -1 20 -8.5t21 -9.5t18.5 -7.5t20 -7.5t17.5 -5.5t20 -5t18.5 -2.5t20.5 -1q47 0 79 16.5t91 75.5z" />
    <glyph glyph-name="uni00A0" unicode="&#xa0;" horiz-adv-x="522" 
 />
    <glyph glyph-name="exclamdown" unicode="&#xa1;" horiz-adv-x="622" 
d="M225 -471l6 1065h101l6 -1065h-113zM213 850v137h137v-137h-137z" />
    <glyph glyph-name="cent" unicode="&#xa2;" horiz-adv-x="1019" 
d="M901 395q-73 -82 -140 -114t-163 -37v-244h-88v248q-174 23 -271.5 154.5t-97.5 347.5t97.5 347t271.5 154v207h88v-203q96 -5 163 -37t140 -114l-72 -66q-60 66 -111 93t-120 32v-827q69 5 120 32t111 93zM510 1157q-125 -21 -197 -125q-37 -54 -52 -118t-15 -164
t15 -164.5t52 -118.5q72 -104 197 -125v815z" />
    <glyph glyph-name="sterling" unicode="&#xa3;" horiz-adv-x="1099" 
d="M233 0v700h-131v78h131v250q0 200 118.5 321t316.5 121q195 0 319 -124l-76 -76q-50 50 -102.5 76t-140.5 26q-158 0 -241 -94.5t-83 -271.5v-228h324v-78h-324v-602h643v-98h-754z" />
    <glyph glyph-name="currency" unicode="&#xa4;" horiz-adv-x="1345" 
d="M1106 45l-154 152q-119 -99 -280 -99q-162 0 -281 99l-151 -152l-66 66l152 151q-99 119 -99 281q0 163 99 282l-152 150l66 65l151 -149q116 96 281 96q164 0 280 -96l154 149l65 -65l-151 -150q96 -116 96 -282q0 -165 -96 -281l151 -151zM1018 543q0 145 -100.5 245.5
t-245.5 100.5t-245.5 -100.5t-100.5 -245.5t100.5 -245.5t245.5 -100.5t245.5 100.5t100.5 245.5z" />
    <glyph glyph-name="yen" unicode="&#xa5;" horiz-adv-x="1009" 
d="M655 791h222v-78h-261l-55 -109v-108h316v-78h-316v-418h-110v418h-318v78h318v108l-56 109h-262v78h223l-336 667h117l371 -739l366 739h115z" />
    <glyph glyph-name="brokenbar" unicode="&#xa6;" horiz-adv-x="671" 
d="M272 -152v717h105v-717h-105zM272 893v717h105v-717h-105z" />
    <glyph glyph-name="section" unicode="&#xa7;" horiz-adv-x="1159" 
d="M961 506q0 -122 -64 -212.5t-162 -135.5q98 -33 154.5 -111.5t56.5 -187.5q0 -150 -102.5 -246t-263.5 -96q-158 0 -261.5 84t-115.5 233h110q10 -109 79 -164t188 -55t187.5 63.5t68.5 180.5q0 81 -52.5 142.5t-140.5 86.5l-170 47q-129 36 -201.5 136t-72.5 235
q0 122 63.5 213t161.5 135q-101 43 -152 111.5t-51 177.5q0 149 103 238t256 89q149 0 253 -82.5t111 -226.5h-108q-10 112 -74.5 162.5t-181.5 50.5q-118 0 -184 -58t-66 -173q0 -165 186 -219l170 -47q128 -36 201.5 -137t73.5 -234zM850 506q0 66 -15.5 116t-56.5 91
q-84 84 -198 84q-121 0 -199 -84q-40 -43 -56 -91t-16 -116q0 -132 72 -207q78 -84 199 -84q120 0 198 84q72 78 72 207z" />
    <glyph glyph-name="dieresis" unicode="&#xa8;" horiz-adv-x="1024" 
d="M240 1229v157h118v-157h-118zM666 1229v157h118v-157h-118z" />
    <glyph glyph-name="copyright" unicode="&#xa9;" horiz-adv-x="1830" 
d="M1657 729q0 -202 -99.5 -372.5t-270 -269.5t-372.5 -99q-151 0 -288.5 58.5t-236.5 157.5t-157.5 236.5t-58.5 288.5t58.5 288.5t157.5 236.5t236.5 157.5t288.5 58.5q202 0 372.5 -99t270 -269.5t99.5 -372.5zM1559 729q0 130 -51.5 250t-138 208t-206 140.5
t-248.5 52.5t-248.5 -52.5t-205.5 -140.5t-137.5 -208t-51.5 -250t51.5 -250t137.5 -208t205.5 -140.5t248.5 -52.5t248.5 52.5t206 140.5t138 208t51.5 250zM1192 414q-62 -56 -123.5 -81.5t-144.5 -25.5q-91 0 -161.5 33.5t-114 92t-65.5 133.5t-22 163q0 70 13.5 132
t42.5 116t71 93t102.5 61t133.5 22q84 0 143.5 -25t124.5 -84l-62 -61q-55 49 -99.5 67.5t-106.5 18.5q-60 0 -107.5 -18.5t-77.5 -49.5t-50 -75t-28 -92.5t-8 -104.5t8 -104.5t28 -92t50 -74.5t77.5 -49t107.5 -18q63 0 107 17.5t99 66.5z" />
    <glyph glyph-name="ordfeminine" unicode="&#xaa;" horiz-adv-x="915" 
d="M641 670v73q-49 -47 -101 -65.5t-132 -18.5q-88 0 -140.5 16t-89.5 56q-57 57 -57 154q0 108 71.5 167.5t200.5 59.5h248v86q0 95 -50.5 140.5t-164.5 45.5q-82 0 -129 -21.5t-84 -76.5l-66 55q52 69 116.5 96t162.5 27q151 0 227 -66.5t76 -191.5v-536h-88zM641 1040
h-238q-194 0 -194 -153q0 -76 48 -112t151 -36q63 0 108.5 11.5t83.5 46.5q41 41 41 147v96z" />
    <glyph glyph-name="guillemotleft" unicode="&#xab;" horiz-adv-x="1079" 
d="M86 543l401 401v-135l-266 -266l266 -267v-135zM510 543l401 401v-135l-266 -266l266 -267v-135z" />
    <glyph glyph-name="logicalnot" unicode="&#xac;" 
d="M848 219v273h-739v96h835v-369h-96z" />
    <glyph glyph-name="uni00AD" unicode="&#xad;" horiz-adv-x="872" 
d="M168 492v96h537v-96h-537z" />
    <glyph glyph-name="registered" unicode="&#xae;" horiz-adv-x="1830" 
d="M1657 729q0 -202 -99.5 -372.5t-270 -269.5t-372.5 -99q-151 0 -288.5 58.5t-236.5 157.5t-157.5 236.5t-58.5 288.5t58.5 288.5t157.5 236.5t236.5 157.5t288.5 58.5q202 0 372.5 -99t270 -269.5t99.5 -372.5zM1561 729q0 174 -87 324.5t-236 239.5t-323 89
q-130 0 -249.5 -52.5t-206 -140.5t-138 -209t-51.5 -251t51.5 -251t138 -209t206 -140.5t249.5 -52.5q174 0 323 89t236 239.5t87 324.5zM1112 319l-203 343h-135v-343h-92v822h262q104 0 179 -69.5t75 -172.5q0 -89 -50 -147t-136 -82l207 -351h-107zM1106 899
q0 68 -49.5 113t-122.5 45h-160v-314h160q74 0 123 44.5t49 111.5z" />
    <glyph glyph-name="macron" unicode="&#xaf;" horiz-adv-x="1024" 
d="M815 1249h-606v94h606v-94z" />
    <glyph glyph-name="degree" unicode="&#xb0;" horiz-adv-x="937" 
d="M791 1151q0 -133 -94.5 -227.5t-227.5 -94.5t-227.5 94.5t-94.5 227.5t94.5 227.5t227.5 94.5t227.5 -94.5t94.5 -227.5zM698 1151q0 99 -66.5 167t-164.5 68t-162.5 -66t-64.5 -169q0 -102 65 -169t164 -67t164 67t65 169z" />
    <glyph glyph-name="plusminus" unicode="&#xb1;" 
d="M575 553v-373h-96v373h-370v96h370v371h96v-371h369v-96h-369zM109 0v96h835v-96h-835z" />
    <glyph glyph-name="twosuperior" unicode="&#xb2;" horiz-adv-x="688" 
d="M102 584v82l344 436q48 63 48 127q0 73 -39.5 114t-110.5 41q-66 0 -108.5 -37t-42.5 -118h-91q0 105 66.5 171t175.5 66q110 0 176 -64t66 -173q0 -52 -15.5 -90.5t-54.5 -87.5l-305 -385h375v-82h-484z" />
    <glyph glyph-name="threesuperior" unicode="&#xb3;" horiz-adv-x="720" 
d="M618 823q0 -118 -72.5 -184t-183.5 -66q-110 0 -183 60t-77 174h93q4 -77 51 -114.5t116 -37.5q74 0 120 45t46 123q0 166 -172 166h-16v80h16q78 0 117 41.5t39 116.5t-43 116t-109 41q-68 0 -108.5 -38t-46.5 -105h-90q7 104 75 164.5t170 60.5q109 0 175.5 -64.5
t66.5 -172.5q0 -143 -117 -195q133 -50 133 -211z" />
    <glyph glyph-name="acute" unicode="&#xb4;" horiz-adv-x="1024" 
d="M535 1208h-119l198 301h138z" />
    <glyph glyph-name="uni00B5" unicode="&#xb5;" horiz-adv-x="1138" 
d="M836 0v117q-111 -129 -291 -129q-160 0 -260 92v-551h-105v1458h105v-612q0 -143 69.5 -219t202.5 -76t206 77t73 218v612h104v-987h-104z" />
    <glyph glyph-name="paragraph" unicode="&#xb6;" horiz-adv-x="1185" 
d="M856 -471v1831h-252v-1831h-104v1151q-95 0 -174 34t-129 89.5t-77.5 124.5t-27.5 141q0 76 28.5 145.5t81.5 124t136.5 87t185.5 32.5h437v-1929h-105z" />
    <glyph glyph-name="periodcentered" unicode="&#xb7;" horiz-adv-x="540" 
d="M195 465v151h151v-151h-151z" />
    <glyph glyph-name="cedilla" unicode="&#xb8;" horiz-adv-x="1024" 
d="M500 -451h-129l147 308h113z" />
    <glyph glyph-name="onesuperior" unicode="&#xb9;" horiz-adv-x="509" 
d="M256 584v774l-164 -146v105l164 141h90v-874h-90z" />
    <glyph glyph-name="ordmasculine" unicode="&#xba;" horiz-adv-x="925" 
d="M778 1063q0 -102 -20 -179.5t-78 -135.5q-86 -86 -217 -86t-217 86q-58 58 -78.5 136t-20.5 179t20.5 179t78.5 136q86 86 217 86t217 -86q58 -58 78 -135.5t20 -179.5zM690 1063q0 56 -3 93.5t-19 85.5t-45 77q-65 65 -160 65t-160 -65q-42 -42 -54.5 -105.5
t-12.5 -150.5q0 -56 3 -93.5t19 -85.5t45 -77q66 -66 160 -66t160 66q42 42 54.5 105.5t12.5 150.5z" />
    <glyph glyph-name="guillemotright" unicode="&#xbb;" horiz-adv-x="1079" 
d="M168 141v135l266 267l-266 266v135l401 -401zM592 141v135l266 267l-266 266v135l401 -401z" />
    <glyph glyph-name="onequarter" unicode="&#xbc;" horiz-adv-x="1548" 
d="M1360 137v-137h-90v137h-348v82l315 655h96l-313 -655h250v246h90v-246h106v-82h-106zM436 0h-92l680 1458h92zM256 584v774l-164 -146v105l164 141h90v-874h-90z" />
    <glyph glyph-name="onehalf" unicode="&#xbd;" horiz-adv-x="1564" 
d="M979 0v82l344 436q47 62 47 127q0 73 -39 114.5t-110 41.5q-66 0 -109 -37.5t-43 -118.5h-90q0 105 66.5 171.5t175.5 66.5t175 -64t66 -174q0 -51 -15.5 -89.5t-53.5 -88.5l-306 -385h375v-82h-483zM406 0h-93l680 1458h92zM256 584v774l-164 -146v105l164 141h90v-874
h-90z" />
    <glyph glyph-name="threequarters" unicode="&#xbe;" horiz-adv-x="1650" 
d="M618 823q0 -118 -72.5 -184t-183.5 -66q-110 0 -183 60t-77 174h93q4 -77 51 -114.5t116 -37.5q74 0 120 45t46 123q0 166 -172 166h-16v80h16q78 0 117 41.5t39 116.5t-43 116t-109 41q-68 0 -108.5 -38t-46.5 -105h-90q7 104 75 164.5t170 60.5q109 0 175.5 -64.5
t66.5 -172.5q0 -143 -117 -195q133 -50 133 -211zM1462 137v-137h-90v137h-348v82l315 655h97l-314 -655h250v246h90v-246h107v-82h-107zM559 0h-92l680 1458h92z" />
    <glyph glyph-name="questiondown" unicode="&#xbf;" horiz-adv-x="999" 
d="M836 -123q0 -151 -103 -255.5t-264 -104.5q-157 0 -262 103t-105 257q0 67 22.5 122t68.5 122l174 256q36 52 36 123v96h105v-92q0 -58 -13.5 -98.5t-45.5 -86.5l-173 -253q-37 -57 -53 -95.5t-16 -93.5q0 -115 74.5 -191.5t187.5 -76.5q117 0 189.5 78.5t72.5 189.5h105
zM387 850v137h137v-137h-137z" />
    <glyph glyph-name="Agrave" unicode="&#xc0;" horiz-adv-x="1232" 
d="M1083 0l-127 354h-680l-126 -354h-119l536 1458h99l536 -1458h-119zM616 1311l-305 -858h611zM594 1597l-217 301h137l199 -301h-119z" />
    <glyph glyph-name="Aacute" unicode="&#xc1;" horiz-adv-x="1232" 
d="M1083 0l-127 354h-680l-126 -354h-119l536 1458h99l536 -1458h-119zM616 1311l-305 -858h611zM639 1597h-119l199 301h137z" />
    <glyph glyph-name="Acircumflex" unicode="&#xc2;" horiz-adv-x="1232" 
d="M1083 0l-127 354h-680l-126 -354h-119l536 1458h99l536 -1458h-119zM616 1311l-305 -858h611zM807 1597l-191 224l-190 -224h-117l252 301h111l252 -301h-117z" />
    <glyph glyph-name="Atilde" unicode="&#xc3;" horiz-adv-x="1232" 
d="M1083 0l-127 354h-680l-126 -354h-119l536 1458h99l536 -1458h-119zM616 1311l-305 -858h611zM922 1726q-44 -44 -82 -67t-57 -27t-44 -4q-27 0 -53 7.5t-41.5 15.5t-46.5 26q-73 43 -115 43q-29 0 -53.5 -12t-67.5 -55l-61 59q44 44 81 67t56.5 27t44.5 4
q41 0 70.5 -11.5t71.5 -37.5q68 -43 114 -43q27 0 52.5 12.5t68.5 55.5z" />
    <glyph glyph-name="Adieresis" unicode="&#xc4;" horiz-adv-x="1232" 
d="M1083 0l-127 354h-680l-126 -354h-119l536 1458h99l536 -1458h-119zM616 1311l-305 -858h611zM344 1618v158h119v-158h-119zM770 1618v158h119v-158h-119z" />
    <glyph glyph-name="Aring" unicode="&#xc5;" horiz-adv-x="1232" 
d="M1083 0l-127 354h-680l-126 -354h-119l536 1458h99l536 -1458h-119zM616 1311l-305 -858h611zM850 1763q0 -97 -68.5 -166t-165.5 -69t-165 69t-68 166t68 165.5t165 68.5t165.5 -68.5t68.5 -165.5zM766 1763q0 61 -44 104.5t-106 43.5t-105.5 -43.5t-43.5 -104.5
t43.5 -105t105.5 -44t106 44t44 105z" />
    <glyph glyph-name="AE" unicode="&#xc6;" horiz-adv-x="1845" 
d="M848 0v354h-522l-185 -354h-121l773 1458h938v-98h-775v-582h660v-98h-660v-582h775v-98h-883zM848 1360l-475 -907h475v907z" />
    <glyph glyph-name="Ccedilla" unicode="&#xc7;" horiz-adv-x="1318" 
d="M1163 414q-37 -197 -169.5 -311.5t-325.5 -114.5q-104 0 -198.5 38.5t-166.5 110.5q-40 40 -65.5 84t-39.5 84.5t-20.5 114.5t-8 131.5t-1.5 177.5q0 101 1 151t4.5 117.5t12 103t23.5 79.5t38 76t56 65q72 72 166.5 110.5t198.5 38.5q195 0 326.5 -114t168.5 -312h-112
q-32 153 -134 240.5t-249 87.5q-165 0 -277 -112q-74 -74 -93 -177t-19 -354t19 -353.5t93 -176.5q113 -113 277 -113q148 0 251.5 88t135.5 240h108zM618 -451h-129l148 308h113z" />
    <glyph glyph-name="Egrave" unicode="&#xc8;" horiz-adv-x="1224" 
d="M225 0v1458h885v-98h-774v-576h659v-98h-659v-588h774v-98h-885zM621 1597l-218 301h138l198 -301h-118z" />
    <glyph glyph-name="Eacute" unicode="&#xc9;" horiz-adv-x="1224" 
d="M225 0v1458h885v-98h-774v-576h659v-98h-659v-588h774v-98h-885zM666 1597h-119l198 301h138z" />
    <glyph glyph-name="Ecircumflex" unicode="&#xca;" horiz-adv-x="1224" 
d="M225 0v1458h885v-98h-774v-576h659v-98h-659v-588h774v-98h-885zM834 1597l-191 224l-190 -224h-117l252 301h110l252 -301h-116z" />
    <glyph glyph-name="Edieresis" unicode="&#xcb;" horiz-adv-x="1224" 
d="M225 0v1458h885v-98h-774v-576h659v-98h-659v-588h774v-98h-885zM371 1618v158h118v-158h-118zM797 1618v158h118v-158h-118z" />
    <glyph glyph-name="Igrave" unicode="&#xcc;" horiz-adv-x="561" 
d="M225 0v1458h111v-1458h-111zM258 1597l-217 301h137l199 -301h-119z" />
    <glyph glyph-name="Iacute" unicode="&#xcd;" horiz-adv-x="561" 
d="M225 0v1458h111v-1458h-111zM303 1597h-119l199 301h137z" />
    <glyph glyph-name="Icircumflex" unicode="&#xce;" horiz-adv-x="561" 
d="M225 0v1458h111v-1458h-111zM475 1597l-190 224l-191 -224h-117l252 301h111l252 -301h-117z" />
    <glyph glyph-name="Idieresis" unicode="&#xcf;" horiz-adv-x="561" 
d="M225 0v1458h111v-1458h-111zM8 1618v158h119v-158h-119zM434 1618v158h119v-158h-119z" />
    <glyph glyph-name="Eth" unicode="&#xd0;" horiz-adv-x="1411" 
d="M1243 729q0 -176 -8 -269t-22.5 -135t-47.5 -94q-66 -105 -177 -168t-263 -63h-477v692h-166v86h166v680h491q290 0 426 -235q36 -63 50.5 -109t21 -130t6.5 -255zM1133 719q0 233 -12.5 319t-69.5 162q-64 88 -145 125t-195 37h-353v-584h365v-86h-365v-596h353
q242 0 352 166q49 72 59.5 149.5t10.5 307.5z" />
    <glyph glyph-name="Ntilde" unicode="&#xd1;" horiz-adv-x="1513" 
d="M1178 0l-842 1268v-1268h-111v1458h111l842 -1263v1263h110v-1458h-110zM1063 1726q-44 -44 -81.5 -67t-57 -27t-43.5 -4q-27 0 -53.5 7.5t-42 15.5t-46.5 26q-73 43 -114 43q-29 0 -53.5 -12t-67.5 -55l-62 59q44 44 81.5 67t57 27t44.5 4q41 0 70 -11t71 -38
q68 -43 115 -43q27 0 52 12.5t68 55.5z" />
    <glyph glyph-name="Ograve" unicode="&#xd2;" horiz-adv-x="1335" 
d="M1167 729q0 -120 -1.5 -177.5t-8 -131.5t-20.5 -114.5t-39.5 -84.5t-65.5 -84q-149 -149 -364 -149q-104 0 -198.5 38.5t-166.5 110.5q-40 40 -65.5 84t-39.5 84.5t-20.5 114.5t-8 131.5t-1.5 177.5q0 101 1 151t4.5 117.5t12 103t23.5 79.5t38 76t56 65
q72 72 166.5 110.5t198.5 38.5q215 0 364 -149q33 -33 56 -65t38 -76t23.5 -79.5t12 -103t4.5 -117.5t1 -151zM1057 729q0 250 -19.5 353.5t-93.5 177.5q-112 112 -276 112q-165 0 -277 -112q-74 -74 -93 -177t-19 -354t19 -353.5t93 -176.5q113 -113 277 -113
q163 0 276 113q74 74 93.5 177t19.5 353zM645 1597l-217 301h137l199 -301h-119z" />
    <glyph glyph-name="Oacute" unicode="&#xd3;" horiz-adv-x="1335" 
d="M1167 729q0 -120 -1.5 -177.5t-8 -131.5t-20.5 -114.5t-39.5 -84.5t-65.5 -84q-149 -149 -364 -149q-104 0 -198.5 38.5t-166.5 110.5q-40 40 -65.5 84t-39.5 84.5t-20.5 114.5t-8 131.5t-1.5 177.5q0 101 1 151t4.5 117.5t12 103t23.5 79.5t38 76t56 65
q72 72 166.5 110.5t198.5 38.5q215 0 364 -149q33 -33 56 -65t38 -76t23.5 -79.5t12 -103t4.5 -117.5t1 -151zM1057 729q0 250 -19.5 353.5t-93.5 177.5q-112 112 -276 112q-165 0 -277 -112q-74 -74 -93 -177t-19 -354t19 -353.5t93 -176.5q113 -113 277 -113
q163 0 276 113q74 74 93.5 177t19.5 353zM690 1597h-119l199 301h137z" />
    <glyph glyph-name="Ocircumflex" unicode="&#xd4;" horiz-adv-x="1335" 
d="M1167 729q0 -120 -1.5 -177.5t-8 -131.5t-20.5 -114.5t-39.5 -84.5t-65.5 -84q-149 -149 -364 -149q-104 0 -198.5 38.5t-166.5 110.5q-40 40 -65.5 84t-39.5 84.5t-20.5 114.5t-8 131.5t-1.5 177.5q0 101 1 151t4.5 117.5t12 103t23.5 79.5t38 76t56 65
q72 72 166.5 110.5t198.5 38.5q215 0 364 -149q33 -33 56 -65t38 -76t23.5 -79.5t12 -103t4.5 -117.5t1 -151zM1057 729q0 250 -19.5 353.5t-93.5 177.5q-112 112 -276 112q-165 0 -277 -112q-74 -74 -93 -177t-19 -354t19 -353.5t93 -176.5q113 -113 277 -113
q163 0 276 113q74 74 93.5 177t19.5 353zM858 1597l-190 224l-191 -224h-117l252 301h111l252 -301h-117z" />
    <glyph glyph-name="Otilde" unicode="&#xd5;" horiz-adv-x="1335" 
d="M1167 729q0 -120 -1.5 -177.5t-8 -131.5t-20.5 -114.5t-39.5 -84.5t-65.5 -84q-149 -149 -364 -149q-104 0 -198.5 38.5t-166.5 110.5q-40 40 -65.5 84t-39.5 84.5t-20.5 114.5t-8 131.5t-1.5 177.5q0 101 1 151t4.5 117.5t12 103t23.5 79.5t38 76t56 65
q72 72 166.5 110.5t198.5 38.5q215 0 364 -149q33 -33 56 -65t38 -76t23.5 -79.5t12 -103t4.5 -117.5t1 -151zM1057 729q0 250 -19.5 353.5t-93.5 177.5q-112 112 -276 112q-165 0 -277 -112q-74 -74 -93 -177t-19 -354t19 -353.5t93 -176.5q113 -113 277 -113
q163 0 276 113q74 74 93.5 177t19.5 353zM973 1726q-44 -44 -81.5 -67t-57 -27t-43.5 -4q-27 0 -53.5 7.5t-42 15.5t-46.5 26q-73 43 -114 43q-29 0 -53.5 -12t-67.5 -55l-62 59q44 44 81.5 67t57 27t44.5 4q41 0 70 -11t71 -38q68 -43 115 -43q27 0 52 12.5t68 55.5z" />
    <glyph glyph-name="Odieresis" unicode="&#xd6;" horiz-adv-x="1335" 
d="M1167 729q0 -120 -1.5 -177.5t-8 -131.5t-20.5 -114.5t-39.5 -84.5t-65.5 -84q-149 -149 -364 -149q-104 0 -198.5 38.5t-166.5 110.5q-40 40 -65.5 84t-39.5 84.5t-20.5 114.5t-8 131.5t-1.5 177.5q0 101 1 151t4.5 117.5t12 103t23.5 79.5t38 76t56 65
q72 72 166.5 110.5t198.5 38.5q215 0 364 -149q33 -33 56 -65t38 -76t23.5 -79.5t12 -103t4.5 -117.5t1 -151zM1057 729q0 250 -19.5 353.5t-93.5 177.5q-112 112 -276 112q-165 0 -277 -112q-74 -74 -93 -177t-19 -354t19 -353.5t93 -176.5q113 -113 277 -113
q163 0 276 113q74 74 93.5 177t19.5 353zM395 1618v158h119v-158h-119zM821 1618v158h119v-158h-119z" />
    <glyph glyph-name="multiply" unicode="&#xd7;" 
d="M844 160l-318 317l-317 -317l-64 63l318 318l-318 317l64 64l317 -318l318 318l63 -64l-317 -317l317 -318z" />
    <glyph glyph-name="Oslash" unicode="&#xd8;" horiz-adv-x="1335" 
d="M1167 729q0 -120 -1.5 -177.5t-8 -131.5t-20.5 -114.5t-39.5 -84.5t-65.5 -84q-149 -149 -364 -149q-146 0 -267 71l-71 -149h-109l101 209l-19 18q-40 40 -65.5 84t-39.5 84.5t-20.5 114.5t-8 131.5t-1.5 177.5q0 101 1 151t4.5 117.5t12 103t23.5 79.5t38 76t56 65
q72 72 166.5 110.5t198.5 38.5q145 0 266 -71l72 149h108l-100 -209l18 -18q33 -33 56 -65t38 -76t23.5 -79.5t12 -103t4.5 -117.5t1 -151zM889 1305q-90 67 -221 67q-165 0 -277 -112q-74 -74 -93 -177t-19 -354q0 -240 15 -339.5t77 -168.5zM1057 729q0 240 -15 339.5
t-77 168.5l-519 -1083q95 -68 222 -68q163 0 276 113q74 74 93.5 177t19.5 353z" />
    <glyph glyph-name="Ugrave" unicode="&#xd9;" horiz-adv-x="1409" 
d="M1204 473q0 -214 -139.5 -349.5t-359.5 -135.5t-360 135.5t-140 349.5v985h110v-971q0 -182 106.5 -291.5t283.5 -109.5t283 109.5t106 291.5v971h110v-985zM682 1597l-217 301h137l199 -301h-119z" />
    <glyph glyph-name="Uacute" unicode="&#xda;" horiz-adv-x="1409" 
d="M1204 473q0 -214 -139.5 -349.5t-359.5 -135.5t-360 135.5t-140 349.5v985h110v-971q0 -182 106.5 -291.5t283.5 -109.5t283 109.5t106 291.5v971h110v-985zM727 1597h-119l199 301h137z" />
    <glyph glyph-name="Ucircumflex" unicode="&#xdb;" horiz-adv-x="1409" 
d="M1204 473q0 -214 -139.5 -349.5t-359.5 -135.5t-360 135.5t-140 349.5v985h110v-971q0 -182 106.5 -291.5t283.5 -109.5t283 109.5t106 291.5v971h110v-985zM895 1597l-190 224l-191 -224h-117l252 301h111l252 -301h-117z" />
    <glyph glyph-name="Udieresis" unicode="&#xdc;" horiz-adv-x="1409" 
d="M1204 473q0 -214 -139.5 -349.5t-359.5 -135.5t-360 135.5t-140 349.5v985h110v-971q0 -182 106.5 -291.5t283.5 -109.5t283 109.5t106 291.5v971h110v-985zM432 1618v158h119v-158h-119zM858 1618v158h119v-158h-119z" />
    <glyph glyph-name="Yacute" unicode="&#xdd;" horiz-adv-x="1011" 
d="M561 604v-604h-110v604l-431 854h119l371 -737l362 737h119zM528 1597h-118l198 301h137z" />
    <glyph glyph-name="Thorn" unicode="&#xde;" horiz-adv-x="1323" 
d="M1200 735q0 -195 -123 -307.5t-317 -112.5h-424v-315h-111v1458h111v-303h424q194 0 317 -112t123 -308zM1090 735q0 159 -92 240.5t-250 81.5h-412v-643h412q158 0 250 81t92 240z" />
    <glyph glyph-name="germandbls" unicode="&#xdf;" horiz-adv-x="1126" 
d="M969 274q0 -127 -80 -204q-42 -38 -86 -54t-109 -16h-110v92h90q47 0 74.5 10t58.5 35q57 45 57 150v366q0 96 -47 140q-47 47 -133 47h-100v92h80q92 0 146 57.5t54 151.5q0 112 -71 174q-68 65 -213 65q-142 0 -209.5 -81.5t-67.5 -223.5v-1075h-104v1075
q0 187 104 292.5t289 105.5q106 0 188.5 -34t134.5 -111t52 -187q0 -165 -129 -250q76 -38 103.5 -95t27.5 -159v-363z" />
    <glyph glyph-name="agrave" unicode="&#xe0;" horiz-adv-x="1073" 
d="M778 0v98q-62 -62 -128.5 -86t-172.5 -24q-111 0 -177.5 20.5t-113.5 69.5q-71 71 -71 192q0 135 91 210t253 75h319v111q0 122 -65 181.5t-213 59.5q-103 0 -164 -28.5t-109 -96.5l-75 66q61 85 141.5 118t206.5 33q383 0 383 -323v-676h-105zM778 471h-307
q-252 0 -252 -199q0 -99 62 -145.5t196 -46.5q81 0 139 15t107 61q55 52 55 188v127zM487 1208l-217 301h138l198 -301h-119z" />
    <glyph glyph-name="aacute" unicode="&#xe1;" horiz-adv-x="1073" 
d="M778 0v98q-62 -62 -128.5 -86t-172.5 -24q-111 0 -177.5 20.5t-113.5 69.5q-71 71 -71 192q0 135 91 210t253 75h319v111q0 122 -65 181.5t-213 59.5q-103 0 -164 -28.5t-109 -96.5l-75 66q61 85 141.5 118t206.5 33q383 0 383 -323v-676h-105zM778 471h-307
q-252 0 -252 -199q0 -99 62 -145.5t196 -46.5q81 0 139 15t107 61q55 52 55 188v127zM532 1208h-118l198 301h138z" />
    <glyph glyph-name="acircumflex" unicode="&#xe2;" horiz-adv-x="1073" 
d="M778 0v98q-62 -62 -128.5 -86t-172.5 -24q-111 0 -177.5 20.5t-113.5 69.5q-71 71 -71 192q0 135 91 210t253 75h319v111q0 122 -65 181.5t-213 59.5q-103 0 -164 -28.5t-109 -96.5l-75 66q61 85 141.5 118t206.5 33q383 0 383 -323v-676h-105zM778 471h-307
q-252 0 -252 -199q0 -99 62 -145.5t196 -46.5q81 0 139 15t107 61q55 52 55 188v127zM700 1208l-190 224l-191 -224h-116l252 301h110l252 -301h-117z" />
    <glyph glyph-name="atilde" unicode="&#xe3;" horiz-adv-x="1073" 
d="M778 0v98q-62 -62 -128.5 -86t-172.5 -24q-111 0 -177.5 20.5t-113.5 69.5q-71 71 -71 192q0 135 91 210t253 75h319v111q0 122 -65 181.5t-213 59.5q-103 0 -164 -28.5t-109 -96.5l-75 66q61 85 141.5 118t206.5 33q383 0 383 -323v-676h-105zM778 471h-307
q-252 0 -252 -199q0 -99 62 -145.5t196 -46.5q81 0 139 15t107 61q55 52 55 188v127zM815 1337q-44 -44 -81.5 -67t-57 -27t-43.5 -4q-27 0 -53 7.5t-41.5 15.5t-46.5 26q-73 43 -115 43q-29 0 -53.5 -12t-67.5 -55l-61 59q44 44 81 67t56.5 27t44.5 4q41 0 70 -11t71 -38
q68 -43 115 -43q27 0 52.5 12.5t68.5 55.5z" />
    <glyph glyph-name="adieresis" unicode="&#xe4;" horiz-adv-x="1073" 
d="M778 0v98q-62 -62 -128.5 -86t-172.5 -24q-111 0 -177.5 20.5t-113.5 69.5q-71 71 -71 192q0 135 91 210t253 75h319v111q0 122 -65 181.5t-213 59.5q-103 0 -164 -28.5t-109 -96.5l-75 66q61 85 141.5 118t206.5 33q383 0 383 -323v-676h-105zM778 471h-307
q-252 0 -252 -199q0 -99 62 -145.5t196 -46.5q81 0 139 15t107 61q55 52 55 188v127zM238 1229v157h118v-157h-118zM664 1229v157h118v-157h-118z" />
    <glyph glyph-name="aring" unicode="&#xe5;" horiz-adv-x="1073" 
d="M778 0v98q-62 -62 -128.5 -86t-172.5 -24q-111 0 -177.5 20.5t-113.5 69.5q-71 71 -71 192q0 135 91 210t253 75h319v111q0 122 -65 181.5t-213 59.5q-103 0 -164 -28.5t-109 -96.5l-75 66q61 85 141.5 118t206.5 33q383 0 383 -323v-676h-105zM778 471h-307
q-252 0 -252 -199q0 -99 62 -145.5t196 -46.5q81 0 139 15t107 61q55 52 55 188v127zM743 1386q0 -97 -68 -166t-165 -69t-165.5 69t-68.5 166t68.5 165.5t165.5 68.5t165 -68.5t68 -165.5zM659 1386q0 61 -43.5 104.5t-105.5 43.5t-106 -43.5t-44 -104.5t44 -105t106 -44
t105.5 43.5t43.5 105.5z" />
    <glyph glyph-name="ae" unicode="&#xe6;" horiz-adv-x="1708" 
d="M883 471q0 -190 81.5 -289.5t239.5 -99.5q86 0 147.5 27.5t125.5 91.5l77 -62q-79 -79 -159.5 -115t-198.5 -36q-250 0 -352 184q-61 -100 -145.5 -142t-221.5 -42q-111 0 -177.5 20.5t-113.5 69.5q-71 71 -71 192q0 135 91 210t253 75h319v111q0 122 -65 181.5
t-213 59.5q-103 0 -164 -28.5t-109 -96.5l-75 66q61 85 141.5 118t206.5 33q278 0 354 -174q103 174 320 174q186 0 290.5 -127t104.5 -354v-47h-686zM778 471h-307q-252 0 -252 -199q0 -99 62 -145.5t196 -46.5q81 0 139 15t107 61q55 52 55 188v127zM1464 555
q-4 60 -6 80.5t-8.5 48.5t-19.5 57q-32 78 -100.5 122t-155.5 44t-155.5 -44t-100.5 -122q-18 -48 -24.5 -82t-10.5 -104h581z" />
    <glyph glyph-name="ccedilla" unicode="&#xe7;" horiz-adv-x="1009" 
d="M901 139q-76 -86 -149 -118.5t-177 -32.5q-202 0 -318 135.5t-116 370.5t116 370t318 135q104 0 177 -32.5t149 -118.5l-72 -66q-63 70 -119 97.5t-135 27.5q-174 0 -262 -131q-37 -54 -52 -118t-15 -164t15 -164.5t52 -118.5q88 -131 262 -131q78 0 134.5 28t119.5 97z
M631 -143l-131 -308h-129l147 308h113z" />
    <glyph glyph-name="egrave" unicode="&#xe8;" horiz-adv-x="1071" 
d="M246 471q0 -190 81.5 -289.5t239.5 -99.5q86 0 147.5 27.5t125.5 91.5l78 -62q-79 -79 -159 -115t-198 -36q-204 0 -312 129.5t-108 376.5q0 239 105 372t291 133t290.5 -127t104.5 -354v-47h-686zM827 555q-4 60 -6 80.5t-8.5 48.5t-19.5 57q-32 78 -100.5 122
t-155.5 44t-155.5 -44t-100.5 -122q-18 -48 -24.5 -82t-10.5 -104h581zM518 1208l-217 301h137l199 -301h-119z" />
    <glyph glyph-name="eacute" unicode="&#xe9;" horiz-adv-x="1071" 
d="M246 471q0 -190 81.5 -289.5t239.5 -99.5q86 0 147.5 27.5t125.5 91.5l78 -62q-79 -79 -159 -115t-198 -36q-204 0 -312 129.5t-108 376.5q0 239 105 372t291 133t290.5 -127t104.5 -354v-47h-686zM827 555q-4 60 -6 80.5t-8.5 48.5t-19.5 57q-32 78 -100.5 122
t-155.5 44t-155.5 -44t-100.5 -122q-18 -48 -24.5 -82t-10.5 -104h581zM563 1208h-119l199 301h137z" />
    <glyph glyph-name="ecircumflex" unicode="&#xea;" horiz-adv-x="1071" 
d="M246 471q0 -190 81.5 -289.5t239.5 -99.5q86 0 147.5 27.5t125.5 91.5l78 -62q-79 -79 -159 -115t-198 -36q-204 0 -312 129.5t-108 376.5q0 239 105 372t291 133t290.5 -127t104.5 -354v-47h-686zM827 555q-4 60 -6 80.5t-8.5 48.5t-19.5 57q-32 78 -100.5 122
t-155.5 44t-155.5 -44t-100.5 -122q-18 -48 -24.5 -82t-10.5 -104h581zM731 1208l-190 224l-191 -224h-117l252 301h111l252 -301h-117z" />
    <glyph glyph-name="edieresis" unicode="&#xeb;" horiz-adv-x="1071" 
d="M246 471q0 -190 81.5 -289.5t239.5 -99.5q86 0 147.5 27.5t125.5 91.5l78 -62q-79 -79 -159 -115t-198 -36q-204 0 -312 129.5t-108 376.5q0 239 105 372t291 133t290.5 -127t104.5 -354v-47h-686zM827 555q-4 60 -6 80.5t-8.5 48.5t-19.5 57q-32 78 -100.5 122
t-155.5 44t-155.5 -44t-100.5 -122q-18 -48 -24.5 -82t-10.5 -104h581zM268 1229v157h119v-157h-119zM694 1229v157h119v-157h-119z" />
    <glyph glyph-name="igrave" unicode="&#xec;" horiz-adv-x="501" 
d="M199 0v987h104v-987h-104zM184 1208l-217 301h137l199 -301h-119z" />
    <glyph glyph-name="iacute" unicode="&#xed;" horiz-adv-x="501" 
d="M199 0v987h104v-987h-104zM317 1208h-118l198 301h138z" />
    <glyph glyph-name="icircumflex" unicode="&#xee;" horiz-adv-x="501" 
d="M199 0v987h104v-987h-104zM440 1208l-190 224l-191 -224h-116l252 301h110l252 -301h-117z" />
    <glyph glyph-name="idieresis" unicode="&#xef;" horiz-adv-x="501" 
d="M199 0v987h104v-987h-104zM-23 1229v157h119v-157h-119zM403 1229v157h119v-157h-119z" />
    <glyph glyph-name="eth" unicode="&#xf0;" horiz-adv-x="1077" 
d="M936 494q0 -275 -123 -398q-108 -108 -274 -108q-167 0 -275 108q-123 123 -123 398q0 274 123 397q108 108 275 108q97 0 153 -34l-137 231h-240v78h195l-109 184h109l106 -184h162v-78h-116l147 -252q80 -140 103.5 -227t23.5 -223zM831 494q0 112 -16.5 193t-71.5 136
q-84 84 -204 84q-121 0 -205 -84q-55 -55 -71.5 -136t-16.5 -193t16.5 -193.5t71.5 -136.5q84 -84 205 -84q120 0 204 84q55 55 71.5 136.5t16.5 193.5z" />
    <glyph glyph-name="ntilde" unicode="&#xf1;" horiz-adv-x="1144" 
d="M854 0v612q0 143 -69.5 219t-202.5 76t-206 -77t-73 -218v-612h-104v987h104v-117q111 129 291 129q164 0 262 -94q102 -99 102 -274v-631h-104zM887 1337q-44 -44 -81.5 -67t-57 -27t-43.5 -4q-27 0 -53.5 7.5t-42 15.5t-46.5 26q-73 43 -114 43q-29 0 -53.5 -12
t-67.5 -55l-62 59q44 44 81.5 67t57 27t44.5 4q41 0 70 -11t71 -38q68 -43 115 -43q27 0 52 12.5t68 55.5z" />
    <glyph glyph-name="ograve" unicode="&#xf2;" horiz-adv-x="1077" 
d="M936 494q0 -275 -123 -398q-108 -108 -274 -108q-167 0 -275 108q-123 123 -123 398q0 274 123 397q108 108 275 108q166 0 274 -108q123 -123 123 -397zM831 494q0 112 -16.5 193t-71.5 136q-84 84 -204 84q-121 0 -205 -84q-55 -55 -71.5 -136t-16.5 -193t16.5 -193.5
t71.5 -136.5q84 -84 205 -84q120 0 204 84q55 55 71.5 136.5t16.5 193.5zM526 1208l-217 301h137l199 -301h-119z" />
    <glyph glyph-name="oacute" unicode="&#xf3;" horiz-adv-x="1077" 
d="M936 494q0 -275 -123 -398q-108 -108 -274 -108q-167 0 -275 108q-123 123 -123 398q0 274 123 397q108 108 275 108q166 0 274 -108q123 -123 123 -397zM831 494q0 112 -16.5 193t-71.5 136q-84 84 -204 84q-121 0 -205 -84q-55 -55 -71.5 -136t-16.5 -193t16.5 -193.5
t71.5 -136.5q84 -84 205 -84q120 0 204 84q55 55 71.5 136.5t16.5 193.5zM561 1208h-119l199 301h137z" />
    <glyph glyph-name="ocircumflex" unicode="&#xf4;" horiz-adv-x="1077" 
d="M936 494q0 -275 -123 -398q-108 -108 -274 -108q-167 0 -275 108q-123 123 -123 398q0 274 123 397q108 108 275 108q166 0 274 -108q123 -123 123 -397zM831 494q0 112 -16.5 193t-71.5 136q-84 84 -204 84q-121 0 -205 -84q-55 -55 -71.5 -136t-16.5 -193t16.5 -193.5
t71.5 -136.5q84 -84 205 -84q120 0 204 84q55 55 71.5 136.5t16.5 193.5zM729 1208l-190 224l-191 -224h-117l252 301h111l252 -301h-117z" />
    <glyph glyph-name="otilde" unicode="&#xf5;" horiz-adv-x="1077" 
d="M936 494q0 -275 -123 -398q-108 -108 -274 -108q-167 0 -275 108q-123 123 -123 398q0 274 123 397q108 108 275 108q166 0 274 -108q123 -123 123 -397zM831 494q0 112 -16.5 193t-71.5 136q-84 84 -204 84q-121 0 -205 -84q-55 -55 -71.5 -136t-16.5 -193t16.5 -193.5
t71.5 -136.5q84 -84 205 -84q120 0 204 84q55 55 71.5 136.5t16.5 193.5zM844 1337q-44 -44 -81.5 -67t-57 -27t-43.5 -4q-27 0 -53.5 7.5t-42 15.5t-46.5 26q-73 43 -114 43q-29 0 -53.5 -12t-67.5 -55l-62 59q44 44 81.5 67t57 27t44.5 4q41 0 70 -11t71 -38
q68 -43 115 -43q27 0 52 12.5t68 55.5z" />
    <glyph glyph-name="odieresis" unicode="&#xf6;" horiz-adv-x="1077" 
d="M936 494q0 -275 -123 -398q-108 -108 -274 -108q-167 0 -275 108q-123 123 -123 398q0 274 123 397q108 108 275 108q166 0 274 -108q123 -123 123 -397zM831 494q0 112 -16.5 193t-71.5 136q-84 84 -204 84q-121 0 -205 -84q-55 -55 -71.5 -136t-16.5 -193t16.5 -193.5
t71.5 -136.5q84 -84 205 -84q120 0 204 84q55 55 71.5 136.5t16.5 193.5zM266 1229v157h119v-157h-119zM692 1229v157h119v-157h-119z" />
    <glyph glyph-name="divide" unicode="&#xf7;" 
d="M109 492v96h835v-96h-835zM455 813v143h143v-143h-143zM455 123v143h143v-143h-143z" />
    <glyph glyph-name="oslash" unicode="&#xf8;" horiz-adv-x="1077" 
d="M936 494q0 -275 -123 -398q-108 -108 -274 -108q-120 0 -215 59l-82 -137h-99l115 192q-117 124 -117 392q0 274 123 397q108 108 275 108q124 0 215 -61l82 139h98l-115 -192q117 -124 117 -391zM705 856q-71 51 -166 51q-121 0 -205 -84q-55 -55 -71.5 -136t-16.5 -193
q0 -68 2.5 -109.5t18 -98.5t44.5 -96zM831 494q0 68 -2.5 109.5t-18 98t-44.5 95.5l-393 -666q71 -51 166 -51q120 0 204 84q55 55 71.5 136.5t16.5 193.5z" />
    <glyph glyph-name="ugrave" unicode="&#xf9;" horiz-adv-x="1144" 
d="M842 0v117q-111 -129 -291 -129q-164 0 -262 94q-103 100 -103 274v631h105v-612q0 -143 69.5 -219t202.5 -76t206 77t73 218v612h104v-987h-104zM543 1208l-217 301h137l199 -301h-119z" />
    <glyph glyph-name="uacute" unicode="&#xfa;" horiz-adv-x="1144" 
d="M842 0v117q-111 -129 -291 -129q-164 0 -262 94q-103 100 -103 274v631h105v-612q0 -143 69.5 -219t202.5 -76t206 77t73 218v612h104v-987h-104zM588 1208h-119l199 301h137z" />
    <glyph glyph-name="ucircumflex" unicode="&#xfb;" horiz-adv-x="1144" 
d="M842 0v117q-111 -129 -291 -129q-164 0 -262 94q-103 100 -103 274v631h105v-612q0 -143 69.5 -219t202.5 -76t206 77t73 218v612h104v-987h-104zM756 1208l-191 224l-190 -224h-117l252 301h111l251 -301h-116z" />
    <glyph glyph-name="udieresis" unicode="&#xfc;" horiz-adv-x="1144" 
d="M842 0v117q-111 -129 -291 -129q-164 0 -262 94q-103 100 -103 274v631h105v-612q0 -143 69.5 -219t202.5 -76t206 77t73 218v612h104v-987h-104zM293 1229v157h119v-157h-119zM719 1229v157h119v-157h-119z" />
    <glyph glyph-name="yacute" unicode="&#xfd;" horiz-adv-x="880" 
d="M393 -268q-28 -82 -67 -115q-66 -63 -187 -63h-49v92h39q56 0 89.5 14t52.5 41t38 80l80 219l-360 987h114l297 -864l297 864h115zM463 1208h-119l199 301h137z" />
    <glyph glyph-name="thorn" unicode="&#xfe;" horiz-adv-x="1105" 
d="M965 494q0 -293 -127 -420q-39 -39 -102.5 -62.5t-139.5 -23.5q-94 0 -162.5 29t-130.5 110v-598h-104v1929h104v-598q62 81 130.5 110t162.5 29q76 0 139.5 -23.5t102.5 -62.5q127 -127 127 -419zM860 494q0 69 -5.5 122.5t-23 110.5t-47 94.5t-81 61.5t-121.5 24
t-121.5 -24t-81.5 -61.5t-47.5 -94.5t-23 -110.5t-5.5 -122.5t5.5 -123t23 -110.5t47.5 -94.5t81.5 -62t121.5 -24t121.5 24t81 61.5t47 95t23 111t5.5 122.5z" />
    <glyph glyph-name="ydieresis" unicode="&#xff;" horiz-adv-x="880" 
d="M393 -268q-28 -82 -67 -115q-66 -63 -187 -63h-49v92h39q56 0 89.5 14t52.5 41t38 80l80 219l-360 987h114l297 -864l297 864h115zM168 1229v157h119v-157h-119zM594 1229v157h119v-157h-119z" />
    <glyph glyph-name="Amacron" unicode="&#x100;" horiz-adv-x="1232" 
d="M1083 0l-127 354h-680l-126 -354h-119l536 1458h99l536 -1458h-119zM616 1311l-305 -858h611zM313 1638v95h607v-95h-607z" />
    <glyph glyph-name="amacron" unicode="&#x101;" horiz-adv-x="1073" 
d="M778 0v98q-62 -62 -128.5 -86t-172.5 -24q-111 0 -177.5 20.5t-113.5 69.5q-71 71 -71 192q0 135 91 210t253 75h319v111q0 122 -65 181.5t-213 59.5q-103 0 -164 -28.5t-109 -96.5l-75 66q61 85 141.5 118t206.5 33q383 0 383 -323v-676h-105zM778 471h-307
q-252 0 -252 -199q0 -99 62 -145.5t196 -46.5q81 0 139 15t107 61q55 52 55 188v127zM840 1249h-607v94h607v-94z" />
    <glyph glyph-name="Abreve" unicode="&#x102;" horiz-adv-x="1232" 
d="M1083 0l-127 354h-680l-126 -354h-119l536 1458h99l536 -1458h-119zM616 1311l-305 -858h611zM954 1898q-14 -135 -95.5 -205.5t-242.5 -70.5t-242 70.5t-95 205.5h92q12 -87 76 -135.5t169 -48.5t169.5 48.5t76.5 135.5h92z" />
    <glyph glyph-name="abreve" unicode="&#x103;" horiz-adv-x="1073" 
d="M778 0v98q-62 -62 -128.5 -86t-172.5 -24q-111 0 -177.5 20.5t-113.5 69.5q-71 71 -71 192q0 135 91 210t253 75h319v111q0 122 -65 181.5t-213 59.5q-103 0 -164 -28.5t-109 -96.5l-75 66q61 85 141.5 118t206.5 33q383 0 383 -323v-676h-105zM778 471h-307
q-252 0 -252 -199q0 -99 62 -145.5t196 -46.5q81 0 139 15t107 61q55 52 55 188v127zM838 1479q-29 -277 -338 -277t-338 277h92q12 -87 76.5 -136t169.5 -49t169 49t76 136h93z" />
    <glyph glyph-name="Aogonek" unicode="&#x104;" horiz-adv-x="1232" 
d="M1083 0l-127 354h-680l-126 -354h-119l536 1458h99l536 -1458h-119zM616 1311l-305 -858h611zM1065 -451h-129l147 308h113z" />
    <glyph glyph-name="aogonek" unicode="&#x105;" horiz-adv-x="1073" 
d="M778 0v98q-62 -62 -128.5 -86t-172.5 -24q-111 0 -177.5 20.5t-113.5 69.5q-71 71 -71 192q0 135 91 210t253 75h319v111q0 122 -65 181.5t-213 59.5q-103 0 -164 -28.5t-109 -96.5l-75 66q61 85 141.5 118t206.5 33q383 0 383 -323v-676h-105zM778 471h-307
q-252 0 -252 -199q0 -99 62 -145.5t196 -46.5q81 0 139 15t107 61q55 52 55 188v127zM760 -451h-129l147 308h113z" />
    <glyph glyph-name="Cacute" unicode="&#x106;" horiz-adv-x="1318" 
d="M1163 414q-37 -197 -169.5 -311.5t-325.5 -114.5q-104 0 -198.5 38.5t-166.5 110.5q-40 40 -65.5 84t-39.5 84.5t-20.5 114.5t-8 131.5t-1.5 177.5q0 101 1 151t4.5 117.5t12 103t23.5 79.5t38 76t56 65q72 72 166.5 110.5t198.5 38.5q195 0 326.5 -114t168.5 -312h-112
q-32 153 -134 240.5t-249 87.5q-165 0 -277 -112q-74 -74 -93 -177t-19 -354t19 -353.5t93 -176.5q113 -113 277 -113q148 0 251.5 88t135.5 240h108zM682 1597h-119l199 301h137z" />
    <glyph glyph-name="cacute" unicode="&#x107;" horiz-adv-x="1009" 
d="M901 139q-76 -86 -149 -118.5t-177 -32.5q-202 0 -318 135.5t-116 370.5t116 370t318 135q104 0 177 -32.5t149 -118.5l-72 -66q-63 70 -119 97.5t-135 27.5q-174 0 -262 -131q-37 -54 -52 -118t-15 -164t15 -164.5t52 -118.5q88 -131 262 -131q78 0 134.5 28t119.5 97z
M598 1208h-119l199 301h137z" />
    <glyph glyph-name="Ccircumflex" unicode="&#x108;" horiz-adv-x="1318" 
d="M1163 414q-37 -197 -169.5 -311.5t-325.5 -114.5q-104 0 -198.5 38.5t-166.5 110.5q-40 40 -65.5 84t-39.5 84.5t-20.5 114.5t-8 131.5t-1.5 177.5q0 101 1 151t4.5 117.5t12 103t23.5 79.5t38 76t56 65q72 72 166.5 110.5t198.5 38.5q195 0 326.5 -114t168.5 -312h-112
q-32 153 -134 240.5t-249 87.5q-165 0 -277 -112q-74 -74 -93 -177t-19 -354t19 -353.5t93 -176.5q113 -113 277 -113q148 0 251.5 88t135.5 240h108zM858 1597l-190 224l-191 -224h-117l252 301h111l252 -301h-117z" />
    <glyph glyph-name="ccircumflex" unicode="&#x109;" horiz-adv-x="1009" 
d="M901 139q-76 -86 -149 -118.5t-177 -32.5q-202 0 -318 135.5t-116 370.5t116 370t318 135q104 0 177 -32.5t149 -118.5l-72 -66q-63 70 -119 97.5t-135 27.5q-174 0 -262 -131q-37 -54 -52 -118t-15 -164t15 -164.5t52 -118.5q88 -131 262 -131q78 0 134.5 28t119.5 97z
M766 1208l-191 224l-190 -224h-117l252 301h111l252 -301h-117z" />
    <glyph glyph-name="Cdotaccent" unicode="&#x10a;" horiz-adv-x="1318" 
d="M1163 414q-37 -197 -169.5 -311.5t-325.5 -114.5q-104 0 -198.5 38.5t-166.5 110.5q-40 40 -65.5 84t-39.5 84.5t-20.5 114.5t-8 131.5t-1.5 177.5q0 101 1 151t4.5 117.5t12 103t23.5 79.5t38 76t56 65q72 72 166.5 110.5t198.5 38.5q195 0 326.5 -114t168.5 -312h-112
q-32 153 -134 240.5t-249 87.5q-165 0 -277 -112q-74 -74 -93 -177t-19 -354t19 -353.5t93 -176.5q113 -113 277 -113q148 0 251.5 88t135.5 240h108zM604 1638v129h127v-129h-127z" />
    <glyph glyph-name="cdotaccent" unicode="&#x10b;" horiz-adv-x="1009" 
d="M901 139q-76 -86 -149 -118.5t-177 -32.5q-202 0 -318 135.5t-116 370.5t116 370t318 135q104 0 177 -32.5t149 -118.5l-72 -66q-63 70 -119 97.5t-135 27.5q-174 0 -262 -131q-37 -54 -52 -118t-15 -164t15 -164.5t52 -118.5q88 -131 262 -131q78 0 134.5 28t119.5 97z
M512 1249v129h127v-129h-127z" />
    <glyph glyph-name="Ccaron" unicode="&#x10c;" horiz-adv-x="1318" 
d="M1163 414q-37 -197 -169.5 -311.5t-325.5 -114.5q-104 0 -198.5 38.5t-166.5 110.5q-40 40 -65.5 84t-39.5 84.5t-20.5 114.5t-8 131.5t-1.5 177.5q0 101 1 151t4.5 117.5t12 103t23.5 79.5t38 76t56 65q72 72 166.5 110.5t198.5 38.5q195 0 326.5 -114t168.5 -312h-112
q-32 153 -134 240.5t-249 87.5q-165 0 -277 -112q-74 -74 -93 -177t-19 -354t19 -353.5t93 -176.5q113 -113 277 -113q148 0 251.5 88t135.5 240h108zM715 1597h-111l-252 301h117l190 -223l191 223h117z" />
    <glyph glyph-name="ccaron" unicode="&#x10d;" horiz-adv-x="1009" 
d="M901 139q-76 -86 -149 -118.5t-177 -32.5q-202 0 -318 135.5t-116 370.5t116 370t318 135q104 0 177 -32.5t149 -118.5l-72 -66q-63 70 -119 97.5t-135 27.5q-174 0 -262 -131q-37 -54 -52 -118t-15 -164t15 -164.5t52 -118.5q88 -131 262 -131q78 0 134.5 28t119.5 97z
M631 1208h-111l-252 301h117l190 -223l191 223h117z" />
    <glyph glyph-name="Dcaron" unicode="&#x10e;" horiz-adv-x="1388" 
d="M1221 750v-90.5t-2.5 -90t-7 -101t-15 -90.5t-25 -95t-38.5 -78t-54 -72q-133 -133 -364 -133h-490v1458h490q231 0 364 -133q31 -31 54.5 -70t38 -71.5t25 -86.5t15 -82t7 -92.5t2.5 -84v-88.5zM1110 750v23q0 66 -0.5 102t-6 99t-16.5 104.5t-32.5 88.5t-53.5 80
q-108 113 -313 113h-352v-1262h352q205 0 313 113q26 28 46 65t31.5 85t18.5 87.5t9.5 99t3 90.5t0.5 89v23zM750 1597h-111l-252 301h117l190 -223l191 223h116z" />
    <glyph glyph-name="dcaron" unicode="&#x10f;" horiz-adv-x="1105" 
d="M803 0v127q-62 -81 -130.5 -110t-162.5 -29q-76 0 -139.5 23.5t-102.5 62.5q-127 127 -127 420q0 292 127 419q39 39 102.5 62.5t139.5 23.5q94 0 162.5 -29t130.5 -110v598h104v-1458h-104zM803 494q0 69 -5.5 122.5t-23 110.5t-47.5 94.5t-81.5 61.5t-121.5 24
t-121.5 -24t-81 -61.5t-47 -94.5t-23 -110.5t-5.5 -122.5t5.5 -122.5t23 -111t47 -95t81 -61.5t121.5 -24t121.5 24t81.5 62t47.5 94.5t23 110.5t5.5 123zM1231 1458l-98 -303h-97l82 303h113z" />
    <glyph glyph-name="Dcroat" unicode="&#x110;" horiz-adv-x="1411" 
d="M1243 729q0 -176 -8 -269t-22.5 -134.5t-47.5 -94.5q-66 -104 -177.5 -167.5t-262.5 -63.5h-477v692h-166v86h166v680h491q141 0 250 -60t176 -175q37 -63 51.5 -110t20.5 -128.5t6 -255.5zM1133 719q0 230 -13 317t-69 164q-64 87 -145.5 124.5t-194.5 37.5h-353v-584
h365v-86h-365v-596h353q240 0 352 166q49 72 59.5 149t10.5 308z" />
    <glyph glyph-name="dcroat" unicode="&#x111;" horiz-adv-x="1105" 
d="M1040 1176h-133v-1176h-104v127q-60 -80 -130 -109.5t-163 -29.5q-75 0 -139 23.5t-103 62.5q-127 127 -127 420q0 292 127 419q39 39 103 62.5t139 23.5q93 0 163 -29.5t130 -109.5v316h-279v73h279v209h104v-209h133v-73zM803 494q0 69 -5.5 122.5t-23 110.5
t-47.5 94.5t-81.5 61.5t-121.5 24t-121.5 -24t-81 -61.5t-47 -94.5t-23 -110.5t-5.5 -122.5t5.5 -122.5t23 -111t47 -95t81 -61.5t121.5 -24t121.5 24t81.5 62t47.5 94.5t23 110.5t5.5 123z" />
    <glyph glyph-name="Emacron" unicode="&#x112;" horiz-adv-x="1224" 
d="M225 0v1458h885v-98h-774v-576h659v-98h-659v-588h774v-98h-885zM340 1638v95h606v-95h-606z" />
    <glyph glyph-name="emacron" unicode="&#x113;" horiz-adv-x="1071" 
d="M246 471q0 -190 81.5 -289.5t239.5 -99.5q86 0 147.5 27.5t125.5 91.5l78 -62q-79 -79 -159 -115t-198 -36q-204 0 -312 129.5t-108 376.5q0 239 105 372t291 133t290.5 -127t104.5 -354v-47h-686zM827 555q-4 60 -6 80.5t-8.5 48.5t-19.5 57q-32 78 -100.5 122
t-155.5 44t-155.5 -44t-100.5 -122q-18 -48 -24.5 -82t-10.5 -104h581zM838 1249h-607v94h607v-94z" />
    <glyph glyph-name="Edotaccent" unicode="&#x116;" horiz-adv-x="1224" 
d="M225 0v1458h885v-98h-774v-576h659v-98h-659v-588h774v-98h-885zM580 1638v129h127v-129h-127z" />
    <glyph glyph-name="edotaccent" unicode="&#x117;" horiz-adv-x="1071" 
d="M246 471q0 -190 81.5 -289.5t239.5 -99.5q86 0 147.5 27.5t125.5 91.5l78 -62q-79 -79 -159 -115t-198 -36q-204 0 -312 129.5t-108 376.5q0 239 105 372t291 133t290.5 -127t104.5 -354v-47h-686zM827 555q-4 60 -6 80.5t-8.5 48.5t-19.5 57q-32 78 -100.5 122
t-155.5 44t-155.5 -44t-100.5 -122q-18 -48 -24.5 -82t-10.5 -104h581zM471 1249v129h127v-129h-127z" />
    <glyph glyph-name="Eogonek" unicode="&#x118;" horiz-adv-x="1224" 
d="M225 0v1458h885v-98h-774v-576h659v-98h-659v-588h774v-98h-885zM979 -451h-129l147 308h113z" />
    <glyph glyph-name="eogonek" unicode="&#x119;" horiz-adv-x="1071" 
d="M246 471q0 -190 81.5 -289.5t239.5 -99.5q86 0 147.5 27.5t125.5 91.5l78 -62q-79 -79 -159 -115t-198 -36q-204 0 -312 129.5t-108 376.5q0 239 105 372t291 133t290.5 -127t104.5 -354v-47h-686zM827 555q-4 60 -6 80.5t-8.5 48.5t-19.5 57q-32 78 -100.5 122
t-155.5 44t-155.5 -44t-100.5 -122q-18 -48 -24.5 -82t-10.5 -104h581zM596 -451h-129l147 308h113z" />
    <glyph glyph-name="Ecaron" unicode="&#x11a;" horiz-adv-x="1224" 
d="M225 0v1458h885v-98h-774v-576h659v-98h-659v-588h774v-98h-885zM698 1597h-110l-252 301h117l190 -223l191 223h116z" />
    <glyph glyph-name="ecaron" unicode="&#x11b;" horiz-adv-x="1071" 
d="M246 471q0 -190 81.5 -289.5t239.5 -99.5q86 0 147.5 27.5t125.5 91.5l78 -62q-79 -79 -159 -115t-198 -36q-204 0 -312 129.5t-108 376.5q0 239 105 372t291 133t290.5 -127t104.5 -354v-47h-686zM827 555q-4 60 -6 80.5t-8.5 48.5t-19.5 57q-32 78 -100.5 122
t-155.5 44t-155.5 -44t-100.5 -122q-18 -48 -24.5 -82t-10.5 -104h581zM590 1208h-111l-252 301h117l191 -223l190 223h117z" />
    <glyph glyph-name="Gcircumflex" unicode="&#x11c;" horiz-adv-x="1333" 
d="M1169 508q0 -119 -27 -202t-91 -150q-72 -80 -172.5 -124t-210.5 -44q-104 0 -198.5 38.5t-166.5 110.5q-40 40 -65.5 84t-39.5 84.5t-20.5 114.5t-8 131.5t-1.5 177.5q0 101 1 151t4.5 117.5t12 103t23.5 79.5t38 76t56 65q72 72 166.5 110.5t198.5 38.5q191 0 328 -117
t169 -309h-110q-32 152 -135.5 240t-251.5 88q-165 0 -277 -112q-74 -74 -93 -177t-19 -354t19 -353.5t93 -176.5q113 -113 277 -113q87 0 167 36.5t136 104.5q47 60 67.5 127.5t20.5 161.5v131h-391v98h501v-237zM858 1597l-190 224l-191 -224h-117l252 301h111l252 -301
h-117z" />
    <glyph glyph-name="gcircumflex" unicode="&#x11d;" horiz-adv-x="1105" 
d="M907 -55q0 -190 -107.5 -309t-295.5 -119q-106 0 -176 29.5t-150 101.5l70 69q65 -60 116.5 -84t139.5 -24q149 0 224 93.5t75 248.5v176q-62 -81 -130.5 -110t-162.5 -29q-76 0 -139.5 23.5t-102.5 62.5q-127 127 -127 420q0 292 127 419q39 39 102.5 62.5t139.5 23.5
q94 0 162.5 -29t130.5 -110v127h104v-1042zM803 494q0 69 -5.5 122.5t-23 110.5t-47.5 94.5t-81.5 61.5t-121.5 24t-121.5 -24t-81 -61.5t-47 -94.5t-23 -110.5t-5.5 -122.5t5.5 -122.5t23 -111t47 -95t81 -61.5t121.5 -24t121.5 24t81.5 62t47.5 94.5t23 110.5t5.5 123z
M758 1208l-191 224l-190 -224h-117l252 301h111l251 -301h-116z" />
    <glyph glyph-name="Gbreve" unicode="&#x11e;" horiz-adv-x="1333" 
d="M1169 508q0 -119 -27 -202t-91 -150q-72 -80 -172.5 -124t-210.5 -44q-104 0 -198.5 38.5t-166.5 110.5q-40 40 -65.5 84t-39.5 84.5t-20.5 114.5t-8 131.5t-1.5 177.5q0 101 1 151t4.5 117.5t12 103t23.5 79.5t38 76t56 65q72 72 166.5 110.5t198.5 38.5q191 0 328 -117
t169 -309h-110q-32 152 -135.5 240t-251.5 88q-165 0 -277 -112q-74 -74 -93 -177t-19 -354t19 -353.5t93 -176.5q113 -113 277 -113q87 0 167 36.5t136 104.5q47 60 67.5 127.5t20.5 161.5v131h-391v98h501v-237zM999 1898q-14 -135 -95 -205.5t-242 -70.5t-242.5 70.5
t-95.5 205.5h92q12 -87 76.5 -135.5t169.5 -48.5t169 48.5t76 135.5h92z" />
    <glyph glyph-name="gbreve" unicode="&#x11f;" horiz-adv-x="1105" 
d="M907 -55q0 -190 -107.5 -309t-295.5 -119q-106 0 -176 29.5t-150 101.5l70 69q65 -60 116.5 -84t139.5 -24q149 0 224 93.5t75 248.5v176q-62 -81 -130.5 -110t-162.5 -29q-76 0 -139.5 23.5t-102.5 62.5q-127 127 -127 420q0 292 127 419q39 39 102.5 62.5t139.5 23.5
q94 0 162.5 -29t130.5 -110v127h104v-1042zM803 494q0 69 -5.5 122.5t-23 110.5t-47.5 94.5t-81.5 61.5t-121.5 24t-121.5 -24t-81 -61.5t-47 -94.5t-23 -110.5t-5.5 -122.5t5.5 -122.5t23 -111t47 -95t81 -61.5t121.5 -24t121.5 24t81.5 62t47.5 94.5t23 110.5t5.5 123z
M862 1479q-29 -277 -338 -277t-338 277h93q12 -87 76 -136t169 -49t169.5 49t76.5 136h92z" />
    <glyph glyph-name="Gdotaccent" unicode="&#x120;" horiz-adv-x="1333" 
d="M1169 508q0 -119 -27 -202t-91 -150q-72 -80 -172.5 -124t-210.5 -44q-104 0 -198.5 38.5t-166.5 110.5q-40 40 -65.5 84t-39.5 84.5t-20.5 114.5t-8 131.5t-1.5 177.5q0 101 1 151t4.5 117.5t12 103t23.5 79.5t38 76t56 65q72 72 166.5 110.5t198.5 38.5q191 0 328 -117
t169 -309h-110q-32 152 -135.5 240t-251.5 88q-165 0 -277 -112q-74 -74 -93 -177t-19 -354t19 -353.5t93 -176.5q113 -113 277 -113q87 0 167 36.5t136 104.5q47 60 67.5 127.5t20.5 161.5v131h-391v98h501v-237zM604 1638v129h127v-129h-127z" />
    <glyph glyph-name="gdotaccent" unicode="&#x121;" horiz-adv-x="1105" 
d="M907 -55q0 -190 -107.5 -309t-295.5 -119q-106 0 -176 29.5t-150 101.5l70 69q65 -60 116.5 -84t139.5 -24q149 0 224 93.5t75 248.5v176q-62 -81 -130.5 -110t-162.5 -29q-76 0 -139.5 23.5t-102.5 62.5q-127 127 -127 420q0 292 127 419q39 39 102.5 62.5t139.5 23.5
q94 0 162.5 -29t130.5 -110v127h104v-1042zM803 494q0 69 -5.5 122.5t-23 110.5t-47.5 94.5t-81.5 61.5t-121.5 24t-121.5 -24t-81 -61.5t-47 -94.5t-23 -110.5t-5.5 -122.5t5.5 -122.5t23 -111t47 -95t81 -61.5t121.5 -24t121.5 24t81.5 62t47.5 94.5t23 110.5t5.5 123z
M461 1249v129h127v-129h-127z" />
    <glyph glyph-name="Gcommaaccent" unicode="&#x122;" horiz-adv-x="1333" 
d="M1169 508q0 -119 -27 -202t-91 -150q-72 -80 -172.5 -124t-210.5 -44q-104 0 -198.5 38.5t-166.5 110.5q-40 40 -65.5 84t-39.5 84.5t-20.5 114.5t-8 131.5t-1.5 177.5q0 101 1 151t4.5 117.5t12 103t23.5 79.5t38 76t56 65q72 72 166.5 110.5t198.5 38.5q191 0 328 -117
t169 -309h-110q-32 152 -135.5 240t-251.5 88q-165 0 -277 -112q-74 -74 -93 -177t-19 -354t19 -353.5t93 -176.5q113 -113 277 -113q87 0 167 36.5t136 104.5q47 60 67.5 127.5t20.5 161.5v131h-391v98h501v-237zM733 -143l-131 -308h-129l148 308h112z" />
    <glyph glyph-name="gcommaaccent" unicode="&#x123;" horiz-adv-x="1105" 
d="M907 -55q0 -190 -107.5 -309t-295.5 -119q-106 0 -176 29.5t-150 101.5l70 69q65 -60 116.5 -84t139.5 -24q149 0 224 93.5t75 248.5v176q-62 -81 -130.5 -110t-162.5 -29q-76 0 -139.5 23.5t-102.5 62.5q-127 127 -127 420q0 292 127 419q39 39 102.5 62.5t139.5 23.5
q94 0 162.5 -29t130.5 -110v127h104v-1042zM803 494q0 69 -5.5 122.5t-23 110.5t-47.5 94.5t-81.5 61.5t-121.5 24t-121.5 -24t-81 -61.5t-47 -94.5t-23 -110.5t-5.5 -122.5t5.5 -122.5t23 -111t47 -95t81 -61.5t121.5 -24t121.5 24t81.5 62t47.5 94.5t23 110.5t5.5 123z
M793 1509l-218 -301h-118l198 301h138z" />
    <glyph glyph-name="Hcircumflex" unicode="&#x124;" horiz-adv-x="1431" 
d="M1096 0v686h-760v-686h-111v1458h111v-674h760v674h110v-1458h-110zM907 1597l-190 224l-191 -224h-116l252 301h110l252 -301h-117z" />
    <glyph glyph-name="hcircumflex" unicode="&#x125;" horiz-adv-x="1144" 
d="M854 0v612q0 143 -69.5 219t-202.5 76t-206 -77t-73 -218v-612h-104v1458h104v-588q111 129 291 129q170 0 267 -98t97 -270v-631h-104zM442 1597l-190 224l-191 -224h-116l252 301h110l252 -301h-117z" />
    <glyph glyph-name="Hbar" unicode="&#x126;" horiz-adv-x="1456" 
d="M1374 1059h-155v-1059h-111v686h-760v-686h-110v1059h-156v86h156v313h110v-313h760v313h111v-313h155v-86zM1108 784v275h-760v-275h760z" />
    <glyph glyph-name="hbar" unicode="&#x127;" horiz-adv-x="1144" 
d="M958 0h-104v612q0 143 -70 219t-202 76t-205.5 -77.5t-73.5 -217.5v-612h-104v1176h-133v73h133v209h104v-209h279v-73h-279v-306q66 69 132.5 99t160.5 30q167 0 264.5 -99t97.5 -269v-631z" />
    <glyph glyph-name="Imacron" unicode="&#x12a;" horiz-adv-x="561" 
d="M225 0v1458h111v-1458h-111zM-23 1638v95h607v-95h-607z" />
    <glyph glyph-name="imacron" unicode="&#x12b;" horiz-adv-x="501" 
d="M199 0v987h104v-987h-104zM555 1249h-606v94h606v-94z" />
    <glyph glyph-name="Iogonek" unicode="&#x12e;" horiz-adv-x="561" 
d="M225 0v1458h111v-1458h-111zM207 -451h-129l147 308h113z" />
    <glyph glyph-name="iogonek" unicode="&#x12f;" horiz-adv-x="501" 
d="M199 0v987h104v-987h-104zM186 1329v129h129v-129h-129zM180 -451h-129l148 308h112z" />
    <glyph glyph-name="Idotaccent" unicode="&#x130;" horiz-adv-x="561" 
d="M225 0v1458h111v-1458h-111zM217 1638v129h127v-129h-127z" />
    <glyph glyph-name="dotlessi" unicode="&#x131;" horiz-adv-x="501" 
d="M199 0v987h104v-987h-104z" />
    <glyph glyph-name="Jcircumflex" unicode="&#x134;" horiz-adv-x="1019" 
d="M815 430q0 -200 -118.5 -321t-315.5 -121q-195 0 -320 125l76 75q50 -50 103 -76t141 -26q158 0 241 94.5t83 272.5v1005h110v-1028zM950 1597l-190 224l-191 -224h-116l252 301h110l252 -301h-117z" />
    <glyph glyph-name="jcircumflex" unicode="&#x135;" horiz-adv-x="501" 
d="M303 -215q0 -121 -59.5 -188.5t-177.5 -67.5h-91v92h72q85 0 118.5 39t33.5 127v1200h104v-1202zM440 1208l-190 224l-191 -224h-116l252 301h110l252 -301h-117z" />
    <glyph glyph-name="Kcommaaccent" unicode="&#x136;" horiz-adv-x="1320" 
d="M1153 0l-469 817l-348 -422v-395h-111v1458h111v-911l739 911h133l-450 -557l526 -901h-131zM780 -143l-131 -308h-129l148 308h112z" />
    <glyph glyph-name="kcommaaccent" unicode="&#x137;" horiz-adv-x="1079" 
d="M868 0l-340 543l-225 -260v-283h-104v1458h104v-1028l490 557h133l-326 -369l397 -618h-129zM657 -143l-131 -308h-129l148 308h112z" />
    <glyph glyph-name="Lacute" unicode="&#x139;" horiz-adv-x="1171" 
d="M225 0v1458h111v-1360h774v-98h-885zM408 1597h-119l198 301h138z" />
    <glyph glyph-name="lacute" unicode="&#x13a;" horiz-adv-x="587" 
d="M432 0q-118 0 -177.5 67.5t-59.5 188.5v1202h104v-1200q0 -88 33.5 -127t118.5 -39h71v-92h-90zM317 1597h-118l198 301h138z" />
    <glyph glyph-name="Lcommaaccent" unicode="&#x13b;" horiz-adv-x="1171" 
d="M225 0v1458h111v-1360h774v-98h-885zM705 -143l-132 -308h-129l148 308h113z" />
    <glyph glyph-name="lcommaaccent" unicode="&#x13c;" horiz-adv-x="587" 
d="M432 0q-118 0 -177.5 67.5t-59.5 188.5v1202h104v-1200q0 -88 33.5 -127t118.5 -39h71v-92h-90zM414 -143l-131 -308h-129l147 308h113z" />
    <glyph glyph-name="Lcaron" unicode="&#x13d;" horiz-adv-x="1171" 
d="M225 0v1458h111v-1360h774v-98h-885zM782 1458l-98 -303h-96l82 303h112z" />
    <glyph glyph-name="lcaron" unicode="&#x13e;" horiz-adv-x="587" 
d="M432 0q-118 0 -177.5 67.5t-59.5 188.5v1202h104v-1200q0 -88 33.5 -127t118.5 -39h71v-92h-90zM621 1458l-99 -303h-96l82 303h113z" />
    <glyph glyph-name="Lslash" unicode="&#x141;" horiz-adv-x="1183" 
d="M238 0v627l-156 -99v99l156 98v733h110v-663l336 213v-99l-336 -213v-598h774v-98h-884z" />
    <glyph glyph-name="lslash" unicode="&#x142;" horiz-adv-x="630" 
d="M455 0q-118 0 -178 68t-60 188v473l-135 -84v92l135 84v637h105v-571l180 112v-92l-180 -112v-537q0 -88 33 -127t118 -39h72v-92h-90z" />
    <glyph glyph-name="Nacute" unicode="&#x143;" horiz-adv-x="1513" 
d="M1178 0l-842 1268v-1268h-111v1458h111l842 -1263v1263h110v-1458h-110zM778 1597h-119l199 301h137z" />
    <glyph glyph-name="nacute" unicode="&#x144;" horiz-adv-x="1144" 
d="M854 0v612q0 143 -69.5 219t-202.5 76t-206 -77t-73 -218v-612h-104v987h104v-117q111 129 291 129q164 0 262 -94q102 -99 102 -274v-631h-104zM594 1208h-119l199 301h137z" />
    <glyph glyph-name="Ncommaaccent" unicode="&#x145;" horiz-adv-x="1513" 
d="M1178 0l-842 1268v-1268h-111v1458h111l842 -1263v1263h110v-1458h-110zM854 -143l-131 -308h-129l147 308h113z" />
    <glyph glyph-name="ncommaaccent" unicode="&#x146;" horiz-adv-x="1144" 
d="M854 0v612q0 143 -69.5 219t-202.5 76t-206 -77t-73 -218v-612h-104v987h104v-117q111 129 291 129q164 0 262 -94q102 -99 102 -274v-631h-104zM690 -143l-131 -308h-129l148 308h112z" />
    <glyph glyph-name="Ncaron" unicode="&#x147;" horiz-adv-x="1513" 
d="M1178 0l-842 1268v-1268h-111v1458h111l842 -1263v1263h110v-1458h-110zM811 1597h-111l-251 301h116l191 -223l190 223h117z" />
    <glyph glyph-name="ncaron" unicode="&#x148;" horiz-adv-x="1144" 
d="M854 0v612q0 143 -69.5 219t-202.5 76t-206 -77t-73 -218v-612h-104v987h104v-117q111 129 291 129q164 0 262 -94q102 -99 102 -274v-631h-104zM627 1208h-111l-252 301h117l190 -223l191 223h117z" />
    <glyph glyph-name="Omacron" unicode="&#x14c;" horiz-adv-x="1335" 
d="M1167 729q0 -120 -1.5 -177.5t-8 -131.5t-20.5 -114.5t-39.5 -84.5t-65.5 -84q-149 -149 -364 -149q-104 0 -198.5 38.5t-166.5 110.5q-40 40 -65.5 84t-39.5 84.5t-20.5 114.5t-8 131.5t-1.5 177.5q0 101 1 151t4.5 117.5t12 103t23.5 79.5t38 76t56 65
q72 72 166.5 110.5t198.5 38.5q215 0 364 -149q33 -33 56 -65t38 -76t23.5 -79.5t12 -103t4.5 -117.5t1 -151zM1057 729q0 250 -19.5 353.5t-93.5 177.5q-112 112 -276 112q-165 0 -277 -112q-74 -74 -93 -177t-19 -354t19 -353.5t93 -176.5q113 -113 277 -113
q163 0 276 113q74 74 93.5 177t19.5 353zM365 1638v95h606v-95h-606z" />
    <glyph glyph-name="omacron" unicode="&#x14d;" horiz-adv-x="1077" 
d="M936 494q0 -275 -123 -398q-108 -108 -274 -108q-167 0 -275 108q-123 123 -123 398q0 274 123 397q108 108 275 108q166 0 274 -108q123 -123 123 -397zM831 494q0 112 -16.5 193t-71.5 136q-84 84 -204 84q-121 0 -205 -84q-55 -55 -71.5 -136t-16.5 -193t16.5 -193.5
t71.5 -136.5q84 -84 205 -84q120 0 204 84q55 55 71.5 136.5t16.5 193.5zM842 1249h-606v94h606v-94z" />
    <glyph glyph-name="Ohungarumlaut" unicode="&#x150;" horiz-adv-x="1335" 
d="M1167 729q0 -120 -1.5 -177.5t-8 -131.5t-20.5 -114.5t-39.5 -84.5t-65.5 -84q-149 -149 -364 -149q-104 0 -198.5 38.5t-166.5 110.5q-40 40 -65.5 84t-39.5 84.5t-20.5 114.5t-8 131.5t-1.5 177.5q0 101 1 151t4.5 117.5t12 103t23.5 79.5t38 76t56 65
q72 72 166.5 110.5t198.5 38.5q215 0 364 -149q33 -33 56 -65t38 -76t23.5 -79.5t12 -103t4.5 -117.5t1 -151zM1057 729q0 250 -19.5 353.5t-93.5 177.5q-112 112 -276 112q-165 0 -277 -112q-74 -74 -93 -177t-19 -354t19 -353.5t93 -176.5q113 -113 277 -113
q163 0 276 113q74 74 93.5 177t19.5 353zM758 1898l-217 -301h-119l199 301h137zM1059 1898l-219 -301h-117l199 301h137z" />
    <glyph glyph-name="ohungarumlaut" unicode="&#x151;" horiz-adv-x="1077" 
d="M936 494q0 -275 -123 -398q-108 -108 -274 -108q-167 0 -275 108q-123 123 -123 398q0 274 123 397q108 108 275 108q166 0 274 -108q123 -123 123 -397zM831 494q0 112 -16.5 193t-71.5 136q-84 84 -204 84q-121 0 -205 -84q-55 -55 -71.5 -136t-16.5 -193t16.5 -193.5
t71.5 -136.5q84 -84 205 -84q120 0 204 84q55 55 71.5 136.5t16.5 193.5zM412 1208h-119l199 301h137zM711 1208h-117l199 301h137z" />
    <glyph glyph-name="OE" unicode="&#x152;" horiz-adv-x="2041" 
d="M1057 0v174q-72 -91 -173.5 -138.5t-215.5 -47.5q-104 0 -198.5 38.5t-166.5 110.5q-40 40 -65.5 84t-39.5 84.5t-20.5 114.5t-8 131.5t-1.5 177.5q0 101 1 151t4.5 117.5t12 103t23.5 79.5t38 76t56 65q72 72 166.5 110.5t198.5 38.5q240 0 389 -186v174h864v-96h-756
q0 -98 1 -292t1 -292h641v-86h-641q0 -100 -1 -298t-1 -298h762v-96h-870zM1057 729q0 250 -19.5 353.5t-93.5 177.5q-112 112 -276 112q-165 0 -277 -112q-74 -74 -93 -177t-19 -354t19 -353.5t93 -176.5q113 -113 277 -113q163 0 276 113q74 74 93.5 177t19.5 353z" />
    <glyph glyph-name="oe" unicode="&#x153;" horiz-adv-x="1761" 
d="M936 471q0 -190 81.5 -289.5t239.5 -99.5q86 0 147.5 27.5t125.5 91.5l78 -62q-79 -79 -159 -115t-198 -36q-262 0 -364 215q-47 -103 -139 -159t-209 -56q-167 0 -275 108q-123 123 -123 398q0 274 123 397q108 108 275 108q118 0 209.5 -56t138.5 -159
q47 104 134.5 159.5t205.5 55.5q186 0 290.5 -127t104.5 -354v-47h-686zM831 494q0 112 -16.5 193t-71.5 136q-84 84 -204 84q-121 0 -205 -84q-55 -55 -71.5 -136t-16.5 -193t16.5 -193.5t71.5 -136.5q84 -84 205 -84q120 0 204 84q55 55 71.5 136.5t16.5 193.5zM1518 555
q-5 79 -10.5 112t-24.5 74q-32 78 -100.5 122t-155.5 44t-155.5 -44t-100.5 -122q-18 -48 -24.5 -82t-10.5 -104h582z" />
    <glyph glyph-name="Racute" unicode="&#x154;" horiz-adv-x="1345" 
d="M1085 0l-348 672h-401v-672h-111v1458h555q185 0 301.5 -103t116.5 -288q0 -162 -90 -264t-246 -129l352 -674h-129zM1087 1065q0 147 -87 221t-234 74h-430v-590h430q147 0 234 74t87 221zM694 1597h-119l199 301h137z" />
    <glyph glyph-name="racute" unicode="&#x155;" horiz-adv-x="837" 
d="M754 829q-44 44 -84.5 61t-102.5 17q-122 0 -193 -87t-71 -212v-608h-104v987h104v-131q42 67 120.5 105t168.5 38q75 0 130 -21t107 -73zM442 1208h-118l198 301h137z" />
    <glyph glyph-name="Rcommaaccent" unicode="&#x156;" horiz-adv-x="1345" 
d="M1085 0l-348 672h-401v-672h-111v1458h555q185 0 301.5 -103t116.5 -288q0 -162 -90 -264t-246 -129l352 -674h-129zM1087 1065q0 147 -87 221t-234 74h-430v-590h430q147 0 234 74t87 221zM788 -143l-131 -308h-129l148 308h112z" />
    <glyph glyph-name="rcommaaccent" unicode="&#x157;" horiz-adv-x="837" 
d="M754 829q-44 44 -84.5 61t-102.5 17q-122 0 -193 -87t-71 -212v-608h-104v987h104v-131q42 67 120.5 105t168.5 38q75 0 130 -21t107 -73zM383 -143l-131 -308h-129l147 308h113z" />
    <glyph glyph-name="Rcaron" unicode="&#x158;" horiz-adv-x="1345" 
d="M1085 0l-348 672h-401v-672h-111v1458h555q185 0 301.5 -103t116.5 -288q0 -162 -90 -264t-246 -129l352 -674h-129zM1087 1065q0 147 -87 221t-234 74h-430v-590h430q147 0 234 74t87 221zM727 1597h-111l-251 301h116l191 -223l190 223h117z" />
    <glyph glyph-name="rcaron" unicode="&#x159;" horiz-adv-x="837" 
d="M754 829q-44 44 -84.5 61t-102.5 17q-122 0 -193 -87t-71 -212v-608h-104v987h104v-131q42 67 120.5 105t168.5 38q75 0 130 -21t107 -73zM475 1208h-110l-252 301h116l191 -223l190 223h117z" />
    <glyph glyph-name="Sacute" unicode="&#x15a;" horiz-adv-x="1202" 
d="M1081 391q0 -186 -131.5 -294.5t-359.5 -108.5q-159 0 -272 45.5t-214 146.5l78 78q97 -97 189 -134.5t225 -37.5q174 0 274.5 79.5t100.5 221.5q0 137 -80 205q-45 35 -85 51t-126 27l-170 26q-165 24 -260 107q-115 95 -115 268q0 185 121.5 292t331.5 107
q132 0 228 -36.5t192 -120.5l-72 -72q-71 67 -152 101t-202 34q-159 0 -248.5 -80.5t-89.5 -220.5q0 -127 75 -190q78 -66 218 -90l157 -25q100 -13 157 -35t103 -61q127 -105 127 -283zM623 1597h-119l198 301h138z" />
    <glyph glyph-name="sacute" unicode="&#x15b;" horiz-adv-x="1011" 
d="M897 281q0 -135 -106 -214t-289 -79q-253 0 -400 141l72 72q115 -121 324 -121q297 0 297 201q0 77 -45 115.5t-144 49.5l-164 15q-297 24 -297 258q0 129 96.5 204.5t258.5 75.5q207 0 346 -104l-70 -70q-116 84 -276 84q-123 0 -187.5 -49t-64.5 -141q0 -77 48 -116
t153 -50l159 -14q67 -7 115 -20.5t90 -41.5t63 -77t21 -119zM528 1208h-118l198 301h137z" />
    <glyph glyph-name="Scircumflex" unicode="&#x15c;" horiz-adv-x="1202" 
d="M1081 391q0 -186 -131.5 -294.5t-359.5 -108.5q-159 0 -272 45.5t-214 146.5l78 78q97 -97 189 -134.5t225 -37.5q174 0 274.5 79.5t100.5 221.5q0 137 -80 205q-45 35 -85 51t-126 27l-170 26q-165 24 -260 107q-115 95 -115 268q0 185 121.5 292t331.5 107
q132 0 228 -36.5t192 -120.5l-72 -72q-71 67 -152 101t-202 34q-159 0 -248.5 -80.5t-89.5 -220.5q0 -127 75 -190q78 -66 218 -90l157 -25q100 -13 157 -35t103 -61q127 -105 127 -283zM786 1597l-190 224l-190 -224h-117l252 301h110l252 -301h-117z" />
    <glyph glyph-name="scircumflex" unicode="&#x15d;" horiz-adv-x="1011" 
d="M897 281q0 -135 -106 -214t-289 -79q-253 0 -400 141l72 72q115 -121 324 -121q297 0 297 201q0 77 -45 115.5t-144 49.5l-164 15q-297 24 -297 258q0 129 96.5 204.5t258.5 75.5q207 0 346 -104l-70 -70q-116 84 -276 84q-123 0 -187.5 -49t-64.5 -141q0 -77 48 -116
t153 -50l159 -14q67 -7 115 -20.5t90 -41.5t63 -77t21 -119zM702 1208l-190 224l-190 -224h-117l252 301h110l252 -301h-117z" />
    <glyph glyph-name="Scedilla" unicode="&#x15e;" horiz-adv-x="1202" 
d="M1081 391q0 -186 -131.5 -294.5t-359.5 -108.5q-159 0 -272 45.5t-214 146.5l78 78q97 -97 189 -134.5t225 -37.5q174 0 274.5 79.5t100.5 221.5q0 137 -80 205q-45 35 -85 51t-126 27l-170 26q-165 24 -260 107q-115 95 -115 268q0 185 121.5 292t331.5 107
q132 0 228 -36.5t192 -120.5l-72 -72q-71 67 -152 101t-202 34q-159 0 -248.5 -80.5t-89.5 -220.5q0 -127 75 -190q78 -66 218 -90l157 -25q100 -13 157 -35t103 -61q127 -105 127 -283zM524 -451h-129l148 308h112z" />
    <glyph glyph-name="scedilla" unicode="&#x15f;" horiz-adv-x="1011" 
d="M897 281q0 -135 -106 -214t-289 -79q-253 0 -400 141l72 72q115 -121 324 -121q297 0 297 201q0 77 -45 115.5t-144 49.5l-164 15q-297 24 -297 258q0 129 96.5 204.5t258.5 75.5q207 0 346 -104l-70 -70q-116 84 -276 84q-123 0 -187.5 -49t-64.5 -141q0 -77 48 -116
t153 -50l159 -14q67 -7 115 -20.5t90 -41.5t63 -77t21 -119zM436 -451h-129l148 308h112z" />
    <glyph glyph-name="Scaron" unicode="&#x160;" horiz-adv-x="1202" 
d="M1081 391q0 -186 -131.5 -294.5t-359.5 -108.5q-159 0 -272 45.5t-214 146.5l78 78q97 -97 189 -134.5t225 -37.5q174 0 274.5 79.5t100.5 221.5q0 137 -80 205q-45 35 -85 51t-126 27l-170 26q-165 24 -260 107q-115 95 -115 268q0 185 121.5 292t331.5 107
q132 0 228 -36.5t192 -120.5l-72 -72q-71 67 -152 101t-202 34q-159 0 -248.5 -80.5t-89.5 -220.5q0 -127 75 -190q78 -66 218 -90l157 -25q100 -13 157 -35t103 -61q127 -105 127 -283zM643 1597h-111l-251 301h116l191 -223l190 223h117z" />
    <glyph glyph-name="scaron" unicode="&#x161;" horiz-adv-x="1011" 
d="M897 281q0 -135 -106 -214t-289 -79q-253 0 -400 141l72 72q115 -121 324 -121q297 0 297 201q0 77 -45 115.5t-144 49.5l-164 15q-297 24 -297 258q0 129 96.5 204.5t258.5 75.5q207 0 346 -104l-70 -70q-116 84 -276 84q-123 0 -187.5 -49t-64.5 -141q0 -77 48 -116
t153 -50l159 -14q67 -7 115 -20.5t90 -41.5t63 -77t21 -119zM555 1208h-111l-251 301h116l191 -223l190 223h117z" />
    <glyph glyph-name="Tcommaaccent" unicode="&#x162;" horiz-adv-x="1103" 
d="M606 1360v-1360h-110v1360h-435v98h981v-98h-436zM670 -143l-131 -308h-129l147 308h113z" />
    <glyph glyph-name="tcommaaccent" unicode="&#x163;" horiz-adv-x="665" 
d="M461 0q-114 0 -176 71t-62 187v651h-135v78h135v316h105v-316h223v-78h-223v-653q0 -164 151 -164h72v-92h-90zM453 -143l-131 -308h-129l147 308h113z" />
    <glyph glyph-name="Tcaron" unicode="&#x164;" horiz-adv-x="1103" 
d="M606 1360v-1360h-110v1360h-435v98h981v-98h-436zM606 1597h-110l-252 301h116l191 -223l190 223h117z" />
    <glyph glyph-name="tcaron" unicode="&#x165;" horiz-adv-x="665" 
d="M461 0q-114 0 -176 71t-62 187v651h-135v78h135v316h105v-316h223v-78h-223v-653q0 -164 151 -164h72v-92h-90zM631 1458l-99 -303h-96l82 303h113z" />
    <glyph glyph-name="Umacron" unicode="&#x16a;" horiz-adv-x="1409" 
d="M1204 473q0 -214 -139.5 -349.5t-359.5 -135.5t-360 135.5t-140 349.5v985h110v-971q0 -182 106.5 -291.5t283.5 -109.5t283 109.5t106 291.5v971h110v-985zM401 1638v95h607v-95h-607z" />
    <glyph glyph-name="umacron" unicode="&#x16b;" horiz-adv-x="1144" 
d="M842 0v117q-111 -129 -291 -129q-164 0 -262 94q-103 100 -103 274v631h105v-612q0 -143 69.5 -219t202.5 -76t206 77t73 218v612h104v-987h-104zM874 1249h-606v94h606v-94z" />
    <glyph glyph-name="Ubreve" unicode="&#x16c;" horiz-adv-x="1409" 
d="M1204 473q0 -214 -139.5 -349.5t-359.5 -135.5t-360 135.5t-140 349.5v985h110v-971q0 -182 106.5 -291.5t283.5 -109.5t283 109.5t106 291.5v971h110v-985zM1042 1898q-14 -135 -95 -205.5t-242 -70.5t-242.5 70.5t-95.5 205.5h92q12 -87 76.5 -135.5t169.5 -48.5
t169 48.5t76 135.5h92z" />
    <glyph glyph-name="ubreve" unicode="&#x16d;" horiz-adv-x="1144" 
d="M842 0v117q-111 -129 -291 -129q-164 0 -262 94q-103 100 -103 274v631h105v-612q0 -143 69.5 -219t202.5 -76t206 77t73 218v612h104v-987h-104zM901 1479q-29 -277 -338 -277t-338 277h92q12 -87 76.5 -136t169.5 -49t169.5 49t76.5 136h92z" />
    <glyph glyph-name="Uring" unicode="&#x16e;" horiz-adv-x="1409" 
d="M1204 473q0 -214 -139.5 -349.5t-359.5 -135.5t-360 135.5t-140 349.5v985h110v-971q0 -182 106.5 -291.5t283.5 -109.5t283 109.5t106 291.5v971h110v-985zM938 1776q0 -97 -68.5 -166.5t-164.5 -69.5q-97 0 -165.5 69.5t-68.5 166.5t68.5 165t165.5 68t165 -68t68 -165
zM854 1776q0 61 -43.5 104t-105.5 43t-106 -43t-44 -104q0 -62 44.5 -106t105.5 -44t105 44t44 106z" />
    <glyph glyph-name="uring" unicode="&#x16f;" horiz-adv-x="1144" 
d="M842 0v117q-111 -129 -291 -129q-164 0 -262 94q-103 100 -103 274v631h105v-612q0 -143 69.5 -219t202.5 -76t206 77t73 218v612h104v-987h-104zM805 1386q0 -97 -68.5 -166t-165.5 -69t-165 69t-68 166t68 165.5t165 68.5t165.5 -68.5t68.5 -165.5zM721 1386
q0 61 -44 104.5t-106 43.5t-105.5 -43.5t-43.5 -104.5q0 -62 44 -105.5t105 -43.5q62 0 106 44t44 105z" />
    <glyph glyph-name="Uhungarumlaut" unicode="&#x170;" horiz-adv-x="1409" 
d="M1204 473q0 -214 -139.5 -349.5t-359.5 -135.5t-360 135.5t-140 349.5v985h110v-971q0 -182 106.5 -291.5t283.5 -109.5t283 109.5t106 291.5v971h110v-985zM795 1898l-217 -301h-119l198 301h138zM1096 1898l-219 -301h-117l198 301h138z" />
    <glyph glyph-name="uhungarumlaut" unicode="&#x171;" horiz-adv-x="1144" 
d="M842 0v117q-111 -129 -291 -129q-164 0 -262 94q-103 100 -103 274v631h105v-612q0 -143 69.5 -219t202.5 -76t206 77t73 218v612h104v-987h-104zM444 1208h-118l198 301h138zM743 1208h-116l198 301h138z" />
    <glyph glyph-name="Uogonek" unicode="&#x172;" horiz-adv-x="1409" 
d="M1204 473q0 -214 -139.5 -349.5t-359.5 -135.5t-360 135.5t-140 349.5v985h110v-971q0 -182 106.5 -291.5t283.5 -109.5t283 109.5t106 291.5v971h110v-985zM860 -451h-129l148 308h112z" />
    <glyph glyph-name="uogonek" unicode="&#x173;" horiz-adv-x="1144" 
d="M842 0v117q-111 -129 -291 -129q-164 0 -262 94q-103 100 -103 274v631h105v-612q0 -143 69.5 -219t202.5 -76t206 77t73 218v612h104v-987h-104zM823 -451h-129l148 308h112z" />
    <glyph glyph-name="Ydieresis" unicode="&#x178;" horiz-adv-x="1011" 
d="M561 604v-604h-110v604l-431 854h119l371 -737l362 737h119zM233 1618v158h119v-158h-119zM659 1618v158h119v-158h-119z" />
    <glyph glyph-name="Zacute" unicode="&#x179;" horiz-adv-x="1144" 
d="M129 0v117l768 1243h-737v98h856v-98l-774 -1262h774v-98h-887zM594 1597h-119l199 301h137z" />
    <glyph glyph-name="zacute" unicode="&#x17a;" horiz-adv-x="925" 
d="M111 0v98l594 797h-562v92h672v-98l-596 -797h596v-92h-704zM485 1208h-118l198 301h137z" />
    <glyph glyph-name="Zdotaccent" unicode="&#x17b;" horiz-adv-x="1144" 
d="M129 0v117l768 1243h-737v98h856v-98l-774 -1262h774v-98h-887zM508 1638v129h127v-129h-127z" />
    <glyph glyph-name="zdotaccent" unicode="&#x17c;" horiz-adv-x="925" 
d="M111 0v98l594 797h-562v92h672v-98l-596 -797h596v-92h-704zM399 1249v129h127v-129h-127z" />
    <glyph glyph-name="Zcaron" unicode="&#x17d;" horiz-adv-x="1144" 
d="M129 0v117l768 1243h-737v98h856v-98l-774 -1262h774v-98h-887zM643 1597h-111l-251 301h116l191 -223l190 223h117z" />
    <glyph glyph-name="zcaron" unicode="&#x17e;" horiz-adv-x="925" 
d="M111 0v98l594 797h-562v92h672v-98l-596 -797h596v-92h-704zM535 1208h-111l-252 301h117l190 -223l191 223h116z" />
    <glyph glyph-name="florin" unicode="&#x192;" horiz-adv-x="806" 
d="M657 1366q-152 0 -180 -164l-74 -424h224v-78h-238l-207 -1171h-104l207 1171h-224v78h238l74 422q21 116 94.5 187t187.5 71h90v-92h-88z" />
    <glyph glyph-name="Scommaaccent" unicode="&#x218;" horiz-adv-x="1202" 
d="M1081 391q0 -186 -131.5 -294.5t-359.5 -108.5q-159 0 -272 45.5t-214 146.5l78 78q97 -97 189 -134.5t225 -37.5q174 0 274.5 79.5t100.5 221.5q0 137 -80 205q-45 35 -85 51t-126 27l-170 26q-165 24 -260 107q-115 95 -115 268q0 185 121.5 292t331.5 107
q132 0 228 -36.5t192 -120.5l-72 -72q-71 67 -152 101t-202 34q-159 0 -248.5 -80.5t-89.5 -220.5q0 -127 75 -190q78 -66 218 -90l157 -25q100 -13 157 -35t103 -61q127 -105 127 -283zM655 -143l-131 -308h-129l148 308h112z" />
    <glyph glyph-name="scommaaccent" unicode="&#x219;" horiz-adv-x="1011" 
d="M897 281q0 -135 -106 -214t-289 -79q-253 0 -400 141l72 72q115 -121 324 -121q297 0 297 201q0 77 -45 115.5t-144 49.5l-164 15q-297 24 -297 258q0 129 96.5 204.5t258.5 75.5q207 0 346 -104l-70 -70q-116 84 -276 84q-123 0 -187.5 -49t-64.5 -141q0 -77 48 -116
t153 -50l159 -14q67 -7 115 -20.5t90 -41.5t63 -77t21 -119zM567 -143l-131 -308h-129l148 308h112z" />
    <glyph glyph-name="uni021A" unicode="&#x21a;" horiz-adv-x="1103" 
d="M606 1360v-1360h-110v1360h-435v98h981v-98h-436zM670 -143l-131 -308h-129l147 308h113z" />
    <glyph glyph-name="uni021B" unicode="&#x21b;" horiz-adv-x="665" 
d="M461 0q-114 0 -176 71t-62 187v651h-135v78h135v316h105v-316h223v-78h-223v-653q0 -164 151 -164h72v-92h-90zM453 -143l-131 -308h-129l147 308h113z" />
    <glyph glyph-name="dotlessj" unicode="&#x237;" horiz-adv-x="501" 
d="M303 -215q0 -121 -59.5 -188.5t-177.5 -67.5h-91v92h72q85 0 118.5 39t33.5 127v1200h104v-1202z" />
    <glyph glyph-name="circumflex" unicode="&#x2c6;" horiz-adv-x="1024" 
d="M702 1208l-190 224l-190 -224h-117l252 301h110l252 -301h-117z" />
    <glyph glyph-name="caron" unicode="&#x2c7;" horiz-adv-x="1024" 
d="M567 1208h-110l-252 301h117l190 -223l190 223h117z" />
    <glyph glyph-name="breve" unicode="&#x2d8;" horiz-adv-x="1024" 
d="M850 1479q-29 -277 -338 -277t-338 277h92q12 -87 76.5 -136t169.5 -49t169.5 49t76.5 136h92z" />
    <glyph glyph-name="dotaccent" unicode="&#x2d9;" horiz-adv-x="1024" 
d="M575 1249h-126v129h126v-129z" />
    <glyph glyph-name="ring" unicode="&#x2da;" horiz-adv-x="1024" 
d="M745 1386q0 -97 -68 -166t-165 -69t-165 69t-68 166t68 165.5t165 68.5t165 -68.5t68 -165.5zM662 1386q0 61 -44 104.5t-106 43.5t-106 -43.5t-44 -104.5t44 -105t106 -44t106 44t44 105z" />
    <glyph glyph-name="ogonek" unicode="&#x2db;" horiz-adv-x="1024" 
d="M596 -451h-129l147 308h113z" />
    <glyph glyph-name="tilde" unicode="&#x2dc;" horiz-adv-x="1024" 
d="M817 1337q-44 -44 -81.5 -67t-57 -27t-43.5 -4q-27 0 -53 7.5t-41.5 15.5t-46.5 26q-73 43 -115 43q-29 0 -53.5 -12t-67.5 -55l-61 59q44 44 81 67t56.5 27t44.5 4q41 0 70 -11t71 -38q68 -43 115 -43q27 0 52.5 12.5t68.5 55.5z" />
    <glyph glyph-name="hungarumlaut" unicode="&#x2dd;" horiz-adv-x="1024" 
d="M602 1509l-217 -301h-119l199 301h137zM903 1509l-219 -301h-117l199 301h137z" />
    <glyph glyph-name="tonos" unicode="&#x384;" horiz-adv-x="518" 
d="M326 1260l-119 -68v266h119v-198z" />
    <glyph glyph-name="dieresistonos" unicode="&#x385;" horiz-adv-x="1024" 
d="M784 1229h-118v157h118v-157zM571 1260l-118 -68v266h118v-198zM358 1229h-118v157h118v-157z" />
    <glyph glyph-name="Alphatonos" unicode="&#x386;" horiz-adv-x="1232" 
d="M1202 0h-119l-127 354h-680l-126 -354h-119l536 1458h99zM922 453l-306 858l-305 -858h611zM139 1260l-119 -68v266h119v-198z" />
    <glyph glyph-name="anoteleia" unicode="&#x387;" horiz-adv-x="540" 
d="M346 465h-151v151h151v-151z" />
    <glyph glyph-name="Epsilontonos" unicode="&#x388;" horiz-adv-x="1224" 
d="M1110 0h-885v1458h885v-98h-774v-576h659v-98h-659v-588h774v-98zM16 1260l-118 -68v266h118v-198z" />
    <glyph glyph-name="Etatonos" unicode="&#x389;" horiz-adv-x="1431" 
d="M1206 0h-110v686h-760v-686h-111v1458h111v-674h760v674h110v-1458zM16 1260l-118 -68v266h118v-198z" />
    <glyph glyph-name="Iotatonos" unicode="&#x38a;" horiz-adv-x="561" 
d="M336 0h-111v1458h111v-1458zM16 1260l-118 -68v266h118v-198z" />
    <glyph glyph-name="Omicrontonos" unicode="&#x38c;" horiz-adv-x="1335" 
d="M1167 729q0 -120 -1.5 -177.5t-8 -131.5t-20.5 -114.5t-39.5 -84.5t-65.5 -84q-149 -149 -364 -149q-104 0 -198.5 38.5t-166.5 110.5q-40 40 -65.5 84t-39.5 84.5t-20.5 114.5t-8 131.5t-1.5 177.5q0 101 1 151t4.5 117.5t12 103t23.5 79.5t38 76t56 65
q72 72 166.5 110.5t198.5 38.5q215 0 364 -149q33 -33 56 -65t38 -76t23.5 -79.5t12 -103t4.5 -117.5t1 -151zM1057 729q0 250 -19.5 353.5t-93.5 177.5q-112 112 -276 112q-165 0 -277 -112q-74 -74 -93 -177t-19 -354t19 -353.5t93 -176.5q113 -113 277 -113
q163 0 276 113q74 74 93.5 177t19.5 353zM57 1260l-118 -68v266h118v-198z" />
    <glyph glyph-name="Upsilontonos" unicode="&#x38e;" horiz-adv-x="1011" 
d="M991 1458l-430 -854v-604h-110v604l-431 854h119l371 -737l362 737h119zM-25 1260l-118 -68v266h118v-198z" />
    <glyph glyph-name="Omegatonos" unicode="&#x38f;" horiz-adv-x="1335" 
d="M1167 0h-381v96q76 37 126.5 77.5t88.5 102.5q35 58 45.5 161t10.5 292q0 251 -19.5 354t-93.5 177q-112 112 -276 112q-165 0 -277 -112q-74 -74 -93 -176t-19 -355q0 -192 10 -293.5t45 -159.5q38 -62 88.5 -102.5t126.5 -77.5v-96h-381v96h186q-84 68 -127 146
q-11 20 -19.5 41.5t-14.5 49t-10.5 48.5t-7 56t-4.5 54t-2.5 60t-0.5 57v62v59q0 101 1 151t4.5 117.5t12 103t23.5 79.5t38 76t56 65q72 72 167 110.5t198 38.5t197.5 -38.5t166.5 -110.5q33 -33 56 -65t38 -76t23.5 -79.5t12 -103t4.5 -117.5t1 -151v-59v-62t-0.5 -57
t-2.5 -60t-4.5 -54t-7 -56t-10.5 -48.5t-14.5 -49t-19.5 -41.5q-43 -78 -127 -146h186v-96zM57 1260l-118 -68v266h118v-198z" />
    <glyph glyph-name="iotadieresistonos" unicode="&#x390;" horiz-adv-x="587" 
d="M522 0h-90q-118 0 -177.5 67.5t-59.5 188.5v731h104v-729q0 -88 33.5 -127t118.5 -39h71v-92zM518 1229h-119v157h119v-157zM305 1260l-119 -68v266h119v-198zM92 1229h-119v157h119v-157z" />
    <glyph glyph-name="Alpha" unicode="&#x391;" horiz-adv-x="1232" 
d="M1202 0h-119l-127 354h-680l-126 -354h-119l536 1458h99zM922 453l-306 858l-305 -858h611z" />
    <glyph glyph-name="Beta" unicode="&#x392;" horiz-adv-x="1374" 
d="M1206 397q0 -191 -115.5 -294t-312.5 -103h-553v1458h537q186 0 304 -102.5t118 -278.5q0 -116 -61 -204t-167 -123q119 -41 184.5 -133.5t65.5 -219.5zM1073 1077q0 143 -90.5 213t-232.5 70h-414v-565h414q92 0 162.5 27.5t115.5 92.5t45 162zM1096 397
q0 140 -89.5 219.5t-240.5 79.5h-430v-598h430q151 0 240.5 79.5t89.5 219.5z" />
    <glyph glyph-name="Gamma" unicode="&#x393;" horiz-adv-x="1101" 
d="M1069 1360h-733v-1360h-111v1458h844v-98z" />
    <glyph glyph-name="Delta" unicode="&#x394;" horiz-adv-x="1210" 
d="M1190 0h-1170l537 1458h96zM1047 98l-443 1213l-440 -1213h883z" />
    <glyph glyph-name="Epsilon" unicode="&#x395;" horiz-adv-x="1224" 
d="M1110 0h-885v1458h885v-98h-774v-576h659v-98h-659v-588h774v-98z" />
    <glyph glyph-name="Zeta" unicode="&#x396;" horiz-adv-x="1144" 
d="M1016 0h-887v117l768 1243h-737v98h856v-98l-774 -1262h774v-98z" />
    <glyph glyph-name="Eta" unicode="&#x397;" horiz-adv-x="1431" 
d="M1206 0h-110v686h-760v-686h-111v1458h111v-674h760v674h110v-1458z" />
    <glyph glyph-name="Theta" unicode="&#x398;" horiz-adv-x="1335" 
d="M1167 729q0 -120 -1.5 -177.5t-8 -131.5t-20.5 -114.5t-39.5 -84.5t-65.5 -84q-149 -149 -364 -149q-104 0 -198.5 38.5t-166.5 110.5q-40 40 -65.5 84t-39.5 84.5t-20.5 114.5t-8 131.5t-1.5 177.5q0 101 1 151t4.5 117.5t12 103t23.5 79.5t38 76t56 65
q72 72 166.5 110.5t198.5 38.5q215 0 364 -149q33 -33 56 -65t38 -76t23.5 -79.5t12 -103t4.5 -117.5t1 -151zM1057 784q-2 215 -22.5 310.5t-90.5 165.5q-112 112 -276 112q-165 0 -277 -112q-70 -70 -90 -165t-22 -311h778zM1057 686h-778q0 -222 20 -318.5t92 -168.5
q113 -113 277 -113q163 0 276 113q72 72 92.5 169t20.5 318z" />
    <glyph glyph-name="Iota" unicode="&#x399;" horiz-adv-x="561" 
d="M336 0h-111v1458h111v-1458z" />
    <glyph glyph-name="Kappa" unicode="&#x39a;" horiz-adv-x="1320" 
d="M1284 0h-131l-469 817l-348 -422v-395h-111v1458h111v-911l739 911h133l-450 -557z" />
    <glyph glyph-name="Lambda" unicode="&#x39b;" horiz-adv-x="1167" 
d="M1116 0h-117l-415 1311l-416 -1311h-117l479 1458h107z" />
    <glyph glyph-name="Mu" unicode="&#x39c;" horiz-adv-x="1675" 
d="M1450 0h-111v1202l-442 -997h-111l-450 997v-1202h-111v1458h111l508 -1124l495 1124h111v-1458z" />
    <glyph glyph-name="Nu" unicode="&#x39d;" horiz-adv-x="1513" 
d="M1288 0h-110l-842 1268v-1268h-111v1458h111l842 -1263v1263h110v-1458z" />
    <glyph glyph-name="Xi" unicode="&#x39e;" horiz-adv-x="1155" 
d="M1040 0h-925v98h407v588h-293v98h293v576h-407v98h925v-98h-407v-576h293v-98h-293v-588h407v-98z" />
    <glyph glyph-name="Omicron" unicode="&#x39f;" horiz-adv-x="1335" 
d="M1167 729q0 -120 -1.5 -177.5t-8 -131.5t-20.5 -114.5t-39.5 -84.5t-65.5 -84q-149 -149 -364 -149q-104 0 -198.5 38.5t-166.5 110.5q-40 40 -65.5 84t-39.5 84.5t-20.5 114.5t-8 131.5t-1.5 177.5q0 101 1 151t4.5 117.5t12 103t23.5 79.5t38 76t56 65
q72 72 166.5 110.5t198.5 38.5q215 0 364 -149q33 -33 56 -65t38 -76t23.5 -79.5t12 -103t4.5 -117.5t1 -151zM1057 729q0 250 -19.5 353.5t-93.5 177.5q-112 112 -276 112q-165 0 -277 -112q-74 -74 -93 -177t-19 -354t19 -353.5t93 -176.5q113 -113 277 -113
q163 0 276 113q74 74 93.5 177t19.5 353z" />
    <glyph glyph-name="Pi" unicode="&#x3a0;" horiz-adv-x="1392" 
d="M1165 0h-110v1360h-719v-1360h-111v1458h940v-1458z" />
    <glyph glyph-name="Rho" unicode="&#x3a1;" horiz-adv-x="1292" 
d="M1200 1038q0 -195 -123 -307.5t-317 -112.5h-424v-618h-111v1458h535q194 0 317 -112t123 -308zM1090 1038q0 159 -92 240.5t-250 81.5h-412v-643h412q158 0 250 81t92 240z" />
    <glyph glyph-name="Sigma" unicode="&#x3a3;" horiz-adv-x="1130" 
d="M1016 0h-887v117l408 663l-377 580v98h856v-98h-735l378 -578l-417 -684h774v-98z" />
    <glyph glyph-name="Tau" unicode="&#x3a4;" horiz-adv-x="1103" 
d="M1042 1360h-436v-1360h-110v1360h-435v98h981v-98z" />
    <glyph glyph-name="Upsilon" unicode="&#x3a5;" horiz-adv-x="1011" 
d="M991 1458l-430 -854v-604h-110v604l-431 854h119l371 -737l362 737h119z" />
    <glyph glyph-name="Phi" unicode="&#x3a6;" horiz-adv-x="1464" 
d="M1329 739q0 -74 -3 -123.5t-14.5 -113.5t-39 -117t-70.5 -96q-86 -86 -185.5 -122t-228.5 -36v-131h-110v131q-129 0 -228.5 36t-185.5 122q-43 43 -70.5 96t-39 117t-14.5 113.5t-3 123.5t3 123.5t14.5 114t39 117.5t70.5 96q86 86 185.5 122t228.5 36v110h110v-110
q129 0 228.5 -36t185.5 -122q43 -43 70.5 -96t39 -117.5t14.5 -114t3 -123.5zM1219 739q0 62 -2.5 104.5t-12 99t-32 103t-58.5 82.5q-67 67 -145 94t-181 27v-1020q103 0 181 27t145 94q36 36 58.5 82.5t32 103t12 99t2.5 104.5zM678 229v1020q-103 0 -181 -27t-145 -94
q-36 -36 -58.5 -82t-31.5 -103.5t-11.5 -99t-2.5 -104.5t2.5 -104.5t11.5 -99t31.5 -103.5t58.5 -82q67 -67 145 -94t181 -27z" />
    <glyph glyph-name="Chi" unicode="&#x3a7;" horiz-adv-x="1089" 
d="M1053 0h-129l-381 649l-381 -649h-125l446 748l-417 710h129l348 -612l350 612h127l-418 -710z" />
    <glyph glyph-name="Psi" unicode="&#x3a8;" horiz-adv-x="1339" 
d="M1229 770q0 -108 -32 -181.5t-103 -144.5q-72 -72 -166.5 -110.5t-198.5 -38.5h-4v-295h-111v295h-4q-215 0 -364 149q-71 71 -103 144.5t-32 181.5v688h110v-688q0 -89 28 -148t85 -116q113 -113 276 -113h4v1065h111v-1065h4q164 0 277 113q56 56 84 115.5t28 148.5
v688h111v-688z" />
    <glyph glyph-name="Omega" unicode="&#x3a9;" horiz-adv-x="1335" 
d="M1167 0h-381v96q76 37 126.5 77.5t88.5 102.5q35 58 45.5 161t10.5 292q0 251 -19.5 354t-93.5 177q-112 112 -276 112q-165 0 -277 -112q-74 -74 -93 -176t-19 -355q0 -192 10 -293.5t45 -159.5q38 -62 88.5 -102.5t126.5 -77.5v-96h-381v96h186q-84 68 -127 146
q-11 20 -19.5 41.5t-14.5 49t-10.5 48.5t-7 56t-4.5 54t-2.5 60t-0.5 57v62v59q0 101 1 151t4.5 117.5t12 103t23.5 79.5t38 76t56 65q72 72 167 110.5t198 38.5t197.5 -38.5t166.5 -110.5q33 -33 56 -65t38 -76t23.5 -79.5t12 -103t4.5 -117.5t1 -151v-59v-62t-0.5 -57
t-2.5 -60t-4.5 -54t-7 -56t-10.5 -48.5t-14.5 -49t-19.5 -41.5q-43 -78 -127 -146h186v-96z" />
    <glyph glyph-name="Iotadieresis" unicode="&#x3aa;" horiz-adv-x="561" 
d="M336 0h-111v1458h111v-1458zM8 1618v158h119v-158h-119zM434 1618v158h119v-158h-119z" />
    <glyph glyph-name="Upsilondieresis" unicode="&#x3ab;" horiz-adv-x="1011" 
d="M991 1458l-430 -854v-604h-110v604l-431 854h119l371 -737l362 737h119zM233 1618v158h119v-158h-119zM659 1618v158h119v-158h-119z" />
    <glyph glyph-name="alphatonos" unicode="&#x3ac;" horiz-adv-x="1105" 
d="M907 0h-104v127q-62 -81 -130.5 -110t-162.5 -29q-76 0 -139.5 23.5t-102.5 62.5q-127 127 -127 420q0 292 127 419q39 39 102.5 62.5t139.5 23.5q94 0 162.5 -29t130.5 -110v127h104v-987zM803 494q0 69 -5.5 122.5t-23 110.5t-47.5 94.5t-81.5 61.5t-121.5 24
t-121.5 -24t-81 -61.5t-47 -94.5t-23 -110.5t-5.5 -122.5t5.5 -122.5t23 -111t47 -95t81 -61.5t121.5 -24t121.5 24t81.5 62t47.5 94.5t23 110.5t5.5 123zM596 1260l-119 -68v266h119v-198z" />
    <glyph glyph-name="epsilontonos" unicode="&#x3ad;" horiz-adv-x="1007" 
d="M895 139q-88 -88 -183.5 -119.5t-219.5 -31.5q-154 0 -253.5 73t-99.5 205q0 91 40 145.5t128 90.5q-147 58 -147 221q0 125 101 200.5t243 75.5q252 0 389 -151l-70 -68q-122 129 -317 129q-87 0 -160.5 -52t-73.5 -136q0 -172 197 -172h168v-90h-168q-217 0 -217 -193
q0 -87 69.5 -137.5t165.5 -50.5q41 0 72.5 3t79.5 13.5t95 38t89 70.5zM596 1260l-119 -68v266h119v-198z" />
    <glyph glyph-name="etatonos" unicode="&#x3ae;" horiz-adv-x="1144" 
d="M958 0h-104v612q0 143 -69.5 219t-202.5 76t-206 -77t-73 -218v-612h-104v987h104v-117q111 129 291 129q164 0 262 -94q102 -99 102 -274v-631zM637 1260l-119 -68v266h119v-198z" />
    <glyph glyph-name="iotatonos" unicode="&#x3af;" horiz-adv-x="587" 
d="M522 0h-90q-118 0 -177.5 67.5t-59.5 188.5v731h104v-729q0 -88 33.5 -127t118.5 -39h71v-92zM313 1260l-118 -68v266h118v-198z" />
    <glyph glyph-name="upsilondieresistonos" unicode="&#x3b0;" horiz-adv-x="1038" 
d="M895 483q0 -131 -21.5 -224t-91.5 -163q-108 -108 -264 -108t-264 108q-70 70 -90.5 162t-20.5 225v504h103v-504v-15q0 -56 1.5 -86t8 -75.5t23.5 -80t45 -62.5q84 -84 194 -84q111 0 195 84q28 28 45 62.5t23.5 80t8 75.5t1.5 86v15v504h104v-504zM788 1229h-118v157
h118v-157zM575 1260l-118 -68v266h118v-198zM362 1229h-118v157h118v-157z" />
    <glyph glyph-name="alpha" unicode="&#x3b1;" horiz-adv-x="1105" 
d="M907 0h-104v127q-62 -81 -130.5 -110t-162.5 -29q-76 0 -139.5 23.5t-102.5 62.5q-127 127 -127 420q0 292 127 419q39 39 102.5 62.5t139.5 23.5q94 0 162.5 -29t130.5 -110v127h104v-987zM803 494q0 69 -5.5 122.5t-23 110.5t-47.5 94.5t-81.5 61.5t-121.5 24
t-121.5 -24t-81 -61.5t-47 -94.5t-23 -110.5t-5.5 -122.5t5.5 -122.5t23 -111t47 -95t81 -61.5t121.5 -24t121.5 24t81.5 62t47.5 94.5t23 110.5t5.5 123z" />
    <glyph glyph-name="beta" unicode="&#x3b2;" horiz-adv-x="1105" 
d="M1006 403q0 -169 -106 -292t-257 -123q-47 0 -74.5 1.5t-67.5 9t-69.5 21.5t-64 41.5t-66.5 67.5v-129h-102v1102q0 154 102 255t266 101t263.5 -87t99.5 -249q0 -53 -9.5 -102.5t-31.5 -101t-66 -89t-106 -49.5q141 -17 215 -113t74 -264zM905 410q0 83 -20.5 143.5
t-52.5 95t-81 54.5t-94.5 26t-105.5 6h-125v78h129q276 0 276 287q0 140 -73 207t-187 67q-134 0 -201 -85.5t-67 -225.5v-653q0 -64 17 -122t51 -106.5t92.5 -77t134.5 -28.5q79 0 140 29.5t96.5 78.5t53 106.5t17.5 119.5z" />
    <glyph glyph-name="gamma" unicode="&#x3b3;" horiz-adv-x="880" 
d="M852 987l-358 -987v-471h-105v471l-360 987h114l297 -864l297 864h115z" />
    <glyph glyph-name="delta" unicode="&#x3b4;" horiz-adv-x="1077" 
d="M936 494q0 -275 -123 -398q-108 -108 -274 -108q-167 0 -275 108q-123 123 -123 398q0 274 123 397q108 108 275 108q93 0 149 -34l-436 413v80h584v-80h-469l366 -352q54 -52 93 -108.5t60 -105.5t32.5 -108.5t14.5 -104t3 -105.5zM831 494q0 112 -16.5 193t-71.5 136
q-84 84 -204 84q-121 0 -205 -84q-55 -55 -71.5 -136t-16.5 -193t16.5 -193.5t71.5 -136.5q84 -84 205 -84q120 0 204 84q55 55 71.5 136.5t16.5 193.5z" />
    <glyph glyph-name="epsilon" unicode="&#x3b5;" horiz-adv-x="1007" 
d="M895 139q-88 -88 -183.5 -119.5t-219.5 -31.5q-154 0 -253.5 73t-99.5 205q0 91 40 145.5t128 90.5q-147 58 -147 221q0 125 101 200.5t243 75.5q252 0 389 -151l-70 -68q-122 129 -317 129q-87 0 -160.5 -52t-73.5 -136q0 -172 197 -172h168v-90h-168q-217 0 -217 -193
q0 -87 69.5 -137.5t165.5 -50.5q41 0 72.5 3t79.5 13.5t95 38t89 70.5z" />
    <glyph glyph-name="zeta" unicode="&#x3b6;" horiz-adv-x="937" 
d="M846 -106q0 -102 -61 -154.5t-195 -52.5v80q166 0 166 114q0 63 -40.5 91t-131.5 28h-74q-212 0 -304.5 49t-92.5 182q0 90 37.5 152t134.5 141q432 357 448 371h-561v92h672v-98q-5 -6 -129 -115.5t-245 -215.5l-122 -107q-84 -73 -105.5 -113t-21.5 -115t72 -103
t217 -28h68q41 0 77 -5t72 -18.5t61.5 -35t41.5 -57t16 -82.5z" />
    <glyph glyph-name="eta" unicode="&#x3b7;" horiz-adv-x="1144" 
d="M958 0h-104v612q0 143 -69.5 219t-202.5 76t-206 -77t-73 -218v-612h-104v987h104v-117q111 129 291 129q164 0 262 -94q102 -99 102 -274v-631z" />
    <glyph glyph-name="theta" unicode="&#x3b8;" horiz-adv-x="1093" 
d="M950 729v-29q0 -66 -0.5 -103.5t-4 -105.5t-12 -114.5t-22.5 -101.5t-38.5 -98.5t-57.5 -76.5q-112 -112 -268 -112t-268 112q-28 28 -50.5 67.5t-36.5 77t-24 91t-15 91t-7.5 98t-2.5 90v88.5v26q0 225 13 325q28 209 123 304q112 112 268 112t268 -112q33 -33 57 -76.5
t38.5 -99t23 -101t12 -114.5t4 -104.5t0.5 -104.5v-29zM846 815q0 75 -3 131.5t-12 128t-31 127t-55 88.5q-88 88 -198 88q-111 0 -199 -88q-33 -33 -55 -88.5t-31 -127.5t-11.5 -127.5t-2.5 -131.5h598zM846 723h-598q0 -6 -0.5 -62t0 -76t2.5 -75t5.5 -82.5t11 -74t18 -75
t26.5 -59t37 -51.5q88 -88 199 -88q110 0 198 88q18 18 33 42.5t25.5 56.5t18 59.5t12 69.5t7.5 67.5t4 72.5t1.5 66t0 65.5t-0.5 55.5z" />
    <glyph glyph-name="iota" unicode="&#x3b9;" horiz-adv-x="587" 
d="M522 0h-90q-118 0 -177.5 67.5t-59.5 188.5v731h104v-729q0 -88 33.5 -127t118.5 -39h71v-92z" />
    <glyph glyph-name="kappa" unicode="&#x3ba;" horiz-adv-x="1079" 
d="M997 0h-129l-340 543l-225 -260v-283h-104v987h104v-557l490 557h133l-326 -369z" />
    <glyph glyph-name="lambda" unicode="&#x3bb;" horiz-adv-x="952" 
d="M969 0h-49q-49 0 -84 14.5t-72 48.5q-42 42 -64 115l-223 684l-325 -862h-115l391 985l-90 264q-25 75 -54 96t-112 21h-18v92h30q103 0 156.5 -34.5t83.5 -125.5l360 -1071q25 -74 58 -104.5t90 -30.5h37v-92z" />
    <glyph glyph-name="mu" unicode="&#x3bc;" horiz-adv-x="1138" 
d="M836 0v117q-111 -129 -291 -129q-160 0 -260 92v-551h-105v1458h105v-612q0 -143 69.5 -219t202.5 -76t206 77t73 218v612h104v-987h-104z" />
    <glyph glyph-name="nu" unicode="&#x3bd;" horiz-adv-x="880" 
d="M852 987l-360 -987h-103l-360 987h114l297 -864l297 864h115z" />
    <glyph glyph-name="xi" unicode="&#x3be;" horiz-adv-x="972" 
d="M932 1257l-70 -67q-120 127 -284 127q-126 0 -199.5 -71t-73.5 -197q0 -125 70 -186.5t198 -61.5h248v-92h-243q-150 0 -241 -87t-91 -229q0 -133 88.5 -217t222.5 -84h88q268 0 268 -198q0 -102 -61 -154.5t-195 -52.5v80q166 0 166 114q0 63 -40.5 91t-131.5 28h-94
q-179 0 -298.5 110t-119.5 283q0 144 72.5 237.5t181.5 127.5q-89 23 -144.5 106t-55.5 185q0 160 107.5 260t277.5 100q216 0 354 -152z" />
    <glyph glyph-name="omicron" unicode="&#x3bf;" horiz-adv-x="1077" 
d="M936 494q0 -275 -123 -398q-108 -108 -274 -108q-167 0 -275 108q-123 123 -123 398q0 274 123 397q108 108 275 108q166 0 274 -108q123 -123 123 -397zM831 494q0 112 -16.5 193t-71.5 136q-84 84 -204 84q-121 0 -205 -84q-55 -55 -71.5 -136t-16.5 -193t16.5 -193.5
t71.5 -136.5q84 -84 205 -84q120 0 204 84q55 55 71.5 136.5t16.5 193.5z" />
    <glyph glyph-name="pi" unicode="&#x3c0;" horiz-adv-x="1210" 
d="M985 0h-98v895h-563v-895h-99v987h760v-987z" />
    <glyph glyph-name="rho" unicode="&#x3c1;" horiz-adv-x="1050" 
d="M909 494q0 -291 -129 -420q-86 -86 -241 -86q-94 0 -162.5 29t-130.5 110v-598h-105v1065q0 74 21.5 143t65 129.5t119.5 96.5t175 36q387 0 387 -505zM803 494q0 69 -5 122t-22 110t-46 94t-80.5 61t-121.5 24t-122 -24t-82 -61.5t-48 -93t-24 -107.5t-6 -115
q0 -69 5.5 -123.5t23 -113.5t47 -98t81 -64t121.5 -25t121.5 24t81.5 62t47.5 94.5t23 110.5t5.5 123z" />
    <glyph glyph-name="sigma1" unicode="&#x3c2;" horiz-adv-x="1009" 
d="M901 848l-72 -66q-63 70 -119 97.5t-135 27.5q-174 0 -262 -131q-37 -54 -52 -118t-15 -164t15 -164.5t52 -118.5q48 -72 113.5 -95.5t165.5 -23.5q46 0 83 -4t78 -16.5t68.5 -33.5t45.5 -57.5t18 -86.5q0 -207 -258 -207v80q166 0 166 114q0 25 -7 44.5t-16.5 32t-28 21
t-31.5 12.5t-39.5 6.5t-38.5 2.5h-40q-228 0 -339.5 129.5t-111.5 364.5t116 370t318 135q104 0 177 -32.5t149 -118.5z" />
    <glyph glyph-name="sigma" unicode="&#x3c3;" horiz-adv-x="1097" 
d="M967 895h-189q80 -62 119 -167t39 -234q0 -275 -123 -398q-108 -108 -274 -108q-167 0 -275 108q-123 123 -123 398q0 123 25.5 218t97.5 167q108 108 275 108h428v-92zM831 494q0 109 -16.5 185.5t-71.5 131.5q-84 84 -204 84q-121 0 -205 -84q-55 -55 -71.5 -131.5
t-16.5 -185.5q0 -112 16.5 -193.5t71.5 -136.5q84 -84 205 -84q120 0 204 84q55 55 71.5 136.5t16.5 193.5z" />
    <glyph glyph-name="tau" unicode="&#x3c4;" horiz-adv-x="714" 
d="M657 895h-247v-895h-105v895h-248v92h600v-92z" />
    <glyph glyph-name="upsilon" unicode="&#x3c5;" horiz-adv-x="1038" 
d="M895 483q0 -131 -21.5 -224t-91.5 -163q-108 -108 -264 -108t-264 108q-70 70 -90.5 162t-20.5 225v504h103v-504v-15q0 -56 1.5 -86t8 -75.5t23.5 -80t45 -62.5q84 -84 194 -84q111 0 195 84q28 28 45 62.5t23.5 80t8 75.5t1.5 86v15v504h104v-504z" />
    <glyph glyph-name="phi" unicode="&#x3c6;" horiz-adv-x="1323" 
d="M1182 498q0 -128 -22 -218t-74.5 -158t-145.5 -101t-229 -33v-459h-105v459q-109 0 -191 25.5t-134 69.5t-83.5 110.5t-44 139.5t-12.5 165q0 344 238 489l29 -86q-162 -119 -162 -409q0 -72 5.5 -123t27 -108t59 -93t105.5 -61t163 -27v907h142q229 0 331.5 -119
t102.5 -370zM1077 504q0 75 -7 127.5t-29 106t-61 86t-106.5 53t-162.5 20.5v-817q71 2 127 15.5t94.5 33.5t65.5 52.5t42 64.5t23.5 78.5t11 85.5t2.5 94z" />
    <glyph glyph-name="chi" unicode="&#x3c7;" horiz-adv-x="942" 
d="M860 0h-127l-260 416l-264 -416h-127l334 504l-320 483h127l250 -397l246 397h127l-320 -483z" />
    <glyph glyph-name="psi" unicode="&#x3c8;" horiz-adv-x="1257" 
d="M1114 494q0 -256 -99.5 -375t-334.5 -129v-461h-105v461q-235 10 -333.5 128.5t-98.5 375.5v493h103v-493q0 -111 14.5 -183.5t52 -124t100.5 -75.5t162 -29v905h105v-905q99 5 163 29.5t101 76.5t51.5 124t14.5 182v493h104v-493z" />
    <glyph glyph-name="omega" unicode="&#x3c9;" horiz-adv-x="1441" 
d="M1300 477q0 -232 -73 -354q-82 -135 -254 -135q-88 0 -158 60.5t-94 148.5q-24 -88 -94 -148.5t-158 -60.5q-172 0 -254 135q-74 124 -74 354q0 103 27.5 210t69.5 163q104 136 225 149v-92q-46 -8 -91.5 -48t-68.5 -83q-32 -59 -45.5 -121t-13.5 -178q0 -59 1.5 -97.5
t14.5 -100.5t37 -101q26 -44 71 -71t101 -27q39 0 70.5 14.5t52 36.5t35.5 56.5t22.5 65.5t12 72t5.5 68t1 62v262h106v-262q0 -35 1 -62t5.5 -68t12 -72t22.5 -65.5t35.5 -56.5t52 -36.5t70.5 -14.5q56 0 101 27t71 71q24 39 37 101t14.5 100.5t1.5 97.5q0 116 -13.5 178
t-45.5 121q-23 43 -68.5 83t-91.5 48v92q121 -13 225 -149q42 -56 69 -163t27 -210z" />
    <glyph glyph-name="iotadieresis" unicode="&#x3ca;" horiz-adv-x="587" 
d="M522 0h-90q-118 0 -177.5 67.5t-59.5 188.5v731h104v-729q0 -88 33.5 -127t118.5 -39h71v-92zM-20 1229v157h118v-157h-118zM406 1229v157h118v-157h-118z" />
    <glyph glyph-name="upsilondieresis" unicode="&#x3cb;" horiz-adv-x="1038" 
d="M895 483q0 -131 -21.5 -224t-91.5 -163q-108 -108 -264 -108t-264 108q-70 70 -90.5 162t-20.5 225v504h103v-504v-15q0 -56 1.5 -86t8 -75.5t23.5 -80t45 -62.5q84 -84 194 -84q111 0 195 84q28 28 45 62.5t23.5 80t8 75.5t1.5 86v15v504h104v-504zM252 1229v157h119
v-157h-119zM678 1229v157h119v-157h-119z" />
    <glyph glyph-name="omicrontonos" unicode="&#x3cc;" horiz-adv-x="1077" 
d="M936 494q0 -275 -123 -398q-108 -108 -274 -108q-167 0 -275 108q-123 123 -123 398q0 274 123 397q108 108 275 108q166 0 274 -108q123 -123 123 -397zM831 494q0 112 -16.5 193t-71.5 136q-84 84 -204 84q-121 0 -205 -84q-55 -55 -71.5 -136t-16.5 -193t16.5 -193.5
t71.5 -136.5q84 -84 205 -84q120 0 204 84q55 55 71.5 136.5t16.5 193.5zM596 1260l-119 -68v266h119v-198z" />
    <glyph glyph-name="upsilontonos" unicode="&#x3cd;" horiz-adv-x="1038" 
d="M895 483q0 -131 -21.5 -224t-91.5 -163q-108 -108 -264 -108t-264 108q-70 70 -90.5 162t-20.5 225v504h103v-504v-15q0 -56 1.5 -86t8 -75.5t23.5 -80t45 -62.5q84 -84 194 -84q111 0 195 84q28 28 45 62.5t23.5 80t8 75.5t1.5 86v15v504h104v-504zM575 1260l-118 -68
v266h118v-198z" />
    <glyph glyph-name="omegatonos" unicode="&#x3ce;" horiz-adv-x="1441" 
d="M1300 477q0 -232 -73 -354q-82 -135 -254 -135q-88 0 -158 60.5t-94 148.5q-24 -88 -94 -148.5t-158 -60.5q-172 0 -254 135q-74 124 -74 354q0 103 27.5 210t69.5 163q104 136 225 149v-92q-46 -8 -91.5 -48t-68.5 -83q-32 -59 -45.5 -121t-13.5 -178q0 -59 1.5 -97.5
t14.5 -100.5t37 -101q26 -44 71 -71t101 -27q39 0 70.5 14.5t52 36.5t35.5 56.5t22.5 65.5t12 72t5.5 68t1 62v262h106v-262q0 -35 1 -62t5.5 -68t12 -72t22.5 -65.5t35.5 -56.5t52 -36.5t70.5 -14.5q56 0 101 27t71 71q24 39 37 101t14.5 100.5t1.5 97.5q0 116 -13.5 178
t-45.5 121q-23 43 -68.5 83t-91.5 48v92q121 -13 225 -149q42 -56 69 -163t27 -210zM770 1260l-119 -68v266h119v-198z" />
    <glyph glyph-name="beta1" unicode="&#x3d0;" horiz-adv-x="1105" 
d="M1006 403q0 -169 -106 -292t-257 -123q-60 0 -93 3t-80.5 15t-87.5 42t-79 79v-598h-104v1573q0 154 102 255t266 101t263.5 -87t99.5 -249q0 -53 -9.5 -102.5t-31.5 -101t-66 -89t-106 -49.5q141 -17 215 -113t74 -264zM905 410q0 83 -20.5 143.5t-52.5 95t-81 54.5
t-94.5 26t-105.5 6h-125v78h129q276 0 276 287q0 140 -73 207t-187 67q-134 0 -201 -85.5t-67 -225.5v-653q0 -64 17 -122t51 -106.5t92.5 -77t134.5 -28.5q79 0 140 29.5t96.5 78.5t53 106.5t17.5 119.5z" />
    <glyph glyph-name="afii10023" unicode="&#x401;" horiz-adv-x="1224" 
d="M1110 0h-885v1458h885v-98h-774v-576h659v-98h-659v-588h774v-98zM371 1618v158h118v-158h-118zM797 1618v158h118v-158h-118z" />
    <glyph glyph-name="afii10051" unicode="&#x402;" horiz-adv-x="1521" 
d="M870 782h-335v-782h-111v1360h-373v98h981v-98h-497v-479h348q200 0 320 -115t120 -305v-41q0 -190 -120 -305t-320 -115h-82v98h69q163 0 252.5 84t89.5 238v41q0 154 -89.5 237.5t-252.5 83.5z" />
    <glyph glyph-name="afii10052" unicode="&#x403;" horiz-adv-x="1155" 
d="M1106 1360h-754v-1360h-110v1458h864v-98zM651 1597h-119l199 301h137z" />
    <glyph glyph-name="afii10053" unicode="&#x404;" horiz-adv-x="1318" 
d="M1163 414q-35 -197 -168.5 -311.5t-326.5 -114.5q-103 0 -198 38.5t-167 110.5q-33 33 -56 65t-38 76t-23.5 79.5t-12 103t-4.5 117.5t-1 151t1 151t4.5 117.5t12 103t23.5 79.5t38 76t56 65q72 72 167 110.5t198 38.5q195 0 327.5 -114t167.5 -312h-112
q-32 152 -134 240t-249 88q-165 0 -277 -112q-71 -71 -91.5 -167t-20.5 -309h585v-98h-585q0 -223 20 -320t92 -167q113 -113 277 -113q147 0 251 88.5t136 239.5h108z" />
    <glyph glyph-name="afii10054" unicode="&#x405;" horiz-adv-x="1202" 
d="M1081 391q0 -185 -132 -294t-359 -109q-160 0 -272.5 45.5t-213.5 146.5l78 78q97 -97 188.5 -134.5t225.5 -37.5q173 0 274 80t101 221q0 134 -80 205q-40 34 -81 49.5t-130 28.5l-170 26q-164 24 -260 107q-115 97 -115 268q0 183 122 291t331 108q132 0 228 -36.5
t192 -120.5l-72 -72q-76 68 -154.5 101.5t-199.5 33.5q-157 0 -247.5 -81t-90.5 -220q0 -127 75 -190q83 -70 218 -90l157 -25q101 -15 157 -36t103 -60q127 -105 127 -283z" />
    <glyph glyph-name="afii10055" unicode="&#x406;" horiz-adv-x="561" 
d="M336 0h-111v1458h111v-1458z" />
    <glyph glyph-name="afii10056" unicode="&#x407;" horiz-adv-x="561" 
d="M336 0h-111v1458h111v-1458zM8 1618v158h119v-158h-119zM434 1618v158h119v-158h-119z" />
    <glyph glyph-name="afii10057" unicode="&#x408;" horiz-adv-x="1019" 
d="M815 430q0 -200 -118.5 -321t-315.5 -121q-195 0 -320 125l76 75q50 -50 103 -76t141 -26q156 0 240 96t84 271v1005h110v-1028z" />
    <glyph glyph-name="afii10058" unicode="&#x409;" horiz-adv-x="2123" 
d="M1925 420q0 154 -89.5 237.5t-252.5 83.5h-416v-643h416q163 0 252.5 84t89.5 238zM487 1360v-526q0 -303 -49 -489.5t-139 -265.5t-229 -79h-60v98h37q52 0 92.5 13.5t79.5 45.5t67 90.5t50 144.5t32.5 211.5t10.5 287.5v567h788v-618h428q200 0 320.5 -115t120.5 -305
t-120.5 -305t-320.5 -115h-538v1360h-570z" />
    <glyph glyph-name="afii10059" unicode="&#x40a;" horiz-adv-x="2162" 
d="M2075 420q0 -190 -120.5 -305t-320.5 -115h-538v741h-760v-741h-111v1458h111v-618h760v618h110v-618h428q200 0 320.5 -115t120.5 -305zM1964 420q0 154 -89.5 237.5t-252.5 83.5h-416v-643h416q163 0 252.5 84t89.5 238z" />
    <glyph glyph-name="afii10060" unicode="&#x40b;" horiz-adv-x="1521" 
d="M1323 0h-111v461q0 154 -89.5 237.5t-252.5 83.5h-335v-782h-111v1360h-373v98h981v-98h-497v-479h348q200 0 320 -115t120 -305v-461z" />
    <glyph glyph-name="afii10061" unicode="&#x40c;" horiz-adv-x="1228" 
d="M346 1458v-696l678 696h147l-692 -696l748 -762h-156l-725 758v-758h-110v1458h110zM662 1597h-119l198 301h138z" />
    <glyph glyph-name="afii10062" unicode="&#x40e;" horiz-adv-x="1093" 
d="M834 1802q-20 -246 -287 -246t-287 246h105q8 -80 53.5 -122t128.5 -42t128.5 42t53.5 122h105zM1069 1458l-530 -1237q-45 -108 -111 -164.5t-164 -56.5h-110v98h86q79 0 123.5 37t82.5 127l64 152l-485 1044h118l424 -919l383 919h119z" />
    <glyph glyph-name="afii10145" unicode="&#x40f;" horiz-adv-x="1431" 
d="M1206 0h-434v-369h-110v369h-437v1458h111v-1360h760v1360h110v-1458z" />
    <glyph glyph-name="afii10017" unicode="&#x410;" horiz-adv-x="1228" 
d="M1200 0h-119l-127 354h-680l-127 -354h-118l536 1458h99zM920 453l-306 858l-305 -858h611z" />
    <glyph glyph-name="afii10018" unicode="&#x411;" horiz-adv-x="1345" 
d="M1204 420q0 -190 -120 -305t-320 -115h-539v1458h889v-98h-778v-520h428q200 0 320 -115t120 -305zM1094 420q0 154 -89.5 237.5t-252.5 83.5h-416v-643h416q163 0 252.5 84t89.5 238z" />
    <glyph glyph-name="afii10019" unicode="&#x412;" horiz-adv-x="1374" 
d="M1206 393q0 -185 -113.5 -289t-314.5 -104h-553v1458h537q189 0 305.5 -104t116.5 -273q0 -159 -111 -264q-41 -36 -117 -67q53 -22 80.5 -37.5t55.5 -40.5q114 -105 114 -279zM1073 1077q0 133 -85.5 208t-237.5 75h-414v-565h414q154 0 238.5 74t84.5 208zM1096 397
q0 137 -89 218t-241 81h-430v-598h430q152 0 241 80.5t89 218.5z" />
    <glyph glyph-name="afii10020" unicode="&#x413;" horiz-adv-x="1155" 
d="M1106 1360h-754v-1360h-110v1458h864v-98z" />
    <glyph glyph-name="afii10021" unicode="&#x414;" horiz-adv-x="1392" 
d="M1311 -369h-111v369h-1048v-369h-111v467h133q101 160 144.5 355t43.5 473v532h775v-1360h174v-467zM1026 98v1262h-559v-533q0 -446 -170 -729h729z" />
    <glyph glyph-name="afii10022" unicode="&#x415;" horiz-adv-x="1224" 
d="M1110 0h-885v1458h885v-98h-774v-576h659v-98h-659v-588h774v-98z" />
    <glyph glyph-name="afii10024" unicode="&#x416;" horiz-adv-x="1814" 
d="M2 0l717 762l-662 696h148l647 -696v696h111v-696l647 696h147l-661 -696l716 -762h-155l-694 758v-758h-111v758l-694 -758h-156z" />
    <glyph glyph-name="afii10025" unicode="&#x417;" horiz-adv-x="1269" 
d="M627 -12q-186 0 -317.5 114.5t-166.5 311.5h109q32 -151 136 -239.5t251 -88.5q153 0 252.5 84t99.5 227q0 150 -83.5 224.5t-239.5 74.5h-183v99h189q140 0 216.5 75.5t76.5 216.5q0 136 -88 210.5t-238 74.5q-147 0 -249 -88t-134 -240h-113q35 198 168 312t328 114
q192 0 314 -104t122 -276q0 -246 -219 -338q244 -83 244 -359q0 -122 -63 -215t-170.5 -141.5t-241.5 -48.5z" />
    <glyph glyph-name="afii10026" unicode="&#x418;" horiz-adv-x="1474" 
d="M1249 0h-110v1278l-803 -1278h-111v1458h111v-1274l803 1274h110v-1458z" />
    <glyph glyph-name="afii10027" unicode="&#x419;" horiz-adv-x="1474" 
d="M1024 1802q-20 -246 -287 -246q-266 0 -286 246h104q8 -80 53.5 -122t128.5 -42t129 42t54 122h104zM1249 0h-110v1278l-803 -1278h-111v1458h111v-1274l803 1274h110v-1458z" />
    <glyph glyph-name="afii10028" unicode="&#x41a;" horiz-adv-x="1228" 
d="M346 1458v-696l678 696h147l-692 -696l748 -762h-156l-725 758v-758h-110v1458h110z" />
    <glyph glyph-name="afii10029" unicode="&#x41b;" horiz-adv-x="1392" 
d="M1167 0h-110v1360h-570v-526q0 -303 -49 -489.5t-139 -265.5t-229 -79h-60v98h37q52 0 92.5 13.5t79.5 45.5t67 90.5t50 144.5t32.5 211.5t10.5 287.5v567h788v-1458z" />
    <glyph glyph-name="afii10030" unicode="&#x41c;" horiz-adv-x="1675" 
d="M1450 0h-111v1202l-442 -997h-111l-450 997v-1202h-111v1458h111l508 -1124l495 1124h111v-1458z" />
    <glyph glyph-name="afii10031" unicode="&#x41d;" horiz-adv-x="1431" 
d="M1206 0h-110v686h-760v-686h-111v1458h111v-674h760v674h110v-1458z" />
    <glyph glyph-name="afii10032" unicode="&#x41e;" horiz-adv-x="1335" 
d="M1167 854v-125q0 -277 -24 -391t-111 -201q-72 -72 -166.5 -110.5t-197.5 -38.5t-198 38.5t-167 110.5q-38 38 -63 81t-39.5 87t-21.5 114t-9 134.5t-2 175.5v96q0 96 3.5 154t16 125t41 119t74.5 98q72 72 167 110.5t198 38.5t197.5 -38.5t166.5 -110.5
q44 -44 72.5 -97.5t41.5 -117.5t17 -119t4 -133zM1057 684v80q0 233 -22 330t-91 166q-112 112 -276 112q-165 0 -277 -112q-72 -72 -92 -180.5t-20 -350.5v-63q0 -211 22.5 -305.5t89.5 -161.5q113 -113 277 -113q163 0 276 113q40 40 64 87.5t34 116.5t12.5 123t2.5 158z
" />
    <glyph glyph-name="afii10033" unicode="&#x41f;" horiz-adv-x="1431" 
d="M1206 0h-110v1360h-760v-1360h-111v1458h981v-1458z" />
    <glyph glyph-name="afii10034" unicode="&#x420;" horiz-adv-x="1292" 
d="M1200 1038q0 -190 -120 -305t-320 -115h-424v-618h-111v1458h535q200 0 320 -115t120 -305zM1090 1038q0 154 -89.5 238t-252.5 84h-412v-643h412q163 0 252.5 83.5t89.5 237.5z" />
    <glyph glyph-name="afii10035" unicode="&#x421;" horiz-adv-x="1318" 
d="M1163 414q-35 -197 -168.5 -311.5t-326.5 -114.5q-103 0 -198 38.5t-167 110.5q-33 33 -56 65t-38 76t-23.5 79.5t-12 103t-4.5 117.5t-1 151t1 151t4.5 117.5t12 103t23.5 79.5t38 76t56 65q72 72 167 110.5t198 38.5q195 0 327.5 -114t167.5 -312h-112
q-32 152 -134 240t-249 88q-165 0 -277 -112q-74 -74 -93 -176t-19 -355q0 -252 19 -354t93 -176q113 -113 277 -113q147 0 251 88.5t136 239.5h108z" />
    <glyph glyph-name="afii10036" unicode="&#x422;" horiz-adv-x="1103" 
d="M1042 1360h-436v-1360h-110v1360h-435v98h981v-98z" />
    <glyph glyph-name="afii10037" unicode="&#x423;" horiz-adv-x="1093" 
d="M1069 1458l-530 -1237q-45 -108 -111 -164.5t-164 -56.5h-110v98h86q79 0 123.5 37t82.5 127l64 152l-485 1044h118l424 -919l383 919h119z" />
    <glyph glyph-name="afii10038" unicode="&#x424;" horiz-adv-x="1556" 
d="M1331 778q0 94 -14 166.5t-48.5 135.5t-90.5 104.5t-142.5 65.5t-201.5 26v-993q140 2 237.5 36.5t153.5 100.5t81 153t25 205zM225 778q0 -118 25 -205t81.5 -153t154 -100.5t237.5 -36.5v993q-115 -2 -201.5 -26t-142.5 -65.5t-91 -104.5t-49 -135.5t-14 -166.5z
M834 -6h-111v192q-318 9 -463 156t-145 438t145.5 437t462.5 155v133h111v-133q317 -9 462.5 -155t145.5 -437t-145 -438t-463 -156v-192z" />
    <glyph glyph-name="afii10039" unicode="&#x425;" horiz-adv-x="1089" 
d="M1053 0h-129l-381 649l-381 -649h-125l446 748l-417 710h129l348 -612l350 612h127l-418 -710z" />
    <glyph glyph-name="afii10040" unicode="&#x426;" horiz-adv-x="1462" 
d="M1380 -369h-110v369h-1045v1458h111v-1360h760v1360h110v-1360h174v-467z" />
    <glyph glyph-name="afii10041" unicode="&#x427;" horiz-adv-x="1318" 
d="M1094 0h-111v614q-293 -61 -426 -61q-64 0 -119 10.5t-106.5 37t-88 67t-58 105t-21.5 147.5v538h110v-524q0 -70 18 -122t46 -82.5t69 -48.5t80.5 -24t87.5 -6q106 0 408 58v749h111v-1458z" />
    <glyph glyph-name="afii10042" unicode="&#x428;" horiz-adv-x="2048" 
d="M1823 0h-1598v1458h111v-1360h633v1360h110v-1360h633v1360h111v-1458z" />
    <glyph glyph-name="afii10043" unicode="&#x429;" horiz-adv-x="2078" 
d="M1997 -369h-111v369h-1661v1458h111v-1360h633v1360h110v-1360h633v1360h111v-1360h174v-467z" />
    <glyph glyph-name="afii10044" unicode="&#x42a;" horiz-adv-x="1490" 
d="M1403 420q0 -190 -120 -305t-320 -115h-539v1360h-363v98h474v-618h428q200 0 320 -115t120 -305zM1292 420q0 154 -89.5 237.5t-252.5 83.5h-415v-643h415q163 0 252.5 84t89.5 238z" />
    <glyph glyph-name="afii10045" unicode="&#x42b;" horiz-adv-x="1748" 
d="M1524 0h-111v1458h111v-1458zM1204 420q0 -190 -120 -305t-320 -115h-539v1458h111v-618h428q200 0 320 -115t120 -305zM1094 420q0 154 -89.5 237.5t-252.5 83.5h-416v-643h416q163 0 252.5 84t89.5 238z" />
    <glyph glyph-name="afii10046" unicode="&#x42c;" horiz-adv-x="1292" 
d="M1204 420q0 -190 -120 -305t-320 -115h-539v1458h111v-618h428q200 0 320 -115t120 -305zM1094 420q0 154 -89.5 237.5t-252.5 83.5h-416v-643h416q163 0 252.5 84t89.5 238z" />
    <glyph glyph-name="afii10047" unicode="&#x42d;" horiz-adv-x="1318" 
d="M156 414h108q32 -151 136 -239.5t251 -88.5q164 0 277 113q72 70 92 167t20 320h-585v98h585q0 213 -20.5 309t-91.5 167q-112 112 -277 112q-147 0 -249 -88t-134 -240h-112q35 198 167.5 312t327.5 114q103 0 198 -38.5t167 -110.5q33 -33 56 -65t38 -76t23.5 -79.5
t12 -103t4.5 -117.5t1 -151t-1 -151t-4.5 -117.5t-12 -103t-23.5 -79.5t-38 -76t-56 -65q-72 -72 -167 -110.5t-198 -38.5q-193 0 -326.5 114.5t-168.5 311.5z" />
    <glyph glyph-name="afii10048" unicode="&#x42e;" horiz-adv-x="1843" 
d="M1675 854v-125q0 -277 -24 -391t-111 -201q-72 -72 -166.5 -110.5t-197.5 -38.5t-198 38.5t-167 110.5q-86 86 -110.5 199t-24.5 350h-340v-686h-111v1458h111v-674h340q0 58 0.5 86.5t2 77.5t5 76t9.5 66.5t16 65t24 57t33.5 57.5t44.5 51q72 72 167 110.5t198 38.5
t197.5 -38.5t166.5 -110.5q44 -44 72.5 -97.5t41.5 -117.5t17 -119t4 -133zM1565 684v80q0 233 -22 330t-91 166q-112 112 -276 112q-165 0 -277 -112q-72 -72 -92.5 -181t-20.5 -350v-63q0 -210 23 -305t90 -162q113 -113 277 -113q163 0 276 113q40 40 64 87.5t34 116.5
t12.5 123t2.5 158z" />
    <glyph glyph-name="afii10049" unicode="&#x42f;" horiz-adv-x="1345" 
d="M1120 0h-110v618h-410l-340 -618h-129l348 629q-155 29 -244.5 138t-89.5 271q0 190 120.5 305t320.5 115h534v-1458zM1010 717v643h-412q-163 0 -252.5 -84t-89.5 -238t89.5 -237.5t252.5 -83.5h412z" />
    <glyph glyph-name="afii10065" unicode="&#x430;" horiz-adv-x="1073" 
d="M883 0h-105v98q-62 -62 -128.5 -86t-172.5 -24q-110 0 -177 20.5t-114 69.5q-71 74 -71 192q0 135 91 210t253 75h319v111q0 122 -65.5 181.5t-212.5 59.5q-104 0 -165.5 -28.5t-107.5 -96.5l-75 66q61 85 142 118t206 33q192 0 287.5 -82.5t95.5 -240.5v-676zM778 344
v127h-307q-252 0 -252 -199q0 -99 62.5 -145.5t195.5 -46.5q81 0 139.5 15t106.5 61q55 52 55 188z" />
    <glyph glyph-name="afii10066" unicode="&#x431;" horiz-adv-x="1081" 
d="M944 494q0 -148 -28.5 -242t-92.5 -158q-103 -106 -270 -106q-147 0 -247.5 81.5t-131.5 221.5q-8 33 -12.5 75.5t-6 96t-2 89.5t0 98.5t0.5 80.5q0 285 21 399.5t97 190.5q33 33 82.5 57.5t96 38.5t113 24t109 13.5t109 7.5t90.5 6v-100q-24 -2 -91.5 -5t-117.5 -8
t-113 -15t-113 -32t-83 -55q-63 -63 -81.5 -157t-18.5 -256q33 68 122.5 112.5t182.5 44.5q163 0 256 -90q129 -123 129 -413zM840 483q0 137 -19 214.5t-67 125.5q-37 38 -90.5 60t-110.5 22q-119 0 -201 -82q-94 -97 -94 -336q0 -126 22.5 -200t71.5 -125q82 -82 201 -82
q57 0 110.5 22t90.5 60q47 47 66.5 120t19.5 201z" />
    <glyph glyph-name="afii10067" unicode="&#x432;" horiz-adv-x="1095" 
d="M948 268q0 -125 -77.5 -196.5t-213.5 -71.5h-458v987h448q128 0 206.5 -69.5t78.5 -184.5q0 -82 -44.5 -139t-123.5 -82q85 -27 134.5 -90t49.5 -154zM827 727q0 83 -52.5 127.5t-149.5 44.5h-322v-344h322q98 0 150 45t52 127zM844 276q0 87 -56 139t-153 52h-332v-379
h332q98 0 153.5 50.5t55.5 137.5z" />
    <glyph glyph-name="afii10068" unicode="&#x433;" horiz-adv-x="841" 
d="M821 899h-510v-899h-104v987h614v-88z" />
    <glyph glyph-name="afii10069" unicode="&#x434;" horiz-adv-x="1128" 
d="M1055 -307h-105v307h-794v-307h-105v395h121q69 98 106 231.5t37 380.5v287h586v-899h154v-395zM797 88v811h-381v-225q0 -412 -125 -586h506z" />
    <glyph glyph-name="afii10070" unicode="&#x435;" horiz-adv-x="1071" 
d="M932 471h-686q3 -82 10 -125t25 -84q73 -180 288 -180q79 0 140 24q32 13 58 32t73 63l78 -62q-53 -52 -87 -76t-79 -43q-74 -32 -187 -32q-209 0 -316.5 129.5t-107.5 382.5q0 233 105.5 366t290.5 133q184 0 289.5 -128.5t105.5 -352.5v-47zM827 555q-5 99 -18 141
q-29 99 -101 155t-171 56q-86 0 -154 -44.5t-102 -121.5q-30 -66 -35 -186h581z" />
    <glyph glyph-name="afii10072" unicode="&#x436;" horiz-adv-x="1431" 
d="M203 987l461 -475v475h104v-475l461 475h135l-461 -469l508 -518h-143l-500 508v-508h-104v508l-500 -508h-144l508 518l-460 469h135z" />
    <glyph glyph-name="afii10073" unicode="&#x437;" horiz-adv-x="976" 
d="M829 272q0 -128 -108.5 -205t-263.5 -77q-121 0 -208 31.5t-173 109.5l71 72q70 -68 136.5 -94.5t167.5 -26.5q67 0 130 22t105.5 67t42.5 103q0 91 -62 140t-165 49h-142v88h146q92 0 148.5 47t56.5 133q0 84 -66 131t-178 47q-157 0 -285 -88l-61 74q149 104 346 104
q152 0 249 -71t97 -195q0 -79 -43 -139t-123 -84q84 -23 133 -87t49 -151z" />
    <glyph glyph-name="afii10074" unicode="&#x438;" horiz-adv-x="1173" 
d="M975 0h-105v836l-567 -836h-104v987h104v-835l567 835h105v-987z" />
    <glyph glyph-name="afii10075" unicode="&#x439;" horiz-adv-x="1173" 
d="M874 1427q-20 -245 -286 -245q-267 0 -287 245h105q15 -163 182 -163t182 163h104zM975 0h-105v836l-567 -836h-104v987h104v-835l567 835h105v-987z" />
    <glyph glyph-name="afii10076" unicode="&#x43a;" horiz-adv-x="993" 
d="M313 987v-475l478 475h135l-477 -469l524 -518h-144l-516 508v-508h-104v987h104z" />
    <glyph glyph-name="afii10077" unicode="&#x43b;" horiz-adv-x="1091" 
d="M297 987h596v-987h-105v899h-389v-383q0 -120 -16.5 -211t-44 -148t-68.5 -93t-85.5 -50t-98.5 -14h-45v88h31q33 0 58.5 6.5t59 34t55 75t37 137.5t15.5 214v432z" />
    <glyph glyph-name="afii10078" unicode="&#x43c;" horiz-adv-x="1327" 
d="M1128 0h-104v774l-309 -635h-99l-313 635v-774h-104v987h104l365 -743l356 743h104v-987z" />
    <glyph glyph-name="afii10079" unicode="&#x43d;" horiz-adv-x="1144" 
d="M946 0h-104v467h-539v-467h-104v987h104v-432h539v432h104v-987z" />
    <glyph glyph-name="afii10080" unicode="&#x43e;" horiz-adv-x="1077" 
d="M936 500q0 -147 -29 -242.5t-94 -161.5q-108 -108 -274 -108q-167 0 -275 108q-64 64 -93.5 159.5t-29.5 238.5t29.5 238t93.5 159q108 108 275 108q190 0 293.5 -130t103.5 -369zM831 489q0 134 -19.5 208.5t-68.5 125.5q-81 84 -204 84q-124 0 -205 -84
q-48 -50 -68 -124.5t-20 -204.5q0 -132 19.5 -205.5t68.5 -124.5q81 -84 205 -84q123 0 204 84q47 50 67.5 124t20.5 201z" />
    <glyph glyph-name="afii10081" unicode="&#x43f;" horiz-adv-x="1144" 
d="M946 0h-104v899h-539v-899h-104v987h747v-987z" />
    <glyph glyph-name="afii10082" unicode="&#x440;" horiz-adv-x="1105" 
d="M965 492q0 -504 -375 -504q-107 0 -168 32t-119 107v-598h-104v1458h104v-127q61 77 121.5 108t163.5 31q191 0 284 -125.5t93 -381.5zM860 492q0 217 -66 316t-212 99q-145 0 -212 -99t-67 -314q0 -216 66.5 -315t212.5 -99q145 0 211.5 99t66.5 313z" />
    <glyph glyph-name="afii10083" unicode="&#x441;" horiz-adv-x="1009" 
d="M901 139q-78 -83 -146 -117t-173 -34q-206 0 -323.5 135t-117.5 371t117.5 370.5t323.5 134.5q105 0 172 -34t147 -117l-72 -66q-61 66 -115 95.5t-134 29.5q-177 0 -267 -131q-37 -52 -52 -117t-15 -167q0 -100 15.5 -165.5t51.5 -115.5q91 -131 265 -131q81 0 135 29
t116 96z" />
    <glyph glyph-name="afii10084" unicode="&#x442;" horiz-adv-x="837" 
d="M817 899h-336v-899h-104v899h-357v88h797v-88z" />
    <glyph glyph-name="afii10085" unicode="&#x443;" horiz-adv-x="880" 
d="M852 987l-459 -1255q-18 -46 -32 -70.5t-35 -44.5q-69 -63 -187 -63h-49v92h39q77 0 114 28t66 107l80 219l-360 987h114l297 -864l297 864h115z" />
    <glyph glyph-name="afii10086" unicode="&#x444;" horiz-adv-x="1366" 
d="M1139 492q0 87 -22.5 159t-69 129t-126 90t-186.5 37v-827q196 6 300 116.5t104 295.5zM735 -471h-104v459q-243 11 -375.5 139.5t-132.5 366.5q0 237 132 365.5t376 139.5v459h104v-459q244 -11 376 -139.5t132 -365.5q0 -238 -132.5 -366.5t-375.5 -139.5v-459z
M227 492q0 -185 104 -295.5t300 -116.5v827q-107 -4 -186.5 -37t-126 -90t-69 -129t-22.5 -159z" />
    <glyph glyph-name="afii10087" unicode="&#x445;" horiz-adv-x="942" 
d="M860 0h-127l-260 416l-264 -416h-127l334 504l-320 483h127l250 -397l246 397h127l-320 -483z" />
    <glyph glyph-name="afii10088" unicode="&#x446;" horiz-adv-x="1173" 
d="M1100 -307h-105v307h-796v987h104v-899h539v899h104v-899h154v-395z" />
    <glyph glyph-name="afii10089" unicode="&#x447;" horiz-adv-x="1085" 
d="M887 0h-105v399q-210 -43 -327 -43q-293 0 -293 287v344h104v-334q0 -107 53.5 -152.5t153.5 -45.5q129 0 309 37v495h105v-987z" />
    <glyph glyph-name="afii10090" unicode="&#x448;" horiz-adv-x="1624" 
d="M1425 0h-1226v987h104v-899h457v899h104v-899h457v899h104v-987z" />
    <glyph glyph-name="afii10091" unicode="&#x449;" horiz-adv-x="1652" 
d="M1579 -307h-104v307h-1276v987h104v-899h457v899h104v-899h457v899h104v-899h154v-395z" />
    <glyph glyph-name="afii10092" unicode="&#x44a;" horiz-adv-x="1112" 
d="M1030 291q0 -132 -83.5 -211.5t-221.5 -79.5h-434v899h-271v88h375v-405h330q138 0 221.5 -79.5t83.5 -211.5zM926 291q0 97 -56 150t-161 53h-314v-406h314q106 0 161.5 52.5t55.5 150.5z" />
    <glyph glyph-name="afii10093" unicode="&#x44b;" horiz-adv-x="1390" 
d="M1192 0h-105v987h105v-987zM918 291q0 -132 -84 -211.5t-222 -79.5h-413v987h104v-405h309q138 0 222 -79.5t84 -211.5zM813 291q0 97 -56 150t-161 53h-293v-406h293q106 0 161.5 52.5t55.5 150.5z" />
    <glyph glyph-name="afii10094" unicode="&#x44c;" horiz-adv-x="1019" 
d="M938 291q0 -132 -83.5 -211.5t-221.5 -79.5h-434v987h104v-405h330q138 0 221.5 -79.5t83.5 -211.5zM834 291q0 97 -56.5 150t-161.5 53h-313v-406h313q106 0 162 52.5t56 150.5z" />
    <glyph glyph-name="afii10095" unicode="&#x44d;" horiz-adv-x="1009" 
d="M868 494q0 -236 -117.5 -371t-322.5 -135q-105 0 -173 34t-146 117l71 66q62 -67 116.5 -96t135.5 -29q87 0 152.5 31t104 86t57 123.5t18.5 150.5h-469v84h467q-8 158 -92 255t-240 97q-80 0 -134.5 -30t-115.5 -95l-71 66q80 83 147 117t172 34q206 0 323 -134.5
t117 -370.5z" />
    <glyph glyph-name="afii10096" unicode="&#x44e;" horiz-adv-x="1458" 
d="M1317 500q0 -147 -29 -242.5t-94 -161.5q-108 -108 -274 -108q-167 0 -275 108q-61 61 -90.5 149t-32.5 218h-219v-463h-104v987h104v-436h221q5 119 34 200.5t87 139.5q108 108 275 108q190 0 293.5 -130t103.5 -369zM1212 489q0 134 -19.5 208.5t-68.5 125.5
q-81 84 -204 84q-124 0 -205 -84q-48 -50 -68 -124.5t-20 -204.5q0 -132 19.5 -205.5t68.5 -124.5q81 -84 205 -84q123 0 204 84q47 50 67.5 124t20.5 201z" />
    <glyph glyph-name="afii10097" unicode="&#x44f;" horiz-adv-x="1073" 
d="M874 0h-104v401h-276l-234 -401h-123l242 406q-114 17 -181 95t-67 195q0 132 83.5 211.5t221.5 79.5h438v-987zM770 489v410h-313q-106 0 -162.5 -53.5t-56.5 -151.5t56.5 -151.5t162.5 -53.5h313z" />
    <glyph glyph-name="afii10071" unicode="&#x451;" horiz-adv-x="1071" 
d="M932 471h-686q3 -82 10 -125t25 -84q73 -180 288 -180q79 0 140 24q32 13 58 32t73 63l78 -62q-53 -52 -87 -76t-79 -43q-74 -32 -187 -32q-209 0 -316.5 129.5t-107.5 382.5q0 233 105.5 366t290.5 133q184 0 289.5 -128.5t105.5 -352.5v-47zM827 555q-5 99 -18 141
q-29 99 -101 155t-171 56q-86 0 -154 -44.5t-102 -121.5q-30 -66 -35 -186h581zM268 1229v157h119v-157h-119zM694 1229v157h119v-157h-119z" />
    <glyph glyph-name="afii10099" unicode="&#x452;" horiz-adv-x="1144" 
d="M958 -174q0 -129 -71.5 -213t-206.5 -84h-90v92h72q89 0 140.5 58t51.5 149v784q0 144 -65.5 219.5t-196.5 75.5q-133 0 -211 -78.5t-78 -216.5v-612h-104v1155h-125v78h125v225h104v-225h520v-78h-520v-285q65 68 136.5 98.5t166.5 30.5q166 0 259 -98.5t93 -269.5v-805
z" />
    <glyph glyph-name="afii10100" unicode="&#x453;" horiz-adv-x="841" 
d="M821 899h-510v-899h-104v987h614v-88zM496 1208h-119l198 301h138z" />
    <glyph glyph-name="afii10101" unicode="&#x454;" horiz-adv-x="1009" 
d="M901 139q-78 -83 -146 -117t-173 -34q-206 0 -323.5 135t-117.5 371t117.5 370.5t323.5 134.5q105 0 172 -34t147 -117l-72 -66q-61 66 -115 95.5t-134 29.5q-156 0 -240 -97t-92 -255h467v-84h-469q0 -82 18.5 -150.5t57 -123.5t104 -86t152.5 -31q81 0 135 29t116 96z
" />
    <glyph glyph-name="afii10102" unicode="&#x455;" horiz-adv-x="1011" 
d="M897 281q0 -135 -106.5 -214t-288.5 -79q-253 0 -400 141l72 72q115 -121 324 -121q145 0 221 51t76 150q0 76 -46 116t-143 49l-164 15q-297 24 -297 258q0 127 97 203.5t258 76.5q210 0 346 -104l-70 -70q-116 84 -276 84q-121 0 -186.5 -49.5t-65.5 -140.5
q0 -77 48.5 -117t152.5 -49l159 -14q53 -4 93.5 -13.5t78.5 -28t63 -46t39.5 -71t14.5 -99.5z" />
    <glyph glyph-name="afii10103" unicode="&#x456;" horiz-adv-x="501" 
d="M199 0v987h104v-987h-104zM186 1329v129h129v-129h-129z" />
    <glyph glyph-name="afii10104" unicode="&#x457;" horiz-adv-x="501" 
d="M199 0v987h104v-987h-104zM-20 1229v157h118v-157h-118zM406 1229v157h118v-157h-118z" />
    <glyph glyph-name="afii10105" unicode="&#x458;" horiz-adv-x="501" 
d="M303 -215q0 -121 -59.5 -188.5t-177.5 -67.5h-91v92h72q85 0 118.5 39t33.5 127v1200h104v-1202zM186 1329v129h129v-129h-129z" />
    <glyph glyph-name="afii10106" unicode="&#x459;" horiz-adv-x="1632" 
d="M1446 291q0 97 -56 150t-161 53h-314v-406h314q106 0 161.5 52.5t55.5 150.5zM297 987h618v-405h330q138 0 221.5 -79.5t83.5 -211.5t-83.5 -211.5t-221.5 -79.5h-434v899h-412v-383q0 -120 -16.5 -211t-44 -148t-68.5 -93t-85.5 -50t-98.5 -14h-45v88h31q33 0 58.5 6.5
t59 34t55 75t37 137.5t15.5 214v432z" />
    <glyph glyph-name="afii10107" unicode="&#x45a;" horiz-adv-x="1662" 
d="M1581 291q0 -132 -83.5 -211.5t-221.5 -79.5h-434v494h-539v-494h-104v987h104v-405h539v405h104v-405h330q138 0 221.5 -79.5t83.5 -211.5zM1477 291q0 97 -56 150t-161 53h-314v-406h314q106 0 161.5 52.5t55.5 150.5z" />
    <glyph glyph-name="afii10108" unicode="&#x45b;" horiz-adv-x="1144" 
d="M958 0h-104v612q0 143 -70 219t-202 76t-205.5 -77.5t-73.5 -217.5v-612h-104v1155h-125v78h125v225h104v-225h520v-78h-520v-285q66 69 132.5 99t160.5 30q167 0 264.5 -99t97.5 -269v-631z" />
    <glyph glyph-name="afii10109" unicode="&#x45c;" horiz-adv-x="993" 
d="M313 987v-475l478 475h135l-477 -469l524 -518h-144l-516 508v-508h-104v987h104zM549 1208h-119l199 301h137z" />
    <glyph glyph-name="afii10110" unicode="&#x45e;" horiz-adv-x="880" 
d="M727 1427q-20 -245 -287 -245q-266 0 -286 245h104q15 -163 182 -163q83 0 129 41.5t54 121.5h104zM852 987l-459 -1255q-18 -46 -32 -70.5t-35 -44.5q-69 -63 -187 -63h-49v92h39q77 0 114 28t66 107l80 219l-360 987h114l297 -864l297 864h115z" />
    <glyph glyph-name="afii10193" unicode="&#x45f;" horiz-adv-x="1144" 
d="M946 0h-321v-307h-105v307h-321v987h104v-899h539v899h104v-987z" />
    <glyph glyph-name="afii10050" unicode="&#x490;" horiz-adv-x="1155" 
d="M1106 1360h-754v-1360h-110v1458h753v348h111v-446z" />
    <glyph glyph-name="afii10098" unicode="&#x491;" horiz-adv-x="841" 
d="M821 899h-510v-899h-104v987h510v328h104v-416z" />
    <glyph glyph-name="endash" unicode="&#x2013;" 
d="M109 492v96h835v-96h-835z" />
    <glyph glyph-name="emdash" unicode="&#x2014;" horiz-adv-x="1787" 
d="M168 492v96h1452v-96h-1452z" />
    <glyph glyph-name="afii00208" unicode="&#x2015;" horiz-adv-x="1787" 
d="M1620 492h-1452v96h1452v-96z" />
    <glyph glyph-name="quoteleft" unicode="&#x2018;" horiz-adv-x="532" 
d="M195 1315v143l143 144v-287h-143z" />
    <glyph glyph-name="quoteright" unicode="&#x2019;" horiz-adv-x="532" 
d="M195 1171v287h143v-143z" />
    <glyph glyph-name="quotesinglbase" unicode="&#x201a;" horiz-adv-x="532" 
d="M195 -143v286h143v-143z" />
    <glyph glyph-name="quotedblleft" unicode="&#x201c;" horiz-adv-x="851" 
d="M195 1315v143l143 144v-287h-143zM514 1315v143l143 144v-287h-143z" />
    <glyph glyph-name="quotedblright" unicode="&#x201d;" horiz-adv-x="851" 
d="M195 1171v287h143v-143zM514 1171v287h143v-143z" />
    <glyph glyph-name="quotedblbase" unicode="&#x201e;" horiz-adv-x="851" 
d="M195 -143v286h143v-143zM514 -143v286h143v-143z" />
    <glyph glyph-name="dagger" unicode="&#x2020;" horiz-adv-x="1257" 
d="M678 936v-936h-105v936h-409v92h409v430h105v-430h416v-92h-416z" />
    <glyph glyph-name="daggerdbl" unicode="&#x2021;" horiz-adv-x="1257" 
d="M678 -41v-430h-105v430h-409v92h409v885h-409v92h409v430h105v-430h416v-92h-416v-885h416v-92h-416z" />
    <glyph glyph-name="bullet" unicode="&#x2022;" horiz-adv-x="1118" 
d="M893 684q0 -138 -98 -236t-236 -98t-236 98t-98 236t98 236t236 98t236 -98t98 -236z" />
    <glyph glyph-name="ellipsis" unicode="&#x2026;" horiz-adv-x="1482" 
d="M666 0v152h151v-152h-151zM1137 0v152h151v-152h-151zM195 0v152h151v-152h-151z" />
    <glyph glyph-name="perthousand" unicode="&#x2030;" horiz-adv-x="2392" 
d="M1554 260q0 -123 -74.5 -198.5t-193.5 -75.5q-121 0 -195.5 75.5t-74.5 198.5v219q0 123 74.5 199t195.5 76q119 0 193.5 -76t74.5 -199v-219zM2251 260q0 -122 -75 -198t-194 -76q-121 0 -195.5 75.5t-74.5 198.5v219q0 123 74.5 199t195.5 76q119 0 194 -76t75 -199
v-219zM680 979q0 -121 -74.5 -196.5t-193.5 -75.5q-121 0 -196 75t-75 197v219q0 123 75 199t196 76q119 0 193.5 -76t74.5 -199v-219zM2161 475q0 201 -179 201q-180 0 -180 -201v-211q0 -201 180 -201q179 0 179 199v213zM1464 475q0 201 -178 201q-180 0 -180 -201v-211
q0 -201 180 -201q178 0 178 201v211zM590 1194q0 201 -178 201q-181 0 -181 -201v-211q0 -199 181 -199q178 0 178 199v211zM555 0h-92l680 1458h92z" />
    <glyph glyph-name="guilsinglleft" unicode="&#x2039;" horiz-adv-x="655" 
d="M86 543l401 401v-135l-266 -266l266 -267v-135z" />
    <glyph glyph-name="guilsinglright" unicode="&#x203a;" horiz-adv-x="655" 
d="M168 141v135l266 267l-266 266v135l401 -401z" />
    <glyph glyph-name="fraction" unicode="&#x2044;" horiz-adv-x="362" 
d="M-113 0h-92l680 1458h92z" />
    <glyph glyph-name="Euro" unicode="&#x20ac;" horiz-adv-x="1384" 
d="M1229 414q-37 -197 -170 -311.5t-326 -114.5q-215 0 -364 149q-75 80 -101.5 169t-31.5 243h-134v78h131v217h-131v78h134q5 148 32 236.5t101 162.5q149 149 364 149q195 0 327 -114t169 -312h-113q-32 153 -134 240.5t-249 87.5q-164 0 -276 -112q-59 -59 -82.5 -133
t-28.5 -205h500v-78h-502v-217h502v-78h-500q5 -140 28 -215t83 -135q113 -113 276 -113q148 0 251.5 88t135.5 240h109z" />
    <glyph glyph-name="afii61352" unicode="&#x2116;" horiz-adv-x="1925" 
d="M1800 584h-536v90h536v-90zM1122 0h-104l-739 1262v-1262h-105v1458h105l739 -1257v1257h104v-1458zM1804 1110q0 -201 -84 -285q-71 -71 -186 -71t-186 71q-84 84 -84 285t84 285q71 71 186 71t186 -71q84 -84 84 -285zM1708 1110q0 168 -51 219q-49 49 -123 49
t-123 -49q-51 -51 -51 -219t51 -219q49 -49 123 -49t123 49q51 51 51 219z" />
    <glyph glyph-name="trademark" unicode="&#x2122;" horiz-adv-x="1656" 
d="M1452 584v671l-225 -446h-94l-226 446v-671h-90v874h90l273 -553l272 553h90v-874h-90zM406 1374v-790h-91v790h-249v84h589v-84h-249z" />
    <glyph glyph-name="uni2126" unicode="&#x2126;" horiz-adv-x="1335" 
d="M1167 0h-381v96q76 37 126.5 77.5t88.5 102.5q35 58 45.5 161t10.5 292q0 251 -19.5 354t-93.5 177q-112 112 -276 112q-165 0 -277 -112q-74 -74 -93 -176t-19 -355q0 -192 10 -293.5t45 -159.5q38 -62 88.5 -102.5t126.5 -77.5v-96h-381v96h186q-84 68 -127 146
q-11 20 -19.5 41.5t-14.5 49t-10.5 48.5t-7 56t-4.5 54t-2.5 60t-0.5 57v62v59q0 101 1 151t4.5 117.5t12 103t23.5 79.5t38 76t56 65q72 72 167 110.5t198 38.5t197.5 -38.5t166.5 -110.5q33 -33 56 -65t38 -76t23.5 -79.5t12 -103t4.5 -117.5t1 -151v-59v-62t-0.5 -57
t-2.5 -60t-4.5 -54t-7 -56t-10.5 -48.5t-14.5 -49t-19.5 -41.5q-43 -78 -127 -146h186v-96z" />
    <glyph glyph-name="arrowleft" unicode="&#x2190;" horiz-adv-x="2103" 
d="M946 -289l-827 828l827 827h141l-776 -776h1678v-103h-1678l776 -776h-141z" />
    <glyph glyph-name="arrowup" unicode="&#x2191;" horiz-adv-x="2103" 
d="M1880 506l-776 776v-1677h-103v1677l-776 -776v141l828 828l827 -828v-141z" />
    <glyph glyph-name="arrowright" unicode="&#x2192;" horiz-adv-x="2103" 
d="M1020 -289l776 776h-1677v103h1677l-776 776h141l828 -827l-828 -828h-141z" />
    <glyph glyph-name="arrowdown" unicode="&#x2193;" horiz-adv-x="2103" 
d="M1880 432l-827 -827l-828 827v141l776 -776v1678h103v-1678l776 776v-141z" />
    <glyph glyph-name="uni2196" unicode="&#x2196;" horiz-adv-x="2103" 
d="M1749 -86l-72 -72l-1188 1186v-1098l-98 99v1171h1170l100 -100h-1098z" />
    <glyph glyph-name="uni2197" unicode="&#x2197;" horiz-adv-x="2103" 
d="M1712 29l-98 -99v1098l-1188 -1186l-72 72l1186 1186h-1098l101 100h1169v-1171z" />
    <glyph glyph-name="uni2198" unicode="&#x2198;" horiz-adv-x="2103" 
d="M1712 -158h-1169l-101 99h1098l-1186 1185l72 74l1188 -1186v1098l98 -100v-1170z" />
    <glyph glyph-name="uni2199" unicode="&#x2199;" horiz-adv-x="2103" 
d="M1749 1126l-1186 -1185h1098l-100 -99h-1170v1170l98 100v-1098l1188 1186z" />
    <glyph glyph-name="partialdiff" unicode="&#x2202;" horiz-adv-x="1105" 
d="M907 494q0 -274 -119 -398q-105 -108 -264 -108t-264 108q-119 124 -119 398q0 135 25 234.5t94 168.5q45 45 110 73.5t140 28.5q93 0 163 -29.5t130 -109.5v176q0 154 -75 248t-224 94q-87 0 -138.5 -24.5t-117.5 -83.5l-68 67q83 73 151 103t173 30q190 0 296.5 -117
t106.5 -311v-548zM803 494q0 112 -16 193t-68 136q-81 84 -195 84q-113 0 -194 -84q-52 -55 -68 -136t-16 -193t16 -193.5t68 -136.5q81 -84 194 -84q114 0 195 84q52 55 68 136.5t16 193.5z" />
    <glyph glyph-name="uni2206" unicode="&#x2206;" horiz-adv-x="1210" 
d="M1190 0h-1170l537 1458h96zM1047 98l-443 1213l-440 -1213h883z" />
    <glyph glyph-name="product" unicode="&#x220f;" horiz-adv-x="1431" 
d="M1206 -471h-110v1929h-760v-1929h-111v2027h981v-2027z" />
    <glyph glyph-name="summation" unicode="&#x2211;" horiz-adv-x="1128" 
d="M1014 -471h-885v98l424 944l-424 887v98h885v-98h-760l399 -837v-99l-399 -895h760v-98z" />
    <glyph glyph-name="minus" unicode="&#x2212;" 
d="M109 492v96h835v-96h-835z" />
    <glyph glyph-name="uni2219" unicode="&#x2219;" horiz-adv-x="540" 
d="M195 465v151h151v-151h-151z" />
    <glyph glyph-name="radical" unicode="&#x221a;" horiz-adv-x="1126" 
d="M1065 1360h-180l-445 -1360h-94l-326 987h115l258 -792l408 1263h264v-98z" />
    <glyph glyph-name="infinity" unicode="&#x221e;" horiz-adv-x="1622" 
d="M1475 532q0 -131 -85 -217t-216 -86q-104 0 -185 50.5t-178 171.5q-97 -121 -178 -172.5t-182 -51.5q-132 0 -218 87t-86 218t86.5 219.5t217.5 88.5q98 0 180.5 -52.5t179.5 -173.5q99 123 179 174.5t184 51.5q131 0 216 -88t85 -220zM750 532q-95 116 -156 166t-137 50
q-93 0 -152 -61t-59 -155q0 -93 58.5 -150.5t152.5 -57.5q77 0 139.5 48.5t153.5 159.5zM1376 532q0 94 -58.5 152.5t-152.5 58.5q-40 0 -76 -13.5t-73.5 -45t-67.5 -64t-76 -88.5q91 -111 153.5 -159.5t139.5 -48.5q94 0 152.5 57.5t58.5 150.5z" />
    <glyph glyph-name="uni2224" unicode="&#x2224;" horiz-adv-x="540" 
d="M195 465v151h151v-151h-151z" />
    <glyph glyph-name="logicaland" unicode="&#x2227;" horiz-adv-x="540" 
d="M195 465v151h151v-151h-151z" />
    <glyph glyph-name="integral" unicode="&#x222b;" horiz-adv-x="673" 
d="M612 1366h-71q-76 0 -114 -43t-38 -121v-1415q0 -116 -61.5 -187t-175.5 -71h-91v92h72q76 0 114 43t38 121v1415q0 116 61.5 187t175.5 71h90v-92z" />
    <glyph glyph-name="approxequal" unicode="&#x2248;" 
d="M944 731q-80 -80 -126.5 -103.5t-110.5 -23.5q-16 0 -35 3t-32 6t-36 11.5t-33 12.5t-38 16l-35 15q-90 39 -127 45q-15 2 -29 2q-46 0 -78.5 -16.5t-91.5 -75.5l-63 63q80 80 126.5 103.5t110.5 23.5q14 0 28 -1.5t31 -6t27.5 -7.5t31.5 -11t28.5 -11t32 -13.5
t30.5 -12.5q5 -2 20.5 -9t20.5 -9t19 -8t20 -8t18 -5.5t20 -5t18 -2.5t20 -1q45 0 78 17t92 76zM944 403q-80 -80 -126.5 -103.5t-110.5 -23.5q-16 0 -35 3t-32 6t-36 11.5t-33 12.5t-38 16l-35 15q-90 39 -127 45q-15 2 -29 2q-46 0 -78.5 -16.5t-91.5 -75.5l-63 63
q80 80 126.5 103.5t110.5 23.5q14 0 28 -1.5t31 -6t27.5 -7.5t31.5 -11t28.5 -11t32 -13.5t30.5 -12.5q90 -39 127 -45q15 -2 29 -2q46 0 78.5 16.5t91.5 75.5z" />
    <glyph glyph-name="notequal" unicode="&#x2260;" 
d="M944 334h-555l-213 -213l-67 67l145 146h-145v96h241l217 217h-458v96h555l213 213l67 -67l-145 -146h145v-96h-242l-217 -217h459v-96z" />
    <glyph glyph-name="lessequal" unicode="&#x2264;" 
d="M838 244l-623 329v99l623 329v-112l-521 -266l521 -267v-112zM838 -12l-623 329v113l623 -330v-112z" />
    <glyph glyph-name="greaterequal" unicode="&#x2265;" 
d="M838 573l-623 -329v112l520 267l-520 266v112l623 -329v-99zM838 317l-623 -329v112l623 330v-113z" />
    <glyph glyph-name="dotmath" unicode="&#x22c5;" horiz-adv-x="540" 
d="M195 465v151h151v-151h-151z" />
    <glyph glyph-name="lozenge" unicode="&#x25ca;" horiz-adv-x="1339" 
d="M1192 729l-522 -743l-523 743l523 744zM1075 729l-405 584l-406 -584l406 -588z" />
    <glyph glyph-name="parenleft.case" horiz-adv-x="581" 
d="M373 -193q-41 41 -58 58.5t-39 46.5t-38 59q-39 74 -39 191v1134q0 117 39 191q16 30 38 59t39 46.5t58 58.5l71 -72l-16.5 -16.5l-17 -17l-15 -15t-15.5 -16.5t-12.5 -15.5t-13 -17.5t-10 -16.5t-10.5 -18.5q-31 -67 -31 -162v-1110q0 -95 31 -162q5 -9 10.5 -18.5
t10 -16.5t13 -17.5t12.5 -15.5t15.5 -16.5l15 -15l17 -17l16.5 -16.5z" />
    <glyph glyph-name="parenright.case" horiz-adv-x="581" 
d="M383 162q0 -121 -39 -191q-16 -30 -38 -59t-39 -46.5t-58 -58.5l-76 76l19 19l19.5 19.5t16.5 17t17 19t14 18t14 20t11 20.5q28 52 28 158v1110q0 106 -28 158q-6 12 -14.5 25t-14 21t-19.5 23t-18 19l-23 23l-22 22l76 76q41 -41 58 -58.5t39 -46.5t38 -59
q39 -70 39 -191v-1134z" />
    <glyph glyph-name="hyphen.case" horiz-adv-x="872" 
d="M168 680v96h537v-96h-537z" />
    <glyph glyph-name="bracketleft.case" horiz-adv-x="593" 
d="M199 -152v1762h303v-92h-199v-1577h199v-93h-303z" />
    <glyph glyph-name="bracketright.case" horiz-adv-x="593" 
d="M92 -152v86h205v1590h-205v86h303v-1762h-303z" />
    <glyph glyph-name="braceleft.case" horiz-adv-x="647" 
d="M516 -152q-76 0 -122.5 13t-76.5 43t-41.5 70.5t-11.5 123.5v424q0 86 -37 123q-39 39 -88 39h-37v90h37q49 0 88 39q37 37 37 123v424q0 83 11.5 123.5t41.5 70.5t76.5 43t122.5 13h29v-92h-27q-57 0 -80.5 -5t-40.5 -22t-22.5 -45.5t-5.5 -87.5v-424q0 -79 -29 -125.5
t-96 -79.5q67 -33 96 -79.5t29 -125.5v-424q0 -59 5.5 -87.5t22.5 -45.5t40 -21.5t81 -4.5h27v-93h-29z" />
    <glyph glyph-name="braceright.case" horiz-adv-x="647" 
d="M508 684q-49 0 -88 -39q-37 -37 -37 -123v-424q0 -83 -11.5 -123.5t-41.5 -70.5t-76.5 -43t-122.5 -13h-29v93h27q58 0 81 4.5t40 21.5t23 46t6 87v424q0 79 28.5 125.5t95.5 79.5q-67 33 -95.5 79.5t-28.5 125.5v424q0 58 -6 87t-23 46t-40.5 22t-80.5 5h-27v92h29
q76 0 122.5 -13t76.5 -43t41.5 -70.5t11.5 -123.5v-424q0 -86 37 -123q39 -39 88 -39h37v-90h-37z" />
    <glyph glyph-name="guillemotleft.case" horiz-adv-x="1079" 
d="M86 729l401 401v-135l-266 -266l266 -266v-135zM510 729l401 401v-135l-266 -266l266 -266v-135z" />
    <glyph glyph-name="uni00AD.case" horiz-adv-x="872" 
d="M168 680v96h537v-96h-537z" />
    <glyph glyph-name="guillemotright.case" horiz-adv-x="1079" 
d="M168 328v135l266 266l-266 266v135l401 -401zM592 328v135l266 266l-266 266v135l401 -401z" />
    <glyph glyph-name="endash.case" 
d="M109 680v96h835v-96h-835z" />
    <glyph glyph-name="emdash.case" horiz-adv-x="1787" 
d="M168 680v96h1452v-96h-1452z" />
    <glyph glyph-name="guilsinglleft.case" horiz-adv-x="655" 
d="M86 729l401 401v-135l-266 -266l266 -266v-135z" />
    <glyph glyph-name="guilsinglright.case" horiz-adv-x="655" 
d="M168 328v135l266 266l-266 266v135l401 -401z" />
    <glyph glyph-name="grave.lc" horiz-adv-x="1024" 
d="M489 1208l-217 301h138l198 -301h-119z" />
    <glyph glyph-name="dieresis.lc" horiz-adv-x="1077" 
d="M266 1229v157h119v-157h-119zM692 1229v157h119v-157h-119z" />
    <glyph glyph-name="macron.lc" horiz-adv-x="1024" 
d="M815 1249h-606v94h606v-94z" />
    <glyph glyph-name="acute.lc" horiz-adv-x="1077" 
d="M561 1208h-119l199 301h137z" />
    <glyph glyph-name="circumflex.lc" horiz-adv-x="1077" 
d="M729 1208l-190 224l-191 -224h-117l252 301h111l252 -301h-117z" />
    <glyph glyph-name="caron.lc" horiz-adv-x="925" 
d="M535 1208h-111l-252 301h117l190 -223l191 223h116z" />
    <glyph glyph-name="breve.lc" horiz-adv-x="1024" 
d="M850 1479q-29 -277 -338 -277t-338 277h92q12 -87 76.5 -136t169.5 -49t169.5 49t76.5 136h92z" />
    <glyph glyph-name="dotaccent.lc" horiz-adv-x="1024" 
d="M449 1249v129h126v-129h-126z" />
    <glyph glyph-name="ring.lc" horiz-adv-x="1073" 
d="M743 1386q0 -97 -68 -166t-165 -69t-165.5 69t-68.5 166t68.5 165.5t165.5 68.5t165 -68.5t68 -165.5zM659 1386q0 61 -43.5 104.5t-105.5 43.5t-106 -43.5t-44 -104.5t44 -105t106 -44t105.5 43.5t43.5 105.5z" />
    <glyph glyph-name="tilde.lc" horiz-adv-x="1077" 
d="M844 1337q-44 -44 -81.5 -67t-57 -27t-43.5 -4q-27 0 -53.5 7.5t-42 15.5t-46.5 26q-73 43 -114 43q-29 0 -53.5 -12t-67.5 -55l-62 59q44 44 81.5 67t57 27t44.5 4q41 0 70 -11t71 -38q68 -43 115 -43q27 0 52 12.5t68 55.5z" />
    <glyph glyph-name="hungarumlaut.lc" horiz-adv-x="1024" 
d="M385 1208h-119l199 301h137zM684 1208h-117l199 301h137z" />
    <glyph glyph-name="brevecyr.lc" horiz-adv-x="1024" 
d="M799 1427q-20 -245 -287 -245t-287 245h105q15 -163 182 -163t182 163h105z" />
    <glyph glyph-name="diedot.lc" horiz-adv-x="1077" 
d="M266 1229v157h119v-157h-119z" />
    <glyph glyph-name="zero.lf" 
d="M909 377q0 -171 -107.5 -280t-275.5 -109q-167 0 -275 109.5t-108 279.5v704q0 170 108 279.5t275 109.5q168 0 275.5 -109t107.5 -280v-704zM805 1071q0 134 -73.5 220.5t-205.5 86.5t-205 -86.5t-73 -220.5v-684q0 -134 73 -220.5t205 -86.5t205.5 86.5t73.5 220.5v684
z" />
    <glyph glyph-name="one.lf" horiz-adv-x="716" 
d="M367 0v1339l-265 -233v125l265 227h104v-1458h-104z" />
    <glyph glyph-name="two.lf" horiz-adv-x="966" 
d="M82 0v92l586 768q82 106 82 227q0 132 -74.5 211.5t-206.5 79.5q-123 0 -202 -72.5t-79 -218.5h-104q0 167 104.5 275t280.5 108q174 0 279.5 -105.5t105.5 -277.5q0 -82 -22.5 -145t-77.5 -135l-547 -715h647v-92h-772z" />
    <glyph glyph-name="three.lf" horiz-adv-x="1034" 
d="M911 389q0 -190 -115 -296.5t-298 -106.5q-178 0 -291 93t-125 275h104q11 -140 98.5 -208t213.5 -68q134 0 221.5 84t87.5 227q0 311 -318 311h-24v93h24q289 0 289 292q0 138 -79.5 216.5t-202.5 78.5q-127 0 -202 -70.5t-89 -195.5h-105q17 169 125 264t271 95
q173 0 280 -106t107 -282q0 -242 -207 -331q235 -79 235 -365z" />
    <glyph glyph-name="four.lf" horiz-adv-x="1030" 
d="M754 240v-240h-105v240h-577v92l536 1126h111l-537 -1126h467v463h105v-463h194v-92h-194z" />
    <glyph glyph-name="five.lf" horiz-adv-x="1034" 
d="M895 477q0 -130 -21.5 -223.5t-91.5 -163.5q-104 -104 -280 -104q-187 0 -281 98q-86 86 -98 238h104q18 -121 84 -182.5t191 -61.5q126 0 200 74q40 40 61 101t24.5 106.5t3.5 117.5q0 61 -5.5 111t-22.5 104t-46 90.5t-79.5 60t-119.5 23.5q-101 0 -171 -40t-93 -113
h-92v745h700v-92h-608v-516q94 108 276 108q158 0 246 -88q71 -71 95 -169.5t24 -223.5z" />
    <glyph glyph-name="six.lf" horiz-adv-x="976" 
d="M874 412q0 -118 -44 -213t-133 -153t-208 -58q-181 0 -284 113t-103 296q0 134 82 305l375 756h105l-336 -674q75 35 170 35q174 0 275 -115.5t101 -291.5zM770 403q0 138 -74.5 231t-208.5 93q-129 0 -204.5 -88t-75.5 -236t75.5 -235.5t204.5 -87.5t206 87.5t77 235.5z
" />
    <glyph glyph-name="seven.lf" horiz-adv-x="917" 
d="M330 0h-107l516 1366h-553v-229h-104v321h764v-92z" />
    <glyph glyph-name="eight.lf" horiz-adv-x="1077" 
d="M954 393q0 -174 -119 -289.5t-296 -115.5q-178 0 -297 115.5t-119 289.5q0 123 61 215t170 150q-200 110 -200 332q0 162 108.5 271t276.5 109t276.5 -109t108.5 -271q0 -224 -199 -332q229 -122 229 -365zM850 393q0 134 -89.5 225t-221.5 91t-222 -91t-90 -225
t89.5 -223.5t222.5 -89.5t222 89t89 224zM819 1090q0 128 -78 208t-202 80t-202.5 -80t-78.5 -208t78.5 -208.5t202.5 -80.5t202 80.5t78 208.5z" />
    <glyph glyph-name="nine.lf" horiz-adv-x="976" 
d="M874 1061q0 -136 -81 -305l-375 -756h-105l336 674q-75 -35 -172 -35q-117 0 -203 55t-129 146.5t-43 206.5q0 118 44 213t133 152.5t208 57.5q181 0 284 -113t103 -296zM770 1055q0 148 -77 235.5t-206 87.5t-204.5 -87.5t-75.5 -235.5q0 -138 73.5 -231t206.5 -93
q129 0 206 88t77 236z" />
    <glyph glyph-name="zero.osf" 
d="M909 377q0 -171 -107.5 -280t-275.5 -109t-275.5 109t-107.5 280v469q0 171 107.5 280t275.5 109t275.5 -109t107.5 -280v-469zM805 387v449q0 134 -73.5 220.5t-205.5 86.5t-205 -86.5t-73 -220.5v-449q0 -134 73 -220.5t205 -86.5t205.5 86.5t73.5 220.5z" />
    <glyph glyph-name="one.osf" horiz-adv-x="716" 
d="M471 0h-104v1104l-265 -234v125l265 228h104v-1223z" />
    <glyph glyph-name="two.osf" horiz-adv-x="1005" 
d="M893 0h-811v92l528 529q138 138 138 292q0 114 -79.5 192.5t-199.5 78.5q-117 0 -198 -77.5t-81 -195.5h-104q0 154 108.5 259.5t274.5 105.5q171 0 277 -105t106 -258q0 -186 -164 -350l-471 -471h676v-92z" />
    <glyph glyph-name="three.osf" horiz-adv-x="1042" 
d="M911 152q0 -189 -116 -296.5t-297 -107.5q-178 0 -292 93.5t-124 275.5h104q10 -140 98.5 -208.5t213.5 -68.5q134 0 221.5 84.5t87.5 227.5q0 311 -318 311h-24v92h24q144 0 216.5 75.5t72.5 217.5q0 140 -79.5 217.5t-202.5 77.5q-127 0 -202 -71t-89 -195h-105
q15 167 124.5 262.5t271.5 95.5q172 0 279.5 -106.5t107.5 -280.5q0 -245 -207 -332q235 -80 235 -364z" />
    <glyph glyph-name="four.osf" horiz-adv-x="1071" 
d="M989 61h-194v-313h-105v313h-618v93l557 1126h108l-557 -1126h510v462h105v-462h194v-93z" />
    <glyph glyph-name="five.osf" horiz-adv-x="1034" 
d="M895 242q0 -130 -21.5 -223.5t-91.5 -163.5q-105 -105 -280 -105q-187 0 -281 98q-86 86 -98 238h104q31 -244 275 -244q126 0 200 74q40 40 61 101.5t24.5 107t3.5 117.5q0 62 -5 111t-22 103.5t-46 90.5t-80 60t-120 24q-100 0 -170.5 -40.5t-93.5 -113.5h-92v746h700
v-93h-608v-516q93 109 276 109q158 0 246 -88q119 -119 119 -393z" />
    <glyph glyph-name="six.osf" horiz-adv-x="1062" 
d="M950 449q0 -198 -112.5 -329.5t-305.5 -131.5q-196 0 -307.5 122.5t-111.5 321.5q0 168 94 332l414 727h108l-375 -643q86 43 187 43q190 0 299.5 -125t109.5 -317zM846 438q0 99 -34.5 180.5t-107.5 133t-174 51.5q-144 0 -228.5 -100t-84.5 -265q0 -164 84.5 -263
t228.5 -99t230 99.5t86 262.5z" />
    <glyph glyph-name="seven.osf" horiz-adv-x="989" 
d="M918 1130l-615 -1386h-108l614 1386h-612v-229h-105v322h826v-93z" />
    <glyph glyph-name="eight.osf" horiz-adv-x="1077" 
d="M954 393q0 -174 -119 -289.5t-296 -115.5q-178 0 -297 115.5t-119 289.5q0 122 61.5 214.5t169.5 150.5q-200 109 -200 332q0 163 108 271.5t277 108.5t277 -108.5t108 -271.5q0 -224 -199 -332q108 -57 168.5 -150t60.5 -215zM850 393q0 134 -89.5 225t-221.5 91
t-222 -91t-90 -225q0 -133 90 -223t222 -90t221.5 90t89.5 223zM819 1090q0 126 -78 207t-202 81t-202.5 -81t-78.5 -207q0 -128 78.5 -208.5t202.5 -80.5t202 80.5t78 208.5z" />
    <glyph glyph-name="nine.osf" horiz-adv-x="1062" 
d="M950 791q0 -168 -94 -332l-414 -727h-108l375 643q-86 -43 -187 -43q-190 0 -299.5 125t-109.5 317q0 198 112 329.5t305 131.5q196 0 308 -122.5t112 -321.5zM846 784q0 164 -85 263.5t-229 99.5t-229.5 -99.5t-85.5 -263.5q0 -99 34 -180t107 -132.5t174 -51.5
q144 0 229 99.5t85 264.5z" />
    <glyph glyph-name="exclam.ss01" horiz-adv-x="622" 
d="M399 1458l-12 -1065h-90l-12 1065h114zM424 76q0 -34 -24 -58t-58 -24t-58 24t-24 58t24 58t58 24t58 -24t24 -58z" />
    <glyph glyph-name="period.ss01" horiz-adv-x="540" 
d="M365 88q0 -38 -28.5 -66t-66.5 -28t-66 28t-28 66t28 66t66 28t66.5 -28t28.5 -66z" />
    <glyph glyph-name="colon.ss01" horiz-adv-x="598" 
d="M422 702q0 -38 -28 -66t-66 -28t-66.5 28t-28.5 66t28.5 66.5t66.5 28.5t66 -28.5t28 -66.5zM422 88q0 -38 -28 -66t-66 -28t-66.5 28t-28.5 66t28.5 66t66.5 28t66 -28t28 -66z" />
    <glyph glyph-name="semicolon.ss01" horiz-adv-x="598" 
d="M397 -139l-139 -140v418h139v-278zM422 702q0 -38 -28 -66t-66 -28t-66.5 28t-28.5 66t28.5 66.5t66.5 28.5t66 -28.5t28 -66.5z" />
    <glyph glyph-name="question.ss01" horiz-adv-x="999" 
d="M897 1110q0 -65 -22.5 -121.5t-67.5 -122.5l-174 -256q-37 -53 -37 -123v-96h-104v92q0 57 13.5 98t45.5 87l172 254q36 54 53 94.5t17 93.5q0 114 -75.5 191t-187.5 77q-117 0 -189.5 -78.5t-72.5 -189.5h-104q0 150 103 255t263 105q157 0 262 -103t105 -257zM625 76
q0 -34 -24 -58t-58 -24t-58 24t-24 58t24 58t58 24t58 -24t24 -58z" />
    <glyph glyph-name="at.ss01" horiz-adv-x="1929" 
d="M1788 647q0 -119 -44.5 -229t-121.5 -191t-186.5 -129.5t-233.5 -48.5h-98l26 125q-103 -137 -258 -137q-128 0 -206 73t-78 222q0 82 16 164q46 250 170 360q108 94 246 94q96 0 154 -42.5t79 -106.5l29 139h92l-162 -809q134 0 244.5 74t171 192t60.5 250
q0 182 -84 325.5t-231 221.5t-331 78q-156 0 -298.5 -62t-246 -167.5t-164.5 -251t-61 -306.5q0 -224 96 -404t276 -285t413 -105h84l-19 -90h-82q-187 0 -349.5 67.5t-277 184.5t-180 281t-65.5 351q0 181 69 345t186 281.5t279 187t340 69.5q219 0 388.5 -90t263.5 -254.5
t94 -376.5zM1204 657q0 107 -54.5 156t-133.5 49q-106 0 -182 -76q-45 -45 -76 -112t-53 -180q-19 -108 -19 -162q0 -107 54 -157t132 -50q17 0 38 2.5t66.5 22.5t80.5 55q45 45 76 111.5t53 179.5q18 103 18 161z" />
    <glyph glyph-name="C.ss01" horiz-adv-x="1220" 
d="M1079 170q-95 -90 -191.5 -136t-219.5 -46q-103 0 -198 38.5t-167 110.5q-33 33 -56 65t-38 76t-23.5 79.5t-12 103t-4.5 117.5t-1 151t1 151t4.5 117.5t12 103t23.5 79.5t38 76t56 65q72 72 167 110.5t198 38.5q123 0 219.5 -46t191.5 -136l-73 -74q-83 82 -157.5 120
t-180.5 38q-168 0 -277 -112q-74 -74 -93 -176t-19 -355q0 -252 19 -354t93 -176q110 -113 277 -113q106 0 180.5 38t157.5 120z" />
    <glyph glyph-name="G.ss01" horiz-adv-x="1327" 
d="M1169 508q0 -116 -27.5 -200t-90.5 -152q-72 -80 -172.5 -124t-210.5 -44q-103 0 -198 38.5t-167 110.5q-33 33 -56 65t-38 76t-23.5 79.5t-12 103t-4.5 117.5t-1 151t1 151t4.5 117.5t12 103t23.5 79.5t38 76t56 65q72 72 167 110.5t198 38.5q134 0 232 -49t202 -153
l-74 -74q-94 94 -170 136t-190 42q-165 0 -277 -112q-74 -74 -93 -176t-19 -355q0 -252 19 -354t93 -176q110 -113 277 -113q87 0 167 36.5t136 104.5q47 58 67.5 126t20.5 163v131h-391v98h501v-237z" />
    <glyph glyph-name="i.ss01" horiz-adv-x="501" 
d="M303 0h-104v987h104v-987zM328 1395q0 -32 -22.5 -55t-53.5 -23q-32 0 -55 22.5t-23 53.5q0 32 22.5 54.5t53.5 22.5q32 0 55 -22t23 -53z" />
    <glyph glyph-name="j.ss01" horiz-adv-x="501" 
d="M303 -215q0 -119 -60 -187.5t-177 -68.5h-91v92h72q85 0 118.5 39.5t33.5 126.5v1200h104v-1202zM328 1395q0 -32 -22.5 -55t-53.5 -23q-32 0 -55 22.5t-23 53.5q0 32 22.5 54.5t53.5 22.5q32 0 55 -22t23 -53z" />
    <glyph glyph-name="exclamdown.ss01" horiz-adv-x="622" 
d="M338 -471h-115l13 1065h90zM362 911q0 -34 -23.5 -58t-57.5 -24t-58 24t-24 58t24 58t58 24t57.5 -24t23.5 -58z" />
    <glyph glyph-name="dieresis.ss01" horiz-adv-x="1024" 
d="M801 1307q0 -32 -22.5 -55t-53.5 -23q-32 0 -55 22.5t-23 53.5q0 32 22.5 54.5t53.5 22.5q32 0 55 -22t23 -53zM377 1307q0 -32 -22.5 -55t-53.5 -23q-32 0 -55 22.5t-23 53.5q0 32 22.5 54.5t53.5 22.5q32 0 55 -22t23 -53z" />
    <glyph glyph-name="periodcentered.ss01" horiz-adv-x="540" 
d="M365 532q0 -38 -28.5 -66t-66.5 -28t-66 28t-28 66t28 66.5t66 28.5t66.5 -28.5t28.5 -66.5z" />
    <glyph glyph-name="cedilla.ss01" horiz-adv-x="1024" 
d="M655 -272q0 -84 -56.5 -138.5t-147.5 -54.5v76q51 0 85.5 33.5t34.5 83.5q0 49 -34.5 82.5t-85.5 33.5v76q91 0 147.5 -54t56.5 -138z" />
    <glyph glyph-name="questiondown.ss01" horiz-adv-x="999" 
d="M836 -123q0 -149 -103.5 -254.5t-263.5 -105.5q-157 0 -262 103t-105 257q0 65 23 121.5t68 122.5l174 256q36 52 36 123v96h105v-92q0 -57 -13.5 -98t-45.5 -87l-173 -253q-36 -53 -52.5 -94t-16.5 -95q0 -114 75 -191t187 -77q117 0 189.5 78.5t72.5 189.5h105z
M539 911q0 -34 -24 -58t-58 -24t-58 24t-24 58t24 58t58 24t58 -24t24 -58z" />
    <glyph glyph-name="Adieresis.ss01" horiz-adv-x="1232" 
d="M1083 0l-127 354h-680l-126 -354h-119l536 1458h99l536 -1458h-119zM616 1311l-305 -858h611zM905 1696q0 -32 -22.5 -55t-53.5 -23q-32 0 -54.5 22.5t-22.5 53.5q0 32 22 55t53 23q32 0 55 -22.5t23 -53.5zM481 1696q0 -32 -22 -55t-53 -23q-32 0 -55 22.5t-23 53.5
q0 32 22 55t53 23q32 0 55 -22.5t23 -53.5z" />
    <glyph glyph-name="Ccedilla.ss01" horiz-adv-x="1220" 
d="M1079 170q-95 -90 -191.5 -136t-219.5 -46q-103 0 -198 38.5t-167 110.5q-33 33 -56 65t-38 76t-23.5 79.5t-12 103t-4.5 117.5t-1 151t1 151t4.5 117.5t12 103t23.5 79.5t38 76t56 65q72 72 167 110.5t198 38.5q123 0 219.5 -46t191.5 -136l-73 -74q-83 82 -157.5 120
t-180.5 38q-168 0 -277 -112q-74 -74 -93 -176t-19 -355q0 -252 19 -354t93 -176q110 -113 277 -113q106 0 180.5 38t157.5 120zM776 -272q0 -84 -57 -138.5t-148 -54.5v76q51 0 86 34t35 83t-35 82.5t-86 33.5v76q91 0 148 -54t57 -138z" />
    <glyph glyph-name="Edieresis.ss01" horiz-adv-x="1224" 
d="M225 0v1458h885v-98h-774v-576h659v-98h-659v-588h774v-98h-885zM932 1696q0 -32 -22.5 -55t-53.5 -23q-32 0 -55 22.5t-23 53.5q0 32 22.5 55t53.5 23q32 0 55 -22.5t23 -53.5zM508 1696q0 -32 -22.5 -55t-53.5 -23q-32 0 -55 22.5t-23 53.5q0 32 22.5 55t53.5 23
q32 0 55 -22.5t23 -53.5z" />
    <glyph glyph-name="Idieresis.ss01" horiz-adv-x="561" 
d="M225 0v1458h111v-1458h-111zM571 1696q0 -32 -22 -55t-53 -23q-32 0 -55 22.5t-23 53.5q0 32 22.5 55t53.5 23q32 0 54.5 -22.5t22.5 -53.5zM147 1696q0 -32 -22 -55t-53 -23q-32 0 -55 22.5t-23 53.5q0 32 22.5 55t53.5 23q32 0 54.5 -22.5t22.5 -53.5z" />
    <glyph glyph-name="Odieresis.ss01" horiz-adv-x="1335" 
d="M1167 729q0 -120 -1.5 -177.5t-8 -131.5t-20.5 -114.5t-39.5 -84.5t-65.5 -84q-149 -149 -364 -149q-104 0 -198.5 38.5t-166.5 110.5q-40 40 -65.5 84t-39.5 84.5t-20.5 114.5t-8 131.5t-1.5 177.5q0 101 1 151t4.5 117.5t12 103t23.5 79.5t38 76t56 65
q72 72 166.5 110.5t198.5 38.5q215 0 364 -149q33 -33 56 -65t38 -76t23.5 -79.5t12 -103t4.5 -117.5t1 -151zM1057 729q0 250 -19.5 353.5t-93.5 177.5q-112 112 -276 112q-165 0 -277 -112q-74 -74 -93 -177t-19 -354t19 -353.5t93 -176.5q113 -113 277 -113
q163 0 276 113q74 74 93.5 177t19.5 353zM956 1696q0 -32 -22 -55t-53 -23q-32 0 -55 22.5t-23 53.5q0 32 22.5 55t53.5 23q32 0 54.5 -22.5t22.5 -53.5zM532 1696q0 -32 -22 -55t-53 -23q-32 0 -55 22.5t-23 53.5q0 32 22.5 55t53.5 23q32 0 54.5 -22.5t22.5 -53.5z" />
    <glyph glyph-name="Udieresis.ss01" horiz-adv-x="1409" 
d="M1204 473q0 -214 -139.5 -349.5t-359.5 -135.5t-360 135.5t-140 349.5v985h110v-971q0 -182 106.5 -291.5t283.5 -109.5t283 109.5t106 291.5v971h110v-985zM993 1696q0 -32 -22 -55t-53 -23q-32 0 -55 22.5t-23 53.5q0 32 22 55t53 23q32 0 55 -22.5t23 -53.5zM569 1696
q0 -32 -22 -55t-53 -23q-32 0 -55 22.5t-23 53.5q0 32 22.5 55t53.5 23q32 0 54.5 -22.5t22.5 -53.5z" />
    <glyph glyph-name="adieresis.ss01" horiz-adv-x="1073" 
d="M778 0v98q-62 -62 -128.5 -86t-172.5 -24q-111 0 -177.5 20.5t-113.5 69.5q-71 71 -71 192q0 135 91 210t253 75h319v111q0 122 -65 181.5t-213 59.5q-103 0 -164 -28.5t-109 -96.5l-75 66q61 85 141.5 118t206.5 33q383 0 383 -323v-676h-105zM778 471h-307
q-252 0 -252 -199q0 -99 62 -145.5t196 -46.5q81 0 139 15t107 61q55 52 55 188v127zM799 1307q0 -32 -22.5 -55t-53.5 -23q-32 0 -55 22.5t-23 53.5q0 32 22.5 54.5t53.5 22.5q32 0 55 -22t23 -53zM375 1307q0 -32 -22.5 -55t-53.5 -23q-32 0 -55 22.5t-23 53.5
q0 32 22.5 54.5t53.5 22.5q32 0 55 -22t23 -53z" />
    <glyph glyph-name="ccedilla.ss01" horiz-adv-x="1009" 
d="M901 139q-76 -86 -149 -118.5t-177 -32.5q-202 0 -318 135.5t-116 370.5t116 370t318 135q104 0 177 -32.5t149 -118.5l-72 -66q-63 70 -119 97.5t-135 27.5q-174 0 -262 -131q-37 -54 -52 -118t-15 -164t15 -164.5t52 -118.5q88 -131 262 -131q78 0 134.5 28t119.5 97z
M655 -272q0 -84 -56.5 -138.5t-147.5 -54.5v76q51 0 85.5 33.5t34.5 83.5q0 49 -34.5 82.5t-85.5 33.5v76q91 0 147.5 -54t56.5 -138z" />
    <glyph glyph-name="edieresis.ss01" horiz-adv-x="1071" 
d="M932 471h-686q3 -82 10 -125t25 -84q73 -180 288 -180q79 0 140 24q32 13 58 32t73 63l78 -62q-53 -52 -87 -76t-79 -43q-74 -32 -187 -32q-209 0 -316.5 129.5t-107.5 382.5q0 233 105.5 366t290.5 133q184 0 289.5 -128.5t105.5 -352.5v-47zM827 555q-5 99 -18 141
q-29 99 -101 155t-171 56q-86 0 -154 -44.5t-102 -121.5q-30 -66 -35 -186h581zM829 1307q0 -32 -22 -55t-53 -23q-32 0 -55 22.5t-23 53.5q0 32 22.5 54.5t53.5 22.5q32 0 54.5 -22t22.5 -53zM406 1307q0 -32 -22.5 -55t-53.5 -23q-32 0 -55 22.5t-23 53.5q0 32 22.5 54.5
t53.5 22.5q32 0 55 -22t23 -53z" />
    <glyph glyph-name="idieresis.ss01" horiz-adv-x="501" 
d="M199 0v987h104v-987h-104zM549 1307q0 -32 -22.5 -55t-53.5 -23q-32 0 -55 22.5t-23 53.5q0 32 22.5 54.5t53.5 22.5q32 0 55 -22t23 -53zM125 1307q0 -32 -22.5 -55t-53.5 -23q-32 0 -55 22.5t-23 53.5q0 32 22.5 54.5t53.5 22.5q32 0 55 -22t23 -53z" />
    <glyph glyph-name="odieresis.ss01" horiz-adv-x="1077" 
d="M936 494q0 -275 -123 -398q-108 -108 -274 -108q-167 0 -275 108q-123 123 -123 398q0 274 123 397q108 108 275 108q166 0 274 -108q123 -123 123 -397zM831 494q0 112 -16.5 193t-71.5 136q-84 84 -204 84q-121 0 -205 -84q-55 -55 -71.5 -136t-16.5 -193t16.5 -193.5
t71.5 -136.5q84 -84 205 -84q120 0 204 84q55 55 71.5 136.5t16.5 193.5zM827 1307q0 -32 -22 -55t-53 -23q-32 0 -55 22.5t-23 53.5q0 32 22.5 54.5t53.5 22.5q32 0 54.5 -22t22.5 -53zM403 1307q0 -32 -22 -55t-53 -23q-32 0 -55 22.5t-23 53.5q0 32 22.5 54.5t53.5 22.5
q32 0 54.5 -22t22.5 -53z" />
    <glyph glyph-name="divide.ss01" 
d="M944 492h-835v96h835v-96zM621 887q0 -38 -28.5 -66t-66.5 -28t-66 28t-28 66t28 66t66 28t66.5 -28t28.5 -66zM621 193q0 -38 -28.5 -66.5t-66.5 -28.5t-66 28.5t-28 66.5t28 66t66 28t66.5 -28t28.5 -66z" />
    <glyph glyph-name="udieresis.ss01" horiz-adv-x="1144" 
d="M842 0v117q-111 -129 -291 -129q-164 0 -262 94q-103 100 -103 274v631h105v-612q0 -143 69.5 -219t202.5 -76t206 77t73 218v612h104v-987h-104zM854 1307q0 -32 -22.5 -55t-53.5 -23q-32 0 -55 22.5t-23 53.5q0 32 22.5 54.5t53.5 22.5q32 0 55 -22t23 -53zM430 1307
q0 -32 -22.5 -55t-53.5 -23q-32 0 -55 22.5t-23 53.5q0 32 22.5 54.5t53.5 22.5q32 0 55 -22t23 -53z" />
    <glyph glyph-name="ydieresis.ss01" horiz-adv-x="880" 
d="M393 -268q-28 -82 -67 -115q-66 -63 -187 -63h-49v92h39q56 0 89.5 14t52.5 41t38 80l80 219l-360 987h114l297 -864l297 864h115zM729 1307q0 -32 -22.5 -55t-53.5 -23q-32 0 -55 22.5t-23 53.5q0 32 22.5 54.5t53.5 22.5q32 0 55 -22t23 -53zM305 1307q0 -32 -22.5 -55
t-53.5 -23q-32 0 -54.5 22.5t-22.5 53.5q0 32 22 54.5t53 22.5q32 0 55 -22t23 -53z" />
    <glyph glyph-name="Aogonek.ss01" horiz-adv-x="1232" 
d="M1083 0l-127 354h-680l-126 -354h-119l536 1458h99l536 -1458h-119zM616 1311l-305 -858h611zM1186 -465q-91 0 -148 54.5t-57 138.5t57 138t148 54v-76q-51 0 -86 -33.5t-35 -82.5t35 -83t86 -34v-76z" />
    <glyph glyph-name="aogonek.ss01" horiz-adv-x="1073" 
d="M778 0v98q-62 -62 -128.5 -86t-172.5 -24q-111 0 -177.5 20.5t-113.5 69.5q-71 71 -71 192q0 135 91 210t253 75h319v111q0 122 -65 181.5t-213 59.5q-103 0 -164 -28.5t-109 -96.5l-75 66q61 85 141.5 118t206.5 33q383 0 383 -323v-676h-105zM778 471h-307
q-252 0 -252 -199q0 -99 62 -145.5t196 -46.5q81 0 139 15t107 61q55 52 55 188v127zM866 -465q-91 0 -147.5 54.5t-56.5 138.5t56.5 138t147.5 54v-76q-51 0 -86 -33.5t-35 -82.5t35 -83t86 -34v-76z" />
    <glyph glyph-name="Cacute.ss01" horiz-adv-x="1220" 
d="M1079 170q-95 -90 -191.5 -136t-219.5 -46q-103 0 -198 38.5t-167 110.5q-33 33 -56 65t-38 76t-23.5 79.5t-12 103t-4.5 117.5t-1 151t1 151t4.5 117.5t12 103t23.5 79.5t38 76t56 65q72 72 167 110.5t198 38.5q123 0 219.5 -46t191.5 -136l-73 -74q-83 82 -157.5 120
t-180.5 38q-168 0 -277 -112q-74 -74 -93 -176t-19 -355q0 -252 19 -354t93 -176q110 -113 277 -113q106 0 180.5 38t157.5 120zM655 1597h-118l198 301h137z" />
    <glyph glyph-name="Ccircumflex.ss01" horiz-adv-x="1220" 
d="M1079 170q-95 -90 -191.5 -136t-219.5 -46q-103 0 -198 38.5t-167 110.5q-33 33 -56 65t-38 76t-23.5 79.5t-12 103t-4.5 117.5t-1 151t1 151t4.5 117.5t12 103t23.5 79.5t38 76t56 65q72 72 167 110.5t198 38.5q123 0 219.5 -46t191.5 -136l-73 -74q-83 82 -157.5 120
t-180.5 38q-168 0 -277 -112q-74 -74 -93 -176t-19 -355q0 -252 19 -354t93 -176q110 -113 277 -113q106 0 180.5 38t157.5 120zM858 1597l-190 224l-191 -224h-117l252 301h111l252 -301h-117z" />
    <glyph glyph-name="Cdotaccent.ss01" horiz-adv-x="1220" 
d="M1079 170q-95 -90 -191.5 -136t-219.5 -46q-103 0 -198 38.5t-167 110.5q-33 33 -56 65t-38 76t-23.5 79.5t-12 103t-4.5 117.5t-1 151t1 151t4.5 117.5t12 103t23.5 79.5t38 76t56 65q72 72 167 110.5t198 38.5q123 0 219.5 -46t191.5 -136l-73 -74q-83 82 -157.5 120
t-180.5 38q-168 0 -277 -112q-74 -74 -93 -176t-19 -355q0 -252 19 -354t93 -176q110 -113 277 -113q106 0 180.5 38t157.5 120zM743 1700q0 -32 -22 -55t-53 -23q-32 0 -55 22.5t-23 53.5q0 32 22.5 55t53.5 23q32 0 54.5 -22.5t22.5 -53.5z" />
    <glyph glyph-name="cdotaccent.ss01" horiz-adv-x="1009" 
d="M901 139q-76 -86 -149 -118.5t-177 -32.5q-202 0 -318 135.5t-116 370.5t116 370t318 135q104 0 177 -32.5t149 -118.5l-72 -66q-63 70 -119 97.5t-135 27.5q-174 0 -262 -131q-37 -54 -52 -118t-15 -164t15 -164.5t52 -118.5q88 -131 262 -131q78 0 134.5 28t119.5 97z
M651 1331q0 -32 -22.5 -55t-53.5 -23q-32 0 -54.5 22.5t-22.5 53.5q0 32 22 55t53 23q32 0 55 -22.5t23 -53.5z" />
    <glyph glyph-name="Ccaron.ss01" horiz-adv-x="1220" 
d="M1079 170q-95 -90 -191.5 -136t-219.5 -46q-103 0 -198 38.5t-167 110.5q-33 33 -56 65t-38 76t-23.5 79.5t-12 103t-4.5 117.5t-1 151t1 151t4.5 117.5t12 103t23.5 79.5t38 76t56 65q72 72 167 110.5t198 38.5q123 0 219.5 -46t191.5 -136l-73 -74q-83 82 -157.5 120
t-180.5 38q-168 0 -277 -112q-74 -74 -93 -176t-19 -355q0 -252 19 -354t93 -176q110 -113 277 -113q106 0 180.5 38t157.5 120zM692 1597h-110l-252 301h116l191 -223l190 223h117z" />
    <glyph glyph-name="dcaron.ss01" horiz-adv-x="1105" 
d="M803 0v127q-62 -81 -130.5 -110t-162.5 -29q-76 0 -139.5 23.5t-102.5 62.5q-127 127 -127 420q0 292 127 419q39 39 102.5 62.5t139.5 23.5q94 0 162.5 -29t130.5 -110v598h104v-1458h-104zM803 494q0 69 -5.5 122.5t-23 110.5t-47.5 94.5t-81.5 61.5t-121.5 24
t-121.5 -24t-81 -61.5t-47 -94.5t-23 -110.5t-5.5 -122.5t5.5 -122.5t23 -111t47 -95t81 -61.5t121.5 -24t121.5 24t81.5 62t47.5 94.5t23 110.5t5.5 123zM1221 1196l-109 -115v377h109v-262z" />
    <glyph glyph-name="Edotaccent.ss01" horiz-adv-x="1224" 
d="M225 0v1458h885v-98h-774v-576h659v-98h-659v-588h774v-98h-885zM721 1700q0 -32 -22.5 -55t-53.5 -23q-32 0 -55 22.5t-23 53.5q0 32 22.5 55t53.5 23q32 0 55 -22.5t23 -53.5z" />
    <glyph glyph-name="edotaccent.ss01" horiz-adv-x="1071" 
d="M246 471q0 -190 81.5 -289.5t239.5 -99.5q86 0 147.5 27.5t125.5 91.5l78 -62q-79 -79 -159 -115t-198 -36q-204 0 -312 129.5t-108 376.5q0 239 105 372t291 133t290.5 -127t104.5 -354v-47h-686zM827 555q-4 60 -6 80.5t-8.5 48.5t-19.5 57q-32 78 -100.5 122
t-155.5 44t-155.5 -44t-100.5 -122q-18 -48 -24.5 -82t-10.5 -104h581zM610 1327q0 -32 -22 -55t-53 -23q-32 0 -55 22.5t-23 53.5q0 32 22 55t53 23q32 0 55 -22.5t23 -53.5z" />
    <glyph glyph-name="Eogonek.ss01" horiz-adv-x="1224" 
d="M225 0v1458h885v-98h-774v-576h659v-98h-659v-588h774v-98h-885zM1094 -465q-91 0 -148 54.5t-57 138.5t57 138t148 54v-76q-51 0 -86 -33.5t-35 -82.5t35 -83t86 -34v-76z" />
    <glyph glyph-name="eogonek.ss01" horiz-adv-x="1071" 
d="M246 471q0 -190 81.5 -289.5t239.5 -99.5q86 0 147.5 27.5t125.5 91.5l78 -62q-79 -79 -159 -115t-198 -36q-204 0 -312 129.5t-108 376.5q0 239 105 372t291 133t290.5 -127t104.5 -354v-47h-686zM827 555q-4 60 -6 80.5t-8.5 48.5t-19.5 57q-32 78 -100.5 122
t-155.5 44t-155.5 -44t-100.5 -122q-18 -48 -24.5 -82t-10.5 -104h581zM860 -465q-91 0 -148 54.5t-57 138.5t57 138t148 54v-76q-51 0 -86 -33.5t-35 -82.5t35 -83t86 -34v-76z" />
    <glyph glyph-name="Gcircumflex.ss01" horiz-adv-x="1327" 
d="M1169 508q0 -116 -27.5 -200t-90.5 -152q-72 -80 -172.5 -124t-210.5 -44q-103 0 -198 38.5t-167 110.5q-33 33 -56 65t-38 76t-23.5 79.5t-12 103t-4.5 117.5t-1 151t1 151t4.5 117.5t12 103t23.5 79.5t38 76t56 65q72 72 167 110.5t198 38.5q134 0 232 -49t202 -153
l-74 -74q-94 94 -170 136t-190 42q-165 0 -277 -112q-74 -74 -93 -176t-19 -355q0 -252 19 -354t93 -176q110 -113 277 -113q87 0 167 36.5t136 104.5q47 58 67.5 126t20.5 163v131h-391v98h501v-237zM858 1597l-190 224l-191 -224h-117l252 301h111l252 -301h-117z" />
    <glyph glyph-name="Gbreve.ss01" horiz-adv-x="1327" 
d="M1169 508q0 -116 -27.5 -200t-90.5 -152q-72 -80 -172.5 -124t-210.5 -44q-103 0 -198 38.5t-167 110.5q-33 33 -56 65t-38 76t-23.5 79.5t-12 103t-4.5 117.5t-1 151t1 151t4.5 117.5t12 103t23.5 79.5t38 76t56 65q72 72 167 110.5t198 38.5q134 0 232 -49t202 -153
l-74 -74q-94 94 -170 136t-190 42q-165 0 -277 -112q-74 -74 -93 -176t-19 -355q0 -252 19 -354t93 -176q110 -113 277 -113q87 0 167 36.5t136 104.5q47 58 67.5 126t20.5 163v131h-391v98h501v-237zM1006 1898q-14 -135 -95.5 -205.5t-242.5 -70.5t-242.5 70.5
t-95.5 205.5h92q12 -87 76.5 -135.5t169.5 -48.5t169 48.5t76 135.5h93z" />
    <glyph glyph-name="Gdotaccent.ss01" horiz-adv-x="1327" 
d="M1169 508q0 -116 -27.5 -200t-90.5 -152q-72 -80 -172.5 -124t-210.5 -44q-103 0 -198 38.5t-167 110.5q-33 33 -56 65t-38 76t-23.5 79.5t-12 103t-4.5 117.5t-1 151t1 151t4.5 117.5t12 103t23.5 79.5t38 76t56 65q72 72 167 110.5t198 38.5q134 0 232 -49t202 -153
l-74 -74q-94 94 -170 136t-190 42q-165 0 -277 -112q-74 -74 -93 -176t-19 -355q0 -252 19 -354t93 -176q110 -113 277 -113q87 0 167 36.5t136 104.5q47 58 67.5 126t20.5 163v131h-391v98h501v-237zM743 1700q0 -32 -22 -55t-53 -23q-32 0 -55 22.5t-23 53.5q0 32 22.5 55
t53.5 23q32 0 54.5 -22.5t22.5 -53.5z" />
    <glyph glyph-name="gdotaccent.ss01" horiz-adv-x="1105" 
d="M907 -55q0 -190 -107.5 -309t-295.5 -119q-106 0 -176 29.5t-150 101.5l70 69q65 -60 116.5 -84t139.5 -24q149 0 224 93.5t75 248.5v176q-62 -81 -130.5 -110t-162.5 -29q-76 0 -139.5 23.5t-102.5 62.5q-127 127 -127 420q0 292 127 419q39 39 102.5 62.5t139.5 23.5
q94 0 162.5 -29t130.5 -110v127h104v-1042zM803 494q0 69 -5.5 122.5t-23 110.5t-47.5 94.5t-81.5 61.5t-121.5 24t-121.5 -24t-81 -61.5t-47 -94.5t-23 -110.5t-5.5 -122.5t5.5 -122.5t23 -111t47 -95t81 -61.5t121.5 -24t121.5 24t81.5 62t47.5 94.5t23 110.5t5.5 123z
M600 1331q0 -32 -22.5 -55t-53.5 -23q-32 0 -55 22.5t-23 53.5q0 32 22.5 55t53.5 23q32 0 55 -22.5t23 -53.5z" />
    <glyph glyph-name="Gcommaaccent.ss01" horiz-adv-x="1327" 
d="M1169 508q0 -116 -27.5 -200t-90.5 -152q-72 -80 -172.5 -124t-210.5 -44q-103 0 -198 38.5t-167 110.5q-33 33 -56 65t-38 76t-23.5 79.5t-12 103t-4.5 117.5t-1 151t1 151t4.5 117.5t12 103t23.5 79.5t38 76t56 65q72 72 167 110.5t198 38.5q134 0 232 -49t202 -153
l-74 -74q-94 94 -170 136t-190 42q-165 0 -277 -112q-74 -74 -93 -176t-19 -355q0 -252 19 -354t93 -176q110 -113 277 -113q87 0 167 36.5t136 104.5q47 58 67.5 126t20.5 163v131h-391v98h501v-237zM795 -272q0 -84 -57 -138.5t-148 -54.5v76q51 0 86 34t35 83t-35 82.5
t-86 33.5v76q91 0 148 -54t57 -138z" />
    <glyph glyph-name="gcommaaccent.ss01" horiz-adv-x="1105" 
d="M907 -55q0 -190 -107.5 -309t-295.5 -119q-106 0 -176 29.5t-150 101.5l70 69q65 -60 116.5 -84t139.5 -24q149 0 224 93.5t75 248.5v176q-62 -81 -130.5 -110t-162.5 -29q-76 0 -139.5 23.5t-102.5 62.5q-127 127 -127 420q0 292 127 419q39 39 102.5 62.5t139.5 23.5
q94 0 162.5 -29t130.5 -110v127h104v-1042zM803 494q0 69 -5.5 122.5t-23 110.5t-47.5 94.5t-81.5 61.5t-121.5 24t-121.5 -24t-81 -61.5t-47 -94.5t-23 -110.5t-5.5 -122.5t5.5 -122.5t23 -111t47 -95t81 -61.5t121.5 -24t121.5 24t81.5 62t47.5 94.5t23 110.5t5.5 123z
M643 1124q-91 0 -148 54.5t-57 138.5t57 138t148 54v-75q-51 0 -86 -34t-35 -83t35 -83t86 -34v-76z" />
    <glyph glyph-name="Iogonek.ss01" horiz-adv-x="561" 
d="M225 0v1458h111v-1458h-111zM360 -465q-91 0 -147.5 54.5t-56.5 138.5t56.5 138t147.5 54v-76q-51 0 -85.5 -33.5t-34.5 -82.5q0 -50 34.5 -83.5t85.5 -33.5v-76z" />
    <glyph glyph-name="iogonek.ss01" horiz-adv-x="501" 
d="M303 0h-104v987h104v-987zM328 1395q0 -32 -22.5 -55t-53.5 -23q-32 0 -55 22.5t-23 53.5q0 32 22.5 54.5t53.5 22.5q32 0 55 -22t23 -53zM330 -453q-91 0 -148 54.5t-57 138.5t57 138t148 54v-75q-51 0 -86 -34t-35 -83t35 -83t86 -34v-76z" />
    <glyph glyph-name="Idotaccent.ss01" horiz-adv-x="561" 
d="M336 0h-111v1458h111v-1458zM356 1700q0 -32 -22 -55t-53 -23q-32 0 -55 22.5t-23 53.5q0 32 22.5 55t53.5 23q32 0 54.5 -22.5t22.5 -53.5z" />
    <glyph glyph-name="Kcommaaccent.ss01" horiz-adv-x="1320" 
d="M1153 0l-469 817l-348 -422v-395h-111v1458h111v-911l739 911h133l-450 -557l526 -901h-131zM815 -272q0 -84 -57 -138.5t-148 -54.5v76q51 0 86 34t35 83t-35 82.5t-86 33.5v76q91 0 148 -54t57 -138z" />
    <glyph glyph-name="kcommaaccent.ss01" horiz-adv-x="1079" 
d="M868 0l-340 543l-225 -260v-283h-104v1458h104v-1028l490 557h133l-326 -369l397 -618h-129zM662 -272q0 -84 -57 -138.5t-148 -54.5v76q51 0 86 34t35 83t-35 82.5t-86 33.5v76q91 0 148 -54t57 -138z" />
    <glyph glyph-name="Lcommaaccent.ss01" horiz-adv-x="1171" 
d="M225 0v1458h111v-1360h774v-98h-885zM786 -272q0 -84 -56.5 -138.5t-147.5 -54.5v76q51 0 85.5 33.5t34.5 83.5q0 49 -34.5 82.5t-85.5 33.5v76q91 0 147.5 -54t56.5 -138z" />
    <glyph glyph-name="lcommaaccent.ss01" horiz-adv-x="587" 
d="M432 0q-118 0 -177.5 67.5t-59.5 188.5v1202h104v-1200q0 -88 33.5 -127t118.5 -39h71v-92h-90zM483 -272q0 -84 -56.5 -138.5t-147.5 -54.5v76q51 0 85.5 33.5t34.5 83.5q0 49 -34.5 82.5t-85.5 33.5v76q91 0 147.5 -54t56.5 -138z" />
    <glyph glyph-name="Lcaron.ss01" horiz-adv-x="1171" 
d="M225 0v1458h111v-1360h774v-98h-885zM713 1196l-109 -115v377h109v-262z" />
    <glyph glyph-name="lcaron.ss01" horiz-adv-x="587" 
d="M432 0q-118 0 -177.5 67.5t-59.5 188.5v1202h104v-1200q0 -88 33.5 -127t118.5 -39h71v-92h-90zM612 1196l-108 -115v377h108v-262z" />
    <glyph glyph-name="Ncommaaccent.ss01" horiz-adv-x="1513" 
d="M1178 0l-842 1268v-1268h-111v1458h111l842 -1263v1263h110v-1458h-110zM846 -272q0 -84 -57 -138.5t-148 -54.5v76q51 0 86 34t35 83t-35 82.5t-86 33.5v76q91 0 148 -54t57 -138z" />
    <glyph glyph-name="ncommaaccent.ss01" horiz-adv-x="1144" 
d="M854 0v612q0 143 -69.5 219t-202.5 76t-206 -77t-73 -218v-612h-104v987h104v-117q111 129 291 129q164 0 262 -94q102 -99 102 -274v-631h-104zM719 -272q0 -84 -57 -138.5t-148 -54.5v76q51 0 86 34t35 83t-35 82.5t-86 33.5v76q91 0 148 -54t57 -138z" />
    <glyph glyph-name="Rcommaaccent.ss01" horiz-adv-x="1345" 
d="M1085 0l-348 672h-401v-672h-111v1458h555q185 0 301.5 -103t116.5 -288q0 -162 -90 -264t-246 -129l352 -674h-129zM1087 1065q0 147 -87 221t-234 74h-430v-590h430q147 0 234 74t87 221zM766 -272q0 -84 -57 -138.5t-148 -54.5v76q51 0 86 34t35 83t-35 82.5t-86 33.5
v76q91 0 148 -54t57 -138z" />
    <glyph glyph-name="rcommaaccent.ss01" horiz-adv-x="837" 
d="M754 829q-44 44 -84.5 61t-102.5 17q-122 0 -193 -87t-71 -212v-608h-104v987h104v-131q42 67 120.5 105t168.5 38q75 0 130 -21t107 -73zM385 -272q0 -84 -57 -138.5t-148 -54.5v76q51 0 86 34t35 83t-35 82.5t-86 33.5v76q91 0 148 -54t57 -138z" />
    <glyph glyph-name="Scedilla.ss01" horiz-adv-x="1202" 
d="M1081 391q0 -186 -131.5 -294.5t-359.5 -108.5q-159 0 -272 45.5t-214 146.5l78 78q97 -97 189 -134.5t225 -37.5q174 0 274.5 79.5t100.5 221.5q0 137 -80 205q-45 35 -85 51t-126 27l-170 26q-165 24 -260 107q-115 95 -115 268q0 185 121.5 292t331.5 107
q132 0 228 -36.5t192 -120.5l-72 -72q-71 67 -152 101t-202 34q-159 0 -248.5 -80.5t-89.5 -220.5q0 -127 75 -190q78 -66 218 -90l157 -25q100 -13 157 -35t103 -61q127 -105 127 -283zM717 -272q0 -84 -57 -138.5t-148 -54.5v76q51 0 86 34t35 83t-35 82.5t-86 33.5v76
q91 0 148 -54t57 -138z" />
    <glyph glyph-name="scedilla.ss01" horiz-adv-x="1011" 
d="M897 281q0 -135 -106 -214t-289 -79q-253 0 -400 141l72 72q115 -121 324 -121q297 0 297 201q0 77 -45 115.5t-144 49.5l-164 15q-297 24 -297 258q0 129 96.5 204.5t258.5 75.5q207 0 346 -104l-70 -70q-116 84 -276 84q-123 0 -187.5 -49t-64.5 -141q0 -77 48 -116
t153 -50l159 -14q67 -7 115 -20.5t90 -41.5t63 -77t21 -119zM612 -272q0 -84 -56.5 -138.5t-147.5 -54.5v76q51 0 85.5 33.5t34.5 83.5q0 49 -34.5 82.5t-85.5 33.5v76q91 0 147.5 -54t56.5 -138z" />
    <glyph glyph-name="Tcommaaccent.ss01" horiz-adv-x="1103" 
d="M606 1360v-1360h-110v1360h-435v98h981v-98h-436zM668 -272q0 -84 -57 -138.5t-148 -54.5v76q51 0 86 34t35 83t-35 82.5t-86 33.5v76q91 0 148 -54t57 -138z" />
    <glyph glyph-name="tcommaaccent.ss01" horiz-adv-x="665" 
d="M461 0q-114 0 -176 71t-62 187v651h-135v78h135v316h105v-316h223v-78h-223v-653q0 -164 151 -164h72v-92h-90zM485 -272q0 -84 -56.5 -138.5t-147.5 -54.5v76q51 0 85.5 33.5t34.5 83.5q0 49 -34.5 82.5t-85.5 33.5v76q91 0 147.5 -54t56.5 -138z" />
    <glyph glyph-name="tcaron.ss01" horiz-adv-x="665" 
d="M461 0q-114 0 -176 71t-62 187v651h-135v78h135v316h105v-316h223v-78h-223v-653q0 -164 151 -164h72v-92h-90zM621 1196l-109 -115v377h109v-262z" />
    <glyph glyph-name="Uogonek.ss01" horiz-adv-x="1409" 
d="M1204 473q0 -214 -139.5 -349.5t-359.5 -135.5t-360 135.5t-140 349.5v985h110v-971q0 -182 106.5 -291.5t283.5 -109.5t283 109.5t106 291.5v971h110v-985zM1079 -465q-91 0 -148 54.5t-57 138.5t57 138t148 54v-76q-51 0 -86 -33.5t-35 -82.5t35 -83t86 -34v-76z" />
    <glyph glyph-name="uogonek.ss01" horiz-adv-x="1144" 
d="M842 0v117q-111 -129 -291 -129q-164 0 -262 94q-103 100 -103 274v631h105v-612q0 -143 69.5 -219t202.5 -76t206 77t73 218v612h104v-987h-104zM930 -465q-91 0 -148 54.5t-57 138.5t57 138t148 54v-76q-51 0 -86 -33.5t-35 -82.5t35 -83t86 -34v-76z" />
    <glyph glyph-name="Ydieresis.ss01" horiz-adv-x="1011" 
d="M561 604v-604h-110v604l-431 854h119l371 -737l362 737h119zM795 1696q0 -32 -22.5 -55t-53.5 -23q-32 0 -55 22.5t-23 53.5q0 32 22.5 55t53.5 23q32 0 55 -22.5t23 -53.5zM371 1696q0 -32 -22.5 -55t-53.5 -23q-32 0 -55 22.5t-23 53.5q0 32 22.5 55t53.5 23
q32 0 55 -22.5t23 -53.5z" />
    <glyph glyph-name="Zdotaccent.ss01" horiz-adv-x="1144" 
d="M129 0v117l768 1243h-737v98h856v-98l-774 -1262h774v-98h-887zM645 1702q0 -32 -22.5 -55t-53.5 -23q-32 0 -54.5 22.5t-22.5 53.5q0 32 22 55t53 23q32 0 55 -22.5t23 -53.5z" />
    <glyph glyph-name="zdotaccent.ss01" horiz-adv-x="925" 
d="M111 0v98l594 797h-562v92h672v-98l-596 -797h596v-92h-704zM522 1331q0 -32 -22.5 -55t-53.5 -23q-32 0 -54.5 22.5t-22.5 53.5q0 32 22 55t53 23q32 0 55 -22.5t23 -53.5z" />
    <glyph glyph-name="Scommaaccent.ss01" horiz-adv-x="1202" 
d="M1081 391q0 -186 -131.5 -294.5t-359.5 -108.5q-159 0 -272 45.5t-214 146.5l78 78q97 -97 189 -134.5t225 -37.5q174 0 274.5 79.5t100.5 221.5q0 137 -80 205q-45 35 -85 51t-126 27l-170 26q-165 24 -260 107q-115 95 -115 268q0 185 121.5 292t331.5 107
q132 0 228 -36.5t192 -120.5l-72 -72q-71 67 -152 101t-202 34q-159 0 -248.5 -80.5t-89.5 -220.5q0 -127 75 -190q78 -66 218 -90l157 -25q100 -13 157 -35t103 -61q127 -105 127 -283zM717 -272q0 -84 -57 -138.5t-148 -54.5v76q51 0 86 34t35 83t-35 82.5t-86 33.5v76
q91 0 148 -54t57 -138z" />
    <glyph glyph-name="scommaaccent.ss01" horiz-adv-x="1011" 
d="M897 281q0 -135 -106 -214t-289 -79q-253 0 -400 141l72 72q115 -121 324 -121q297 0 297 201q0 77 -45 115.5t-144 49.5l-164 15q-297 24 -297 258q0 129 96.5 204.5t258.5 75.5q207 0 346 -104l-70 -70q-116 84 -276 84q-123 0 -187.5 -49t-64.5 -141q0 -77 48 -116
t153 -50l159 -14q67 -7 115 -20.5t90 -41.5t63 -77t21 -119zM612 -272q0 -84 -56.5 -138.5t-147.5 -54.5v76q51 0 85.5 33.5t34.5 83.5q0 49 -34.5 82.5t-85.5 33.5v76q91 0 147.5 -54t56.5 -138z" />
    <glyph glyph-name="uni021A.ss01" horiz-adv-x="1103" 
d="M606 1360v-1360h-110v1360h-435v98h981v-98h-436zM668 -272q0 -84 -57 -138.5t-148 -54.5v76q51 0 86 34t35 83t-35 82.5t-86 33.5v76q91 0 148 -54t57 -138z" />
    <glyph glyph-name="uni021B.ss01" horiz-adv-x="665" 
d="M461 0q-114 0 -176 71t-62 187v651h-135v78h135v316h105v-316h223v-78h-223v-653q0 -164 151 -164h72v-92h-90zM485 -272q0 -84 -56.5 -138.5t-147.5 -54.5v76q51 0 85.5 33.5t34.5 83.5q0 49 -34.5 82.5t-85.5 33.5v76q91 0 147.5 -54t56.5 -138z" />
    <glyph glyph-name="dotaccent.ss01" horiz-adv-x="1024" 
d="M590 1327q0 -32 -22.5 -55t-53.5 -23q-32 0 -55 22.5t-23 53.5q0 32 22.5 55t53.5 23q32 0 55 -22.5t23 -53.5z" />
    <glyph glyph-name="ogonek.ss01" horiz-adv-x="1024" 
d="M860 -465q-91 0 -148 54.5t-57 138.5t57 138t148 54v-76q-51 0 -86 -33.5t-35 -82.5t35 -83t86 -34v-76z" />
    <glyph glyph-name="tonos.ss01" horiz-adv-x="1024" 
d="M752 1509l-217 -301h-119l198 301h138z" />
    <glyph glyph-name="dieresistonos.ss01" horiz-adv-x="1044" 
d="M821 1307q0 -32 -22.5 -55t-53.5 -23q-32 0 -54.5 22.5t-22.5 53.5q0 32 22 54.5t53 22.5q32 0 55 -22t23 -53zM731 1509l-217 -301h-119l199 301h137zM377 1307q0 -32 -22.5 -55t-53.5 -23q-32 0 -55 22.5t-23 53.5q0 32 22.5 54.5t53.5 22.5q32 0 55 -22t23 -53z" />
    <glyph glyph-name="Alphatonos.ss01" horiz-adv-x="1232" 
d="M1202 0h-119l-127 354h-680l-126 -354h-119l536 1458h99zM922 453l-306 858l-305 -858h611zM254 1458l-217 -301h-119l199 301h137z" />
    <glyph glyph-name="anoteleia.ss01" horiz-adv-x="540" 
d="M365 532q0 -38 -28.5 -66t-66.5 -28t-66 28t-28 66t28 66.5t66 28.5t66.5 -28.5t28.5 -66.5z" />
    <glyph glyph-name="Epsilontonos.ss01" horiz-adv-x="1224" 
d="M1110 0h-885v1458h885v-98h-774v-576h659v-98h-659v-588h774v-98zM49 1458l-217 -301h-119l199 301h137z" />
    <glyph glyph-name="Etatonos.ss01" horiz-adv-x="1431" 
d="M1206 0h-110v686h-760v-686h-111v1458h111v-674h760v674h110v-1458zM49 1458l-217 -301h-119l199 301h137z" />
    <glyph glyph-name="Iotatonos.ss01" horiz-adv-x="561" 
d="M336 0h-111v1458h111v-1458zM49 1458l-217 -301h-119l199 301h137z" />
    <glyph glyph-name="Omicrontonos.ss01" horiz-adv-x="1335" 
d="M1167 729q0 -120 -1.5 -177.5t-8 -131.5t-20.5 -114.5t-39.5 -84.5t-65.5 -84q-149 -149 -364 -149q-104 0 -198.5 38.5t-166.5 110.5q-40 40 -65.5 84t-39.5 84.5t-20.5 114.5t-8 131.5t-1.5 177.5q0 101 1 151t4.5 117.5t12 103t23.5 79.5t38 76t56 65
q72 72 166.5 110.5t198.5 38.5q215 0 364 -149q33 -33 56 -65t38 -76t23.5 -79.5t12 -103t4.5 -117.5t1 -151zM1057 729q0 250 -19.5 353.5t-93.5 177.5q-112 112 -276 112q-165 0 -277 -112q-74 -74 -93 -177t-19 -354t19 -353.5t93 -176.5q113 -113 277 -113
q163 0 276 113q74 74 93.5 177t19.5 353zM131 1458l-217 -301h-119l199 301h137z" />
    <glyph glyph-name="Upsilontonos.ss01" horiz-adv-x="1011" 
d="M991 1458l-430 -854v-604h-110v604l-431 854h119l371 -737l362 737h119zM-12 1458l-217 -301h-119l198 301h138z" />
    <glyph glyph-name="Omegatonos.ss01" horiz-adv-x="1335" 
d="M1167 0h-381v96q76 37 126.5 77.5t88.5 102.5q35 58 45.5 161t10.5 292q0 251 -19.5 354t-93.5 177q-112 112 -276 112q-165 0 -277 -112q-74 -74 -93 -176t-19 -355q0 -192 10 -293.5t45 -159.5q38 -62 88.5 -102.5t126.5 -77.5v-96h-381v96h186q-84 68 -127 146
q-11 20 -19.5 41.5t-14.5 49t-10.5 48.5t-7 56t-4.5 54t-2.5 60t-0.5 57v62v59q0 101 1 151t4.5 117.5t12 103t23.5 79.5t38 76t56 65q72 72 167 110.5t198 38.5t197.5 -38.5t166.5 -110.5q33 -33 56 -65t38 -76t23.5 -79.5t12 -103t4.5 -117.5t1 -151v-59v-62t-0.5 -57
t-2.5 -60t-4.5 -54t-7 -56t-10.5 -48.5t-14.5 -49t-19.5 -41.5q-43 -78 -127 -146h186v-96zM131 1458l-217 -301h-119l199 301h137z" />
    <glyph glyph-name="iotadieresistonos.ss01" horiz-adv-x="587" 
d="M522 0h-90q-118 0 -177.5 67.5t-59.5 188.5v731h104v-729q0 -88 33.5 -127t118.5 -39h71v-92zM575 1307q0 -32 -22 -55t-53 -23q-32 0 -55 22.5t-23 53.5q0 32 22.5 54.5t53.5 22.5q32 0 54.5 -22t22.5 -53zM485 1509l-217 -301h-118l198 301h137zM131 1307
q0 -32 -22.5 -55t-53.5 -23q-32 0 -55 22.5t-23 53.5q0 32 22.5 54.5t53.5 22.5q32 0 55 -22t23 -53z" />
    <glyph glyph-name="Xi.ss01" horiz-adv-x="1114" 
d="M999 1360h-884v98h884v-98zM885 686h-656v98h656v-98zM999 0h-884v98h884v-98z" />
    <glyph glyph-name="Iotadieresis.ss01" horiz-adv-x="561" 
d="M336 0h-111v1458h111v-1458zM571 1696q0 -32 -22 -55t-53 -23q-32 0 -55 22.5t-23 53.5q0 32 22.5 55t53.5 23q32 0 54.5 -22.5t22.5 -53.5zM147 1696q0 -32 -22 -55t-53 -23q-32 0 -55 22.5t-23 53.5q0 32 22.5 55t53.5 23q32 0 54.5 -22.5t22.5 -53.5z" />
    <glyph glyph-name="Upsilondieresis.ss01" horiz-adv-x="1011" 
d="M991 1458l-430 -854v-604h-110v604l-431 854h119l371 -737l362 737h119zM795 1696q0 -32 -22.5 -55t-53.5 -23q-32 0 -55 22.5t-23 53.5q0 32 22.5 55t53.5 23q32 0 55 -22.5t23 -53.5zM371 1696q0 -32 -22.5 -55t-53.5 -23q-32 0 -55 22.5t-23 53.5q0 32 22.5 55
t53.5 23q32 0 55 -22.5t23 -53.5z" />
    <glyph glyph-name="alphatonos.ss01" horiz-adv-x="1105" 
d="M907 0h-104v127q-62 -81 -130.5 -110t-162.5 -29q-76 0 -139.5 23.5t-102.5 62.5q-127 127 -127 420q0 292 127 419q39 39 102.5 62.5t139.5 23.5q94 0 162.5 -29t130.5 -110v127h104v-987zM803 494q0 69 -5.5 122.5t-23 110.5t-47.5 94.5t-81.5 61.5t-121.5 24
t-121.5 -24t-81 -61.5t-47 -94.5t-23 -110.5t-5.5 -122.5t5.5 -122.5t23 -111t47 -95t81 -61.5t121.5 -24t121.5 24t81.5 62t47.5 94.5t23 110.5t5.5 123zM772 1509l-217 -301h-119l199 301h137z" />
    <glyph glyph-name="epsilontonos.ss01" horiz-adv-x="1007" 
d="M895 139q-88 -88 -183.5 -119.5t-219.5 -31.5q-154 0 -253.5 73t-99.5 205q0 91 40 145.5t128 90.5q-147 58 -147 221q0 125 101 200.5t243 75.5q252 0 389 -151l-70 -68q-122 129 -317 129q-87 0 -160.5 -52t-73.5 -136q0 -172 197 -172h168v-90h-168q-217 0 -217 -193
q0 -87 69.5 -137.5t165.5 -50.5q41 0 72.5 3t79.5 13.5t95 38t89 70.5zM772 1509l-217 -301h-119l199 301h137z" />
    <glyph glyph-name="etatonos.ss01" horiz-adv-x="1144" 
d="M958 0h-104v612q0 143 -69.5 219t-202.5 76t-206 -77t-73 -218v-612h-104v987h104v-117q111 129 291 129q164 0 262 -94q102 -99 102 -274v-631zM813 1509l-217 -301h-119l199 301h137z" />
    <glyph glyph-name="iotatonos.ss01" horiz-adv-x="587" 
d="M522 0h-90q-118 0 -177.5 67.5t-59.5 188.5v731h104v-729q0 -88 33.5 -127t118.5 -39h71v-92zM526 1509l-217 -301h-119l199 301h137z" />
    <glyph glyph-name="upsilondieresistonos.ss01" horiz-adv-x="1038" 
d="M895 483q0 -131 -21.5 -224t-91.5 -163q-108 -108 -264 -108t-264 108q-70 70 -90.5 162t-20.5 225v504h103v-504v-15q0 -56 1.5 -86t8 -75.5t23.5 -80t45 -62.5q84 -84 194 -84q111 0 195 84q28 28 45 62.5t23.5 80t8 75.5t1.5 86v15v504h104v-504zM811 1307
q0 -32 -22.5 -55t-53.5 -23q-32 0 -55 22.5t-23 53.5q0 32 22.5 54.5t53.5 22.5q32 0 55 -22t23 -53zM721 1509l-217 -301h-119l199 301h137zM367 1307q0 -32 -22.5 -55t-53.5 -23q-32 0 -55 22.5t-23 53.5q0 32 22.5 54.5t53.5 22.5q32 0 55 -22t23 -53z" />
    <glyph glyph-name="pi.ss01" horiz-adv-x="1210" 
d="M985 0h-98v895h-563v-895h-99v987h760v-987z" />
    <glyph glyph-name="phi.ss01" horiz-adv-x="1323" 
d="M1188 494q0 -82 -14.5 -154t-50 -138t-89 -112.5t-136 -74t-187.5 -27.5v-459h-105v459q-105 0 -187.5 27.5t-136 74t-89 112.5t-50 138t-14.5 154t14.5 154t50 137.5t89 112t136 74t187.5 27.5v459h105v-459q105 0 187.5 -27.5t136 -74t89 -112t50 -137.5t14.5 -154z
M1083 494q0 65 -10 121.5t-36 111.5t-67 93.5t-107.5 62.5t-151.5 24v-827q85 0 151.5 24t107.5 63t67 94t36 111.5t10 121.5zM606 80v827q-85 0 -151.5 -24t-107.5 -62.5t-67.5 -93.5t-36.5 -111.5t-10 -121.5t10 -121.5t36.5 -111.5t67.5 -94t107.5 -63t151.5 -24z" />
    <glyph glyph-name="psi.ss01" horiz-adv-x="1257" 
d="M1114 494q0 -256 -99.5 -375t-334.5 -129v-461h-105v461q-235 10 -333.5 128.5t-98.5 375.5v493h103v-493q0 -111 14.5 -183.5t52 -124t100.5 -75.5t162 -29v1376h105v-1376q99 5 163 29.5t101 76.5t51.5 124t14.5 182v493h104v-493z" />
    <glyph glyph-name="iotadieresis.ss01" horiz-adv-x="587" 
d="M522 0h-90q-118 0 -177.5 67.5t-59.5 188.5v731h104v-729q0 -88 33.5 -127t118.5 -39h71v-92zM549 1307q0 -32 -22.5 -55t-53.5 -23q-32 0 -55 22.5t-23 53.5q0 32 22.5 54.5t53.5 22.5q32 0 55 -22t23 -53zM125 1307q0 -32 -22.5 -55t-53.5 -23q-32 0 -55 22.5t-23 53.5
q0 32 22.5 54.5t53.5 22.5q32 0 55 -22t23 -53z" />
    <glyph glyph-name="upsilondieresis.ss01" horiz-adv-x="1038" 
d="M895 483q0 -131 -21.5 -224t-91.5 -163q-108 -108 -264 -108t-264 108q-70 70 -90.5 162t-20.5 225v504h103v-504v-15q0 -56 1.5 -86t8 -75.5t23.5 -80t45 -62.5q84 -84 194 -84q111 0 195 84q28 28 45 62.5t23.5 80t8 75.5t1.5 86v15v504h104v-504zM813 1307
q0 -32 -22.5 -55t-53.5 -23q-32 0 -55 22.5t-23 53.5q0 32 22.5 54.5t53.5 22.5q32 0 55 -22t23 -53zM389 1307q0 -32 -22.5 -55t-53.5 -23q-32 0 -54.5 22.5t-22.5 53.5q0 32 22 54.5t53 22.5q32 0 55 -22t23 -53z" />
    <glyph glyph-name="omicrontonos.ss01" horiz-adv-x="1077" 
d="M936 494q0 -275 -123 -398q-108 -108 -274 -108q-167 0 -275 108q-123 123 -123 398q0 274 123 397q108 108 275 108q166 0 274 -108q123 -123 123 -397zM831 494q0 112 -16.5 193t-71.5 136q-84 84 -204 84q-121 0 -205 -84q-55 -55 -71.5 -136t-16.5 -193t16.5 -193.5
t71.5 -136.5q84 -84 205 -84q120 0 204 84q55 55 71.5 136.5t16.5 193.5zM793 1509l-218 -301h-118l198 301h138z" />
    <glyph glyph-name="upsilontonos.ss01" horiz-adv-x="1038" 
d="M895 483q0 -131 -21.5 -224t-91.5 -163q-108 -108 -264 -108t-264 108q-70 70 -90.5 162t-20.5 225v504h103v-504v-15q0 -56 1.5 -86t8 -75.5t23.5 -80t45 -62.5q84 -84 194 -84q111 0 195 84q28 28 45 62.5t23.5 80t8 75.5t1.5 86v15v504h104v-504zM772 1509l-217 -301
h-119l199 301h137z" />
    <glyph glyph-name="omegatonos.ss01" horiz-adv-x="1441" 
d="M1300 477q0 -232 -73 -354q-82 -135 -254 -135q-88 0 -158 60.5t-94 148.5q-24 -88 -94 -148.5t-158 -60.5q-172 0 -254 135q-74 124 -74 354q0 103 27.5 210t69.5 163q104 136 225 149v-92q-46 -8 -91.5 -48t-68.5 -83q-32 -59 -45.5 -121t-13.5 -178q0 -59 1.5 -97.5
t14.5 -100.5t37 -101q26 -44 71 -71t101 -27q39 0 70.5 14.5t52 36.5t35.5 56.5t22.5 65.5t12 72t5.5 68t1 62v262h106v-262q0 -35 1 -62t5.5 -68t12 -72t22.5 -65.5t35.5 -56.5t52 -36.5t70.5 -14.5q56 0 101 27t71 71q24 39 37 101t14.5 100.5t1.5 97.5q0 116 -13.5 178
t-45.5 121q-23 43 -68.5 83t-91.5 48v92q121 -13 225 -149q42 -56 69 -163t27 -210zM997 1509l-217 -301h-118l198 301h137z" />
    <glyph glyph-name="beta1.ss01" horiz-adv-x="1105" 
d="M1006 403q0 -169 -106 -292t-257 -123q-47 0 -74.5 1.5t-67.5 9t-69.5 21.5t-64 41.5t-66.5 67.5v-129h-102v1102q0 154 102 255t266 101t263.5 -87t99.5 -249q0 -53 -9.5 -102.5t-31.5 -101t-66 -89t-106 -49.5q141 -17 215 -113t74 -264zM905 410q0 83 -20.5 143.5
t-52.5 95t-81 54.5t-94.5 26t-105.5 6h-125v78h129q276 0 276 287q0 140 -73 207t-187 67q-134 0 -201 -85.5t-67 -225.5v-653q0 -64 17 -122t51 -106.5t92.5 -77t134.5 -28.5q79 0 140 29.5t96.5 78.5t53 106.5t17.5 119.5z" />
    <glyph glyph-name="afii10023.ss01" horiz-adv-x="1224" 
d="M1110 0h-885v1458h885v-98h-774v-576h659v-98h-659v-588h774v-98zM932 1696q0 -32 -22.5 -55t-53.5 -23q-32 0 -55 22.5t-23 53.5q0 32 22.5 55t53.5 23q32 0 55 -22.5t23 -53.5zM508 1696q0 -32 -22.5 -55t-53.5 -23q-32 0 -55 22.5t-23 53.5q0 32 22.5 55t53.5 23
q32 0 55 -22.5t23 -53.5z" />
    <glyph glyph-name="afii10053.ss01" horiz-adv-x="1220" 
d="M1081 170q-105 -95 -194 -138.5t-213 -43.5q-214 0 -369 149q-37 36 -62 77t-39.5 85.5t-22 114t-9.5 136.5t-2 179v45q0 84 0.5 124t4.5 102.5t12 96.5t23 78.5t38.5 78.5t56.5 67q72 72 167 110.5t200 38.5q121 0 215.5 -45.5t193.5 -136.5l-73 -74q-85 82 -158.5 120
t-175.5 38q-133 0 -243.5 -82t-131.5 -211q-16 -110 -18 -295h604v-98h-604v-57q0 -75 2 -118.5t12 -108t34 -114t64 -89.5q113 -113 281 -113q102 0 175.5 38t158.5 120z" />
    <glyph glyph-name="afii10056.ss01" horiz-adv-x="561" 
d="M336 0h-111v1458h111v-1458zM569 1696q0 -32 -22 -55t-53 -23q-32 0 -55 22.5t-23 53.5q0 32 22.5 55t53.5 23q32 0 54.5 -22.5t22.5 -53.5zM145 1696q0 -32 -22 -55t-53 -23q-32 0 -55 22.5t-23 53.5q0 32 22.5 55t53.5 23q32 0 54.5 -22.5t22.5 -53.5z" />
    <glyph glyph-name="afii10058.ss01" horiz-adv-x="2123" 
d="M1925 420q0 154 -89.5 237.5t-252.5 83.5h-416v-643h416q163 0 252.5 84t89.5 238zM399 1458h768v-618h428q200 0 320.5 -115t120.5 -305t-120.5 -305t-320.5 -115h-538v1360h-551q0 -253 -9 -448.5t-25.5 -339t-45 -245t-61.5 -165t-81 -100t-97.5 -49.5t-116.5 -13h-60
v98h37q52 0 88 9.5t75.5 42t66 91t51.5 159t39.5 243.5t23 347t8.5 468z" />
    <glyph glyph-name="afii10061.ss01" horiz-adv-x="1339" 
d="M336 686v-686h-111v1458h111v-674h264q53 0 100 34t74 75.5t45 87.5l117 293q41 102 93.5 143t150.5 41h37v-96h-15q-81 0 -112.5 -29t-65.5 -114l-117 -295q-28 -69 -78.5 -119.5t-93.5 -59.5q77 -1 123 -49t82 -135l131 -309q22 -53 34.5 -76.5t32.5 -44.5t45 -27
t66 -6h37v-98h-65q-100 0 -149 43.5t-95 151.5l-150 354q-27 62 -74.5 99.5t-103.5 37.5h-313zM662 1597h-119l198 301h138z" />
    <glyph glyph-name="afii10021.ss01" horiz-adv-x="1392" 
d="M1311 -369h-111v369h-1048v-369h-111v467h133q74 117 113 253t60.5 400.5t21.5 706.5h768v-1360h174v-467zM1026 98v1262h-553q0 -394 -19.5 -638.5t-55.5 -379.5t-101 -244h729z" />
    <glyph glyph-name="afii10024.ss01" horiz-adv-x="1951" 
d="M1030 0h-110v686h-232q-56 0 -103.5 -37.5t-74.5 -99.5l-150 -354q-30 -73 -56.5 -111.5t-71.5 -61t-115 -22.5h-66v98h37q45 0 66 2.5t40.5 18.5t31 38.5t32.5 73.5l139 330q38 88 83.5 135.5t121.5 48.5q-43 9 -93.5 59.5t-78.5 119.5l-117 295q-18 45 -29 66.5t-31 42
t-47.5 27.5t-70.5 7h-14v96h37q98 0 150 -41t93 -143l117 -293q14 -34 33 -65.5t46.5 -62.5t64 -50t75.5 -19h183v674h110v-674h184q76 0 133.5 61t86.5 136l116 293q41 102 93.5 143t150.5 41h37v-96h-14q-81 0 -112.5 -27t-66.5 -116l-116 -295q-28 -69 -78.5 -119.5
t-93.5 -59.5q41 -1 73.5 -15t56.5 -41.5t40.5 -56.5t33.5 -71l144 -340q14 -32 20 -45t20 -32.5t28.5 -26.5t39 -13t58.5 -6h37v-98h-66q-100 0 -149 43.5t-95 151.5l-149 354q-27 62 -74.5 99.5t-103.5 37.5h-234v-686z" />
    <glyph glyph-name="afii10025.ss01" horiz-adv-x="1202" 
d="M1034 393q0 -122 -63 -215t-170.5 -141.5t-241.5 -48.5q-153 0 -254.5 42t-208.5 150l78 78q102 -97 184 -134.5t213 -37.5q153 0 253 84t100 227q0 150 -83.5 224.5t-240.5 74.5h-162v99h168q140 0 216.5 75.5t76.5 216.5q0 136 -88 210.5t-238 74.5q-108 0 -193 -32
t-167 -103l-66 72q102 85 199.5 123t226.5 38q192 0 314.5 -104t122.5 -276q0 -246 -219 -338q243 -82 243 -359z" />
    </font>
</defs>
</svg>
