<?xml version="1.0" encoding="utf-8"?>
<!-- Generator: Adobe Illustrator 25.4.1, SVG Export Plug-In . SVG Version: 6.00 Build 0)  -->
<svg version="1.1" id="Layer_1" xmlns="http://www.w3.org/2000/svg" xmlns:xlink="http://www.w3.org/1999/xlink" x="0px" y="0px"
	 viewBox="0 0 434 356" style="enable-background:new 0 0 434 356;" xml:space="preserve">
<g>
	<path class="st0" d="M415,129.25337c0,47.33333,0,94.66667,0,141.99998c-0.75751,3.55304-1.37424,7.14297-2.29459,10.65332
		c-8.06671,30.76794-35.11902,55.96323-73.74423,55.9823c-81.29391,0.0401-162.58871,0.22397-243.88141-0.09546
		c-31.63032-0.1243-55.20238-14.59171-69.03703-43.31082C22.57311,287.28009,21.2887,279.02484,19,271.25336
		c0-55.66666,0-111.33331,0-167c0.29031-0.91826,0.67359-1.81837,0.85709-2.75749
		c3.06251-15.67317,11.8982-26.74081,26.27024-33.67035c1.62224-0.78217,3.03748-3.28806,3.38205-5.20442
		c1.59496-8.87039,6.53054-13.83949,15.42774-14.08077c9.99004-0.27094,19.99332-0.1061,29.99035-0.048
		c6.00001,0.03487,10.61533,2.75427,13.52935,7.94345c1.17493,2.09228,1.63164,4.58788,2.4843,7.10381
		c7.62775,0,15.12231-0.16225,22.60426,0.07466c3.29327,0.10428,5.0712-1.03316,6.63396-3.92338
		c5.06541-9.36818,10.72592-18.42023,15.63861-27.86383c5.15387-9.90724,13.19983-13.92144,24.01018-13.80246
		c13.82835,0.15219,27.65968,0.03153,41.48973,0.03234c21.32826,0.00124,42.65656,0.01134,63.9848,0.00652
		c10.34335-0.00234,18.289,3.85337,23.19955,13.4599c3.63324,7.10765,8.50208,13.63838,11.62714,20.93706
		c3.76703,8.79784,9.21634,11.40963,18.9303,11.40694c31.85464-0.00883,55.42438,14.71432,69.24957,43.66408
		C411.53906,114.2947,412.82156,121.98797,415,129.25337z M124.85342,185.48524
		c0.01095,59.37042,48.11108,107.53871,107.38474,107.53691c59.21777-0.0018,107.42914-48.19173,107.53107-107.48328
		c0.10178-59.19935-48.09549-107.37093-107.48965-107.43237C172.89986,78.04509,124.84246,126.08126,124.85342,185.48524z
		 M80.06107,116.99772c12.42531-0.07721,22.84483-10.68318,22.6966-23.10275c-0.14709-12.32644-10.36045-22.5142-22.65661-22.59985
		C67.60264,71.20805,57.17428,81.57899,57.15735,94.1125C57.14046,106.61073,67.61327,117.07508,80.06107,116.99772z"/>
	<path class="st0" d="M305.46957,185.64349c-0.21594,40.73163-33.3685,73.64261-73.6095,73.07315
		c-40.93875-0.57935-73.20174-33.27762-72.87474-73.858c0.32411-40.22395,33.45422-72.88979,73.65254-72.6204
		C273.01538,112.50881,305.68277,145.43346,305.46957,185.64349z"/>
</g>
</svg>
