<svg xmlns="http://www.w3.org/2000/svg" xmlns:xlink="http://www.w3.org/1999/xlink" width="16.984" height="32.703" viewBox="0 0 16.984 32.703">
  <defs>
    <style>
      .cls-1, .cls-2 {

      }

      .cls-1 {
        clip-rule: evenodd;
      }

      .cls-3 {
        clip-path: url(#clip-path);
      }

      .cls-4 {
        clip-path: url(#clip-path-2);
      }
    </style>
    <clipPath id="clip-path">
      <path id="Path_270" data-name="Path 270" class="cls-1" d="M16.984-13.551v-5.193c-.271-.03-.819-.076-1.649-.135s-1.767-.093-2.825-.093a7.514,7.514,0,0,0-5.418,1.989,7.514,7.514,0,0,0-2.078,5.692V-7H0v5.828H5.015V13.73h6.006V-1.176h5.015L16.76-7H11.021v-3.7a3.577,3.577,0,0,1,.542-2.055q.545-.788,2.349-.79Z" transform="translate(0 18.973)"/>
    </clipPath>
    <clipPath id="clip-path-2">
      <path id="Path_269" data-name="Path 269" class="cls-2" d="M-936,915.211H2479.486V-1006H-936Z" transform="translate(936 1006)"/>
    </clipPath>
  </defs>
  <g id="Group_770" data-name="Group 770" class="cls-3" transform="translate(0 0)">
    <g id="Group_769" data-name="Group 769" class="cls-4" transform="translate(-1665.049 -1755.822)">
      <path id="Path_268" data-name="Path 268" class="cls-2" d="M-5-23.973H29.773V26.519H-5Z" transform="translate(1661.155 1770.9)"/>
    </g>
  </g>
</svg>
