<svg xmlns="http://www.w3.org/2000/svg" xmlns:xlink="http://www.w3.org/1999/xlink" width="32.02" height="32.02" viewBox="0 0 32.02 32.02">
  <defs>
    <style>
      .cls-1, .cls-2 {

      }

      .cls-1 {
        clip-rule: evenodd;
      }

      .cls-3 {
        clip-path: url(#clip-path);
      }

      .cls-4 {
        clip-path: url(#clip-path-2);
      }
    </style>
    <clipPath id="clip-path">
      <path id="Path_276" data-name="Path 276" class="cls-1" d="M97.568,5.733A7.3,7.3,0,0,1,90.28,13.02H72.838a7.3,7.3,0,0,1-7.29-7.288V-11.71A7.3,7.3,0,0,1,72.838-19H90.28a7.3,7.3,0,0,1,7.288,7.29ZM81.556,3.64a6.637,6.637,0,0,1-6.629-6.629,6.637,6.637,0,0,1,6.629-6.629,6.637,6.637,0,0,1,6.632,6.629A6.637,6.637,0,0,1,81.556,3.64Zm0-16.742A10.124,10.124,0,0,0,71.446-2.989a10.121,10.121,0,0,0,10.11,10.11A10.124,10.124,0,0,0,91.669-2.989,10.126,10.126,0,0,0,81.556-13.1Zm9.269-3.371a2.536,2.536,0,0,0-1.785.741,2.537,2.537,0,0,0-.741,1.788,2.559,2.559,0,0,0,.741,1.788,2.54,2.54,0,0,0,1.785.739,2.558,2.558,0,0,0,1.791-.739,2.561,2.561,0,0,0,.739-1.788,2.547,2.547,0,0,0-.739-1.788A2.544,2.544,0,0,0,90.825-16.472Z" transform="translate(-65.548 19)"/>
    </clipPath>
    <clipPath id="clip-path-2">
      <path id="Path_275" data-name="Path 275" class="cls-2" d="M-936,915.211H2479.486V-1006H-936Z" transform="translate(936 1006)"/>
    </clipPath>
  </defs>
  <g id="Group_774" data-name="Group 774" class="cls-3" transform="translate(0 0)">
    <g id="Group_773" data-name="Group 773" class="cls-4" transform="translate(-1781.652 -1755.773)">
      <path id="Path_274" data-name="Path 274" class="cls-2" d="M60.548-24h49.809V25.809H60.548Z" transform="translate(1712.21 1770.879)"/>
    </g>
  </g>
</svg>
