<svg id="touch" xmlns="http://www.w3.org/2000/svg" width="45" height="45" viewBox="0 0 45 45">
  <g id="Ellipse_88" data-name="Ellipse 88" fill="#fff" stroke="#838e65" stroke-width="2">
    <circle cx="22.5" cy="22.5" r="22.5" stroke="none"/>
    <circle cx="22.5" cy="22.5" r="21.5" fill="none"/>
  </g>
  <g id="arrows" transform="translate(-519 -1384)">
    <path id="Path_1357" data-name="Path 1357" d="M0,0,4.257,3.959,8,0" transform="translate(554.5 1410.5) rotate(-90)" fill="none" stroke="#838e65" stroke-linecap="round" stroke-linejoin="round" stroke-width="2"/>
    <path id="Path_1358" data-name="Path 1358" d="M0,3.958,4.257,0,8,3.958" transform="translate(524.5 1410.5) rotate(-90)" fill="none" stroke="#838e65" stroke-linecap="round" stroke-linejoin="round" stroke-width="2"/>
  </g>
  <g id="hand" transform="translate(-7876 -1480)">
    <path id="Path_1356" data-name="Path 1356" d="M14.729,42.248H14.7a1.663,1.663,0,0,0-1.121.426,1.748,1.748,0,0,0-1.623-1.184,1.684,1.684,0,0,0-1.2.517,1.723,1.723,0,0,0-1.537-.983H9.183a1.578,1.578,0,0,0-.99.33V37.178a1.792,1.792,0,0,0-1.741-1.83,1.789,1.789,0,0,0-1.737,1.829l-.008,8.286-.469-.569a2.365,2.365,0,0,0-1.671-.878,2.327,2.327,0,0,0-1.743.617l-.408.338a.363.363,0,0,0-.09.447l3.967,7.625a4.09,4.09,0,0,0,3.6,2.263h4.47v0a4.257,4.257,0,0,0,4.107-4.382c0-1.081,0-1.886,0-2.539,0-1.746,0-2.391,0-4.315A1.78,1.78,0,0,0,14.729,42.248Zm1.009,6.129c0,.653,0,1.461,0,2.542a3.541,3.541,0,0,1-3.392,3.659H7.894a3.367,3.367,0,0,1-2.958-1.872L1.1,45.343l.189-.158.014-.013a1.61,1.61,0,0,1,1.209-.434,1.646,1.646,0,0,1,1.161.615L4.787,46.7a.363.363,0,0,0,.643-.23l.007-9.3a1.068,1.068,0,0,1,1.016-1.1,1.068,1.068,0,0,1,1.016,1.1v5.606c0,.019,0,.039,0,.059s0,.017,0,.025v2.4a.363.363,0,1,0,.725,0V42.8a1.017,1.017,0,0,1,.99-1.046h.032a1.059,1.059,0,0,1,1.018,1.093v2.193a.363.363,0,0,0,.725,0V43.315a1,1,0,1,1,1.995,0v1.623a.363.363,0,0,0,.725,0V44.06a1.054,1.054,0,0,1,1.02-1.086h.03a1.052,1.052,0,0,1,1.007,1.092C15.741,45.988,15.74,46.632,15.737,48.377Zm0,0" transform="translate(7889.779 1457.174)" fill="#838e65"/>
  </g>
</svg>
