<svg id="touch" xmlns="http://www.w3.org/2000/svg" width="45" height="45" viewBox="0 0 45 45">
  <g id="Ellipse_88" data-name="Ellipse 88" fill="#fff" stroke="#838e65" stroke-width="2">
    <circle cx="22.5" cy="22.5" r="22.5" stroke="none"/>
    <circle cx="22.5" cy="22.5" r="21.5" fill="none"/>
  </g>
  <g id="arrows" transform="translate(-519 -1384)">
    <path id="Path_1357" data-name="Path 1357" d="M0,0,4.257,3.959,8,0" transform="translate(554.5 1410.5) rotate(-90)" fill="none" stroke="#838e65" stroke-linecap="round" stroke-linejoin="round" stroke-width="2"/>
    <path id="Path_1358" data-name="Path 1358" d="M0,3.958,4.257,0,8,3.958" transform="translate(524.5 1410.5) rotate(-90)" fill="none" stroke="#838e65" stroke-linecap="round" stroke-linejoin="round" stroke-width="2"/>
  </g>
  <g id="hand" transform="translate(-7876 -1480)">
    <path id="Path_1365" data-name="Path 1365" d="M7892.1,1502.365l1.466-.65,1.935,1.582.075-7.8s.519-.846,1.084-.78,1.028,1.07,1.028,1.07v4.267a3.442,3.442,0,0,1,1.272-.734c.485-.048,1.059,1.075,1.059,1.075a1.271,1.271,0,0,1,1.155-.666c.816.028,1.078,1.339,1.078,1.339a1.3,1.3,0,0,1,1.076-.673c.714.015,1.062,1.473,1.062,1.473v4.585s-.284,3.928-3.216,3.928h-3.486a4.5,4.5,0,0,1-3-2.407C7893.686,1505.928,7892.1,1502.365,7892.1,1502.365Z" fill="#838e65"/>
    <path id="Path_1356" data-name="Path 1356" d="M12,40.943h-.025a1.348,1.348,0,0,0-.909.345,1.417,1.417,0,0,0-1.316-.96,1.365,1.365,0,0,0-.975.42,1.4,1.4,0,0,0-1.246-.8H7.5a1.28,1.28,0,0,0-.8.267V36.832a1.453,1.453,0,0,0-1.412-1.484,1.451,1.451,0,0,0-1.408,1.483L3.87,43.549l-.38-.462a1.918,1.918,0,0,0-1.355-.712,1.887,1.887,0,0,0-1.414.5l-.331.274a.294.294,0,0,0-.073.362l3.216,6.182a3.316,3.316,0,0,0,2.92,1.835h3.625v0a3.451,3.451,0,0,0,3.33-3.553c0-.876,0-1.529,0-2.058,0-1.416,0-1.938,0-3.5A1.444,1.444,0,0,0,12,40.943Zm.818,4.97c0,.529,0,1.185,0,2.061a2.871,2.871,0,0,1-2.75,2.967H6.454a2.73,2.73,0,0,1-2.4-1.518L.949,43.452l.153-.128.011-.01a1.305,1.305,0,0,1,.98-.352,1.334,1.334,0,0,1,.941.5l.9,1.1a.294.294,0,0,0,.521-.186l.005-7.539a.866.866,0,0,1,.824-.9.866.866,0,0,1,.824.9v4.545c0,.016,0,.032,0,.048s0,.014,0,.021v1.943a.294.294,0,1,0,.588,0v-2a.824.824,0,0,1,.8-.848h.026a.858.858,0,0,1,.825.887V43.2a.294.294,0,0,0,.588,0v-1.4a.813.813,0,1,1,1.617,0v1.316a.294.294,0,0,0,.588,0v-.713a.854.854,0,0,1,.827-.881H12a.853.853,0,0,1,.817.886C12.817,43.975,12.816,44.5,12.814,45.912Zm0,0" transform="translate(7891.31 1459.062)" fill="#838e65"/>
  </g>
</svg>
