<svg xmlns="http://www.w3.org/2000/svg" xmlns:xlink="http://www.w3.org/1999/xlink" width="39.136" height="32.02" viewBox="0 0 39.136 32.02">
  <defs>
    <style>
      .cls-1, .cls-2 {

      }

      .cls-1 {
        clip-rule: evenodd;
      }

      .cls-3 {
        clip-path: url(#clip-path);
      }

      .cls-4 {
        clip-path: url(#clip-path-2);
      }
    </style>
    <clipPath id="clip-path">
      <path id="Path_273" data-name="Path 273" class="cls-1" d="M61.674-11.054a14.951,14.951,0,0,0,2.215-1.9,14.616,14.616,0,0,0,1.795-2.254,17.089,17.089,0,0,1-2.215.81,12.888,12.888,0,0,1-2.394.453,7.562,7.562,0,0,0,2.184-1.9A7.646,7.646,0,0,0,64.607-18.4a17.952,17.952,0,0,1-2.425,1.175,13.735,13.735,0,0,1-2.661.753,8.091,8.091,0,0,0-2.6-1.836,7.775,7.775,0,0,0-3.261-.7,7.667,7.667,0,0,0-5.686,2.377,7.849,7.849,0,0,0-2.333,5.687c0,.326.009.647.031.964a4.133,4.133,0,0,0,.149.9,20.951,20.951,0,0,1-4.845-.784A24.016,24.016,0,0,1,36.51-11.6a20.687,20.687,0,0,1-3.922-2.588,23.419,23.419,0,0,1-3.348-3.31,8.724,8.724,0,0,0-.779,1.9,7.689,7.689,0,0,0-.3,2.135,7.874,7.874,0,0,0,.985,3.883,8.167,8.167,0,0,0,2.6,2.857,9.012,9.012,0,0,1-1.913-.3A7.161,7.161,0,0,1,28.1-7.744v.119a7.733,7.733,0,0,0,1.856,5.146A8.163,8.163,0,0,0,34.566.32,9.16,9.16,0,0,1,33.49.5a8.9,8.9,0,0,1-1.081.062c-.236,0-.486-.009-.744-.031s-.512-.048-.748-.092a8.007,8.007,0,0,0,2.81,3.975A7.747,7.747,0,0,0,38.4,6.039,16.358,16.358,0,0,1,33.818,8.6a15.468,15.468,0,0,1-5.358.933c-.32,0-.635-.009-.959-.031s-.635-.048-.954-.092a23.2,23.2,0,0,0,5.773,2.65,22.189,22.189,0,0,0,6.553.964,21.992,21.992,0,0,0,9.813-2.109,22.031,22.031,0,0,0,7.152-5.357,23.084,23.084,0,0,0,4.4-7.461,23.449,23.449,0,0,0,1.5-8.064v-.541a2.888,2.888,0,0,0-.061-.541" transform="translate(-26.548 19)"/>
    </clipPath>
    <clipPath id="clip-path-2">
      <path id="Path_272" data-name="Path 272" class="cls-2" d="M-936,915.211H2479.486V-1006H-936Z" transform="translate(936 1006)"/>
    </clipPath>
  </defs>
  <g id="Group_772" data-name="Group 772" class="cls-3" transform="translate(0 0)">
    <g id="Group_771" data-name="Group 771" class="cls-4" transform="translate(-1712.275 -1755.773)">
      <path id="Path_271" data-name="Path 271" class="cls-2" d="M21.548-24H78.472V25.809H21.548Z" transform="translate(1681.833 1770.879)"/>
    </g>
  </g>
</svg>
