<svg xmlns="http://www.w3.org/2000/svg" xmlns:xlink="http://www.w3.org/1999/xlink" width="40.915" height="28.462" viewBox="0 0 40.915 28.462">
  <defs>
    <style>
      .cls-1 {

      }

      .cls-2 {
        clip-path: url(#clip-path);
      }

      .cls-3 {
        clip-path: url(#clip-path-2);
      }
    </style>
    <clipPath id="clip-path">
      <path id="Path_279" data-name="Path 279" class="cls-1" d="M140.755-13.421a5.166,5.166,0,0,0-4.423-4.013A137.742,137.742,0,0,0,121.011-18a137.765,137.765,0,0,0-15.322.565,5.165,5.165,0,0,0-4.421,4.013,43.656,43.656,0,0,0-.721,9.653,43.642,43.642,0,0,0,.713,9.652A5.164,5.164,0,0,0,105.682,9.9,137.644,137.644,0,0,0,121,10.462,137.618,137.618,0,0,0,136.324,9.9a5.166,5.166,0,0,0,4.422-4.013,43.617,43.617,0,0,0,.716-9.652A43.639,43.639,0,0,0,140.755-13.421ZM115.725,2.569v-13.5l13.007,6.773Z" transform="translate(-100.548 18)"/>
    </clipPath>
    <clipPath id="clip-path-2">
      <path id="Path_278" data-name="Path 278" class="cls-1" d="M-936,915.211H2479.486V-1006H-936Z" transform="translate(936 1006)"/>
    </clipPath>
  </defs>
  <g id="Group_776" data-name="Group 776" class="cls-2" transform="translate(0 0)">
    <g id="Group_775" data-name="Group 775" class="cls-3" transform="translate(-1843.913 -1757.552)">
      <path id="Path_277" data-name="Path 277" class="cls-1" d="M95.548-23h58.7V23.251h-58.7Z" transform="translate(1739.471 1771.657)"/>
    </g>
  </g>
</svg>
