<svg xmlns="http://www.w3.org/2000/svg" width="90.147" height="36.067" viewBox="0 0 90.147 36.067"><defs><style>.a{fill:#3D3D3D;fill-rule:evenodd;}</style></defs><path class="a" d="M15.509-36h7.322v19.258c0,3.312-1.418,10.257-11.573,10.257S0-12.956,0-16.586v-3.552H7.085v3.472a3.927,3.927,0,0,0,4.094,4.1c2.677,0,4.33-1.5,4.33-4.025Zm18.658,8.05c5.748,0,10.787,2.209,10.787,12.39H31.333c0,3.236,1.339,4.577,3.7,4.577a3.382,3.382,0,0,0,3.149-1.893h6.692c0,2.919-4.014,6.865-10.077,6.786-6.928,0-10.314-5.128-10.314-10.418S27.476-27.95,34.168-27.95Zm4.094,8.286c0-1.973-1.1-3.867-3.622-3.867-2.44,0-3.306,1.736-3.306,3.867ZM56.055-27.95c5.747,0,10.784,2.209,10.784,12.39H53.22c0,3.236,1.338,4.577,3.7,4.577a3.378,3.378,0,0,0,3.148-1.893h6.693c0,2.919-4.015,6.865-10.077,6.786-6.928,0-10.315-5.128-10.315-10.418S49.363-27.95,56.055-27.95Zm4.093,8.286c0-1.973-1.1-3.867-3.621-3.867-2.442,0-3.307,1.736-3.307,3.867ZM68.562.065V-27.161h6.771v3.1a5.921,5.921,0,0,1,.945-1.526c.459-.551,1.733-2.131,5.118-2.131s8.66,2.368,8.66,10.734c0,6.471-3.15,11.208-8.581,11.208a7.378,7.378,0,0,1-5.118-1.656,4.213,4.213,0,0,1-.945-.95V.065Zm6.692-16.81c-.078,4.026.789,6.156,4.094,6.156s3.779-3.63,3.779-6.392-.629-5.445-4.094-5.445C76.907-22.426,75.333-20.769,75.254-16.744ZM86.891-3.205a1.692,1.692,0,0,0-.507,1.235,1.718,1.718,0,0,0,.5,1.243,1.671,1.671,0,0,0,1.235.516,1.666,1.666,0,0,0,1.233-.516,1.7,1.7,0,0,0,.508-1.243,1.689,1.689,0,0,0-.508-1.235,1.672,1.672,0,0,0-1.233-.514A1.666,1.666,0,0,0,86.891-3.205ZM89.555-.53a1.944,1.944,0,0,1-1.434.6,1.927,1.927,0,0,1-1.43-.6A1.967,1.967,0,0,1,86.1-1.97,1.954,1.954,0,0,1,86.695-3.4a1.95,1.95,0,0,1,1.426-.592,1.959,1.959,0,0,1,1.434.592,1.952,1.952,0,0,1,.592,1.432A1.966,1.966,0,0,1,89.555-.53ZM88.5-2.738a1.014,1.014,0,0,0-.473-.083H87.7v.807h.354a1.071,1.071,0,0,0,.372-.05.345.345,0,0,0,.229-.349A.342.342,0,0,0,88.5-2.738Zm-.42-.352a1.7,1.7,0,0,1,.606.081.555.555,0,0,1,.345.565.487.487,0,0,1-.218.439.874.874,0,0,1-.323.108.541.541,0,0,1,.382.218A.608.608,0,0,1,89-1.335v.164C89-1.12,89-1.064,89-1a.336.336,0,0,0,.02.116l.013.028h-.368a.178.178,0,0,1-.005-.022.14.14,0,0,1-.005-.025l-.007-.07v-.178a.552.552,0,0,0-.21-.512A.96.96,0,0,0,88-1.74H87.7v.879H87.3V-3.09Z" transform="translate(0 36)"/></svg>
